<?xml version="1.0" standalone="no"?>
<!DOCTYPE svg PUBLIC "-//W3C//DTD SVG 1.1//EN" "http://www.w3.org/Graphics/SVG/1.1/DTD/svg11.dtd" >
<svg xmlns="http://www.w3.org/2000/svg">
<metadata></metadata>
<defs>
<font id="utm_centurbold_italic" horiz-adv-x="1251" >
<font-face units-per-em="2048" ascent="1638" descent="-410" />
<missing-glyph horiz-adv-x="569" />
<glyph unicode="&#xd;" horiz-adv-x="571" />
<glyph unicode=" "  horiz-adv-x="569" />
<glyph unicode="&#x09;" horiz-adv-x="569" />
<glyph unicode="&#xa0;" horiz-adv-x="569" />
<glyph unicode="!" horiz-adv-x="606" d="M492 615l-38 -150h-107q9 40 16.5 90t13.5 101q12 59 15 126.5t-1 147.5q-3 59 -12 160l-2 54v50q0 14 1.5 29t2.5 24l9 59q19 91 80 144.5t151 53.5q88 0 129 -55t22 -143l-16 -63l-22 -58l-29 -61l-39 -75q-60 -118 -107 -232q-23 -55 -40 -106.5t-27 -95.5zM146 159 q16 76 85 134.5t147 58.5q51 0 90 -27t56 -71t6 -95q-4 -20 -10.5 -37.5t-18.5 -35.5q-20 -34 -55.5 -62t-72.5 -41q-36 -15 -76 -15q-37 0 -67 13.5t-53.5 41t-31 62.5t0.5 74z" />
<glyph unicode="&#x22;" horiz-adv-x="682" d="M336 856h-95l12 486q7 30 23.5 59.5t41.5 53.5q53 49 108 49q21 0 34 -5q6 -2 14.5 -6.5t15 -10.5t12 -11.5t11 -14.5t8 -14.5t7.5 -19.5q11 -37 2 -80zM795 856h-95l12 486q7 32 23.5 61t41.5 52q51 49 109 49q36 0 63 -22q7 -6 12 -12.5t10.5 -14.5t8 -13.5t7.5 -19.5 q11 -37 2 -80z" />
<glyph unicode="#" horiz-adv-x="1176" d="M1171 640l-41 -192h-209l-161 -448h-182l158 448h-174l-160 -448h-180l158 448h-205l41 192h234l67 192h-202l40 192h227l151 420h179l-150 -420h176l150 420h184l-151 -420h184l-40 -192h-211l-65 -192h182zM872 832h-177l-65 -192h174z" />
<glyph unicode="$" horiz-adv-x="1176" d="M355 199l-7 -4q-9 -8 -12 -19q-6 -28 27 -51q7 -5 18.5 -11t23.5 -11l21 -8l20 -5l51 -9l47 -7l105 498q-125 37 -211 83q-19 9 -38.5 23.5t-34.5 29.5q-29 30 -51 72q-42 82 -15 209q14 64 47 128q19 35 37.5 60.5t20.5 29.5q9 11 24 26q42 47 97.5 85t122.5 65 q10 4 27.5 9t40.5 11l115 23l46 215h112l-46 -213q30 0 47.5 -1.5t54.5 -8.5q23 -4 50 -10t50 -13q100 -30 157.5 -96.5t34.5 -171.5q-15 -75 -75.5 -123.5t-138.5 -48.5q-66 0 -98.5 44t-18.5 111q11 51 57 101l8 8q6 7 9 22q9 42 -47 63q-11 4 -26.5 8.5t-38 8.5t-46.5 4 l-94 -438l51 -16q66 -25 116 -49t88 -49q78 -49 116 -136q18 -42 21 -97.5t-11 -119.5q-44 -208 -230 -336q-19 -13 -37 -23.5t-40 -21.5q-40 -20 -75 -30l-86 -21l-107 -18l-55 -256h-112l55 256q-24 0 -52 3.5t-55.5 9t-54.5 12t-54 16.5q-52 17 -91.5 46t-66.5 65 q-58 76 -33 192q16 76 76.5 129t135.5 53q18 0 38 -4t38 -13q33 -16 49 -50q7 -18 9.5 -36t-2.5 -40q-9 -44 -36 -85q-27 -39 -68 -69zM754 535l-98 -461q51 6 96.5 23.5t89.5 48.5q81 57 101 151q22 102 -28.5 156.5t-160.5 81.5zM723 916l86 407q-47 -5 -86.5 -21.5 t-71.5 -44.5q-65 -56 -84 -147q-17 -81 26 -123q11 -10 23 -19t30 -20q29 -16 77 -32z" />
<glyph unicode="%" horiz-adv-x="1706" d="M1232 0q-124 0 -190.5 74t-39.5 199q20 93 81.5 189.5t148.5 177.5q43 39 90.5 71.5t97.5 56.5q100 48 194 48q28 0 52 -6.5t46 -20.5q22 -11 38 -29t29 -42q17 -33 23 -82q3 -45 -9 -105q-21 -97 -75.5 -188.5t-143.5 -181.5q-84 -84 -162.5 -122.5t-179.5 -38.5z M1309 64q107 0 266 181q60 68 101 145q18 36 32.5 75.5t23.5 81.5q18 87 -13 139q-28 42 -77 42q-68 0 -164 -105q-21 -22 -46 -53t-47 -60q-44 -60 -84 -129q-82 -139 -96 -206q-12 -56 18.5 -83.5t85.5 -27.5zM1559 1442h99l-1183 -1477h-104l1032 1282l-3 5l-10 -11 q-22 -17 -51 -33q-27 -13 -60 -24q-64 -20 -119 -20h-32q-16 3 -36 5t-63 11l-4 -20l-4 -27l-5 -27l-3 -19q-11 -31 -23.5 -61.5t-28.5 -61.5q-32 -60 -73 -117t-92 -103t-108 -81q-116 -71 -248 -71q-26 0 -48 5t-32.5 8.5t-25.5 10.5t-26.5 13.5t-24 16.5t-18 15.5 t-18.5 20.5q-55 72 -29 195q19 90 88 186q29 43 72 89q15 17 38.5 39.5t42.5 38.5q196 169 378 169q60 0 110 -31q27 -18 42 -37t24 -47l4 -7l1 -7q53 -33 140 -33q51 0 105 15q26 7 52 17t55 26q109 57 189 147zM826 1307q-67 -18 -127 -82q-21 -23 -30 -33 q-16 -19 -31 -38l-64 -86q-130 -180 -152 -287q-23 -109 82 -109q64 0 140 44q37 21 72.5 49.5t64.5 59.5q13 14 29 33q12 14 26 32q23 30 41 61l26 52l19 43l20 51l11 40q7 29 6 49t-6 34q-65 34 -96 93l-17 -4z" />
<glyph unicode="&#x26;" horiz-adv-x="1745" d="M702 737q-139 -84 -164 -203q-15 -67 -2 -139q6 -37 18 -71.5t28 -64.5q70 -131 220 -131q34 0 83.5 15t72.5 36l-14 26l-15 25l-15 25l-13 23l-51 91l-40 81q-7 14 -17 38q-16 41 -18 43l-35 95l-15 46zM1054 958q190 74 228 256q17 79 -17 137q-18 28 -46 43 q-30 14 -68 14q-39 0 -71 -13t-58.5 -37.5t-43 -55.5t-24.5 -70q-6 -26 -3 -59.5t15 -80.5l25 -83l28 -66l22 9zM1245 732l21 101h547l-23 -107q-19 0 -37.5 -1.5t-45.5 -6.5t-52.5 -16t-49 -27t-37.5 -32l-43 -51l-63 -81q-22 -29 -45.5 -58t-41.5 -50q-40 -46 -74 -78 q86 -146 170 -146q67 0 117 52q22 24 43 57q8 14 15.5 30.5t16.5 39.5l91 -23q-18 -42 -38 -81.5t-44 -74.5q-44 -69 -98 -115q-109 -96 -275 -96q-22 0 -39.5 2t-41 7.5t-40 11.5t-39.5 18q-17 8 -29 15q-24 13 -45 29q-34 25 -57 55q-209 -138 -473 -138q-207 0 -309 109 q-23 23 -40 57q-16 34 -26 74q-18 83 -2 159q17 81 75.5 163.5t137.5 140.5l32 23l37 23l38 22l37 18l33 16l33 15l38 17l56 24q-52 150 -23 286q25 118 101 208q37 42 84.5 77t100 57.5t111 34.5t119.5 12q160 0 250 -69q12 -10 26 -26l14 -18t14 -23.5t13 -29.5 q8 -29 11 -61q0 -16 -1 -30t-5 -34q-10 -47 -31 -86q-11 -22 -23.5 -39.5t-30.5 -35.5q-31 -33 -70 -63t-82 -52q-83 -45 -190 -82q27 -76 77 -195q25 -55 53 -117.5t62 -131.5q65 69 101 123.5t44 91.5q7 33 -1 55t-31.5 31t-53.5 15q-34 5 -69 5z" />
<glyph unicode="'" horiz-adv-x="494" d="M477 856h-94l14 486q7 32 23.5 61t41.5 52q51 49 106 49q36 0 62 -21.5t37 -60t2 -80.5z" />
<glyph unicode="(" horiz-adv-x="797" d="M1015 1504l-17 -80q-48 -25 -91.5 -59.5t-80.5 -76.5q-32 -36 -68 -86q-14 -20 -26.5 -41t-27.5 -49l-48 -99l-46 -113q-20 -54 -42 -132.5t-44 -181.5q-22 -106 -29.5 -204t-0.5 -189q5 -63 13 -108.5t20 -83.5q23 -73 92 -134l21 -21l19 -14l-17 -82 q-77 44 -137.5 98.5t-109.5 123.5q-96 133 -125 304q-16 87 -13.5 175.5t21.5 180.5q30 139 97 270q17 33 34 62.5t39 62.5q43 64 89 116q52 60 102 107q56 53 114 96q64 48 126 85q72 43 136 73z" />
<glyph unicode=")" horiz-adv-x="797" d="M50 -250l17 82q112 70 180 151q9 11 24.5 32.5t38.5 59.5q33 53 63 116q47 103 83 209.5t61 223.5q6 27 14 76t13 71q8 36 10 55t5 70q8 109 -9 253q-1 14 -3.5 32t-6.5 35q-7 32 -15 51q-15 43 -58 96q-27 38 -61 61l17 80q28 -16 52.5 -33t52.5 -41q56 -49 106 -106 q16 -19 29 -38t26 -43q28 -50 50 -107q45 -121 54 -247t-19 -257q-15 -71 -38.5 -140.5t-55 -132.5t-72.5 -126q-18 -29 -38.5 -56.5t-47.5 -60.5q-43 -51 -101 -107q-26 -26 -53 -49t-60 -48q-62 -48 -122 -85.5t-136 -76.5z" />
<glyph unicode="*" horiz-adv-x="1024" d="M795 1071l-4 -18q75 -49 180 -49l36 -3q16 0 33 -5l16 -6l12 -7q27 -15 35 -51l2 -17l-3 -24q-3 -14 -7 -21l-9 -16q-15 -24 -24 -30q-10 -10 -36 -23q-18 -4 -67 -4q-13 3 -26 10l-25 19q-17 18 -33 54l-16 34l-13 30l-14 26q-8 12 -20 21l-15 11l-19 12l-16 8l-18 -10 q-9 -42 -7 -107l5 -20l6 -23l5 -22l5 -19l7 -31l8 -34l-13 -64q-17 -33 -60 -61q-42 -14 -57 -14q-24 0 -54 18q-32 38 -22 88q8 37 35 78q7 13 24 37t45 61l19 41q10 23 14 39q2 11 3.5 20t-0.5 17l-13 8l-45 -27l-55 -40l-28 -29l-46 -49l-16 -18l-23 -24l-23 -20l-18 -12 q-28 -14 -65 -14q-34 0 -64 37q-15 26 -5 73q6 29 37 58l31 20l32 15l35 7l36 5l37 1l51 3q23 0 53 12.5t65 34.5l6 20q-87 50 -189 50h-16l-16 2l-15 2l-16 2q-15 4 -29 11.5t-21 19.5q-19 36 -11 75q8 40 39 68q35 26 102 26l27 -12q5 -2 12 -7t14 -9l20 -33l23 -50 q25 -60 51 -83l26 -20l25 -11l18 8q11 54 5 107t-31 103l-3 48q-1 17 2 31l5 18l9 17l10 16l14 16q28 32 104 32q18 -3 31 -12q13 -7 21 -22q17 -29 2 -100l-9 -12l-7 -13l-11 -21l-18 -21l-20 -29l-19 -28l-12 -17q-24 -44 -39 -115l19 -8q88 50 137 111l11 12l14 18l13 17 l12 12l5 6l8 7l9 8l6 6l29 17q14 9 21 11q9 5 20 6l24 3q34 0 48 -15q23 -14 30.5 -37.5t0.5 -56.5q-4 -16 -13.5 -29.5t-25.5 -28.5q-27 -24 -65 -36l-31 -8l-40 -4l-53 -2l-35 -5l-41 -8l-15 -4l-17 -9l-21 -12l-16 -10z" />
<glyph unicode="+" horiz-adv-x="1241" d="M635 656l84 397h240l-84 -397h407l-51 -240h-407l-84 -397h-240l84 397h-391l51 240h391z" />
<glyph unicode="," horiz-adv-x="570" d="M55 -387l-36 80q57 36 101.5 69t76.5 61t55.5 63.5t35.5 72.5l-2 6l-1 5h-21q-29 0 -50 4t-49 16q-15 13 -27 31q-3 4 -10 17t-10 21q-7 20 -9 42.5t2 44.5q11 50 48 98q18 24 40 42q15 12 22.5 17.5t24.5 14.5q50 28 105 28q102 0 145 -71.5t22 -173.5q-16 -76 -55 -145 t-100 -126t-138.5 -111.5t-169.5 -105.5z" />
<glyph unicode="-" horiz-adv-x="682" d="M670 368h-512l58 272h512z" />
<glyph unicode="." horiz-adv-x="570" d="M130 159q17 77 85.5 135t147.5 58q51 0 90 -27t55.5 -71t5.5 -95q-4 -20 -10.5 -37.5t-18.5 -35.5q-20 -34 -56 -62q-20 -15 -35 -24t-36 -17q-36 -15 -76 -15q-38 0 -69 14t-53.5 41t-30 62t0.5 74z" />
<glyph unicode="/" horiz-adv-x="570" d="M786 1504h157l-849 -1536h-149z" />
<glyph unicode="0" horiz-adv-x="1121" d="M151 707q31 145 87 265.5t139 219.5q43 52 95 97.5t120 84.5q123 76 242 76q254 0 370 -260q46 -107 48 -219q2 -45 -6 -115.5t-23 -142.5l-1 -6h-352q9 43 19 90q9 46 18 96l27 182q4 49 6 79.5t1 52.5q0 45 -27 92q-28 39 -96 39q-145 0 -225 -269q-13 -39 -23 -77 t-17 -72q-9 -42 -21 -94q-13 -53 -27 -115l-1 -4h-353zM151 707h353q-8 -36 -15 -76q-9 -40 -17 -84q-11 -52 -17 -92q-5 -46 -8 -70l-12 -88q-2 -15 -2 -35.5t-3 -31.5q-2 -55 24 -105.5t103 -50.5q108 0 171 121q11 21 30 71q8 25 16.5 52.5t15.5 60.5l36 131l30 125l7 33 q3 11 5 22q1 12 2 17h352q-63 -293 -236 -492q-59 -64 -103 -100q-68 -52 -112 -74q-52 -28 -117 -45q-55 -17 -125 -17l-61 4q-29 7 -63 19q-60 16 -105 56q-21 17 -39.5 35.5t-34.5 41.5q-34 49 -56 105q-18 42 -29 102q-8 45 -12 115q-2 63 3 124.5t19 125.5z" />
<glyph unicode="1" horiz-adv-x="1176" d="M991 1444h68l-246 -1157l-12 -66q-3 -12 -3.5 -24t-0.5 -23q0 -36 22 -49l9 -3l8 -3l9 -3l8 -3l22 -1l31 -1l31 -2h23h62l-23 -109h-820l23 109h27l38 1l43 2l36 1l34 4l32 6q49 13 77 146l164 770l5 24q2 11 5 22v12l5 40q0 29 -22 42q-11 6 -30 9l-46 4h-148l24 113 l98 3l93 9q50 6 92 16t89 25.5t89 36.5t84 49z" />
<glyph unicode="2" horiz-adv-x="1176" d="M37 8l18 84l26 26q102 107 242.5 236t336.5 296q46 38 77 69q37 35 66 69q64 72 106 146t58 150q23 111 -19 177.5t-151 66.5q-107 0 -184 -54q-69 -47 -78 -90q-2 -11 2 -17l6 -6l7 -5l9 -4l12 -4q126 -51 98 -185q-15 -71 -77.5 -115.5t-137.5 -44.5q-95 0 -134 69.5 t-19 165.5q39 185 230 303q44 27 84.5 46t80.5 31q76 22 176 22q65 0 122.5 -11t107.5 -31q110 -44 165.5 -131.5t28.5 -213.5q-14 -68 -54 -136.5t-105 -138.5l-26 -26l-27 -24l-29 -23l-27 -19l-30 -21l-35 -22l-34 -22l-24 -15l-51 -31l-37 -21l-40 -23l-56 -32l-31 -20 l-27 -17l-22 -13l-15 -9l-113 -68l-102 -68h484q50 0 72.5 10t36.5 31l15 29l22 50l27 60l23 59h105l-158 -535l-43 4l-58 4h-804l-58 -4z" />
<glyph unicode="3" horiz-adv-x="1176" d="M635 684l-31 -4l-35 -3l-24 -1q-72 0 -58 65l7 21l5 12l13 12l21 18q22 9 45 9q15 0 30 -4l31 -9l52 -12l41 -4q87 0 140 90.5t75 196.5q16 74 11 123.5t-31 77.5q-52 56 -118 56q-93 0 -140 -28q-21 -13 -37 -27q-10 -11 -15 -22q-1 -6 4.5 -19t16.5 -28l20 -30 q10 -15 14 -27q12 -25 3 -67q-15 -72 -69 -117.5t-129 -45.5q-81 0 -119 56t-20 139q2 9 5.5 20.5t11.5 29.5t26 45q16 26 42 55q22 25 54 52t72 49t91 41q98 36 228 36q152 0 253 -46q53 -26 86.5 -56t55.5 -72q39 -81 18 -180q-31 -146 -148 -228q-59 -41 -129 -69 t-156 -46v-4q195 0 277 -98q79 -94 42 -266q-42 -198 -253 -323q-34 -19 -80 -36q-21 -7 -45 -13.5t-49.5 -11.5t-55 -9.5t-66.5 -9t-81 -4.5q-124 0 -226 35q-54 17 -93.5 45t-70.5 68q-57 79 -31 201q17 79 79 132t139 53q71 0 115.5 -45t29.5 -117q-10 -47 -36 -82 q-4 -5 -13 -15.5t-17 -17.5l-41 -35q-23 -19 -25 -24q-11 -51 46 -76.5t112 -25.5q127 0 206 93.5t107 226.5q65 304 -131 304h-25t-27 -4z" />
<glyph unicode="4" horiz-adv-x="1176" d="M366 770l689 676h139l-10 -41l-10 -43l-33 -117l-20 -86l-83 -389h-322l55 256l-262 -256h-143zM366 770h143l-264 -258h416l55 258h322l-55 -258h198l-30 -143h-198l-39 -184q-11 -51 29 -64l50 -6l86 -2l-24 -113h-696l24 113h102h11q6 0 20 2.5t22 7.5l7 3l7 3l5 4 l5 4q24 18 37 80l32 152h-553l32 151z" />
<glyph unicode="5" horiz-adv-x="1176" d="M383 210l-14 -7l-7 -3l-11 -8l-10 -9l-4 -6q-10 -44 44.5 -70.5t104.5 -26.5q102 0 175 56q35 26 62.5 61.5t49.5 81.5q15 31 24 54q3 8 13 37q16 53 26 101q19 88 18.5 148.5t-18.5 97.5q-25 50 -67 74.5t-102 24.5q-96 0 -237 -80l-2 -7l-1 -11l-2 -10l-1 -7l-10 -24 l-7 -15q-33 -40 -78 -40q-69 0 -50 89l7 17l13 18l7 6l11 10l12 11l11 8l11 34l16 48l18 52l15 49l91 322l48 169h21q9 0 19 -2l22 -4l90 -12l104 -9l89 -3l124 -1q35 0 56 1q84 4 86 4q31 0 53.5 3.5t57.5 10.5l50 8l31 4l3 -13l-3 -16q-17 -51 -44.5 -94t-67.5 -83 q-76 -71 -175 -108t-202 -37q-73 0 -148.5 9.5t-138.5 25.5l-86 -269l22 11l14 5q129 58 271 58q135 0 237.5 -55t149.5 -160t17 -243q-37 -175 -151 -303.5t-290 -182.5q-56 -16 -112.5 -24t-117.5 -8q-42 0 -84 5.5t-49 6.5q-22 6 -31 8q-85 22 -133 63q-60 47 -83.5 120 t-6.5 154q18 85 84.5 141t151.5 56q74 0 114 -47t25 -120q-21 -97 -125 -145z" />
<glyph unicode="6" horiz-adv-x="1176" d="M556 720l1 4l3 -4q67 72 153 108t188 36q84 0 153 -32q38 -17 64 -40q29 -23 49 -52q11 -16 17 -28q3 -7 14 -32q7 -16 11.5 -32t9.5 -41q6 -37 5 -79t-8 -76q-30 -142 -120.5 -253t-217.5 -170q-64 -30 -134 -45.5t-137 -15.5q-69 0 -125.5 12.5t-104.5 36.5 q-25 14 -45 28t-39 32q-37 35 -61 79q-52 87 -62 204t18 248q22 103 57 204q16 48 38.5 95.5t49.5 93.5q15 26 28 45q6 9 32 45q30 41 70 87q36 40 77.5 77t85.5 67.5t88.5 51.5t93 36.5t95.5 22.5t103 7q48 0 90.5 -6.5t84.5 -21.5q41 -13 72.5 -35.5t56.5 -54.5 q10 -14 17.5 -31.5t11.5 -38.5q6 -39 -4 -87q-19 -91 -81.5 -141.5t-154.5 -50.5q-73 0 -113 46.5t-25 118.5q13 59 68 121q20 21 22 34l2 11l-1 11q-23 29 -83 29q-90 0 -161 -67q-36 -34 -64.5 -72t-53.5 -88q-3 -7 -15 -31.5t-28 -62.5q-8 -19 -21 -57t-13 -39l-6 -18 l-7 -24l-8 -28l-8 -29l-7 -28l-6 -23l-7 -25zM753 720q-111 0 -166 -95q-12 -21 -25 -49.5t-24 -55.5q-21 -57 -35 -124q-14 -64 -16 -116.5t6 -110.5q15 -105 114 -105q174 0 251 359q15 71 15.5 136t-27 113t-93.5 48z" />
<glyph unicode="7" horiz-adv-x="1176" d="M363 826l-105 12l202 606l40 -4l74 -8l91 -8l87 -6l92 -3l99 -2l158 3l72 4l66 4l61 6l57 6l45 5l25 3l-17 -80l-212 -315q-74 -109 -131 -205q-28 -47 -51.5 -91t-49.5 -96q-89 -180 -131 -377l-16 -78l-20 -61l-16 -41q-6 -16 -20 -33l-30 -35q-69 -64 -170 -64 q-18 0 -36.5 4t-25 6t-20.5 8q-41 16 -57 48q-3 7 -7.5 16t-5.5 16q-5 19 -4 32l3 37l7 46q8 35 25.5 76.5t46.5 84.5l57 89q31 44 63 84l68 84l75 87l230 267l157 172l-186 -3l-132 -1l-201 6h-30q-15 -1 -42.5 -5t-41.5 -14q-8 -5 -27 -28l-30 -57l-36 -81z" />
<glyph unicode="8" horiz-adv-x="1176" d="M804 900l98 -25q55 26 94 91t53 129q21 100 -21.5 166.5t-142.5 66.5q-103 0 -179 -51t-97 -149q-10 -47 3.5 -95.5t47.5 -75.5l21 -16l21 -11l21 -8l24 -7l26 -7zM990 838v-2q68 -26 116.5 -64.5t77.5 -86.5q61 -98 29 -247q-32 -151 -130 -257q-50 -53 -109.5 -94 t-126.5 -65q-36 -13 -69.5 -23t-71.5 -17q-75 -14 -146 -14q-67 0 -129.5 8.5t-115.5 25.5q-111 35 -167.5 117.5t-27.5 218.5q17 80 73 145q28 33 61.5 58.5t72 44.5t78 29.5t84.5 15.5q-66 39 -104 93.5t-52 128.5q-6 38 -5.5 72.5t9.5 74.5q30 141 117 240q43 50 96 87.5 t116 62.5q125 50 265 50q176 0 284 -71q58 -41 85.5 -104t11.5 -134q-24 -115 -110.5 -192t-211.5 -101zM754 535l-184 55q-23 -9 -30 -16q-51 -35 -93.5 -108t-56.5 -136q-8 -37 -8 -75q2 -33 11 -64q19 -61 73 -93t132 -32l41 4l70 14q85 21 144 81t78 149q20 97 -29 144 q-24 23 -62 43q-19 9 -39 17.5t-47 16.5z" />
<glyph unicode="9" horiz-adv-x="1176" d="M915 688l-1 -4l-3 4q-138 -144 -338 -144q-112 0 -195 54t-117.5 147.5t-10.5 207.5q22 102 80.5 197t148.5 162q38 27 83 51q19 10 42 19.5t56 21.5q53 18 101 27t90 9q140 0 235.5 -49t151.5 -139q26 -42 43 -96q16 -47 24 -109q13 -115 -16 -249q-25 -116 -62.5 -217 t-85.5 -180q-13 -22 -27 -43.5t-32 -45.5q-27 -38 -72 -89q-36 -42 -76.5 -78.5t-80.5 -64.5q-44 -28 -86 -47q-23 -10 -47 -19q-17 -6 -46.5 -15t-52.5 -14t-53 -9q-52 -8 -96 -8q-154 0 -259 64q-51 31 -70 83t-4 124q6 27 18 54t29 48q18 24 39 41.5t46 29.5 q52 26 107 26q74 0 111.5 -47.5t23.5 -115.5q-6 -29 -23 -63l-5 -6l-4 -7l-6 -8l-3 -5l-19 -21l-20 -25l-9 -13l-4 -12q-5 -24 23.5 -34.5t65.5 -10.5q34 0 66 12t61 33q14 10 29.5 23.5t29.5 27.5q26 27 50 61q30 45 57.5 104.5t49.5 132.5l31 105zM607 976 q-13 -60 -13 -109q-1 -30 1.5 -50t8.5 -44q10 -42 41.5 -63.5t83.5 -21.5q169 0 235 314q13 59 16 115.5t-4 107.5q-14 103 -115 103q-107 0 -180 -132l-26 -52q-5 -10 -11 -24.5t-7 -22.5l-15 -53z" />
<glyph unicode=":" horiz-adv-x="570" d="M146 159q16 76 85 134.5t147 58.5q51 0 90 -27t56 -71t6 -95q-4 -20 -10.5 -37.5t-18.5 -35.5q-20 -34 -55.5 -62t-72.5 -41q-36 -15 -76 -15q-37 0 -67 13.5t-53.5 41t-31 62.5t0.5 74zM282 799q16 76 85 134.5t147 58.5q52 0 91 -27t55.5 -71.5t5.5 -94.5 q-11 -53 -46.5 -96t-85.5 -69q-12 -6 -24.5 -11t-25.5 -8t-25 -5t-26 -2q-75 0 -122 56q-22 26 -29.5 61t0.5 74z" />
<glyph unicode=";" horiz-adv-x="570" d="M71 -387l-36 80l71 47l53 38q46 34 86 80q20 23 34.5 49t23.5 52l-1 5l-1 4l-21 2q-29 0 -50.5 4t-49.5 16q-31 26 -46 69q-7 20 -9.5 42t2.5 45q17 79 87.5 139.5t151.5 60.5q102 0 145.5 -72.5t22.5 -172.5q-33 -155 -156 -271q-65 -61 -139 -113q-36 -26 -80 -53 q-35 -22 -88 -51zM287 799q16 77 86.5 135t150.5 58q53 0 93 -26q21 -14 34.5 -30.5t23.5 -40.5q8 -19 10.5 -43.5t-3.5 -52.5q-3 -16 -6 -25t-12 -25q-9 -22 -28 -44t-40.5 -39.5t-48.5 -31.5q-22 -11 -52 -19q-14 -3 -26.5 -5t-26.5 -2q-76 0 -125 56q-12 14 -19 28.5 t-12 33.5q-7 34 1 73z" />
<glyph unicode="&#x3c;" horiz-adv-x="1241" d="M1194 196l-48 -228l-958 463l43 204l1156 467l-49 -228l-824 -344z" />
<glyph unicode="=" horiz-adv-x="1241" d="M1309 816l-51 -240h-1040l51 240h1040zM1224 416l-51 -240h-1040l51 240h1040z" />
<glyph unicode="&#x3e;" horiz-adv-x="1241" d="M137 196l822 334l-677 344l48 228l957 -467l-44 -204l-1154 -463z" />
<glyph unicode="?" horiz-adv-x="1024" d="M1011 865l-209 -137q-131 -82 -160 -177l-7 -18l-5 -16l-4 -14l-4 -12l-4 -12l-4 -14h-106l14 62l11 43l7 23l8 27l11 25l6 14l7 14l6 11l5 10l11 20l35 46l63 81l70 91q15 21 26.5 38.5t22.5 36t19.5 36t15.5 36.5q14 34 23 74q51 239 -149 239q-27 0 -49 -5t-43 -15 l-11 -7l-7 -4l-5 -3l-6 -4q-5 -3 -10 -26l7 -6l21 -18q25 -23 43 -58q19 -31 10 -75q-16 -73 -75 -121q-31 -23 -65 -35q-35 -11 -72 -11q-90 0 -132.5 54t-24.5 140q8 37 27 72t47.5 66t64.5 59q34 24 75 44q64 32 141 48.5t166 16.5h42q17 0 56 -4t72 -11.5t71 -23.5 q26 -12 41 -21q15 -12 23 -17q58 -42 86 -118q11 -35 14 -73.5t-6 -80.5q-38 -181 -210 -290zM306 157q11 51 45 95q18 24 39.5 41.5t46.5 30.5q16 8 26 12t25 7q23 7 52 7q76 0 120 -57t28 -132q-5 -23 -16 -47.5t-28 -47.5q-35 -45 -82.5 -71.5t-98.5 -26.5q-50 0 -91 26 q-19 12 -35 30q-8 9 -16 22q-3 6 -8 17q-18 44 -7 94z" />
<glyph unicode="@" horiz-adv-x="1530" d="M1197 1123l210 8l-271 -537q-45 -94 -52 -128q-7 -33 7 -53q18 -19 48 -19q65 0 171 69.5t193 196t116 264.5q50 237 -68 388.5t-366 151.5q-212 0 -402 -98t-333 -285t-190 -406q-63 -297 86.5 -485.5t440.5 -188.5q238 0 455.5 128.5t346.5 343.5h53 q-153 -250 -381 -384.5t-486 -134.5q-167 0 -290 51.5t-209 160.5q-169 212 -100 538q74 346 358 579.5t643 233.5q191 0 313.5 -72.5t169 -205.5t8.5 -311q-58 -273 -271 -449q-178 -147 -367 -147q-83 0 -120.5 42.5t-21.5 115.5q6 27 14 48q9 26 30 64 q-138 -168 -213 -219t-141 -51q-62 0 -91.5 51t-9.5 144q32 150 143 311.5t229.5 239t203.5 77.5q47 0 73 -33q23 -33 21 -100zM1063 1093q-32 0 -73 -35q-82 -70 -170.5 -221t-111.5 -263q-10 -46 0 -66t31 -20q23 0 81 45q92 76 173 204t104 240q15 67 3.5 91.5 t-37.5 24.5z" />
<glyph unicode="A" horiz-adv-x="1554" d="M1155 1515l273 -1326q13 -54 36 -76q24 -20 70 -20h54l-20 -93h-694l20 93h65q79 0 110.5 17t37.5 45q4 21 -1 51l-57 274h-552l-81 -125q-49 -78 -57 -116q-14 -63 26 -104.5t122 -41.5h47l-20 -93h-561l20 93h32q54 0 102 34q67 48 116 123l800 1265h112zM915 1141 l-356 -563h470z" />
<glyph unicode="B" horiz-adv-x="1593" d="M400 1479h897q207 0 307 -100t69 -247q-28 -128 -141 -218.5t-318 -141.5q242 -42 329 -138.5t56 -243.5q-28 -130 -123 -222q-68 -66 -213.5 -117t-328.5 -51h-848l20 93h136q32 0 57 21q30 29 39 69l243 1145q6 26 -13 42t-72 16h-115zM788 809h167q170 0 260.5 72 t125.5 238q30 143 -29 204.5t-256 61.5q-95 0 -124 -17t-38 -62zM768 717l-114 -538q-8 -40 4 -64q15 -22 45 -22h192q141 0 238 77t128 226q33 156 -35.5 238.5t-232.5 82.5h-225z" />
<glyph unicode="C" horiz-adv-x="1593" d="M1557 1368l100 147h74l-101 -593h-92q12 253 -81 378.5t-246 125.5q-166 0 -311 -160t-218 -505q-77 -363 6 -542q67 -139 256 -139t348 139q111 98 193 298h90q-84 -252 -277 -399.5t-428 -147.5q-303 0 -463.5 215t-89.5 549q79 372 363 594q241 189 513 189 q109 0 191 -33.5t173 -115.5z" />
<glyph unicode="D" horiz-adv-x="1706" d="M391 1479h796q218 0 360.5 -90.5t201 -262.5t13.5 -384q-47 -221 -166 -383t-310 -260.5t-384 -98.5h-825l20 93h123q43 0 72 24t39 69l236 1114q9 42 -10 65q-19 21 -76 21h-109zM824 93q134 0 255.5 69t194.5 189.5t126 369.5q56 264 31.5 403t-108 200t-267.5 61 q-101 0 -130 -17t-38 -62l-238 -1119q-11 -50 5.5 -72t60.5 -22h108z" />
<glyph unicode="E" horiz-adv-x="1554" d="M385 1479h1288l-81 -517h-88q9 183 -20 263t-98 120.5t-188 40.5h-202q-45 0 -71 -18.5t-33 -51.5l-109 -513h69q119 0 198 68q41 35 75.5 92.5t49.5 126.5h90l-147 -688h-90q18 83 11 143.5t-34 97.5q-52 70 -184 70h-57l-117 -547q-7 -36 10 -51q31 -22 88 -22h178 q181 0 323 117t220 353h90l-142 -563h-1343l20 93h133q45 0 73.5 23t36.5 62l242 1138q7 34 -12.5 52t-80.5 18h-117z" />
<glyph unicode="F" horiz-adv-x="1479" d="M407 1479h1305l-93 -510h-90q25 233 -41.5 325t-246.5 92h-219q-48 0 -74.5 -20t-34.5 -57l-105 -495h80q239 0 336 284h87l-145 -683h-87q22 101 1 173q-18 64 -68 99q-22 17 -54 27t-68 10h-101l-115 -539q-9 -43 10 -63q28 -29 72 -29h140l-20 -93h-783l20 93h131 q42 0 76 24q30 25 38 62l240 1130q9 41 -11.5 59t-96.5 18h-102z" />
<glyph unicode="G" horiz-adv-x="1706" d="M1633 1517h71l-90 -591h-89q-13 263 -110.5 381.5t-245.5 118.5q-115 0 -221 -66.5t-193 -214.5q-41 -70 -76 -171.5t-61 -222.5q-60 -284 -45.5 -419t91 -202t193.5 -67q151 0 258 87.5t138 230.5l28 135q8 36 -7.5 55t-52.5 19h-155l19 91h716l-19 -91h-90 q-49 0 -74 -20q-25 -18 -33 -54l-116 -545h-78l-72 249q-111 -129 -235.5 -189.5t-275.5 -60.5q-200 0 -346 96t-199.5 263t-3.5 401q73 345 332 566t566 221q114 0 196 -33.5t164 -117.5z" />
<glyph unicode="H" horiz-adv-x="1782" d="M425 1479h685l-19 -93h-101q-42 0 -67.5 -18.5t-32.5 -51.5l-103 -485h564l97 460q11 51 -6 73q-8 10 -26 16t-45 6h-86l19 93h686l-19 -93h-92q-55 0 -80.5 -20t-34.5 -62l-237 -1117q-11 -49 6 -72q8 -8 23 -15t37 -7h103l-20 -93h-686l20 93h104q42 0 65 19t32 64 l113 532h-564l-113 -532q-9 -42 5 -62.5t45 -20.5h119l-20 -93h-685l20 93h110q36 0 58.5 19.5t31.5 63.5l237 1115q11 50 -8 72.5t-68 22.5h-86z" />
<glyph unicode="I" horiz-adv-x="909" d="M389 1479h758l-19 -93h-137q-41 0 -66.5 -17.5t-32.5 -51.5l-243 -1145q-9 -39 8 -57q24 -22 74 -22h122l-20 -93h-758l20 93h116q33 0 52.5 4t36.5 16q28 20 37 59l240 1132q9 42 -9 62t-66 20h-132z" />
<glyph unicode="J" horiz-adv-x="1327" d="M834 1479h727l-20 -93h-87q-48 0 -74.5 -22t-36.5 -65l-191 -900q-39 -184 -201 -306.5t-392 -122.5q-213 0 -322 115.5t-77 266.5q25 117 108 190.5t180 73.5q82 0 128 -54.5t29 -136.5q-16 -75 -67 -121.5t-109 -46.5l-35 4l-43 7q-27 0 -40 -11q-13 -9 -18 -33 q-12 -57 38 -100q67 -55 177 -55q120 0 207 80t119 230l195 920q10 45 -7 66t-59 21h-149z" />
<glyph unicode="K" horiz-adv-x="1669" d="M407 1479h733l-19 -93h-120q-55 0 -81.5 -18.5t-35.5 -58.5l-139 -653l608 562q52 48 61 90q7 33 -15 53q-33 25 -91 25h-41l19 93h609l-19 -93h-38q-82 0 -161 -41q-111 -58 -245 -181l-234 -218l277 -756q17 -48 52 -69q24 -14 46 -21t47 -7h58l-20 -93h-726l20 93h74 q59 0 88.5 15t34.5 38q3 13 -3 25l-200 543l-235 -219l-69 -324q-8 -39 8 -59q18 -19 53 -19h134l-20 -93h-724l20 93h105q45 0 72 20t35 58l244 1145q7 33 -10.5 51.5t-65.5 18.5h-105z" />
<glyph unicode="L" horiz-adv-x="1479" d="M380 1386l19 93h759l-19 -93h-128q-51 0 -82 -21q-27 -22 -36 -68l-234 -1100q-14 -63 3 -86q17 -18 95 -18h213q118 0 244 111.5t237 362.5h90l-155 -567h-1301l20 93h130q42 0 69 21.5t36 62.5l240 1131q8 39 -10 58.5t-73 19.5h-117z" />
<glyph unicode="M" horiz-adv-x="2009" d="M378 1479h596l122 -1002l549 1002h609l-19 -93h-132q-45 0 -72 -18q-22 -18 -31 -62l-241 -1130q-9 -42 8 -59q25 -24 76 -24h117l-20 -93h-751l20 93h142q36 0 62.5 21t34.5 62l258 1210l-767 -1386h-88l-171 1398l-230 -1081q-19 -93 26 -151t157 -73l-20 -93h-549 l20 93q103 9 175.5 73t93.5 163l203 956q13 59 -4 80t-76 21h-117z" />
<glyph unicode="N" horiz-adv-x="1706" d="M389 1479h459l586 -1014l146 689q22 102 -23 163q-23 33 -59.5 51t-90.5 18l19 93h540l-19 -93q-116 -12 -177 -67.5t-84 -164.5l-245 -1154h-115l-664 1168l-172 -809q-29 -136 21 -201t144 -65h25l-20 -93h-597l20 93h41q87 0 162 69.5t99 180.5l203 956 q-47 87 -152 87h-66z" />
<glyph unicode="O" horiz-adv-x="1706" d="M1168 1517q211 0 364 -100t215.5 -275t15.5 -395q-70 -333 -334 -555t-588 -222q-216 0 -363 101t-208.5 272.5t-13.5 398.5q72 337 333.5 556t578.5 219zM1154 1421q-117 0 -218.5 -64.5t-185 -211.5t-137.5 -401q-58 -272 -39 -406t94.5 -201t198.5 -67 q177 0 317.5 153t221.5 534q57 268 40 400t-93.5 198t-198.5 66z" />
<glyph unicode="P" horiz-adv-x="1554" d="M441 1479h866q220 0 329 -117.5t73 -289.5q-27 -128 -125 -225.5t-238.5 -142.5t-268.5 -45h-274l-102 -482q-9 -39 9 -62q21 -22 55 -22h170l-20 -93h-788l20 93h132q43 0 70.5 21t36.5 63l239 1127q8 38 -10 60q-8 8 -21 15t-30 7h-142zM822 750h183q96 0 178 40 t127.5 99.5t73.5 190.5q37 178 -43 254q-60 53 -231 53q-100 0 -130 -17q-29 -15 -38 -56z" />
<glyph unicode="Q" horiz-adv-x="1706" d="M1314 109q24 -190 60 -252q24 -42 62 -42q32 0 59 27q10 12 26 44q6 15 11.5 31.5t10.5 37.5h90q-35 -163 -140.5 -258.5t-236.5 -95.5q-128 0 -185.5 84.5t-33.5 305.5q-48 -9 -97 -15t-100 -6q-311 0 -481.5 219t-99.5 555q72 335 331.5 554t579.5 219 q318 0 490 -219.5t104 -543.5q-21 -98 -58 -187.5t-92 -167.5q-104 -152 -300 -290zM1271 350q89 183 139 420q51 240 30 377.5t-97.5 204.5t-191.5 67q-114 0 -218.5 -67.5t-173.5 -191.5q-46 -87 -82 -192t-63 -230q-64 -301 -18 -472q16 74 50 128t89 97q103 81 251 81 q108 0 179 -55t106 -167zM1066 125l14 55q31 147 -11 221.5t-135 74.5q-78 0 -148 -60.5t-89 -149.5q-18 -83 19 -158q70 -39 148 -39q32 0 57 3t51 11q48 12 94 42z" />
<glyph unicode="R" horiz-adv-x="1669" d="M435 1479h772q190 0 296.5 -48t147.5 -133t20 -185q-35 -163 -203 -264q-124 -74 -363 -100q111 -18 165.5 -59.5t84.5 -124.5q39 -105 48 -259q4 -96 18 -121.5t38 -25.5q34 0 66 46t50 129h88q-20 -92 -55 -157.5t-85 -109.5q-89 -80 -223 -80q-92 0 -141.5 39 t-65.5 114q-7 38 -5 214.5t-15 236.5q-15 63 -57 95q-22 16 -47.5 24t-61.5 8h-109l-116 -545q-7 -34 9 -55q26 -25 65 -25h134l-20 -93h-749l20 93h116q44 0 72.5 24.5t37.5 64.5l237 1115q9 44 -7.5 66.5t-54.5 22.5h-126zM817 808h125q165 0 280 85q86 65 118 219 q31 142 -26.5 207.5t-232.5 65.5q-91 0 -120.5 -20.5t-44.5 -91.5z" />
<glyph unicode="S" horiz-adv-x="1366" d="M1304 1366l121 132h71l-100 -511h-90q-23 217 -129 328t-262 111q-133 0 -232 -72.5t-120 -173.5q-13 -60 9.5 -108.5t87 -85t243.5 -75.5q205 -45 280 -81q116 -56 161.5 -152.5t16.5 -233.5q-44 -204 -211 -327q-201 -147 -452 -147q-231 0 -388 161l-148 -146h-73 l116 548h87q32 -469 433 -469q161 0 269.5 75t132.5 189q17 79 -11.5 132.5t-106.5 86.5q-41 18 -215 57q-232 54 -324.5 110.5t-124 142.5t-7.5 203q43 199 205.5 328t391.5 129q219 0 369 -151z" />
<glyph unicode="T" horiz-adv-x="1479" d="M415 1479h1293l-86 -562h-91q4 90 -2 160q-3 34 -8 64t-13 57q-28 98 -86.5 142t-134.5 44q-45 0 -70 -18.5t-32 -53.5l-243 -1144q-4 -18 -2.5 -30t10.5 -25q18 -20 46 -20h168l-20 -93h-791l20 93h160q37 0 62 20.5t32 54.5l242 1138q8 37 -10 59q-18 19 -63 19 q-255 0 -444 -467h-88z" />
<glyph unicode="U" horiz-adv-x="1706" d="M377 1479h744l-20 -93h-151q-29 0 -55 -22q-22 -21 -31 -65l-174 -818q-37 -173 35.5 -265.5t234.5 -92.5q117 0 226 51q76 36 142 125.5t94 218.5l133 628q26 120 -15 180t-131 60h-22l20 93h564l-20 -93h-39q-85 0 -146.5 -67t-82.5 -164l-145 -681 q-47 -224 -230.5 -364t-448.5 -140q-95 0 -175.5 15.5t-144.5 46.5q-127 63 -165.5 162.5t-4.5 259.5l177 831q12 57 -5.5 79t-74.5 22h-109z" />
<glyph unicode="V" horiz-adv-x="1554" d="M291 1479h724l-20 -93h-79q-82 0 -111.5 -15.5t-34.5 -42.5q-6 -25 6 -80l179 -896l467 765q10 17 19.5 35t22.5 47.5t19 60.5q13 60 -16.5 93t-105.5 33h-67l20 93h572l-20 -93h-43q-54 0 -105.5 -37t-113.5 -137l-768 -1244h-120l-263 1307q-13 65 -43.5 88t-107.5 23 h-31z" />
<glyph unicode="W" horiz-adv-x="2009" d="M242 1479h595l-20 -93h-56q-53 0 -74 -12.5t-27 -37.5q-4 -19 -1 -41l108 -873l418 762l-17 127q-4 37 -27 55q-30 20 -83 20h-72l20 93h685l-20 -93h-63q-69 0 -97 -15.5t-34 -47.5q-4 -15 -1 -28l106 -873l409 769q19 35 26 68q12 58 -13 92.5t-78 34.5h-42l20 93h482 l-20 -93q-78 0 -136 -38q-52 -33 -91 -105l-680 -1270h-123l-128 1038l-569 -1038h-122l-168 1338q-3 42 -25 58q-19 17 -55 17h-47z" />
<glyph unicode="X" horiz-adv-x="1479" d="M238 1479h732l-19 -93h-55q-75 0 -102 -12.5t-32 -35.5q-5 -26 24 -83l175 -339l245 237q81 79 95 146q9 40 -12.5 63.5t-72.5 23.5h-46l19 93h582l-19 -93h-44q-55 0 -103 -23q-14 -7 -25.5 -13.5t-26.5 -18.5q-25 -19 -63 -54l-479 -453l351 -653q25 -47 51 -62.5 t64 -15.5h49l-20 -93h-721l20 93h76q55 0 82 17.5t33 44.5q5 23 -20 59l-7 14l-195 374l-290 -282q-59 -58 -73 -123q-10 -48 10 -73q28 -31 76 -31h56l-20 -93h-609l20 93h38q46 0 103 29q94 48 152 106l487 463l-335 618q-25 45 -49.5 61t-64.5 16h-56z" />
<glyph unicode="Y" horiz-adv-x="1479" d="M305 1479h736l-20 -93h-102q-55 0 -78 -14q-24 -12 -28 -35q-6 -24 5 -57l196 -530l307 430q38 53 48 98q11 50 -18 79t-100 29h-45l20 93h572l-20 -93q-97 0 -165.5 -38t-129.5 -122l-422 -587l-99 -465q-8 -39 9 -61q19 -20 67 -20h153l-20 -93h-810l20 93h152 q52 0 77 19.5t34 61.5l88 413l-252 685q-22 67 -61 90q-37 24 -102 24h-32z" />
<glyph unicode="Z" horiz-adv-x="1366" d="M488 1479h1088l-19 -93l-1104 -1293h377q98 0 179 43.5t155 139.5t146 280h91l-146 -556h-1171l20 93l1100 1293h-283q-170 0 -287 -94.5t-202 -326.5h-87z" />
<glyph unicode="[" horiz-adv-x="797" d="M575 1479h501l-20 -93h-147q-40 0 -65 -21q-11 -10 -22.5 -31.5t-17.5 -48.5l-313 -1471q-9 -44 10 -64q24 -27 74 -27h128l-20 -93h-501z" />
<glyph unicode="\" horiz-adv-x="1241" d="M348 1479h189l670 -1479h-189z" />
<glyph unicode="]" horiz-adv-x="797" d="M357 1479h494l-392 -1844h-503l20 95h149q40 0 69 26t39 71l315 1484q8 36 -8 53q-24 22 -69 22h-134z" />
<glyph unicode="^" horiz-adv-x="1241" d="M541 761h-202l564 718h66l258 -718h-210l-150 418z" />
<glyph unicode="_" horiz-adv-x="1024" d="M-44 -154h1048l-22 -102h-1048z" />
<glyph unicode="`" horiz-adv-x="682" d="M801 1141l-31 -25l-260 129q-67 33 -87 60q-17 28 -9 66q9 42 52 76t88 34q41 0 72 -22.5t71 -99.5z" />
<glyph unicode="a" d="M1200 116l27 -72q-68 -41 -123 -58q-29 -8 -54.5 -12t-54.5 -4q-84 0 -129 35.5t-70 138.5q-120 -97 -211.5 -135.5t-191.5 -38.5q-141 0 -206 65t-44 165q32 150 198 242q132 72 543 144l29 135q17 80 -25.5 130.5t-131.5 50.5q-71 0 -126 -29q-39 -18 -43 -38 q-2 -10 7 -30t11 -45q1 -11 1 -21t-3 -23q-12 -54 -56.5 -89.5t-106.5 -35.5q-66 0 -98 37.5t-19 96.5q20 96 141 171q151 92 346 92q148 0 251 -46q65 -27 96 -101.5t8 -178.5l-101 -475q-11 -55 4 -78.5t50 -23.5q29 0 82 31zM866 499q-218 -27 -307.5 -88.5 t-110.5 -160.5q-15 -69 13.5 -107t90.5 -38q99 0 179.5 71t106.5 194z" />
<glyph unicode="b" horiz-adv-x="1327" d="M369 1480l435 21l-147 -693q95 96 184.5 138t185.5 42q176 0 264 -134t39 -362q-50 -239 -216 -385.5t-373 -146.5q-107 0 -185 41.5t-129 129.5q-29 -34 -80 -78q-28 -25 -52.5 -44.5t-65.5 -48.5l-50 31q36 87 67 183.5t50 189.5l184 864q16 75 7 107t-32 45 q-16 9 -105 9zM876 845q-58 0 -116 -39t-101.5 -116t-77.5 -238q-46 -217 -8 -306.5t128 -89.5q93 0 181 99.5t131 299.5q42 201 -1.5 295.5t-135.5 94.5z" />
<glyph unicode="c" horiz-adv-x="1139" d="M1081 338l70 -37q-93 -156 -240 -245q-68 -41 -151.5 -63.5t-168.5 -22.5q-235 0 -341.5 129.5t-59.5 348.5q49 234 239 387t450 153q187 0 270 -76t60 -182q-16 -78 -68 -123.5t-125 -45.5q-64 0 -92 35.5t-16 92.5q10 49 64 114q19 22 25 38q4 20 -23 36 q-42 25 -110 25q-129 0 -209 -84q-103 -112 -150 -336q-48 -223 10.5 -315.5t183.5 -92.5q98 0 198.5 65.5t183.5 198.5z" />
<glyph unicode="d" horiz-adv-x="1366" d="M983 1483l468 18l-260 -1224q-19 -91 -14.5 -123.5t28.5 -50.5q23 -14 97 -14l-19 -89l-387 -12l11 182q-112 -114 -192.5 -152.5t-186.5 -38.5q-190 0 -284.5 129.5t-47.5 349.5q52 244 210 387t348 143q102 0 171 -43.5t115 -145.5l91 426q16 78 9.5 110t-29.5 44.5 t-93 12.5h-55zM818 859q-113 0 -195 -102q-64 -83 -103 -264q-16 -76 -22 -132.5t0 -93.5q10 -76 50.5 -111.5t103.5 -35.5q99 0 182 87q108 115 145 292q35 163 -16 261.5t-145 98.5z" />
<glyph unicode="e" horiz-adv-x="1176" d="M1165 462h-657q-21 -100 -16 -170q2 -37 9.5 -66.5t23.5 -54.5q57 -93 177 -93q43 0 84 11t87 36q86 48 197 175l64 -45q-115 -149 -240.5 -214t-281.5 -65q-117 0 -201.5 34.5t-141.5 105.5q-111 140 -64 359q46 220 220.5 366.5t382.5 146.5q145 0 234 -58t124 -174 q18 -58 17 -132q0 -39 -4 -76.5t-14 -85.5zM527 552h313q44 0 67.5 22t36.5 80q24 116 -15.5 179.5t-121.5 63.5q-96 0 -167 -86q-36 -44 -65.5 -108.5t-47.5 -150.5z" />
<glyph unicode="f" horiz-adv-x="797" d="M717 936h240l-23 -108h-240l-142 -666q-8 -39 4 -54t51 -15h165l-20 -93h-676l20 93h97q43 0 63.5 15t28.5 54l142 666h-161l23 108h161l8 38q40 186 119.5 306t191.5 178.5t254 58.5q136 0 195 -65t38 -162q-16 -77 -72.5 -126.5t-118.5 -49.5q-59 0 -91 39t-20 95 t82 103q34 21 37 38q3 11 -10 23q-20 14 -58 14q-48 0 -97.5 -30t-82.5 -88q-47 -85 -66 -176z" />
<glyph unicode="g" d="M1069 936q151 143 269 143q61 0 89 -35t16 -90q-10 -49 -44 -78.5t-76 -29.5q-56 0 -72 63q-6 38 -29 38q-27 0 -89 -59q85 -108 59 -230q-19 -91 -86 -167t-179.5 -122.5t-269.5 -46.5l-107 2q-117 0 -166 -25t-56 -61q-7 -31 16 -49q14 -8 42 -16q28 -6 66 -6l92 3 q18 0 69 2q50 2 61 2l91 4q231 0 309 -66.5t53 -182.5q-29 -138 -153 -225q-150 -104 -469 -104q-269 0 -367 63t-80 148q11 53 66.5 92.5t215.5 75.5q-95 20 -135 68t-23 124q14 70 60 116.5t155 85.5q-81 49 -113 120t-14 156q20 94 86 169t184 122.5t268 47.5 q76 0 138 -12.5t123 -39.5zM784 900q-69 0 -132.5 -64.5t-89.5 -185.5q-24 -116 10.5 -178.5t107.5 -62.5q68 0 132.5 63.5t89.5 180.5t-11 182t-107 65zM950 -163q11 56 -48 86q-47 19 -196 19q-140 0 -232 -9t-137 -29q-89 -38 -101 -95q-12 -54 45 -90.5t230 -36.5 q231 0 341 53q85 41 98 102z" />
<glyph unicode="h" horiz-adv-x="1403" d="M388 1479l447 22l-155 -728q125 122 221.5 168.5t196.5 46.5q138 0 196 -85q63 -98 25 -277l-94 -444q-9 -42 6 -68q17 -21 57 -21h65l-20 -93h-565l20 93h61q51 0 73 19q30 25 40 70l92 436q20 91 -18.5 148t-114.5 57q-93 0 -178.5 -79t-114.5 -215l-73 -347 q-9 -43 6 -67q18 -22 58 -22h68l-20 -93h-582l20 93h81q42 0 69.5 24t36.5 65l234 1101q10 48 -15 75.5t-75 27.5h-67z" />
<glyph unicode="i" horiz-adv-x="758" d="M685 1476q64 0 103.5 -47.5t24.5 -115.5q-14 -65 -73 -116q-59 -47 -125 -47q-65 0 -104 48.5t-25 114.5q14 65 72.5 114t126.5 49zM313 936l420 19l-169 -795q-6 -30 9 -50q19 -17 60 -17h63l-20 -93h-562l20 93h62q50 0 75.5 23t37.5 80l115 542q10 49 -14 78t-74 29 h-42z" />
<glyph unicode="j" horiz-adv-x="721" d="M675 1481q64 0 103.5 -47.5t25.5 -115.5q-14 -65 -73 -116q-59 -47 -125 -47q-68 0 -106 47.5t-23 115.5q13 65 71.5 114t126.5 49zM297 936l427 27l-182 -856q-27 -126 -115.5 -246.5t-199.5 -187.5t-213 -67q-80 0 -117 40.5t-24 102.5q13 58 54 92.5t96 34.5 q38 0 55.5 -18.5t20.5 -77.5t36 -59q24 0 52 30q26 33 39 97l191 896q11 51 -11.5 78.5t-67.5 27.5h-59z" />
<glyph unicode="k" horiz-adv-x="1366" d="M374 1488l445 13l-218 -1027l324 223q78 54 85 91q5 20 -18 40q-23 18 -83 18h-33l19 90h545l-19 -90q-41 0 -77.5 -5.5t-63.5 -16.5q-71 -26 -143 -76l-186 -131l246 -469q32 -55 90 -55h50l-20 -93h-588l20 93h58q42 0 59 8.5t23 22.5q3 11 -5 24l-158 313l-149 -101 l-40 -186q-9 -41 5 -62q15 -19 55 -19h65l-20 -93h-574l20 93h71q48 0 78 24t41 75l240 1128q7 36 -12 57t-62 21h-89z" />
<glyph unicode="l" horiz-adv-x="721" d="M387 1479l443 22l-283 -1331q-8 -37 11 -57t62 -20h59l-20 -93h-563l20 93h64q41 0 70 24q27 25 37 71l232 1093q11 51 -11 78q-11 14 -29 21t-41 7h-70z" />
<glyph unicode="m" horiz-adv-x="1972" d="M1987 93l-20 -93h-563l20 93h58q50 0 77.5 21t36.5 65l87 407q23 112 -10.5 166.5t-118.5 54.5q-66 0 -121.5 -30t-106.5 -103t-65 -140l-79 -367q-7 -36 10 -55t49 -19h77l-20 -93h-575l20 93h64q52 0 73 17q28 21 37 63l89 422q22 101 -16 157t-115 56 q-61 0 -117.5 -30.5t-108 -96.5t-63.5 -119l-78 -367q-11 -56 4 -76q23 -26 71 -26h55l-20 -93h-578l20 93h66q53 0 77.5 19.5t34.5 66.5l120 563q8 37 -1.5 58.5t-38.5 36.5q-21 9 -92 9l19 90l390 21q1 -41 0 -63t-4 -65.5t-11 -78.5q120 120 221 169.5t203 49.5 q110 0 171.5 -55t74.5 -172q121 125 226.5 177t205.5 52q140 0 204 -90q32 -45 39.5 -108t-10.5 -146l-95 -448q-10 -46 6 -66q9 -10 24 -15t36 -5h61z" />
<glyph unicode="n" horiz-adv-x="1403" d="M1367 93l-20 -93h-563l20 93h59q45 0 74 24t39 70l86 406q22 102 -13.5 158.5t-112.5 56.5q-105 0 -188 -78.5t-115 -229.5l-66 -313q-10 -46 8.5 -70t55.5 -24h71l-20 -93h-584l20 93h76q42 0 70.5 24.5t38.5 69.5l118 557q10 46 -16.5 75.5t-79.5 29.5h-40l19 87 l394 21q1 -9 -1 -52q-1 -19 -1 -38q-2 -52 -9 -115q104 111 211 166t207 55q138 0 199.5 -94t26.5 -258l-92 -434q-11 -50 8.5 -72t67.5 -22h52z" />
<glyph unicode="o" d="M827 988q159 0 275 -67t156.5 -178.5t8.5 -263.5q-53 -246 -248.5 -377.5t-407.5 -131.5q-150 0 -259.5 66.5t-153.5 182.5q-19 54 -23 120.5t11 138.5q46 216 229 363t412 147zM813 893q-104 0 -185.5 -92.5t-129.5 -320.5q-51 -238 -10.5 -329t146.5 -91q104 0 190 93 t134 321q50 234 6.5 326.5t-151.5 92.5z" />
<glyph unicode="p" horiz-adv-x="1366" d="M296 931l386 24q2 -45 -0.5 -94t-10.5 -89q79 95 183.5 147.5t215.5 52.5q178 0 264 -130t36 -364q-34 -161 -112.5 -275.5t-189 -173.5t-236.5 -59q-102 0 -171.5 45.5t-118.5 150.5l-71 -335q-14 -66 -9 -84t32 -28l39 -8q25 -3 68 -3l-20 -96h-565l20 96h30 q51 0 71 9.5t37 32.5q12 21 25 81l188 886q14 65 9 86t-25 31q-11 6 -33 9l-59 4zM915 832q-96 0 -184 -93q-43 -46 -75 -114t-51 -158q-38 -176 14 -270.5t143 -94.5q88 0 162 81q95 107 134 288q35 165 -2 263t-141 98z" />
<glyph unicode="q" horiz-adv-x="1327" d="M1307 992l55 -30l-23 -54q-50 -123 -72 -226l-177 -835q-16 -73 -10 -93q4 -22 28 -33q11 -5 38 -9l68 -4l-20 -96h-582l20 96h31h26q14 0 33 2q11 0 17 1.5t19 7.5q23 9 39 29.5t30 83.5l71 336q-85 -95 -183 -146.5t-197 -51.5q-117 0 -201 58t-117.5 172t-4.5 252 q32 148 125 275t217 194t261 67q97 0 174 -37t150 -127q38 42 82.5 82.5t102.5 85.5zM841 895q-102 0 -193 -98q-42 -47 -77.5 -123t-56.5 -178q-39 -184 8.5 -280t139.5 -96q57 0 117 39t113 130q21 40 43 101t37 129q40 188 -3.5 282t-127.5 94z" />
<glyph unicode="r" horiz-adv-x="1063" d="M761 93l-20 -93h-654l20 93h81q50 0 77 19.5t34 52.5l118 554q14 66 -10 97.5t-79 31.5h-53l19 88l404 21l-64 -305q36 81 76 136t96 99q105 82 213 82q94 0 137 -48.5t26 -128.5q-7 -33 -21.5 -60.5t-39.5 -48.5q-45 -41 -100 -41q-46 0 -73.5 36.5t-15.5 91.5 q6 31 30 65q13 18 15 27q3 12 -2 18t-19 9q-34 0 -88 -42q-80 -65 -154 -202.5t-104 -277.5l-43 -202q-7 -34 7 -53t50 -19h137z" />
<glyph unicode="s" horiz-adv-x="1024" d="M935 908l82 79h61l-48 -320h-81q-37 126 -102.5 178t-174.5 52q-92 0 -149.5 -36.5t-69.5 -90.5q-11 -54 20 -81.5t195 -63.5q148 -30 194 -52q87 -39 126 -117q19 -39 23.5 -83t-6.5 -96q-27 -128 -151.5 -217.5t-292.5 -89.5q-86 0 -146 20q-63 18 -122 68l-89 -84h-76 l57 354h83q48 -268 307 -268q106 0 171 41t77 98q11 52 -19 78q-26 26 -176 59t-207 57q-91 38 -128 107.5t-16 168.5q29 137 141.5 228t268.5 91q73 0 132 -18q25 -8 57 -24q20 -11 30 -17t29 -21z" />
<glyph unicode="t" horiz-adv-x="872" d="M668 1321h90l-82 -385h309l-23 -108h-309l-126 -595q-12 -56 10 -92q23 -32 72 -32q70 0 123 66t81 195h90q-16 -73 -37.5 -124.5t-54.5 -99.5q-57 -84 -145 -130t-182 -46q-83 0 -137 32.5t-77 102t-6 147.5l122 576h-166l20 92q155 19 259 115t169 286z" />
<glyph unicode="u" horiz-adv-x="1403" d="M281 936l423 24l-132 -624q-19 -88 17.5 -138t111.5 -50q103 0 186 84.5t107 196.5l65 306q11 53 -14 81.5t-75 28.5h-46l19 91l427 24l-161 -758q-10 -49 14 -80q26 -29 78 -29h43l-20 -93l-389 -12l2 107q2 26 5.5 52.5t9.5 54.5q-119 -120 -222 -171.5t-199 -51.5 q-95 0 -151 38.5t-79 127.5q-10 45 -9.5 96t14.5 116l79 372q13 60 -12.5 88t-110.5 28z" />
<glyph unicode="v" d="M242 936h559l-19 -89h-46q-55 0 -78 -14t-28 -40q-6 -27 7 -68l145 -445l298 416l18 30l11 32q19 89 -123 89l19 89h409l-19 -89q-54 -6 -89.5 -26t-70.5 -68l-559 -786h-72l-263 795q-18 53 -37 69t-56 16h-25z" />
<glyph unicode="w" horiz-adv-x="1821" d="M302 936h483l-19 -88h-28q-46 0 -66 -12.5t-25 -32.5q-3 -14 1 -29l104 -433l255 403q-22 74 -45 89q-20 15 -80 15l19 88h524l-19 -88h-31q-49 0 -69 -14q-21 -12 -25 -35q-3 -14 -3 -27t5 -28l99 -403l243 391q10 17 14 36q7 34 -8.5 57t-48.5 23h-38l19 88h373 l-19 -88q-113 0 -192 -128l-462 -752h-75l-152 646l-400 -646h-76l-186 806q-11 43 -29 57q-18 17 -62 17z" />
<glyph unicode="x" d="M278 936h554l-19 -87h-40q-36 0 -52 -9q-14 -9 -19 -25q-3 -16 4 -27l107 -186l150 130q41 37 47 62q5 24 -12 38q-23 17 -75 17h-21l19 87h430l-19 -87q-30 0 -55 -7q-12 -3 -25.5 -7t-28.5 -10q-42 -18 -106 -73l-261 -221l208 -361q28 -48 67 -66q26 -11 89 -11 l-20 -93h-592l20 93h55q32 0 50 9t21 22q3 12 -7 35l-110 194l-173 -147q-26 -21 -31 -47q-6 -27 11 -48q17 -18 52 -18h45l-20 -93h-452l20 93h36q78 0 180 85l291 245l-202 344q-32 54 -54 67q-8 6 -31 10t-29 5h-21z" />
<glyph unicode="y" d="M267 936h553l-18 -86h-53q-48 0 -71 -14t-28 -36q-5 -27 5 -57l137 -454l283 411q6 10 16 27.5t13 34.5q8 37 -16 64q-25 24 -83 24h-29l18 86h407l-18 -86q-56 0 -101 -27q-36 -22 -79 -80l-539 -781q-135 -200 -263 -291q-96 -68 -196 -68q-104 0 -154.5 52t-34.5 125 q11 54 55 92q45 35 97 35q55 0 82.5 -34.5t16.5 -86.5l-5 -18l-11 -25l-9 -23q-5 -24 21 -24q43 0 128.5 73.5t203.5 238.5l-236 768q-12 40 -32 58l-23 12l-29 4h-26z" />
<glyph unicode="z" horiz-adv-x="1100" d="M376 936h809l-19 -90l-719 -753h264q86 0 155.5 62t129.5 219h88l-98 -374h-874l20 93l718 753h-221q-74 0 -138 -56.5t-118 -197.5h-89z" />
<glyph unicode="{" horiz-adv-x="797" d="M236 538l13 62q93 15 157 72t79 128q11 48 9 157l3 121q0 23 2 41.5t5 33.5q19 87 92.5 175t182.5 141q41 19 108.5 34t141.5 15l-11 -50q-103 -18 -157.5 -67t-71.5 -126q-9 -45 -7 -150v-61q-1 -20 -2 -49t-3 -48t-6 -37q-26 -121 -138 -219.5t-303 -144.5 q344 -87 281 -382l-8 -39l-9 -24l-12 -30q-7 -19 -12 -30.5t-20 -39.5q-52 -116 -62 -162q-17 -84 13 -126q39 -53 134 -69l-10 -49q-176 0 -292 97.5t-82 258.5q12 54 77 207q49 116 58 159q14 67 -24.5 122.5t-125.5 78.5z" />
<glyph unicode="|" horiz-adv-x="1241" d="M841 1479h189l-397 -1867h-189z" />
<glyph unicode="}" horiz-adv-x="797" d="M803 597l-13 -62q-94 -18 -158 -74t-79 -127q-10 -48 -9 -157l-2 -121q-1 -23 -3 -41.5t-5 -33.5q-21 -100 -109 -194t-203 -138q-42 -15 -95 -24q-23 -4 -54.5 -7t-63.5 -3l11 51q106 18 159 67t70 126q9 45 8 150l1 115q2 25 3.5 43.5t5.5 37.5q25 118 137.5 217 t304.5 146q-126 34 -191 88.5t-88 125t-2 168.5l16 61l44 101q52 117 62 163q17 81 -13 125q-39 53 -134 69l10 49q125 0 224.5 -51.5t134 -132t15.5 -171.5q-13 -63 -76 -207q-52 -125 -59 -159q-15 -70 24 -124t127 -76z" />
<glyph unicode="~" horiz-adv-x="1241" d="M1295 855h65q-18 -84 -53 -147.5t-88 -110.5q-97 -89 -214 -89q-53 0 -113.5 18t-246.5 102q-135 61 -200 61q-140 0 -210 -180h-64q18 85 54.5 151.5t84.5 109.5q96 86 213 86q57 0 119 -18q99 -28 241 -101q81 -37 132 -55l29 -6l37 -2q71 0 128.5 46.5t85.5 134.5z " />
<glyph unicode="&#xa8;" horiz-adv-x="1024" />
<glyph unicode="&#xa9;" horiz-adv-x="1772" />
<glyph unicode="&#xae;" horiz-adv-x="1770" />
<glyph unicode="&#xb4;" horiz-adv-x="1024" />
<glyph unicode="&#xb6;" horiz-adv-x="1024" d="M1234 1435l-15 -70h-127l-290 -1365h-82l290 1365h-166l-290 -1365h-84l157 738q-172 8 -253.5 102.5t-49.5 245.5q33 157 161 253t306 96h443z" />
<glyph unicode="&#xbc;" horiz-adv-x="1780" />
<glyph unicode="&#xbd;" horiz-adv-x="1780" />
<glyph unicode="&#xbe;" horiz-adv-x="1780" />
<glyph unicode="&#xc0;" horiz-adv-x="1554" d="M1155 1515l273 -1326q13 -54 36 -76q24 -20 70 -20h54l-20 -93h-694l20 93h65q79 0 110.5 17t37.5 45q4 21 -1 51l-57 274h-552l-81 -125q-49 -78 -57 -116q-14 -63 26 -104.5t122 -41.5h47l-20 -93h-561l20 93h32q54 0 102 34q67 48 116 123l800 1265h112zM915 1141 l-356 -563h470zM1328 1694l-10 -17l-259 129q-67 33 -87 60q-17 28 -9 66q9 42 52 76t88 34q41 0 71.5 -22.5t70.5 -99.5z" />
<glyph unicode="&#xc1;" horiz-adv-x="1554" d="M1155 1515l273 -1326q13 -54 36 -76q24 -20 70 -20h54l-20 -93h-694l20 93h65q79 0 110.5 17t37.5 45q4 21 -1 51l-57 274h-552l-81 -125q-49 -78 -57 -116q-14 -63 26 -104.5t122 -41.5h47l-20 -93h-561l20 93h32q54 0 102 34q67 48 116 123l800 1265h112zM915 1141 l-356 -563h470zM961 1666l-23 23l211 231q100 110 181 110q45 0 74.5 -33.5t21.5 -70.5q-8 -39 -39.5 -68.5t-136.5 -73.5z" />
<glyph unicode="&#xc2;" horiz-adv-x="1554" d="M1155 1515l273 -1326q13 -54 36 -76q24 -20 70 -20h54l-20 -93h-694l20 93h65q79 0 110.5 17t37.5 45q4 21 -1 51l-57 274h-552l-81 -125q-49 -78 -57 -116q-14 -63 26 -104.5t122 -41.5h47l-20 -93h-561l20 93h32q54 0 102 34q67 48 116 123l800 1265h112zM915 1141 l-356 -563h470zM1080 2026h297l103 -376h-36l-249 219l-342 -219h-36z" />
<glyph unicode="&#xc3;" horiz-adv-x="1554" d="M1155 1515l273 -1326q13 -54 36 -76q24 -20 70 -20h54l-20 -93h-694l20 93h65q79 0 110.5 17t37.5 45q4 21 -1 51l-57 274h-552l-81 -125q-49 -78 -57 -116q-14 -63 26 -104.5t122 -41.5h47l-20 -93h-561l20 93h32q54 0 102 34q67 48 116 123l800 1265h112zM915 1141 l-356 -563h470zM1524 1970h27q-13 -58 -41.5 -105.5t-71.5 -84.5q-81 -72 -166 -72q-32 0 -71 9q-11 2 -24.5 6t-29.5 11l-97 37q-63 25 -93 25q-79 0 -135 -89h-23q41 127 117.5 192.5t163.5 65.5q56 0 168 -44q107 -41 138 -41q95 0 138 90z" />
<glyph unicode="&#xc8;" horiz-adv-x="1554" d="M385 1479h1288l-81 -517h-88q9 183 -20 263t-98 120.5t-188 40.5h-202q-45 0 -71 -18.5t-33 -51.5l-109 -513h69q119 0 198 68q41 35 75.5 92.5t49.5 126.5h90l-147 -688h-90q18 83 11 143.5t-34 97.5q-52 70 -184 70h-57l-117 -547q-7 -36 10 -51q31 -22 88 -22h178 q181 0 323 117t220 353h90l-142 -563h-1343l20 93h133q45 0 73.5 23t36.5 62l242 1138q7 34 -12.5 52t-80.5 18h-117zM1382 1647l-31 -25l-260 129q-67 33 -87 60q-17 28 -9 66q9 42 52 76t88 34q41 0 72 -22.5t70 -99.5z" />
<glyph unicode="&#xc9;" horiz-adv-x="1554" d="M385 1479h1288l-81 -517h-88q9 183 -20 263t-98 120.5t-188 40.5h-202q-45 0 -71 -18.5t-33 -51.5l-109 -513h69q119 0 198 68q41 35 75.5 92.5t49.5 126.5h90l-147 -688h-90q18 83 11 143.5t-34 97.5q-52 70 -184 70h-57l-117 -547q-7 -36 10 -51q31 -22 88 -22h178 q181 0 323 117t220 353h90l-142 -563h-1343l20 93h133q45 0 73.5 23t36.5 62l242 1138q7 34 -12.5 52t-80.5 18h-117zM961 1666l-23 23l211 231q100 110 181 110q45 0 74.5 -33.5t21.5 -70.5q-8 -39 -39.5 -68.5t-136.5 -73.5z" />
<glyph unicode="&#xca;" horiz-adv-x="1554" d="M385 1479h1288l-81 -517h-88q9 183 -20 263t-98 120.5t-188 40.5h-202q-45 0 -71 -18.5t-33 -51.5l-109 -513h69q119 0 198 68q41 35 75.5 92.5t49.5 126.5h90l-147 -688h-90q18 83 11 143.5t-34 97.5q-52 70 -184 70h-57l-117 -547q-7 -36 10 -51q31 -22 88 -22h178 q181 0 323 117t220 353h90l-142 -563h-1343l20 93h133q45 0 73.5 23t36.5 62l242 1138q7 34 -12.5 52t-80.5 18h-117zM1055 2015h297l103 -376h-36l-248 219l-343 -219h-36z" />
<glyph unicode="&#xcc;" horiz-adv-x="909" d="M389 1479h758l-19 -93h-137q-41 0 -66.5 -17.5t-32.5 -51.5l-243 -1145q-9 -39 8 -57q24 -22 74 -22h122l-20 -93h-758l20 93h116q33 0 52.5 4t36.5 16q28 20 37 59l240 1132q9 42 -9 62t-66 20h-132zM1032 1658l-31 -25l-259 129q-67 33 -88 60q-17 28 -9 66 q9 42 52.5 76t88.5 34q41 0 71.5 -22.5t70.5 -99.5z" />
<glyph unicode="&#xcd;" horiz-adv-x="909" d="M389 1479h758l-19 -93h-137q-41 0 -66.5 -17.5t-32.5 -51.5l-243 -1145q-9 -39 8 -57q24 -22 74 -22h122l-20 -93h-758l20 93h116q33 0 52.5 4t36.5 16q28 20 37 59l240 1132q9 42 -9 62t-66 20h-132zM703 1644l-23 23l211 231q101 110 182 110q45 0 74.5 -33.5 t21.5 -70.5q-9 -39 -40.5 -68.5t-135.5 -73.5z" />
<glyph unicode="&#xd2;" horiz-adv-x="1706" d="M1168 1517q211 0 364 -100t215.5 -275t15.5 -395q-70 -333 -334 -555t-588 -222q-216 0 -363 101t-208.5 272.5t-13.5 398.5q72 337 333.5 556t578.5 219zM1154 1421q-117 0 -218.5 -64.5t-185 -211.5t-137.5 -401q-58 -272 -39 -406t94.5 -201t198.5 -67 q177 0 317.5 153t221.5 534q57 268 40 400t-93.5 198t-198.5 66zM1384 1658l-31 -25l-260 129q-67 33 -87 60q-17 28 -9 66q9 42 52 76t88 34q41 0 72 -22.5t70 -99.5z" />
<glyph unicode="&#xd3;" horiz-adv-x="1706" d="M1168 1517q211 0 364 -100t215.5 -275t15.5 -395q-70 -333 -334 -555t-588 -222q-216 0 -363 101t-208.5 272.5t-13.5 398.5q72 337 333.5 556t578.5 219zM1154 1421q-117 0 -218.5 -64.5t-185 -211.5t-137.5 -401q-58 -272 -39 -406t94.5 -201t198.5 -67 q177 0 317.5 153t221.5 534q57 268 40 400t-93.5 198t-198.5 66zM1051 1677l-23 23l211 231q100 110 181 110q45 0 74.5 -33.5t21.5 -70.5q-8 -39 -40 -68.5t-136 -73.5z" />
<glyph unicode="&#xd4;" horiz-adv-x="1706" d="M1168 1517q211 0 364 -100t215.5 -275t15.5 -395q-70 -333 -334 -555t-588 -222q-216 0 -363 101t-208.5 272.5t-13.5 398.5q72 337 333.5 556t578.5 219zM1154 1421q-117 0 -218.5 -64.5t-185 -211.5t-137.5 -401q-58 -272 -39 -406t94.5 -201t198.5 -67 q177 0 317.5 153t221.5 534q57 268 40 400t-93.5 198t-198.5 66zM1112 2026h297l103 -376h-36l-248 219l-343 -219h-36z" />
<glyph unicode="&#xd5;" horiz-adv-x="1706" d="M1168 1517q211 0 364 -100t215.5 -275t15.5 -395q-70 -333 -334 -555t-588 -222q-216 0 -363 101t-208.5 272.5t-13.5 398.5q72 337 333.5 556t578.5 219zM1154 1421q-117 0 -218.5 -64.5t-185 -211.5t-137.5 -401q-58 -272 -39 -406t94.5 -201t198.5 -67 q177 0 317.5 153t221.5 534q57 268 40 400t-93.5 198t-198.5 66zM1622 1970h27q-12 -58 -40.5 -105.5t-71.5 -84.5q-81 -72 -166 -72q-32 0 -72 9q-10 2 -23.5 6t-30.5 11l-96 37q-64 25 -94 25q-79 0 -135 -89h-23q41 127 117.5 192.5t163.5 65.5q56 0 169 -44 q106 -41 137 -41q95 0 138 90z" />
<glyph unicode="&#xd9;" horiz-adv-x="1706" d="M377 1479h744l-20 -93h-151q-29 0 -55 -22q-22 -21 -31 -65l-174 -818q-37 -173 35.5 -265.5t234.5 -92.5q117 0 226 51q76 36 142 125.5t94 218.5l133 628q26 120 -15 180t-131 60h-22l20 93h564l-20 -93h-39q-85 0 -146.5 -67t-82.5 -164l-145 -681 q-47 -224 -230.5 -364t-448.5 -140q-95 0 -175.5 15.5t-144.5 46.5q-127 63 -165.5 162.5t-4.5 259.5l177 831q12 57 -5.5 79t-74.5 22h-109zM1469 1746l-32 -25l-259 129q-67 33 -88 60q-17 28 -8 66q8 42 51.5 76t88.5 34q41 0 71.5 -22.5t70.5 -99.5z" />
<glyph unicode="&#xda;" horiz-adv-x="1706" d="M377 1479h744l-20 -93h-151q-29 0 -55 -22q-22 -21 -31 -65l-174 -818q-37 -173 35.5 -265.5t234.5 -92.5q117 0 226 51q76 36 142 125.5t94 218.5l133 628q26 120 -15 180t-131 60h-22l20 93h564l-20 -93h-39q-85 0 -146.5 -67t-82.5 -164l-145 -681 q-47 -224 -230.5 -364t-448.5 -140q-95 0 -175.5 15.5t-144.5 46.5q-127 63 -165.5 162.5t-4.5 259.5l177 831q12 57 -5.5 79t-74.5 22h-109zM1082 1666l-23 23l211 231q100 110 181 110q45 0 74.5 -33.5t21.5 -70.5q-8 -39 -40 -68.5t-136 -73.5z" />
<glyph unicode="&#xdd;" horiz-adv-x="1479" d="M305 1479h736l-20 -93h-102q-55 0 -78 -14q-24 -12 -28 -35q-6 -24 5 -57l196 -530l307 430q38 53 48 98q11 50 -18 79t-100 29h-45l20 93h572l-20 -93q-97 0 -165.5 -38t-129.5 -122l-422 -587l-99 -465q-8 -39 9 -61q19 -20 67 -20h153l-20 -93h-810l20 93h152 q52 0 77 19.5t34 61.5l88 413l-252 685q-22 67 -61 90q-37 24 -102 24h-32zM962 1666l-24 23l212 231q100 110 181 110q45 0 74.5 -33.5t21.5 -70.5q-9 -39 -40.5 -68.5t-135.5 -73.5z" />
<glyph unicode="&#xe0;" d="M1200 116l27 -72q-68 -41 -123 -58q-29 -8 -54.5 -12t-54.5 -4q-84 0 -129 35.5t-70 138.5q-120 -97 -211.5 -135.5t-191.5 -38.5q-141 0 -206 65t-44 165q32 150 198 242q132 72 543 144l29 135q17 80 -25.5 130.5t-131.5 50.5q-71 0 -126 -29q-39 -18 -43 -38 q-2 -10 7 -30t11 -45q1 -11 1 -21t-3 -23q-12 -54 -56.5 -89.5t-106.5 -35.5q-66 0 -98 37.5t-19 96.5q20 96 141 171q151 92 346 92q148 0 251 -46q65 -27 96 -101.5t8 -178.5l-101 -475q-11 -55 4 -78.5t50 -23.5q29 0 82 31zM866 499q-218 -27 -307.5 -88.5 t-110.5 -160.5q-15 -69 13.5 -107t90.5 -38q99 0 179.5 71t106.5 194zM1021 1141l-31 -25l-260 129q-67 33 -87 60q-17 28 -9 66q9 42 52.5 76t88.5 34q41 0 71.5 -22.5t70.5 -99.5z" />
<glyph unicode="&#xe1;" d="M1200 116l27 -72q-68 -41 -123 -58q-29 -8 -54.5 -12t-54.5 -4q-84 0 -129 35.5t-70 138.5q-120 -97 -211.5 -135.5t-191.5 -38.5q-141 0 -206 65t-44 165q32 150 198 242q132 72 543 144l29 135q17 80 -25.5 130.5t-131.5 50.5q-71 0 -126 -29q-39 -18 -43 -38 q-2 -10 7 -30t11 -45q1 -11 1 -21t-3 -23q-12 -54 -56.5 -89.5t-106.5 -35.5q-66 0 -98 37.5t-19 96.5q20 96 141 171q151 92 346 92q148 0 251 -46q65 -27 96 -101.5t8 -178.5l-101 -475q-11 -55 4 -78.5t50 -23.5q29 0 82 31zM866 499q-218 -27 -307.5 -88.5 t-110.5 -160.5q-15 -69 13.5 -107t90.5 -38q99 0 179.5 71t106.5 194zM644 1105l-23 23l211 231q100 110 181 110q45 0 74.5 -33.5t21.5 -70.5q-8 -39 -40 -68.5t-136 -73.5z" />
<glyph unicode="&#xe2;" d="M1200 116l27 -72q-68 -41 -123 -58q-29 -8 -54.5 -12t-54.5 -4q-84 0 -129 35.5t-70 138.5q-120 -97 -211.5 -135.5t-191.5 -38.5q-141 0 -206 65t-44 165q32 150 198 242q132 72 543 144l29 135q17 80 -25.5 130.5t-131.5 50.5q-71 0 -126 -29q-39 -18 -43 -38 q-2 -10 7 -30t11 -45q1 -11 1 -21t-3 -23q-12 -54 -56.5 -89.5t-106.5 -35.5q-66 0 -98 37.5t-19 96.5q20 96 141 171q151 92 346 92q148 0 251 -46q65 -27 96 -101.5t8 -178.5l-101 -475q-11 -55 4 -78.5t50 -23.5q29 0 82 31zM866 499q-218 -27 -307.5 -88.5 t-110.5 -160.5q-15 -69 13.5 -107t90.5 -38q99 0 179.5 71t106.5 194zM786 1476h297l104 -376h-36l-249 219l-342 -219h-36z" />
<glyph unicode="&#xe3;" d="M1200 116l27 -72q-68 -41 -123 -58q-29 -8 -54.5 -12t-54.5 -4q-84 0 -129 35.5t-70 138.5q-120 -97 -211.5 -135.5t-191.5 -38.5q-141 0 -206 65t-44 165q32 150 198 242q132 72 543 144l29 135q17 80 -25.5 130.5t-131.5 50.5q-71 0 -126 -29q-39 -18 -43 -38 q-2 -10 7 -30t11 -45q1 -11 1 -21t-3 -23q-12 -54 -56.5 -89.5t-106.5 -35.5q-66 0 -98 37.5t-19 96.5q20 96 141 171q151 92 346 92q148 0 251 -46q65 -27 96 -101.5t8 -178.5l-101 -475q-11 -55 4 -78.5t50 -23.5q29 0 82 31zM866 499q-218 -27 -307.5 -88.5 t-110.5 -160.5q-15 -69 13.5 -107t90.5 -38q99 0 179.5 71t106.5 194zM1264 1431h27q-12 -58 -41 -105.5t-71 -84.5q-82 -72 -167 -72q-32 0 -71 9q-10 2 -24 6t-30 11l-96 37q-64 25 -94 25q-79 0 -135 -89h-23q41 127 117.5 192.5t163.5 65.5q56 0 168 -44 q107 -41 138 -41q95 0 138 90z" />
<glyph unicode="&#xe8;" horiz-adv-x="1176" d="M1165 462h-657q-21 -100 -16 -170q2 -37 9.5 -66.5t23.5 -54.5q57 -93 177 -93q43 0 84 11t87 36q86 48 197 175l64 -45q-115 -149 -240.5 -214t-281.5 -65q-117 0 -201.5 34.5t-141.5 105.5q-111 140 -64 359q46 220 220.5 366.5t382.5 146.5q145 0 234 -58t124 -174 q18 -58 17 -132q0 -39 -4 -76.5t-14 -85.5zM527 552h313q44 0 67.5 22t36.5 80q24 116 -15.5 179.5t-121.5 63.5q-96 0 -167 -86q-36 -44 -65.5 -108.5t-47.5 -150.5zM1069 1108l-31 -25l-260 129q-67 33 -87 60q-17 28 -9 66q9 42 52 76t88 34q41 0 72 -22.5t70 -99.5z" />
<glyph unicode="&#xe9;" horiz-adv-x="1176" d="M1165 462h-657q-21 -100 -16 -170q2 -37 9.5 -66.5t23.5 -54.5q57 -93 177 -93q43 0 84 11t87 36q86 48 197 175l64 -45q-115 -149 -240.5 -214t-281.5 -65q-117 0 -201.5 34.5t-141.5 105.5q-111 140 -64 359q46 220 220.5 366.5t382.5 146.5q145 0 234 -58t124 -174 q18 -58 17 -132q0 -39 -4 -76.5t-14 -85.5zM527 552h313q44 0 67.5 22t36.5 80q24 116 -15.5 179.5t-121.5 63.5q-96 0 -167 -86q-36 -44 -65.5 -108.5t-47.5 -150.5zM687 1105l-23 23l211 231q101 110 182 110q45 0 74.5 -33.5t21.5 -70.5q-9 -39 -40.5 -68.5t-135.5 -73.5 z" />
<glyph unicode="&#xea;" horiz-adv-x="1176" d="M1165 462h-657q-21 -100 -16 -170q2 -37 9.5 -66.5t23.5 -54.5q57 -93 177 -93q43 0 84 11t87 36q86 48 197 175l64 -45q-115 -149 -240.5 -214t-281.5 -65q-117 0 -201.5 34.5t-141.5 105.5q-111 140 -64 359q46 220 220.5 366.5t382.5 146.5q145 0 234 -58t124 -174 q18 -58 17 -132q0 -39 -4 -76.5t-14 -85.5zM527 552h313q44 0 67.5 22t36.5 80q24 116 -15.5 179.5t-121.5 63.5q-96 0 -167 -86q-36 -44 -65.5 -108.5t-47.5 -150.5zM749 1454h297l103 -376h-36l-249 219l-342 -219h-36z" />
<glyph unicode="&#xec;" horiz-adv-x="758" d="M313 936l420 19l-169 -795q-6 -30 9 -50q19 -17 60 -17h63l-20 -93h-562l20 93h62q50 0 75.5 23t37.5 80l115 542q10 49 -14 78t-74 29h-42zM802 1141l-32 -25l-259 129q-67 33 -88 60q-17 28 -9 66q9 42 52.5 76t88.5 34q41 0 71.5 -22.5t70.5 -99.5z" />
<glyph unicode="&#xed;" horiz-adv-x="758" d="M313 936l420 19l-169 -795q-6 -30 9 -50q19 -17 60 -17h63l-20 -93h-562l20 93h62q50 0 75.5 23t37.5 80l115 542q10 49 -14 78t-74 29h-42zM404 1116l-23 23l211 231q101 110 182 110q45 0 74 -33.5t21 -70.5q-8 -39 -39.5 -68.5t-136.5 -73.5z" />
<glyph unicode="&#xf2;" d="M827 988q159 0 275 -67t156.5 -178.5t8.5 -263.5q-53 -246 -248.5 -377.5t-407.5 -131.5q-150 0 -259.5 66.5t-153.5 182.5q-19 54 -23 120.5t11 138.5q46 216 229 363t412 147zM813 893q-104 0 -185.5 -92.5t-129.5 -320.5q-51 -238 -10.5 -329t146.5 -91q104 0 190 93 t134 321q50 234 6.5 326.5t-151.5 92.5zM1086 1141l-31 -25l-260 129q-67 33 -87 60q-17 28 -9 66q9 42 52 76t88 34q41 0 72 -22.5t71 -99.5z" />
<glyph unicode="&#xf3;" d="M827 988q159 0 275 -67t156.5 -178.5t8.5 -263.5q-53 -246 -248.5 -377.5t-407.5 -131.5q-150 0 -259.5 66.5t-153.5 182.5q-19 54 -23 120.5t11 138.5q46 216 229 363t412 147zM813 893q-104 0 -185.5 -92.5t-129.5 -320.5q-51 -238 -10.5 -329t146.5 -91q104 0 190 93 t134 321q50 234 6.5 326.5t-151.5 92.5zM689 1116l-23 23l211 231q100 110 181 110q45 0 74.5 -33.5t21.5 -70.5q-8 -39 -40 -68.5t-136 -73.5z" />
<glyph unicode="&#xf4;" d="M827 988q159 0 275 -67t156.5 -178.5t8.5 -263.5q-53 -246 -248.5 -377.5t-407.5 -131.5q-150 0 -259.5 66.5t-153.5 182.5q-19 54 -23 120.5t11 138.5q46 216 229 363t412 147zM813 893q-104 0 -185.5 -92.5t-129.5 -320.5q-51 -238 -10.5 -329t146.5 -91q104 0 190 93 t134 321q50 234 6.5 326.5t-151.5 92.5zM789 1487h297l103 -376h-36l-249 219l-342 -219h-36z" />
<glyph unicode="&#xf5;" d="M827 988q159 0 275 -67t156.5 -178.5t8.5 -263.5q-53 -246 -248.5 -377.5t-407.5 -131.5q-150 0 -259.5 66.5t-153.5 182.5q-19 54 -23 120.5t11 138.5q46 216 229 363t412 147zM813 893q-104 0 -185.5 -92.5t-129.5 -320.5q-51 -238 -10.5 -329t146.5 -91q104 0 190 93 t134 321q50 234 6.5 326.5t-151.5 92.5zM1266 1431h27q-12 -58 -41 -105.5t-72 -84.5q-81 -72 -166 -72q-32 0 -71 9q-10 2 -24 6t-30 11l-96 37q-64 25 -94 25q-79 0 -135 -89h-23q41 127 117.5 192.5t163.5 65.5q56 0 168 -44q107 -41 138 -41q95 0 138 90z" />
<glyph unicode="&#xf7;" horiz-adv-x="1706" />
<glyph unicode="&#xf9;" horiz-adv-x="582" />
<glyph unicode="&#xfa;" horiz-adv-x="580" />
<glyph unicode="&#xfd;" horiz-adv-x="629" />
<glyph unicode="&#x102;" horiz-adv-x="1554" d="M1155 1515l273 -1326q13 -54 36 -76q24 -20 70 -20h54l-20 -93h-694l20 93h65q79 0 110.5 17t37.5 45q4 21 -1 51l-57 274h-552l-81 -125q-49 -78 -57 -116q-14 -63 26 -104.5t122 -41.5h47l-20 -93h-561l20 93h32q54 0 102 34q67 48 116 123l800 1265h112zM915 1141 l-356 -563h470zM1405 1980l95 -10q-21 -70 -57 -128t-82.5 -103.5t-99 -67t-122.5 -21.5q-128 0 -189 90q-25 41 -30 105q-2 67 13 135h85q-5 -95 31.5 -126t139.5 -31q48 0 85.5 11t69 35t40 51.5t12 37t9.5 22.5z" />
<glyph unicode="&#x103;" d="M1200 116l27 -72q-68 -41 -123 -58q-29 -8 -54.5 -12t-54.5 -4q-84 0 -129 35.5t-70 138.5q-120 -97 -211.5 -135.5t-191.5 -38.5q-141 0 -206 65t-44 165q32 150 198 242q132 72 543 144l29 135q17 80 -25.5 130.5t-131.5 50.5q-71 0 -126 -29q-39 -18 -43 -38 q-2 -10 7 -30t11 -45q1 -11 1 -21t-3 -23q-12 -54 -56.5 -89.5t-106.5 -35.5q-66 0 -98 37.5t-19 96.5q20 96 141 171q151 92 346 92q148 0 251 -46q65 -27 96 -101.5t8 -178.5l-101 -475q-11 -55 4 -78.5t50 -23.5q29 0 82 31zM866 499q-218 -27 -307.5 -88.5 t-110.5 -160.5q-15 -69 13.5 -107t90.5 -38q99 0 179.5 71t106.5 194zM1083 1452l95 -10q-7 -33 -20.5 -63t-33.5 -67q-30 -56 -74 -98q-95 -92 -233 -92q-128 0 -189 90q-25 41 -29 105q-2 67 12 135h85q-5 -95 32 -126t140 -31q48 0 85.5 11t69 35t40 51.5t12 37t8.5 22.5 z" />
<glyph unicode="&#x10c;" horiz-adv-x="1274" />
<glyph unicode="&#x10d;" horiz-adv-x="922" />
<glyph unicode="&#x110;" horiz-adv-x="1706" d="M185 686l23 107h226l107 507q9 42 -10 65q-19 21 -77 21h-108l19 93h795q221 0 363 -91t200 -263t13 -383q-48 -223 -166 -384t-310 -259.5t-384 -98.5h-825l20 93h123q43 0 72 24t39 69l106 500h-226zM730 686l-106 -499q-11 -50 5.5 -72t59.5 -22h108q137 0 256.5 68.5 t193 188.5t126.5 371q56 264 31.5 403t-108 200t-267.5 61q-100 0 -129 -17t-38 -62l-109 -513h281l-23 -107h-281z" />
<glyph unicode="&#x111;" horiz-adv-x="1366" d="M983 1483l468 18l-260 -1224q-19 -91 -14.5 -123.5t28.5 -50.5q23 -14 97 -14l-19 -89l-387 -12l11 182q-112 -114 -192.5 -152.5t-186.5 -38.5q-190 0 -284.5 129.5t-47.5 349.5q52 244 210 387t348 143q102 0 171 -43.5t115 -145.5l91 426q16 78 9.5 110t-29.5 44.5 t-93 12.5h-55zM818 859q-113 0 -195 -102q-64 -83 -103 -264q-16 -76 -22 -132.5t0 -93.5q10 -76 50.5 -111.5t103.5 -35.5q99 0 182 87q108 115 145 292q35 163 -16 261.5t-145 98.5zM856 1260h648l-23 -108h-648z" />
<glyph unicode="&#x128;" horiz-adv-x="909" d="M389 1479h758l-19 -93h-137q-41 0 -66.5 -17.5t-32.5 -51.5l-243 -1145q-9 -39 8 -57q24 -22 74 -22h122l-20 -93h-758l20 93h116q33 0 52.5 4t36.5 16q28 20 37 59l240 1132q9 42 -9 62t-66 20h-132zM1211 1948h27q-12 -58 -40.5 -105.5t-71.5 -84.5q-82 -72 -167 -72 q-32 0 -71 9q-10 2 -24 6t-30 11l-96 37q-64 25 -94 25q-79 0 -135 -89h-23q41 127 117.5 192.5t163.5 65.5q56 0 169 -44q106 -41 137 -41q95 0 138 90z" />
<glyph unicode="&#x129;" horiz-adv-x="758" d="M313 936l420 19l-169 -795q-6 -30 9 -50q19 -17 60 -17h63l-20 -93h-562l20 93h62q50 0 75.5 23t37.5 80l115 542q10 49 -14 78t-74 29h-42zM1013 1431h27q-12 -58 -40.5 -105.5t-71.5 -84.5q-82 -72 -167 -72q-32 0 -71 9q-10 2 -23.5 6t-30.5 11l-96 37q-64 25 -94 25 q-79 0 -135 -89h-23q41 127 117.5 192.5t163.5 65.5q56 0 169 -44q106 -41 137 -41q95 0 138 90z" />
<glyph unicode="&#x168;" horiz-adv-x="1706" d="M377 1479h744l-20 -93h-151q-29 0 -55 -22q-22 -21 -31 -65l-174 -818q-37 -173 35.5 -265.5t234.5 -92.5q117 0 226 51q76 36 142 125.5t94 218.5l133 628q26 120 -15 180t-131 60h-22l20 93h564l-20 -93h-39q-85 0 -146.5 -67t-82.5 -164l-145 -681 q-47 -224 -230.5 -364t-448.5 -140q-95 0 -175.5 15.5t-144.5 46.5q-127 63 -165.5 162.5t-4.5 259.5l177 831q12 57 -5.5 79t-74.5 22h-109zM1608 1904h27q-12 -58 -40.5 -105.5t-71.5 -84.5q-81 -72 -166 -72q-32 0 -72 9q-10 2 -23.5 6t-30.5 11l-96 37q-64 25 -94 25 q-79 0 -135 -89h-23q41 127 117.5 192.5t163.5 65.5q56 0 169 -44q106 -41 137 -41q95 0 138 90z" />
<glyph unicode="&#x169;" horiz-adv-x="1403" d="M281 936l423 24l-132 -624q-19 -88 17.5 -138t111.5 -50q103 0 186 84.5t107 196.5l65 306q11 53 -14 81.5t-75 28.5h-46l19 91l427 24l-161 -758q-10 -49 14 -80q26 -29 78 -29h43l-20 -93l-389 -12l2 107q2 26 5.5 52.5t9.5 54.5q-119 -120 -222 -171.5t-199 -51.5 q-95 0 -151 38.5t-79 127.5q-10 45 -9.5 96t14.5 116l79 372q13 60 -12.5 88t-110.5 28zM1300 1431h27q-13 -58 -41.5 -105.5t-71.5 -84.5q-81 -72 -166 -72q-32 0 -71 9q-11 2 -24.5 6t-30.5 11l-96 37q-63 25 -93 25q-79 0 -135 -89h-23q41 127 117 192.5t163 65.5 q56 0 169 -44q106 -41 137 -41q95 0 139 90z" />
<glyph unicode="&#x1a0;" horiz-adv-x="1706" d="M1154 1421q-117 0 -218.5 -64.5t-185 -211.5t-137.5 -401q-58 -272 -39 -406t94.5 -201t198.5 -67q177 0 317.5 153t221.5 534q57 268 40 400t-93.5 198t-198.5 66zM1636 1329l76 56q20 20 35 34q8 7 39 34q38 36 42 56q2 6 -1 9l-46 -13q-21 0 -31 6q-10 0 -21.5 4.5 t-24.5 17.5q-17 15 -29 45q-1 11 0.5 27.5t6.5 40.5q9 42 55 80q40 30 92 36q81 0 117 -61q15 -30 19 -55t-6 -71q-12 -58 -40 -100q-18 -29 -61 -70l-44 -34l-134 -97q42 -60 68 -134q62 -174 15 -393q-70 -333 -334 -555t-588 -222q-216 0 -363 101t-208.5 272.5 t-13.5 398.5q72 337 333.5 556t578.5 219q211 0 364 -101q29 -18 55 -41z" />
<glyph unicode="&#x1a1;" d="M813 893q-104 0 -185.5 -92.5t-129.5 -320.5q-51 -238 -10.5 -329t146.5 -91q104 0 190 93t134 321q50 234 6.5 326.5t-151.5 92.5zM1205 835l51 35q22 15 46 41l52 53q8 10 13 24l-1 12l-2 10l3 5l-15 -2l-50 -13q-7 0 -24 13l-23 13q-49 39 -35 105q5 23 17 40.5 t37 37.5q45 35 92 35t79 -13.5t47 -45.5q27 -58 10 -140q-13 -62 -46 -118q-39 -65 -111 -127l-42 -38l-40 -33q34 -105 4 -250q-53 -246 -248.5 -377.5t-407.5 -131.5q-150 0 -259.5 66.5t-153.5 182.5q-19 54 -23 120.5t11 138.5q46 216 229 363t412 147q159 0 273 -68 q30 -16 57 -39q25 -20 48 -46z" />
<glyph unicode="&#x1af;" horiz-adv-x="1706" d="M1929 1386h-17q-85 0 -146.5 -67t-82.5 -164l-145 -681q-47 -224 -230.5 -364t-448.5 -140q-95 0 -175.5 15.5t-144.5 46.5q-127 63 -165.5 162.5t-4.5 259.5l177 831q12 57 -5.5 79t-74.5 22h-109l20 93h744l-20 -93h-151q-29 0 -55 -22q-22 -21 -31 -65l-174 -818 q-37 -173 35.5 -265.5t234.5 -92.5q117 0 226 51q76 36 142 125.5t94 218.5l133 628q26 120 -15 180t-131 60h-22l20 93h562l4 3q35 9 47 63q2 12 -3 19l-7 4l-13 -4h-36q-12 0 -45 12q-39 33 -28 86q7 32 44 65q9 7 16.5 11.5t20.5 11.5q20 7 40 7q35 0 62 -11.5t38 -35.5 q24 -46 9 -118q-16 -77 -54 -124q-17 -21 -48 -42l-62 -42z" />
<glyph unicode="&#x1b0;" horiz-adv-x="1403" d="M1325 745l-116 -543q-10 -49 14 -80q26 -29 78 -29h43l-20 -93l-389 -12l2 107q2 26 5.5 52.5t9.5 54.5q-119 -120 -222 -171.5t-199 -51.5q-95 0 -151 38.5t-79 127.5q-10 45 -9.5 96t14.5 116l79 372q13 60 -12.5 88t-110.5 28l19 91l423 24l-132 -624 q-19 -88 17.5 -138t111.5 -50q103 0 186 84.5t107 196.5l65 306q11 53 -14 81.5t-75 28.5h-46l19 91l427 24l-17 -81l63 31q29 15 54 43l35 42q19 22 22 36q1 7 -1 9l-9 2l-14 -2h-39l-22 2l-27 10q-23 20 -32.5 44.5t-3.5 55.5q3 15 15.5 31t36.5 33q22 18 58.5 36t54.5 20 l22 1q78 0 100 -55q10 -20 12.5 -59t-4.5 -73l-6 -20q-2 -11 -5 -15q-23 -53 -65 -106q-45 -60 -112 -115q-7 -6 -85 -46z" />
<glyph unicode="&#x1ea0;" horiz-adv-x="1554" d="M1155 1515l273 -1326q13 -54 36 -76q24 -20 70 -20h54l-20 -93h-694l20 93h65q79 0 110.5 17t37.5 45q4 21 -1 51l-57 274h-552l-81 -125q-49 -78 -57 -116q-14 -63 26 -104.5t122 -41.5h47l-20 -93h-561l20 93h32q54 0 102 34q67 48 116 123l800 1265h112zM915 1141 l-356 -563h470zM702 -152q66 0 104 -48t24 -115q-14 -65 -73 -116q-59 -47 -125 -47q-65 0 -104 48.5t-25 114.5q14 65 72.5 114t126.5 49z" />
<glyph unicode="&#x1ea1;" d="M1200 116l27 -72q-68 -41 -123 -58q-29 -8 -54.5 -12t-54.5 -4q-84 0 -129 35.5t-70 138.5q-120 -97 -211.5 -135.5t-191.5 -38.5q-141 0 -206 65t-44 165q32 150 198 242q132 72 543 144l29 135q17 80 -25.5 130.5t-131.5 50.5q-71 0 -126 -29q-39 -18 -43 -38 q-2 -10 7 -30t11 -45q1 -11 1 -21t-3 -23q-12 -54 -56.5 -89.5t-106.5 -35.5q-66 0 -98 37.5t-19 96.5q20 96 141 171q151 92 346 92q148 0 251 -46q65 -27 96 -101.5t8 -178.5l-101 -475q-11 -55 4 -78.5t50 -23.5q29 0 82 31zM866 499q-218 -27 -307.5 -88.5 t-110.5 -160.5q-15 -69 13.5 -107t90.5 -38q99 0 179.5 71t106.5 194zM556 -163q66 0 104.5 -48t23.5 -115q-13 -65 -72 -116q-59 -47 -125 -47q-65 0 -104.5 48.5t-25.5 114.5q14 65 72.5 114t126.5 49z" />
<glyph unicode="&#x1ea2;" horiz-adv-x="1554" d="M1155 1515l273 -1326q13 -54 36 -76q24 -20 70 -20h54l-20 -93h-694l20 93h65q79 0 110.5 17t37.5 45q4 21 -1 51l-57 274h-552l-81 -125q-49 -78 -57 -116q-14 -63 26 -104.5t122 -41.5h47l-20 -93h-561l20 93h32q54 0 102 34q67 48 116 123l800 1265h112zM915 1141 l-356 -563h470zM1183 1660h-43l5 35q12 56 30 90q9 19 23.5 39t35.5 43q28 33 42.5 53t26.5 38q23 40 30 75q13 61 -12 93q-21 30 -72 30q-38 0 -66 -16q-28 -13 -32 -32q-2 -12 14 -22q31 -19 37 -27q10 -17 5 -40q-7 -33 -37 -53q-18 -12 -33.5 -18t-34.5 -6t-34 6t-28 21 q-24 26 -15 68q14 66 91 117q37 23 84.5 36t97.5 13q102 0 159.5 -53t41.5 -128q-3 -13 -7 -25.5t-17 -32.5l-26 -39l-20 -18q-18 -18 -87 -60q-60 -37 -90 -62l-24 -27l-19 -28q-17 -25 -26 -70z" />
<glyph unicode="&#x1ea3;" d="M1200 116l27 -72q-68 -41 -123 -58q-29 -8 -54.5 -12t-54.5 -4q-84 0 -129 35.5t-70 138.5q-120 -97 -211.5 -135.5t-191.5 -38.5q-141 0 -206 65t-44 165q32 150 198 242q132 72 543 144l29 135q17 80 -25.5 130.5t-131.5 50.5q-71 0 -126 -29q-39 -18 -43 -38 q-2 -10 7 -30t11 -45q1 -11 1 -21t-3 -23q-12 -54 -56.5 -89.5t-106.5 -35.5q-66 0 -98 37.5t-19 96.5q20 96 141 171q151 92 346 92q148 0 251 -46q65 -27 96 -101.5t8 -178.5l-101 -475q-11 -55 4 -78.5t50 -23.5q29 0 82 31zM866 499q-218 -27 -307.5 -88.5 t-110.5 -160.5q-15 -69 13.5 -107t90.5 -38q99 0 179.5 71t106.5 194zM848 1121h-43l5 35q12 56 31 90q9 19 23 39t35 43q28 33 43 53t26 38q23 40 30 75q13 61 -12 93q-21 30 -72 30q-38 0 -66 -16q-28 -13 -32 -32q-2 -12 15 -22q31 -19 36 -27q10 -17 5 -40 q-7 -33 -37 -53q-17 -12 -33 -18t-35 -6t-33.5 6t-28.5 21q-24 26 -15 68q14 66 91 117q37 23 84.5 36t97.5 13q102 0 159.5 -53t41.5 -128q-3 -13 -7 -25.5t-16 -32.5l-27 -39l-19 -18q-19 -18 -88 -60q-60 -37 -89 -62l-25 -27l-19 -28q-16 -25 -26 -70z" />
<glyph unicode="&#x1ea4;" horiz-adv-x="1554" d="M1155 1515l273 -1326q13 -54 36 -76q24 -20 70 -20h54l-20 -93h-694l20 93h65q79 0 110.5 17t37.5 45q4 21 -1 51l-57 274h-552l-81 -125q-49 -78 -57 -116q-14 -63 26 -104.5t122 -41.5h47l-20 -93h-561l20 93h32q54 0 102 34q67 48 116 123l800 1265h112zM915 1141 l-356 -563h470zM1080 2026h297l103 -376h-36l-249 219l-342 -219h-36zM1571 1897l-23 23l211 231q101 110 182 110q45 0 74 -33.5t21 -70.5q-8 -39 -39.5 -68.5t-136.5 -73.5z" />
<glyph unicode="&#x1ea5;" d="M1200 116l27 -72q-68 -41 -123 -58q-29 -8 -54.5 -12t-54.5 -4q-84 0 -129 35.5t-70 138.5q-120 -97 -211.5 -135.5t-191.5 -38.5q-141 0 -206 65t-44 165q32 150 198 242q132 72 543 144l29 135q17 80 -25.5 130.5t-131.5 50.5q-71 0 -126 -29q-39 -18 -43 -38 q-2 -10 7 -30t11 -45q1 -11 1 -21t-3 -23q-12 -54 -56.5 -89.5t-106.5 -35.5q-66 0 -98 37.5t-19 96.5q20 96 141 171q151 92 346 92q148 0 251 -46q65 -27 96 -101.5t8 -178.5l-101 -475q-11 -55 4 -78.5t50 -23.5q29 0 82 31zM866 499q-218 -27 -307.5 -88.5 t-110.5 -160.5q-15 -69 13.5 -107t90.5 -38q99 0 179.5 71t106.5 194zM786 1476h297l104 -376h-36l-249 219l-342 -219h-36zM1272 1369l-23 23l211 231q100 110 181 110q45 0 74.5 -33.5t21.5 -70.5q-8 -39 -40 -68.5t-136 -73.5z" />
<glyph unicode="&#x1ea6;" horiz-adv-x="1554" d="M1155 1515l273 -1326q13 -54 36 -76q24 -20 70 -20h54l-20 -93h-694l20 93h65q79 0 110.5 17t37.5 45q4 21 -1 51l-57 274h-552l-81 -125q-49 -78 -57 -116q-14 -63 26 -104.5t122 -41.5h47l-20 -93h-561l20 93h32q54 0 102 34q67 48 116 123l800 1265h112zM915 1141 l-356 -563h470zM1080 2026h297l103 -376h-36l-249 219l-342 -219h-36zM1774 2043l-31 -25l-260 129q-67 33 -87 60q-17 28 -9 66q9 42 52.5 76t88.5 34q41 0 71.5 -22.5t70.5 -99.5z" />
<glyph unicode="&#x1ea7;" d="M1200 116l27 -72q-68 -41 -123 -58q-29 -8 -54.5 -12t-54.5 -4q-84 0 -129 35.5t-70 138.5q-120 -97 -211.5 -135.5t-191.5 -38.5q-141 0 -206 65t-44 165q32 150 198 242q132 72 543 144l29 135q17 80 -25.5 130.5t-131.5 50.5q-71 0 -126 -29q-39 -18 -43 -38 q-2 -10 7 -30t11 -45q1 -11 1 -21t-3 -23q-12 -54 -56.5 -89.5t-106.5 -35.5q-66 0 -98 37.5t-19 96.5q20 96 141 171q151 92 346 92q148 0 251 -46q65 -27 96 -101.5t8 -178.5l-101 -475q-11 -55 4 -78.5t50 -23.5q29 0 82 31zM866 499q-218 -27 -307.5 -88.5 t-110.5 -160.5q-15 -69 13.5 -107t90.5 -38q99 0 179.5 71t106.5 194zM786 1476h297l104 -376h-36l-249 219l-342 -219h-36zM1404 1493l-31 -25l-260 129q-67 33 -87 60q-17 28 -9 66q9 42 52 76t88 34q41 0 72 -22.5t70 -99.5z" />
<glyph unicode="&#x1ea8;" horiz-adv-x="1554" d="M1155 1515l273 -1326q13 -54 36 -76q24 -20 70 -20h54l-20 -93h-694l20 93h65q79 0 110.5 17t37.5 45q4 21 -1 51l-57 274h-552l-81 -125q-49 -78 -57 -116q-14 -63 26 -104.5t122 -41.5h47l-20 -93h-561l20 93h32q54 0 102 34q67 48 116 123l800 1265h112zM915 1141 l-356 -563h470zM1080 2026h297l103 -376h-36l-249 219l-342 -219h-36zM1670 1935h-43l6 35q12 56 30 90q9 19 23 39t35 43q28 33 43 53t27 38q22 40 30 75q13 61 -13 93q-20 30 -71 30q-38 0 -67 -16q-27 -13 -31 -32q-3 -12 14 -22q31 -19 36 -27q10 -17 6 -40 q-7 -33 -38 -53q-17 -12 -33 -18t-35 -6t-33.5 6t-28.5 21q-23 26 -15 68q14 66 91 117q37 23 85 36t98 13q102 0 159 -53t41 -128q-3 -13 -7 -25.5t-16 -32.5l-26 -39l-20 -18q-19 -18 -88 -60q-60 -37 -89 -62l-25 -27l-19 -28q-16 -25 -26 -70z" />
<glyph unicode="&#x1ea9;" d="M1200 116l27 -72q-68 -41 -123 -58q-29 -8 -54.5 -12t-54.5 -4q-84 0 -129 35.5t-70 138.5q-120 -97 -211.5 -135.5t-191.5 -38.5q-141 0 -206 65t-44 165q32 150 198 242q132 72 543 144l29 135q17 80 -25.5 130.5t-131.5 50.5q-71 0 -126 -29q-39 -18 -43 -38 q-2 -10 7 -30t11 -45q1 -11 1 -21t-3 -23q-12 -54 -56.5 -89.5t-106.5 -35.5q-66 0 -98 37.5t-19 96.5q20 96 141 171q151 92 346 92q148 0 251 -46q65 -27 96 -101.5t8 -178.5l-101 -475q-11 -55 4 -78.5t50 -23.5q29 0 82 31zM866 499q-218 -27 -307.5 -88.5 t-110.5 -160.5q-15 -69 13.5 -107t90.5 -38q99 0 179.5 71t106.5 194zM786 1476h297l104 -376h-36l-249 219l-342 -219h-36zM1280 1396h-43l6 35q12 56 30 90q9 19 23.5 39t34.5 43q28 33 43 53t27 38q22 40 30 75q13 61 -12 93q-21 30 -72 30q-38 0 -66 -16 q-28 -13 -32 -32q-3 -12 14 -22q31 -19 36 -27q11 -17 6 -40q-7 -33 -37 -53q-18 -12 -34 -18t-35 -6t-33.5 6t-28.5 21q-23 26 -14 68q14 66 90 117q37 23 85 36t98 13q102 0 159 -53t41 -128q-2 -13 -6.5 -25.5t-16.5 -32.5l-26 -39l-20 -18q-19 -18 -88 -60 q-60 -37 -89 -62l-25 -27l-19 -28q-16 -25 -26 -70z" />
<glyph unicode="&#x1eaa;" horiz-adv-x="1554" d="M1155 1515l273 -1326q13 -54 36 -76q24 -20 70 -20h54l-20 -93h-694l20 93h65q79 0 110.5 17t37.5 45q4 21 -1 51l-57 274h-552l-81 -125q-49 -78 -57 -116q-14 -63 26 -104.5t122 -41.5h47l-20 -93h-561l20 93h32q54 0 102 34q67 48 116 123l800 1265h112zM915 1141 l-356 -563h470zM1080 2026h297l103 -376h-36l-249 219l-342 -219h-36zM1765 2432h27q-12 -58 -41 -105.5t-71 -84.5q-82 -72 -167 -72q-32 0 -71 9q-10 2 -24 6t-30 11l-96 37q-64 25 -94 25q-79 0 -135 -89h-23q41 127 117.5 192.5t163.5 65.5q56 0 169 -44 q106 -41 137 -41q95 0 138 90z" />
<glyph unicode="&#x1eab;" d="M1200 116l27 -72q-68 -41 -123 -58q-29 -8 -54.5 -12t-54.5 -4q-84 0 -129 35.5t-70 138.5q-120 -97 -211.5 -135.5t-191.5 -38.5q-141 0 -206 65t-44 165q32 150 198 242q132 72 543 144l29 135q17 80 -25.5 130.5t-131.5 50.5q-71 0 -126 -29q-39 -18 -43 -38 q-2 -10 7 -30t11 -45q1 -11 1 -21t-3 -23q-12 -54 -56.5 -89.5t-106.5 -35.5q-66 0 -98 37.5t-19 96.5q20 96 141 171q151 92 346 92q148 0 251 -46q65 -27 96 -101.5t8 -178.5l-101 -475q-11 -55 4 -78.5t50 -23.5q29 0 82 31zM866 499q-218 -27 -307.5 -88.5 t-110.5 -160.5q-15 -69 13.5 -107t90.5 -38q99 0 179.5 71t106.5 194zM786 1476h297l104 -376h-36l-249 219l-342 -219h-36zM1615 1882h27q-13 -58 -41.5 -105.5t-71.5 -84.5q-81 -72 -166 -72q-32 0 -71 9q-11 2 -24.5 6t-29.5 11l-97 37q-63 25 -93 25q-79 0 -135 -89h-23 q41 127 117.5 192.5t163.5 65.5q56 0 168 -44q107 -41 138 -41q95 0 138 90z" />
<glyph unicode="&#x1eac;" horiz-adv-x="1554" d="M1155 1515l273 -1326q13 -54 36 -76q24 -20 70 -20h54l-20 -93h-694l20 93h65q79 0 110.5 17t37.5 45q4 21 -1 51l-57 274h-552l-81 -125q-49 -78 -57 -116q-14 -63 26 -104.5t122 -41.5h47l-20 -93h-561l20 93h32q54 0 102 34q67 48 116 123l800 1265h112zM915 1141 l-356 -563h470zM1080 2026h297l103 -376h-36l-249 219l-342 -219h-36zM702 -152q66 0 104 -48t24 -115q-14 -65 -73 -116q-59 -47 -125 -47q-65 0 -104 48.5t-25 114.5q14 65 72.5 114t126.5 49z" />
<glyph unicode="&#x1ead;" d="M1200 116l27 -72q-68 -41 -123 -58q-29 -8 -54.5 -12t-54.5 -4q-84 0 -129 35.5t-70 138.5q-120 -97 -211.5 -135.5t-191.5 -38.5q-141 0 -206 65t-44 165q32 150 198 242q132 72 543 144l29 135q17 80 -25.5 130.5t-131.5 50.5q-71 0 -126 -29q-39 -18 -43 -38 q-2 -10 7 -30t11 -45q1 -11 1 -21t-3 -23q-12 -54 -56.5 -89.5t-106.5 -35.5q-66 0 -98 37.5t-19 96.5q20 96 141 171q151 92 346 92q148 0 251 -46q65 -27 96 -101.5t8 -178.5l-101 -475q-11 -55 4 -78.5t50 -23.5q29 0 82 31zM866 499q-218 -27 -307.5 -88.5 t-110.5 -160.5q-15 -69 13.5 -107t90.5 -38q99 0 179.5 71t106.5 194zM786 1476h297l104 -376h-36l-249 219l-342 -219h-36zM556 -163q66 0 104.5 -48t23.5 -115q-13 -65 -72 -116q-59 -47 -125 -47q-65 0 -104.5 48.5t-25.5 114.5q14 65 72.5 114t126.5 49z" />
<glyph unicode="&#x1eae;" horiz-adv-x="1554" d="M1155 1515l273 -1326q13 -54 36 -76q24 -20 70 -20h54l-20 -93h-694l20 93h65q79 0 110.5 17t37.5 45q4 21 -1 51l-57 274h-552l-81 -125q-49 -78 -57 -116q-14 -63 26 -104.5t122 -41.5h47l-20 -93h-561l20 93h32q54 0 102 34q67 48 116 123l800 1265h112zM915 1141 l-356 -563h470zM1405 1980l95 -10q-21 -70 -57 -128t-82.5 -103.5t-99 -67t-122.5 -21.5q-128 0 -189 90q-25 41 -30 105q-2 67 13 135h85q-5 -95 31.5 -126t139.5 -31q48 0 85.5 11t69 35t40 51.5t12 37t9.5 22.5zM1221 2007l-24 23l212 231q100 110 181 110 q45 0 74.5 -33.5t21.5 -70.5q-8 -39 -40 -68.5t-136 -73.5z" />
<glyph unicode="&#x1eaf;" d="M1200 116l27 -72q-68 -41 -123 -58q-29 -8 -54.5 -12t-54.5 -4q-84 0 -129 35.5t-70 138.5q-120 -97 -211.5 -135.5t-191.5 -38.5q-141 0 -206 65t-44 165q32 150 198 242q132 72 543 144l29 135q17 80 -25.5 130.5t-131.5 50.5q-71 0 -126 -29q-39 -18 -43 -38 q-2 -10 7 -30t11 -45q1 -11 1 -21t-3 -23q-12 -54 -56.5 -89.5t-106.5 -35.5q-66 0 -98 37.5t-19 96.5q20 96 141 171q151 92 346 92q148 0 251 -46q65 -27 96 -101.5t8 -178.5l-101 -475q-11 -55 4 -78.5t50 -23.5q29 0 82 31zM866 499q-218 -27 -307.5 -88.5 t-110.5 -160.5q-15 -69 13.5 -107t90.5 -38q99 0 179.5 71t106.5 194zM1083 1452l95 -10q-7 -33 -20.5 -63t-33.5 -67q-30 -56 -74 -98q-95 -92 -233 -92q-128 0 -189 90q-25 41 -29 105q-2 67 12 135h85q-5 -95 32 -126t140 -31q48 0 85.5 11t69 35t40 51.5t12 37t8.5 22.5 zM888 1479l-23 23l211 231q100 110 181 110q45 0 74.5 -33.5t21.5 -70.5q-8 -39 -39.5 -68.5t-136.5 -73.5z" />
<glyph unicode="&#x1eb0;" horiz-adv-x="1554" d="M1155 1515l273 -1326q13 -54 36 -76q24 -20 70 -20h54l-20 -93h-694l20 93h65q79 0 110.5 17t37.5 45q4 21 -1 51l-57 274h-552l-81 -125q-49 -78 -57 -116q-14 -63 26 -104.5t122 -41.5h47l-20 -93h-561l20 93h32q54 0 102 34q67 48 116 123l800 1265h112zM915 1141 l-356 -563h470zM1405 1980l95 -10q-21 -70 -57 -128t-82.5 -103.5t-99 -67t-122.5 -21.5q-128 0 -189 90q-25 41 -30 105q-2 67 13 135h85q-5 -95 31.5 -126t139.5 -31q48 0 85.5 11t69 35t40 51.5t12 37t9.5 22.5zM1312 2034l-31 -25l-260 129q-67 33 -87 60q-17 28 -9 66 q9 42 52.5 76t88.5 34q40 0 74 -24q24 -17 34 -27q21 -22 36 -55z" />
<glyph unicode="&#x1eb1;" d="M1200 116l27 -72q-68 -41 -123 -58q-29 -8 -54.5 -12t-54.5 -4q-84 0 -129 35.5t-70 138.5q-120 -97 -211.5 -135.5t-191.5 -38.5q-141 0 -206 65t-44 165q32 150 198 242q132 72 543 144l29 135q17 80 -25.5 130.5t-131.5 50.5q-71 0 -126 -29q-39 -18 -43 -38 q-2 -10 7 -30t11 -45q1 -11 1 -21t-3 -23q-12 -54 -56.5 -89.5t-106.5 -35.5q-66 0 -98 37.5t-19 96.5q20 96 141 171q151 92 346 92q148 0 251 -46q65 -27 96 -101.5t8 -178.5l-101 -475q-11 -55 4 -78.5t50 -23.5q29 0 82 31zM866 499q-218 -27 -307.5 -88.5 t-110.5 -160.5q-15 -69 13.5 -107t90.5 -38q99 0 179.5 71t106.5 194zM1083 1452l95 -10q-7 -33 -20.5 -63t-33.5 -67q-30 -56 -74 -98q-95 -92 -233 -92q-128 0 -189 90q-25 41 -29 105q-2 67 12 135h85q-5 -95 32 -126t140 -31q48 0 85.5 11t69 35t40 51.5t12 37t8.5 22.5 zM1053 1548l-32 -25l-259 129q-67 33 -87 60q-17 28 -9 66q9 42 52 76t88 34q41 0 71.5 -22.5t70.5 -99.5z" />
<glyph unicode="&#x1eb2;" horiz-adv-x="1554" d="M1155 1515l273 -1326q13 -54 36 -76q24 -20 70 -20h54l-20 -93h-694l20 93h65q79 0 110.5 17t37.5 45q4 21 -1 51l-57 274h-552l-81 -125q-49 -78 -57 -116q-14 -63 26 -104.5t122 -41.5h47l-20 -93h-561l20 93h32q54 0 102 34q67 48 116 123l800 1265h112zM915 1141 l-356 -563h470zM1405 1980l95 -10q-21 -70 -57 -128t-82.5 -103.5t-99 -67t-122.5 -21.5q-128 0 -189 90q-25 41 -30 105q-2 67 13 135h85q-5 -95 31.5 -126t139.5 -31q48 0 85.5 11t69 35t40 51.5t12 37t9.5 22.5zM1265 1997h-43l6 35q12 56 30 90q9 19 23.5 39t34.5 43 q28 33 43 53t27 38q22 40 30 75q13 61 -12 93q-21 30 -72 30q-38 0 -66 -16q-28 -13 -32 -32q-3 -12 14 -22q31 -19 36 -27q11 -17 6 -40q-7 -33 -37 -53q-18 -12 -34 -18t-35 -6t-33.5 6t-28.5 21q-23 26 -14 68q14 66 90 117q37 23 85 36t98 13q102 0 159 -53t41 -128 q-2 -13 -6.5 -25.5t-16.5 -32.5l-26 -39l-20 -18q-19 -18 -88 -60q-60 -37 -89 -62l-25 -27l-19 -28q-16 -25 -26 -70z" />
<glyph unicode="&#x1eb3;" d="M1200 116l27 -72q-68 -41 -123 -58q-29 -8 -54.5 -12t-54.5 -4q-84 0 -129 35.5t-70 138.5q-120 -97 -211.5 -135.5t-191.5 -38.5q-141 0 -206 65t-44 165q32 150 198 242q132 72 543 144l29 135q17 80 -25.5 130.5t-131.5 50.5q-71 0 -126 -29q-39 -18 -43 -38 q-2 -10 7 -30t11 -45q1 -11 1 -21t-3 -23q-12 -54 -56.5 -89.5t-106.5 -35.5q-66 0 -98 37.5t-19 96.5q20 96 141 171q151 92 346 92q148 0 251 -46q65 -27 96 -101.5t8 -178.5l-101 -475q-11 -55 4 -78.5t50 -23.5q29 0 82 31zM866 499q-218 -27 -307.5 -88.5 t-110.5 -160.5q-15 -69 13.5 -107t90.5 -38q99 0 179.5 71t106.5 194zM1083 1452l95 -10q-7 -33 -20.5 -63t-33.5 -67q-30 -56 -74 -98q-95 -92 -233 -92q-128 0 -189 90q-25 41 -29 105q-2 67 12 135h85q-5 -95 32 -126t140 -31q48 0 85.5 11t69 35t40 51.5t12 37t8.5 22.5 zM899 1462h-43l5 35q12 56 30 90q9 19 23.5 39t35.5 43q28 33 42.5 53t26.5 38q22 40 30 75q13 61 -12 93q-21 30 -72 30q-38 0 -66 -16q-28 -13 -32 -32q-3 -12 14 -22q31 -19 36 -27q11 -17 6 -40q-7 -33 -37 -53q-18 -12 -34 -18t-35 -6t-33.5 6t-28.5 21q-23 26 -14 68 q14 66 91 117q36 23 84 36t98 13q102 0 159 -53t41 -128q-2 -13 -6.5 -25.5t-16.5 -32.5l-26 -39l-20 -18q-19 -18 -88 -60q-60 -37 -89 -62l-25 -27l-19 -28q-16 -25 -25 -70z" />
<glyph unicode="&#x1eb4;" horiz-adv-x="1554" d="M1155 1515l273 -1326q13 -54 36 -76q24 -20 70 -20h54l-20 -93h-694l20 93h65q79 0 110.5 17t37.5 45q4 21 -1 51l-57 274h-552l-81 -125q-49 -78 -57 -116q-14 -63 26 -104.5t122 -41.5h47l-20 -93h-561l20 93h32q54 0 102 34q67 48 116 123l800 1265h112zM915 1141 l-356 -563h470zM1405 1980l95 -10q-21 -70 -57 -128t-82.5 -103.5t-99 -67t-122.5 -21.5q-128 0 -189 90q-25 41 -30 105q-2 67 13 135h85q-5 -95 31.5 -126t139.5 -31q48 0 85.5 11t69 35t40 51.5t12 37t9.5 22.5zM1752 2421h27q-13 -58 -41.5 -105.5t-71.5 -84.5 q-81 -72 -166 -72q-32 0 -71 9q-11 2 -24.5 6t-30.5 11l-96 37q-63 25 -93 25q-79 0 -135 -89h-23q41 127 117.5 192.5t163.5 65.5q56 0 168 -44q106 -41 137 -41q95 0 139 90z" />
<glyph unicode="&#x1eb5;" d="M1200 116l27 -72q-68 -41 -123 -58q-29 -8 -54.5 -12t-54.5 -4q-84 0 -129 35.5t-70 138.5q-120 -97 -211.5 -135.5t-191.5 -38.5q-141 0 -206 65t-44 165q32 150 198 242q132 72 543 144l29 135q17 80 -25.5 130.5t-131.5 50.5q-71 0 -126 -29q-39 -18 -43 -38 q-2 -10 7 -30t11 -45q1 -11 1 -21t-3 -23q-12 -54 -56.5 -89.5t-106.5 -35.5q-66 0 -98 37.5t-19 96.5q20 96 141 171q151 92 346 92q148 0 251 -46q65 -27 96 -101.5t8 -178.5l-101 -475q-11 -55 4 -78.5t50 -23.5q29 0 82 31zM866 499q-218 -27 -307.5 -88.5 t-110.5 -160.5q-15 -69 13.5 -107t90.5 -38q99 0 179.5 71t106.5 194zM1083 1452l95 -10q-7 -33 -20.5 -63t-33.5 -67q-30 -56 -74 -98q-95 -92 -233 -92q-128 0 -189 90q-25 41 -29 105q-2 67 12 135h85q-5 -95 32 -126t140 -31q48 0 85.5 11t69 35t40 51.5t12 37t8.5 22.5 zM1535 1871h27q-12 -58 -40.5 -105.5t-71.5 -84.5q-81 -72 -166 -72q-32 0 -71 9q-11 2 -24.5 6t-30.5 11l-96 37q-64 25 -94 25q-79 0 -134 -89h-23q41 127 117 192.5t163 65.5q56 0 169 -44q106 -41 137 -41q95 0 138 90z" />
<glyph unicode="&#x1eb6;" horiz-adv-x="1554" d="M1155 1515l273 -1326q13 -54 36 -76q24 -20 70 -20h54l-20 -93h-694l20 93h65q79 0 110.5 17t37.5 45q4 21 -1 51l-57 274h-552l-81 -125q-49 -78 -57 -116q-14 -63 26 -104.5t122 -41.5h47l-20 -93h-561l20 93h32q54 0 102 34q67 48 116 123l800 1265h112zM915 1141 l-356 -563h470zM1405 1980l95 -10q-21 -70 -57 -128t-82.5 -103.5t-99 -67t-122.5 -21.5q-128 0 -189 90q-25 41 -30 105q-2 67 13 135h85q-5 -95 31.5 -126t139.5 -31q48 0 85.5 11t69 35t40 51.5t12 37t9.5 22.5zM768 -152q66 0 104 -48t24 -115q-14 -65 -73 -116 q-59 -47 -125 -47q-65 0 -104 48.5t-25 114.5q14 65 72.5 114t126.5 49z" />
<glyph unicode="&#x1eb7;" d="M1200 116l27 -72q-68 -41 -123 -58q-29 -8 -54.5 -12t-54.5 -4q-84 0 -129 35.5t-70 138.5q-120 -97 -211.5 -135.5t-191.5 -38.5q-141 0 -206 65t-44 165q32 150 198 242q132 72 543 144l29 135q17 80 -25.5 130.5t-131.5 50.5q-71 0 -126 -29q-39 -18 -43 -38 q-2 -10 7 -30t11 -45q1 -11 1 -21t-3 -23q-12 -54 -56.5 -89.5t-106.5 -35.5q-66 0 -98 37.5t-19 96.5q20 96 141 171q151 92 346 92q148 0 251 -46q65 -27 96 -101.5t8 -178.5l-101 -475q-11 -55 4 -78.5t50 -23.5q29 0 82 31zM866 499q-218 -27 -307.5 -88.5 t-110.5 -160.5q-15 -69 13.5 -107t90.5 -38q99 0 179.5 71t106.5 194zM1083 1452l95 -10q-7 -33 -20.5 -63t-33.5 -67q-30 -56 -74 -98q-95 -92 -233 -92q-128 0 -189 90q-25 41 -29 105q-2 67 12 135h85q-5 -95 32 -126t140 -31q48 0 85.5 11t69 35t40 51.5t12 37t8.5 22.5 zM556 -163q66 0 104.5 -48t23.5 -115q-13 -65 -72 -116q-59 -47 -125 -47q-65 0 -104.5 48.5t-25.5 114.5q14 65 72.5 114t126.5 49z" />
<glyph unicode="&#x1eb8;" horiz-adv-x="1554" d="M385 1479h1288l-81 -517h-88q9 183 -20 263t-98 120.5t-188 40.5h-202q-45 0 -71 -18.5t-33 -51.5l-109 -513h69q119 0 198 68q41 35 75.5 92.5t49.5 126.5h90l-147 -688h-90q18 83 11 143.5t-34 97.5q-52 70 -184 70h-57l-117 -547q-7 -36 10 -51q31 -22 88 -22h178 q181 0 323 117t220 353h90l-142 -563h-1343l20 93h133q45 0 73.5 23t36.5 62l242 1138q7 34 -12.5 52t-80.5 18h-117zM779 -152q66 0 104 -48t24 -115q-14 -65 -73 -116q-59 -47 -125 -47q-65 0 -104 48.5t-25 114.5q14 65 72.5 114t126.5 49z" />
<glyph unicode="&#x1eb9;" horiz-adv-x="1176" d="M1165 462h-657q-21 -100 -16 -170q2 -37 9.5 -66.5t23.5 -54.5q57 -93 177 -93q43 0 84 11t87 36q86 48 197 175l64 -45q-115 -149 -240.5 -214t-281.5 -65q-117 0 -201.5 34.5t-141.5 105.5q-111 140 -64 359q46 220 220.5 366.5t382.5 146.5q145 0 234 -58t124 -174 q18 -58 17 -132q0 -39 -4 -76.5t-14 -85.5zM527 552h313q44 0 67.5 22t36.5 80q24 116 -15.5 179.5t-121.5 63.5q-96 0 -167 -86q-36 -44 -65.5 -108.5t-47.5 -150.5zM556 -163q66 0 104.5 -48t23.5 -115q-14 -65 -72 -116q-59 -47 -125 -47q-65 0 -104.5 48.5t-25.5 114.5 q14 65 72.5 114t126.5 49z" />
<glyph unicode="&#x1eba;" horiz-adv-x="1554" d="M385 1479h1288l-81 -517h-88q9 183 -20 263t-98 120.5t-188 40.5h-202q-45 0 -71 -18.5t-33 -51.5l-109 -513h69q119 0 198 68q41 35 75.5 92.5t49.5 126.5h90l-147 -688h-90q18 83 11 143.5t-34 97.5q-52 70 -184 70h-57l-117 -547q-7 -36 10 -51q31 -22 88 -22h178 q181 0 323 117t220 353h90l-142 -563h-1343l20 93h133q45 0 73.5 23t36.5 62l242 1138q7 34 -12.5 52t-80.5 18h-117zM1183 1660h-43l5 35q12 56 30 90q9 19 23.5 39t35.5 43q28 33 42.5 53t26.5 38q23 40 30 75q13 61 -12 93q-21 30 -72 30q-38 0 -66 -16q-28 -13 -32 -32 q-2 -12 14 -22q31 -19 37 -27q10 -17 5 -40q-7 -33 -37 -53q-18 -12 -33.5 -18t-34.5 -6t-34 6t-28 21q-24 26 -15 68q14 66 91 117q37 23 84.5 36t97.5 13q102 0 159.5 -53t41.5 -128q-3 -13 -7 -25.5t-17 -32.5l-26 -39l-20 -18q-18 -18 -87 -60q-60 -37 -90 -62l-24 -27 l-19 -28q-17 -25 -26 -70z" />
<glyph unicode="&#x1ebb;" horiz-adv-x="1176" d="M1165 462h-657q-21 -100 -16 -170q2 -37 9.5 -66.5t23.5 -54.5q57 -93 177 -93q43 0 84 11t87 36q86 48 197 175l64 -45q-115 -149 -240.5 -214t-281.5 -65q-117 0 -201.5 34.5t-141.5 105.5q-111 140 -64 359q46 220 220.5 366.5t382.5 146.5q145 0 234 -58t124 -174 q18 -58 17 -132q0 -39 -4 -76.5t-14 -85.5zM527 552h313q44 0 67.5 22t36.5 80q24 116 -15.5 179.5t-121.5 63.5q-96 0 -167 -86q-36 -44 -65.5 -108.5t-47.5 -150.5zM903 1121h-43l5 35q12 56 30 90q9 19 23.5 39t35.5 43q28 33 42.5 53t26.5 38q23 40 30 75q13 61 -12 93 q-21 30 -72 30q-38 0 -66 -16q-28 -13 -32 -32q-2 -12 14 -22q31 -19 37 -27q10 -17 5 -40q-7 -33 -37 -53q-18 -12 -33.5 -18t-34.5 -6t-34 6t-28 21q-24 26 -15 68q14 66 91 117q37 23 84.5 36t97.5 13q102 0 159.5 -53t41.5 -128q-3 -13 -7 -25.5t-17 -32.5l-26 -39 l-20 -18q-18 -18 -87 -60q-60 -37 -90 -62l-24 -27l-19 -28q-17 -25 -26 -70z" />
<glyph unicode="&#x1ebc;" horiz-adv-x="1554" d="M385 1479h1288l-81 -517h-88q9 183 -20 263t-98 120.5t-188 40.5h-202q-45 0 -71 -18.5t-33 -51.5l-109 -513h69q119 0 198 68q41 35 75.5 92.5t49.5 126.5h90l-147 -688h-90q18 83 11 143.5t-34 97.5q-52 70 -184 70h-57l-117 -547q-7 -36 10 -51q31 -22 88 -22h178 q181 0 323 117t220 353h90l-142 -563h-1343l20 93h133q45 0 73.5 23t36.5 62l242 1138q7 34 -12.5 52t-80.5 18h-117zM1514 1926h27q-12 -58 -40.5 -105.5t-71.5 -84.5q-81 -72 -166 -72q-32 0 -71 9q-11 2 -24.5 6t-30.5 11l-96 37q-64 25 -94 25q-79 0 -135 -89h-23 q41 127 117.5 192.5t163.5 65.5q56 0 169 -44q106 -41 137 -41q95 0 138 90z" />
<glyph unicode="&#x1ebd;" horiz-adv-x="1176" d="M1165 462h-657q-21 -100 -16 -170q2 -37 9.5 -66.5t23.5 -54.5q57 -93 177 -93q43 0 84 11t87 36q86 48 197 175l64 -45q-115 -149 -240.5 -214t-281.5 -65q-117 0 -201.5 34.5t-141.5 105.5q-111 140 -64 359q46 220 220.5 366.5t382.5 146.5q145 0 234 -58t124 -174 q18 -58 17 -132q0 -39 -4 -76.5t-14 -85.5zM527 552h313q44 0 67.5 22t36.5 80q24 116 -15.5 179.5t-121.5 63.5q-96 0 -167 -86q-36 -44 -65.5 -108.5t-47.5 -150.5zM1226 1398h27q-13 -58 -41.5 -105.5t-71.5 -84.5q-81 -72 -166 -72q-32 0 -71 9q-11 2 -24.5 6t-29.5 11 l-97 37q-63 25 -93 25q-79 0 -135 -89h-23q41 127 117.5 192.5t163.5 65.5q56 0 168 -44q107 -41 138 -41q95 0 138 90z" />
<glyph unicode="&#x1ebe;" horiz-adv-x="1554" d="M385 1479h1288l-81 -517h-88q9 183 -20 263t-98 120.5t-188 40.5h-202q-45 0 -71 -18.5t-33 -51.5l-109 -513h69q119 0 198 68q41 35 75.5 92.5t49.5 126.5h90l-147 -688h-90q18 83 11 143.5t-34 97.5q-52 70 -184 70h-57l-117 -547q-7 -36 10 -51q31 -22 88 -22h178 q181 0 323 117t220 353h90l-142 -563h-1343l20 93h133q45 0 73.5 23t36.5 62l242 1138q7 34 -12.5 52t-80.5 18h-117zM1055 2015h297l103 -376h-36l-248 219l-343 -219h-36zM1551 1853l-23 23l211 231q100 110 181 110q45 0 74.5 -33.5t21.5 -70.5q-8 -39 -40 -68.5 t-136 -73.5z" />
<glyph unicode="&#x1ebf;" horiz-adv-x="1176" d="M1165 462h-657q-21 -100 -16 -170q2 -37 9.5 -66.5t23.5 -54.5q57 -93 177 -93q43 0 84 11t87 36q86 48 197 175l64 -45q-115 -149 -240.5 -214t-281.5 -65q-117 0 -201.5 34.5t-141.5 105.5q-111 140 -64 359q46 220 220.5 366.5t382.5 146.5q145 0 234 -58t124 -174 q18 -58 17 -132q0 -39 -4 -76.5t-14 -85.5zM527 552h313q44 0 67.5 22t36.5 80q24 116 -15.5 179.5t-121.5 63.5q-96 0 -167 -86q-36 -44 -65.5 -108.5t-47.5 -150.5zM749 1454h297l103 -376h-36l-249 219l-342 -219h-36zM1177 1336l-24 23l212 231q100 110 181 110 q45 0 74.5 -33.5t21.5 -70.5q-8 -39 -40 -68.5t-136 -73.5z" />
<glyph unicode="&#x1ec0;" horiz-adv-x="1554" d="M385 1479h1288l-81 -517h-88q9 183 -20 263t-98 120.5t-188 40.5h-202q-45 0 -71 -18.5t-33 -51.5l-109 -513h69q119 0 198 68q41 35 75.5 92.5t49.5 126.5h90l-147 -688h-90q18 83 11 143.5t-34 97.5q-52 70 -184 70h-57l-117 -547q-7 -36 10 -51q31 -22 88 -22h178 q181 0 323 117t220 353h90l-142 -563h-1343l20 93h133q45 0 73.5 23t36.5 62l242 1138q7 34 -12.5 52t-80.5 18h-117zM1055 2015h297l103 -376h-36l-248 219l-343 -219h-36zM1818 1988l-32 -25l-259 129q-67 33 -88 60q-17 28 -9 66q9 42 52.5 76t88.5 34q41 0 71.5 -22.5 t70.5 -99.5z" />
<glyph unicode="&#x1ec1;" horiz-adv-x="1176" d="M1165 462h-657q-21 -100 -16 -170q2 -37 9.5 -66.5t23.5 -54.5q57 -93 177 -93q43 0 84 11t87 36q86 48 197 175l64 -45q-115 -149 -240.5 -214t-281.5 -65q-117 0 -201.5 34.5t-141.5 105.5q-111 140 -64 359q46 220 220.5 366.5t382.5 146.5q145 0 234 -58t124 -174 q18 -58 17 -132q0 -39 -4 -76.5t-14 -85.5zM527 552h313q44 0 67.5 22t36.5 80q24 116 -15.5 179.5t-121.5 63.5q-96 0 -167 -86q-36 -44 -65.5 -108.5t-47.5 -150.5zM749 1454h297l103 -376h-36l-249 219l-342 -219h-36zM1397 1460l-31 -25l-260 129q-67 33 -87 60 q-17 28 -9 66q9 42 52 76t88 34q41 0 72 -22.5t70 -99.5z" />
<glyph unicode="&#x1ec2;" horiz-adv-x="1554" d="M385 1479h1288l-81 -517h-88q9 183 -20 263t-98 120.5t-188 40.5h-202q-45 0 -71 -18.5t-33 -51.5l-109 -513h69q119 0 198 68q41 35 75.5 92.5t49.5 126.5h90l-147 -688h-90q18 83 11 143.5t-34 97.5q-52 70 -184 70h-57l-117 -547q-7 -36 10 -51q31 -22 88 -22h178 q181 0 323 117t220 353h90l-142 -563h-1343l20 93h133q45 0 73.5 23t36.5 62l242 1138q7 34 -12.5 52t-80.5 18h-117zM1055 2015h297l103 -376h-36l-248 219l-343 -219h-36zM1657 1924h-43l5 35q12 56 31 90q9 19 23 39t35 43q28 33 42.5 53t26.5 38q23 40 30 75 q13 61 -12 93q-21 30 -72 30q-38 0 -66 -16q-28 -13 -32 -32q-2 -12 15 -22q30 -19 36 -27q10 -17 5 -40q-7 -33 -37 -53q-18 -12 -33.5 -18t-34.5 -6t-34 6t-28 21q-24 26 -15 68q14 66 91 117q37 23 84.5 36t97.5 13q102 0 159.5 -53t41.5 -128q-3 -13 -7 -25.5t-16 -32.5 l-27 -39l-20 -18q-18 -18 -87 -60q-60 -37 -89 -62l-25 -27l-19 -28q-16 -25 -26 -70z" />
<glyph unicode="&#x1ec3;" horiz-adv-x="1176" d="M1165 462h-657q-21 -100 -16 -170q2 -37 9.5 -66.5t23.5 -54.5q57 -93 177 -93q43 0 84 11t87 36q86 48 197 175l64 -45q-115 -149 -240.5 -214t-281.5 -65q-117 0 -201.5 34.5t-141.5 105.5q-111 140 -64 359q46 220 220.5 366.5t382.5 146.5q145 0 234 -58t124 -174 q18 -58 17 -132q0 -39 -4 -76.5t-14 -85.5zM527 552h313q44 0 67.5 22t36.5 80q24 116 -15.5 179.5t-121.5 63.5q-96 0 -167 -86q-36 -44 -65.5 -108.5t-47.5 -150.5zM749 1454h297l103 -376h-36l-249 219l-342 -219h-36zM1269 1341h-43l5 35q12 56 30 90q9 19 23.5 39 t35.5 43q28 33 42.5 53t26.5 38q22 40 30 75q13 61 -12 93q-21 30 -72 30q-38 0 -66 -16q-28 -13 -32 -32q-3 -12 14 -22q31 -19 36 -27q11 -17 6 -40q-7 -33 -37 -53q-18 -12 -33.5 -18t-34.5 -6t-34 6t-29 21q-23 26 -14 68q14 66 91 117q37 23 84.5 36t97.5 13 q102 0 159.5 -53t41.5 -128q-3 -13 -7.5 -25.5t-16.5 -32.5l-26 -39l-20 -18q-19 -18 -88 -60q-59 -37 -89 -62l-25 -27l-18 -28q-17 -25 -26 -70z" />
<glyph unicode="&#x1ec4;" horiz-adv-x="1554" d="M385 1479h1288l-81 -517h-88q9 183 -20 263t-98 120.5t-188 40.5h-202q-45 0 -71 -18.5t-33 -51.5l-109 -513h69q119 0 198 68q41 35 75.5 92.5t49.5 126.5h90l-147 -688h-90q18 83 11 143.5t-34 97.5q-52 70 -184 70h-57l-117 -547q-7 -36 10 -51q31 -22 88 -22h178 q181 0 323 117t220 353h90l-142 -563h-1343l20 93h133q45 0 73.5 23t36.5 62l242 1138q7 34 -12.5 52t-80.5 18h-117zM1055 2015h297l103 -376h-36l-248 219l-343 -219h-36zM1765 2432h27q-12 -58 -41 -105.5t-71 -84.5q-82 -72 -167 -72q-32 0 -71 9q-10 2 -24 6t-30 11 l-96 37q-64 25 -94 25q-79 0 -135 -89h-23q41 127 117.5 192.5t163.5 65.5q56 0 169 -44q106 -41 137 -41q95 0 138 90z" />
<glyph unicode="&#x1ec5;" horiz-adv-x="1176" d="M1165 462h-657q-21 -100 -16 -170q2 -37 9.5 -66.5t23.5 -54.5q57 -93 177 -93q43 0 84 11t87 36q86 48 197 175l64 -45q-115 -149 -240.5 -214t-281.5 -65q-117 0 -201.5 34.5t-141.5 105.5q-111 140 -64 359q46 220 220.5 366.5t382.5 146.5q145 0 234 -58t124 -174 q18 -58 17 -132q0 -39 -4 -76.5t-14 -85.5zM527 552h313q44 0 67.5 22t36.5 80q24 116 -15.5 179.5t-121.5 63.5q-96 0 -167 -86q-36 -44 -65.5 -108.5t-47.5 -150.5zM749 1454h297l103 -376h-36l-249 219l-342 -219h-36zM1575 1849h27q-13 -58 -41.5 -105.5t-71.5 -84.5 q-81 -72 -166 -72q-32 0 -71 9q-11 2 -24.5 6t-30.5 11l-96 37q-63 25 -93 25q-79 0 -135 -89h-23q41 127 117.5 192.5t163.5 65.5q56 0 168 -44q106 -41 137 -41q95 0 139 90z" />
<glyph unicode="&#x1ec6;" horiz-adv-x="1554" d="M385 1479h1288l-81 -517h-88q9 183 -20 263t-98 120.5t-188 40.5h-202q-45 0 -71 -18.5t-33 -51.5l-109 -513h69q119 0 198 68q41 35 75.5 92.5t49.5 126.5h90l-147 -688h-90q18 83 11 143.5t-34 97.5q-52 70 -184 70h-57l-117 -547q-7 -36 10 -51q31 -22 88 -22h178 q181 0 323 117t220 353h90l-142 -563h-1343l20 93h133q45 0 73.5 23t36.5 62l242 1138q7 34 -12.5 52t-80.5 18h-117zM1055 2015h297l103 -376h-36l-248 219l-343 -219h-36zM792 -141q66 0 104.5 -48t23.5 -115q-13 -65 -72 -116q-59 -47 -125 -47q-65 0 -104.5 48.5 t-25.5 114.5q14 65 72.5 114t126.5 49z" />
<glyph unicode="&#x1ec7;" horiz-adv-x="1176" d="M1165 462h-657q-21 -100 -16 -170q2 -37 9.5 -66.5t23.5 -54.5q57 -93 177 -93q43 0 84 11t87 36q86 48 197 175l64 -45q-115 -149 -240.5 -214t-281.5 -65q-117 0 -201.5 34.5t-141.5 105.5q-111 140 -64 359q46 220 220.5 366.5t382.5 146.5q145 0 234 -58t124 -174 q18 -58 17 -132q0 -39 -4 -76.5t-14 -85.5zM527 552h313q44 0 67.5 22t36.5 80q24 116 -15.5 179.5t-121.5 63.5q-96 0 -167 -86q-36 -44 -65.5 -108.5t-47.5 -150.5zM749 1454h297l103 -376h-36l-249 219l-342 -219h-36zM556 -163q66 0 104.5 -48t23.5 -115 q-14 -65 -72 -116q-59 -47 -125 -47q-65 0 -104.5 48.5t-25.5 114.5q14 65 72.5 114t126.5 49z" />
<glyph unicode="&#x1ec8;" horiz-adv-x="909" d="M389 1479h758l-19 -93h-137q-41 0 -66.5 -17.5t-32.5 -51.5l-243 -1145q-9 -39 8 -57q24 -22 74 -22h122l-20 -93h-758l20 93h116q33 0 52.5 4t36.5 16q28 20 37 59l240 1132q9 42 -9 62t-66 20h-132zM879 1627h-43l5 35q12 56 30 90q9 19 23.5 39t35.5 43q28 33 42.5 53 t26.5 38q23 40 30 75q13 61 -12 93q-21 30 -72 30q-38 0 -66 -16q-28 -13 -32 -32q-2 -12 14 -22q31 -19 37 -27q10 -17 5 -40q-7 -33 -37 -53q-18 -12 -33.5 -18t-34.5 -6t-34 6t-28 21q-24 26 -15 68q14 66 91 117q37 23 84.5 36t97.5 13q102 0 159.5 -53t41.5 -128 q-3 -13 -7 -25.5t-17 -32.5l-26 -39l-20 -18q-18 -18 -87 -60q-60 -37 -90 -62l-24 -27l-19 -28q-17 -25 -26 -70z" />
<glyph unicode="&#x1ec9;" horiz-adv-x="758" d="M313 936l420 19l-169 -795q-6 -30 9 -50q19 -17 60 -17h63l-20 -93h-562l20 93h62q50 0 75.5 23t37.5 80l115 542q10 49 -14 78t-74 29h-42zM657 1154h-43l6 35q12 56 30 90q9 19 23 39t35 43q28 33 43 53t27 38q22 40 30 75q13 61 -13 93q-20 30 -71 30q-38 0 -67 -16 q-27 -13 -31 -32q-3 -12 14 -22q31 -19 36 -27q10 -17 6 -40q-7 -33 -38 -53q-17 -12 -33 -18t-35 -6t-33.5 6t-28.5 21q-24 26 -15 68q14 66 91 117q37 23 85 36t98 13q102 0 159 -53t41 -128q-3 -13 -7 -25.5t-16 -32.5l-26 -39l-20 -18q-19 -18 -88 -60q-60 -37 -89 -62 l-25 -27l-19 -28q-16 -25 -26 -70z" />
<glyph unicode="&#x1eca;" horiz-adv-x="909" d="M389 1479h758l-19 -93h-137q-41 0 -66.5 -17.5t-32.5 -51.5l-243 -1145q-9 -39 8 -57q24 -22 74 -22h122l-20 -93h-758l20 93h116q33 0 52.5 4t36.5 16q28 20 37 59l240 1132q9 42 -9 62t-66 20h-132zM440 -141q66 0 104.5 -48t23.5 -115q-13 -65 -72 -116 q-59 -47 -125 -47q-65 0 -104.5 48.5t-25.5 114.5q14 65 72.5 114t126.5 49z" />
<glyph unicode="&#x1ecb;" horiz-adv-x="758" d="M685 1476q64 0 103.5 -47.5t24.5 -115.5q-14 -65 -73 -116q-59 -47 -125 -47q-65 0 -104 48.5t-25 114.5q14 65 72.5 114t126.5 49zM313 936l420 19l-169 -795q-6 -30 9 -50q19 -17 60 -17h63l-20 -93h-562l20 93h62q50 0 75.5 23t37.5 80l115 542q10 49 -14 78t-74 29 h-42zM380 -163q66 0 104.5 -48t24.5 -115q-14 -65 -73 -116q-59 -47 -125 -47q-65 0 -104 48.5t-25 114.5q14 65 72 114t126 49z" />
<glyph unicode="&#x1ecc;" horiz-adv-x="1706" d="M1168 1517q211 0 364 -100t215.5 -275t15.5 -395q-70 -333 -334 -555t-588 -222q-216 0 -363 101t-208.5 272.5t-13.5 398.5q72 337 333.5 556t578.5 219zM1154 1421q-117 0 -218.5 -64.5t-185 -211.5t-137.5 -401q-58 -272 -39 -406t94.5 -201t198.5 -67 q177 0 317.5 153t221.5 534q57 268 40 400t-93.5 198t-198.5 66zM840 -174q66 0 104 -48t24 -115q-14 -65 -73 -116q-59 -47 -125 -47q-65 0 -104 48.5t-25 114.5q14 65 72.5 114t126.5 49z" />
<glyph unicode="&#x1ecd;" d="M827 988q159 0 275 -67t156.5 -178.5t8.5 -263.5q-53 -246 -248.5 -377.5t-407.5 -131.5q-150 0 -259.5 66.5t-153.5 182.5q-19 54 -23 120.5t11 138.5q46 216 229 363t412 147zM813 893q-104 0 -185.5 -92.5t-129.5 -320.5q-51 -238 -10.5 -329t146.5 -91q104 0 190 93 t134 321q50 234 6.5 326.5t-151.5 92.5zM587 -174q66 0 104 -48t24 -115q-14 -65 -73 -116q-59 -47 -125 -47q-65 0 -104 48.5t-25 114.5q14 65 72.5 114t126.5 49z" />
<glyph unicode="&#x1ece;" horiz-adv-x="1706" d="M1168 1517q211 0 364 -100t215.5 -275t15.5 -395q-70 -333 -334 -555t-588 -222q-216 0 -363 101t-208.5 272.5t-13.5 398.5q72 337 333.5 556t578.5 219zM1154 1421q-117 0 -218.5 -64.5t-185 -211.5t-137.5 -401q-58 -272 -39 -406t94.5 -201t198.5 -67 q177 0 317.5 153t221.5 534q57 268 40 400t-93.5 198t-198.5 66zM1270 1660h-43l6 35q12 56 30 90q9 19 23 39t35 43q28 33 43 53t27 38q22 40 30 75q13 61 -13 93q-20 30 -71 30q-38 0 -67 -16q-27 -13 -31 -32q-3 -12 14 -22q31 -19 36 -27q11 -17 6 -40q-7 -33 -38 -53 q-17 -12 -33 -18t-35 -6t-33.5 6t-28.5 21q-23 26 -14 68q14 66 90 117q37 23 85 36t98 13q102 0 159 -53t41 -128q-2 -13 -6.5 -25.5t-16.5 -32.5l-26 -39l-20 -18q-19 -18 -88 -60q-60 -37 -89 -62l-25 -27l-19 -28q-16 -25 -26 -70z" />
<glyph unicode="&#x1ecf;" d="M938 1132h-43l6 35q12 56 30 90q9 19 23 39t35 43q28 33 43 53t27 38q22 40 30 75q13 61 -13 93q-20 30 -71 30q-38 0 -67 -16q-27 -13 -31 -32q-3 -12 14 -22q31 -19 36 -27q11 -17 6 -40q-7 -33 -38 -53q-17 -12 -33 -18t-35 -6t-33.5 6t-28.5 21q-23 26 -15 68 q14 66 91 117q37 23 85 36t98 13q102 0 159 -53t41 -128q-3 -13 -7 -25.5t-16 -32.5l-26 -39l-20 -18q-19 -18 -88 -60q-60 -37 -89 -62l-25 -27l-19 -28q-16 -25 -26 -70zM827 988q159 0 275 -67t156.5 -178.5t8.5 -263.5q-53 -246 -248.5 -377.5t-407.5 -131.5 q-150 0 -259.5 66.5t-153.5 182.5q-19 54 -23 120.5t11 138.5q46 216 229 363t412 147zM813 893q-104 0 -185.5 -92.5t-129.5 -320.5q-51 -238 -10.5 -329t146.5 -91q104 0 190 93t134 321q50 234 6.5 326.5t-151.5 92.5z" />
<glyph unicode="&#x1ed0;" horiz-adv-x="1706" d="M1168 1517q211 0 364 -100t215.5 -275t15.5 -395q-70 -333 -334 -555t-588 -222q-216 0 -363 101t-208.5 272.5t-13.5 398.5q72 337 333.5 556t578.5 219zM1154 1421q-117 0 -218.5 -64.5t-185 -211.5t-137.5 -401q-58 -272 -39 -406t94.5 -201t198.5 -67 q177 0 317.5 153t221.5 534q57 268 40 400t-93.5 198t-198.5 66zM1112 2026h297l103 -376h-36l-248 219l-343 -219h-36zM1599 1875l-23 23l211 231q100 110 181 110q45 0 74.5 -33.5t21.5 -70.5q-8 -39 -39.5 -68.5t-136.5 -73.5z" />
<glyph unicode="&#x1ed1;" d="M827 988q159 0 275 -67t156.5 -178.5t8.5 -263.5q-53 -246 -248.5 -377.5t-407.5 -131.5q-150 0 -259.5 66.5t-153.5 182.5q-19 54 -23 120.5t11 138.5q46 216 229 363t412 147zM813 893q-104 0 -185.5 -92.5t-129.5 -320.5q-51 -238 -10.5 -329t146.5 -91q104 0 190 93 t134 321q50 234 6.5 326.5t-151.5 92.5zM789 1487h297l103 -376h-36l-249 219l-342 -219h-36zM1272 1369l-23 23l211 231q100 110 181 110q45 0 74.5 -33.5t21.5 -70.5q-8 -39 -40 -68.5t-136 -73.5z" />
<glyph unicode="&#x1ed2;" horiz-adv-x="1706" d="M1168 1517q211 0 364 -100t215.5 -275t15.5 -395q-70 -333 -334 -555t-588 -222q-216 0 -363 101t-208.5 272.5t-13.5 398.5q72 337 333.5 556t578.5 219zM1154 1421q-117 0 -218.5 -64.5t-185 -211.5t-137.5 -401q-58 -272 -39 -406t94.5 -201t198.5 -67 q177 0 317.5 153t221.5 534q57 268 40 400t-93.5 198t-198.5 66zM1112 2026h297l103 -376h-36l-248 219l-343 -219h-36zM1839 1988l-31 -25l-260 129q-67 33 -87 60q-17 28 -9 66q9 42 52 76t88 34q41 0 72 -22.5t70 -99.5z" />
<glyph unicode="&#x1ed3;" d="M827 988q159 0 275 -67t156.5 -178.5t8.5 -263.5q-53 -246 -248.5 -377.5t-407.5 -131.5q-150 0 -259.5 66.5t-153.5 182.5q-19 54 -23 120.5t11 138.5q46 216 229 363t412 147zM813 893q-104 0 -185.5 -92.5t-129.5 -320.5q-51 -238 -10.5 -329t146.5 -91q104 0 190 93 t134 321q50 234 6.5 326.5t-151.5 92.5zM789 1487h297l103 -376h-36l-249 219l-342 -219h-36zM1415 1493l-31 -25l-260 129q-67 33 -87 60q-17 28 -9 66q9 42 52 76t88 34q41 0 72 -22.5t70 -99.5z" />
<glyph unicode="&#x1ed4;" horiz-adv-x="1706" d="M1168 1517q211 0 364 -100t215.5 -275t15.5 -395q-70 -333 -334 -555t-588 -222q-216 0 -363 101t-208.5 272.5t-13.5 398.5q72 337 333.5 556t578.5 219zM1154 1421q-117 0 -218.5 -64.5t-185 -211.5t-137.5 -401q-58 -272 -39 -406t94.5 -201t198.5 -67 q177 0 317.5 153t221.5 534q57 268 40 400t-93.5 198t-198.5 66zM1112 2026h297l103 -376h-36l-248 219l-343 -219h-36zM1691 1880h-43l6 35q11 56 30 90q9 19 23 39t35 43q28 33 43 53t26 38q23 40 30 75q13 61 -12 93q-20 30 -71 30q-38 0 -67 -16q-28 -13 -32 -32 q-2 -12 15 -22q31 -19 36 -27q10 -17 5 -40q-7 -33 -37 -53q-17 -12 -33 -18t-35 -6t-33.5 6t-28.5 21q-24 26 -15 68q14 66 91 117q37 23 85 36t98 13q102 0 159 -53t41 -128q-3 -13 -7 -25.5t-16 -32.5l-27 -39l-19 -18q-19 -18 -88 -60q-60 -37 -89 -62l-25 -27l-19 -28 q-16 -25 -26 -70z" />
<glyph unicode="&#x1ed5;" d="M827 988q159 0 275 -67t156.5 -178.5t8.5 -263.5q-53 -246 -248.5 -377.5t-407.5 -131.5q-150 0 -259.5 66.5t-153.5 182.5q-19 54 -23 120.5t11 138.5q46 216 229 363t412 147zM813 893q-104 0 -185.5 -92.5t-129.5 -320.5q-51 -238 -10.5 -329t146.5 -91q104 0 190 93 t134 321q50 234 6.5 326.5t-151.5 92.5zM789 1487h297l103 -376h-36l-249 219l-342 -219h-36zM1337 1352h-43l6 35q11 56 30 90q9 19 23 39t35 43q28 33 43 53t26 38q23 40 30 75q13 61 -12 93q-20 30 -71 30q-38 0 -67 -16q-28 -13 -32 -32q-2 -12 15 -22q31 -19 36 -27 q10 -17 5 -40q-7 -33 -37 -53q-17 -12 -33 -18t-35 -6t-33.5 6t-28.5 21q-24 26 -15 68q14 66 91 117q37 23 84.5 36t97.5 13q102 0 159.5 -53t41.5 -128q-3 -13 -7 -25.5t-16 -32.5l-27 -39l-19 -18q-19 -18 -88 -60q-60 -37 -89 -62l-25 -27l-19 -28q-16 -25 -26 -70z" />
<glyph unicode="&#x1ed6;" horiz-adv-x="1706" d="M1168 1517q211 0 364 -100t215.5 -275t15.5 -395q-70 -333 -334 -555t-588 -222q-216 0 -363 101t-208.5 272.5t-13.5 398.5q72 337 333.5 556t578.5 219zM1154 1421q-117 0 -218.5 -64.5t-185 -211.5t-137.5 -401q-58 -272 -39 -406t94.5 -201t198.5 -67 q177 0 317.5 153t221.5 534q57 268 40 400t-93.5 198t-198.5 66zM1112 2026h297l103 -376h-36l-248 219l-343 -219h-36zM1806 2421h27q-12 -58 -40.5 -105.5t-71.5 -84.5q-82 -72 -167 -72q-32 0 -71 9q-10 2 -24 6t-30 11l-96 37q-64 25 -94 25q-79 0 -135 -89h-23 q41 127 117.5 192.5t163.5 65.5q56 0 169 -44q106 -41 137 -41q95 0 138 90z" />
<glyph unicode="&#x1ed7;" d="M827 988q159 0 275 -67t156.5 -178.5t8.5 -263.5q-53 -246 -248.5 -377.5t-407.5 -131.5q-150 0 -259.5 66.5t-153.5 182.5q-19 54 -23 120.5t11 138.5q46 216 229 363t412 147zM813 893q-104 0 -185.5 -92.5t-129.5 -320.5q-51 -238 -10.5 -329t146.5 -91q104 0 190 93 t134 321q50 234 6.5 326.5t-151.5 92.5zM789 1487h297l103 -376h-36l-249 219l-342 -219h-36zM1549 1882h27q-13 -58 -41.5 -105.5t-71.5 -84.5q-81 -72 -166 -72q-32 0 -71 9q-11 2 -24.5 6t-29.5 11l-97 37q-63 25 -93 25q-79 0 -135 -89h-23q41 127 117.5 192.5 t163.5 65.5q56 0 168 -44q107 -41 138 -41q95 0 138 90z" />
<glyph unicode="&#x1ed8;" horiz-adv-x="1706" d="M1168 1517q211 0 364 -100t215.5 -275t15.5 -395q-70 -333 -334 -555t-588 -222q-216 0 -363 101t-208.5 272.5t-13.5 398.5q72 337 333.5 556t578.5 219zM1154 1421q-117 0 -218.5 -64.5t-185 -211.5t-137.5 -401q-58 -272 -39 -406t94.5 -201t198.5 -67 q177 0 317.5 153t221.5 534q57 268 40 400t-93.5 198t-198.5 66zM1112 2026h297l103 -376h-36l-248 219l-343 -219h-36zM826 -185q66 0 104.5 -48t24.5 -115q-14 -65 -73 -116q-59 -47 -125 -47q-65 0 -104 48.5t-25 114.5q13 65 71.5 114t126.5 49z" />
<glyph unicode="&#x1ed9;" d="M827 988q159 0 275 -67t156.5 -178.5t8.5 -263.5q-53 -246 -248.5 -377.5t-407.5 -131.5q-150 0 -259.5 66.5t-153.5 182.5q-19 54 -23 120.5t11 138.5q46 216 229 363t412 147zM813 893q-104 0 -185.5 -92.5t-129.5 -320.5q-51 -238 -10.5 -329t146.5 -91q104 0 190 93 t134 321q50 234 6.5 326.5t-151.5 92.5zM789 1487h297l103 -376h-36l-249 219l-342 -219h-36zM604 -163q66 0 104.5 -48t23.5 -115q-13 -65 -72 -116q-59 -47 -125 -47q-65 0 -104.5 48.5t-25.5 114.5q14 65 72.5 114t126.5 49z" />
<glyph unicode="&#x1eda;" horiz-adv-x="1706" d="M1154 1421q-117 0 -218.5 -64.5t-185 -211.5t-137.5 -401q-58 -272 -39 -406t94.5 -201t198.5 -67q177 0 317.5 153t221.5 534q57 268 40 400t-93.5 198t-198.5 66zM1636 1329l76 56q20 20 35 34q8 7 39 34q38 36 42 56q2 6 -1 9l-46 -13q-21 0 -31 6q-10 0 -21.5 4.5 t-24.5 17.5q-17 15 -29 45q-1 11 0.5 27.5t6.5 40.5q9 42 55 80q40 30 92 36q81 0 117 -61q15 -30 19 -55t-6 -71q-12 -58 -40 -100q-18 -29 -61 -70l-44 -34l-134 -97q42 -60 68 -134q62 -174 15 -393q-70 -333 -334 -555t-588 -222q-216 0 -363 101t-208.5 272.5 t-13.5 398.5q72 337 333.5 556t578.5 219q211 0 364 -101q29 -18 55 -41zM1053 1688l-23 23l211 231q101 110 182 110q45 0 74 -33.5t22 -70.5q-9 -39 -40.5 -68.5t-136.5 -73.5z" />
<glyph unicode="&#x1edb;" d="M813 893q-104 0 -185.5 -92.5t-129.5 -320.5q-51 -238 -10.5 -329t146.5 -91q104 0 190 93t134 321q50 234 6.5 326.5t-151.5 92.5zM1205 835l51 35q22 15 46 41l52 53q8 10 13 24l-1 12l-2 10l3 5l-15 -2l-50 -13q-7 0 -24 13l-23 13q-49 39 -35 105q5 23 17 40.5 t37 37.5q45 35 92 35t79 -13.5t47 -45.5q27 -58 10 -140q-13 -62 -46 -118q-39 -65 -111 -127l-42 -38l-40 -33q34 -105 4 -250q-53 -246 -248.5 -377.5t-407.5 -131.5q-150 0 -259.5 66.5t-153.5 182.5q-19 54 -23 120.5t11 138.5q46 216 229 363t412 147q159 0 273 -68 q30 -16 57 -39q25 -20 48 -46zM684 1138l-24 23l212 231q100 110 181 110q45 0 74.5 -33.5t21.5 -70.5q-8 -39 -40 -68.5t-136 -73.5z" />
<glyph unicode="&#x1edc;" horiz-adv-x="1706" d="M1154 1421q-117 0 -218.5 -64.5t-185 -211.5t-137.5 -401q-58 -272 -39 -406t94.5 -201t198.5 -67q177 0 317.5 153t221.5 534q57 268 40 400t-93.5 198t-198.5 66zM1636 1329l76 56q20 20 35 34q8 7 39 34q38 36 42 56q2 6 -1 9l-46 -13q-21 0 -31 6q-10 0 -21.5 4.5 t-24.5 17.5q-17 15 -29 45q-1 11 0.5 27.5t6.5 40.5q9 42 55 80q40 30 92 36q81 0 117 -61q15 -30 19 -55t-6 -71q-12 -58 -40 -100q-18 -29 -61 -70l-44 -34l-134 -97q42 -60 68 -134q62 -174 15 -393q-70 -333 -334 -555t-588 -222q-216 0 -363 101t-208.5 272.5 t-13.5 398.5q72 337 333.5 556t578.5 219q211 0 364 -101q29 -18 55 -41zM1452 1823l-31 -25l-260 129q-67 33 -87 60q-17 28 -9 66q9 42 52 76t88 34q41 0 72 -22.5t70 -99.5z" />
<glyph unicode="&#x1edd;" d="M813 893q-104 0 -185.5 -92.5t-129.5 -320.5q-51 -238 -10.5 -329t146.5 -91q104 0 190 93t134 321q50 234 6.5 326.5t-151.5 92.5zM1205 835l51 35q22 15 46 41l52 53q8 10 13 24l-1 12l-2 10l3 5l-15 -2l-50 -13q-7 0 -24 13l-23 13q-49 39 -35 105q5 23 17 40.5 t37 37.5q45 35 92 35t79 -13.5t47 -45.5q27 -58 10 -140q-13 -62 -46 -118q-39 -65 -111 -127l-42 -38l-40 -33q34 -105 4 -250q-53 -246 -248.5 -377.5t-407.5 -131.5q-150 0 -259.5 66.5t-153.5 182.5q-19 54 -23 120.5t11 138.5q46 216 229 363t412 147q159 0 273 -68 q30 -16 57 -39q25 -20 48 -46zM1055 1196l-31 -25l-260 129q-67 33 -87 60q-17 28 -9 66q9 42 52 76t88 34q41 0 72 -22.5t70 -99.5z" />
<glyph unicode="&#x1ede;" horiz-adv-x="1706" d="M1154 1421q-117 0 -218.5 -64.5t-185 -211.5t-137.5 -401q-58 -272 -39 -406t94.5 -201t198.5 -67q177 0 317.5 153t221.5 534q57 268 40 400t-93.5 198t-198.5 66zM1636 1329l76 56q20 20 35 34q8 7 39 34q38 36 42 56q2 6 -1 9l-46 -13q-21 0 -31 6q-10 0 -21.5 4.5 t-24.5 17.5q-17 15 -29 45q-1 11 0.5 27.5t6.5 40.5q9 42 55 80q40 30 92 36q81 0 117 -61q15 -30 19 -55t-6 -71q-12 -58 -40 -100q-18 -29 -61 -70l-44 -34l-134 -97q42 -60 68 -134q62 -174 15 -393q-70 -333 -334 -555t-588 -222q-216 0 -363 101t-208.5 272.5 t-13.5 398.5q72 337 333.5 556t578.5 219q211 0 364 -101q29 -18 55 -41zM1215 1660h-43l6 35q12 56 30 90q9 19 23 39t35 43q28 33 43 53t27 38q22 40 30 75q13 61 -13 93q-20 30 -71 30q-38 0 -67 -16q-27 -13 -31 -32q-3 -12 14 -22q31 -19 36 -27q11 -17 6 -40 q-7 -33 -38 -53q-17 -12 -33 -18t-35 -6t-33.5 6t-28.5 21q-23 26 -14 68q14 66 90 117q37 23 85 36t98 13q102 0 159 -53t41 -128q-2 -13 -6.5 -25.5t-16.5 -32.5l-26 -39l-20 -18q-19 -18 -88 -60q-60 -37 -89 -62l-25 -27l-19 -28q-16 -25 -26 -70z" />
<glyph unicode="&#x1edf;" d="M813 893q-104 0 -185.5 -92.5t-129.5 -320.5q-51 -238 -10.5 -329t146.5 -91q104 0 190 93t134 321q50 234 6.5 326.5t-151.5 92.5zM1205 835l51 35q22 15 46 41l52 53q8 10 13 24l-1 12l-2 10l3 5l-15 -2l-50 -13q-7 0 -24 13l-23 13q-49 39 -35 105q5 23 17 40.5 t37 37.5q45 35 92 35t79 -13.5t47 -45.5q27 -58 10 -140q-13 -62 -46 -118q-39 -65 -111 -127l-42 -38l-40 -33q34 -105 4 -250q-53 -246 -248.5 -377.5t-407.5 -131.5q-150 0 -259.5 66.5t-153.5 182.5q-19 54 -23 120.5t11 138.5q46 216 229 363t412 147q159 0 273 -68 q30 -16 57 -39q25 -20 48 -46zM903 1121h-43l5 35q12 56 31 90q9 19 23 39t35 43q28 33 42.5 53t26.5 38q23 40 30 75q13 61 -12 93q-21 30 -72 30q-38 0 -66 -16q-28 -13 -32 -32q-2 -12 15 -22q30 -19 36 -27q10 -17 5 -40q-7 -33 -37 -53q-18 -12 -33.5 -18t-34.5 -6 t-34 6t-28 21q-24 26 -15 68q14 66 91 117q37 23 84.5 36t97.5 13q102 0 159.5 -53t41.5 -128q-3 -13 -7 -25.5t-16 -32.5l-27 -39l-20 -18q-18 -18 -87 -60q-60 -37 -89 -62l-25 -27l-19 -28q-16 -25 -26 -70z" />
<glyph unicode="&#x1ee0;" horiz-adv-x="1706" d="M1154 1421q-117 0 -218.5 -64.5t-185 -211.5t-137.5 -401q-58 -272 -39 -406t94.5 -201t198.5 -67q177 0 317.5 153t221.5 534q57 268 40 400t-93.5 198t-198.5 66zM1636 1329l76 56q20 20 35 34q8 7 39 34q38 36 42 56q2 6 -1 9l-46 -13q-21 0 -31 6q-10 0 -21.5 4.5 t-24.5 17.5q-17 15 -29 45q-1 11 0.5 27.5t6.5 40.5q9 42 55 80q40 30 92 36q81 0 117 -61q15 -30 19 -55t-6 -71q-12 -58 -40 -100q-18 -29 -61 -70l-44 -34l-134 -97q42 -60 68 -134q62 -174 15 -393q-70 -333 -334 -555t-588 -222q-216 0 -363 101t-208.5 272.5 t-13.5 398.5q72 337 333.5 556t578.5 219q211 0 364 -101q29 -18 55 -41zM1574 1948h27q-13 -58 -41.5 -105.5t-71.5 -84.5q-81 -72 -166 -72q-32 0 -71 9q-11 2 -24.5 6t-30.5 11l-96 37q-63 25 -93 25q-79 0 -135 -89h-23q41 127 117.5 192.5t163.5 65.5q56 0 168 -44 q106 -41 137 -41q95 0 139 90z" />
<glyph unicode="&#x1ee1;" d="M813 893q-104 0 -185.5 -92.5t-129.5 -320.5q-51 -238 -10.5 -329t146.5 -91q104 0 190 93t134 321q50 234 6.5 326.5t-151.5 92.5zM1205 835l51 35q22 15 46 41l52 53q8 10 13 24l-1 12l-2 10l3 5l-15 -2l-50 -13q-7 0 -24 13l-23 13q-49 39 -35 105q5 23 17 40.5 t37 37.5q45 35 92 35t79 -13.5t47 -45.5q27 -58 10 -140q-13 -62 -46 -118q-39 -65 -111 -127l-42 -38l-40 -33q34 -105 4 -250q-53 -246 -248.5 -377.5t-407.5 -131.5q-150 0 -259.5 66.5t-153.5 182.5q-19 54 -23 120.5t11 138.5q46 216 229 363t412 147q159 0 273 -68 q30 -16 57 -39q25 -20 48 -46zM1258 1497h27q-12 -58 -41 -105.5t-71 -84.5q-82 -72 -167 -72q-32 0 -71 9q-10 2 -24 6t-30 11l-96 37q-64 25 -94 25q-79 0 -135 -89h-23q41 127 117.5 192.5t163.5 65.5q56 0 168 -44q107 -41 138 -41q95 0 138 90z" />
<glyph unicode="&#x1ee2;" horiz-adv-x="1706" d="M1154 1421q-117 0 -218.5 -64.5t-185 -211.5t-137.5 -401q-58 -272 -39 -406t94.5 -201t198.5 -67q177 0 317.5 153t221.5 534q57 268 40 400t-93.5 198t-198.5 66zM1636 1329l76 56q20 20 35 34q8 7 39 34q38 36 42 56q2 6 -1 9l-46 -13q-21 0 -31 6q-10 0 -21.5 4.5 t-24.5 17.5q-17 15 -29 45q-1 11 0.5 27.5t6.5 40.5q9 42 55 80q40 30 92 36q81 0 117 -61q15 -30 19 -55t-6 -71q-12 -58 -40 -100q-18 -29 -61 -70l-44 -34l-134 -97q42 -60 68 -134q62 -174 15 -393q-70 -333 -334 -555t-588 -222q-216 0 -363 101t-208.5 272.5 t-13.5 398.5q72 337 333.5 556t578.5 219q211 0 364 -101q29 -18 55 -41zM807 -174q66 0 104 -48t24 -115q-14 -65 -73 -116q-59 -47 -125 -47q-65 0 -104 48.5t-25 114.5q14 65 72.5 114t126.5 49z" />
<glyph unicode="&#x1ee3;" d="M813 893q-104 0 -185.5 -92.5t-129.5 -320.5q-51 -238 -10.5 -329t146.5 -91q104 0 190 93t134 321q50 234 6.5 326.5t-151.5 92.5zM1205 835l51 35q22 15 46 41l52 53q8 10 13 24l-1 12l-2 10l3 5l-15 -2l-50 -13q-7 0 -24 13l-23 13q-49 39 -35 105q5 23 17 40.5 t37 37.5q45 35 92 35t79 -13.5t47 -45.5q27 -58 10 -140q-13 -62 -46 -118q-39 -65 -111 -127l-42 -38l-40 -33q34 -105 4 -250q-53 -246 -248.5 -377.5t-407.5 -131.5q-150 0 -259.5 66.5t-153.5 182.5q-19 54 -23 120.5t11 138.5q46 216 229 363t412 147q159 0 273 -68 q30 -16 57 -39q25 -20 48 -46zM604 -163q66 0 104.5 -48t23.5 -115q-13 -65 -72 -116q-59 -47 -125 -47q-65 0 -104.5 48.5t-25.5 114.5q14 65 72.5 114t126.5 49z" />
<glyph unicode="&#x1ee4;" horiz-adv-x="1706" d="M377 1479h744l-20 -93h-151q-29 0 -55 -22q-22 -21 -31 -65l-174 -818q-37 -173 35.5 -265.5t234.5 -92.5q117 0 226 51q76 36 142 125.5t94 218.5l133 628q26 120 -15 180t-131 60h-22l20 93h564l-20 -93h-39q-85 0 -146.5 -67t-82.5 -164l-145 -681 q-47 -224 -230.5 -364t-448.5 -140q-95 0 -175.5 15.5t-144.5 46.5q-127 63 -165.5 162.5t-4.5 259.5l177 831q12 57 -5.5 79t-74.5 22h-109zM844 -152q66 0 104.5 -48t24.5 -115q-14 -65 -73 -116q-59 -47 -125 -47q-65 0 -104 48.5t-25 114.5q13 65 71.5 114t126.5 49z " />
<glyph unicode="&#x1ee5;" horiz-adv-x="1403" d="M281 936l423 24l-132 -624q-19 -88 17.5 -138t111.5 -50q103 0 186 84.5t107 196.5l65 306q11 53 -14 81.5t-75 28.5h-46l19 91l427 24l-161 -758q-10 -49 14 -80q26 -29 78 -29h43l-20 -93l-389 -12l2 107q2 26 5.5 52.5t9.5 54.5q-119 -120 -222 -171.5t-199 -51.5 q-95 0 -151 38.5t-79 127.5q-10 45 -9.5 96t14.5 116l79 372q13 60 -12.5 88t-110.5 28zM653 -163q66 0 104 -48t24 -115q-14 -65 -73 -116q-59 -47 -125 -47q-65 0 -104 48.5t-25 114.5q14 65 72.5 114t126.5 49z" />
<glyph unicode="&#x1ee6;" horiz-adv-x="1706" d="M377 1479h744l-20 -93h-151q-29 0 -55 -22q-22 -21 -31 -65l-174 -818q-37 -173 35.5 -265.5t234.5 -92.5q117 0 226 51q76 36 142 125.5t94 218.5l133 628q26 120 -15 180t-131 60h-22l20 93h564l-20 -93h-39q-85 0 -146.5 -67t-82.5 -164l-145 -681 q-47 -224 -230.5 -364t-448.5 -140q-95 0 -175.5 15.5t-144.5 46.5q-127 63 -165.5 162.5t-4.5 259.5l177 831q12 57 -5.5 79t-74.5 22h-109zM1284 1671h-43l5 35q12 56 30 90q9 19 23.5 39t35.5 43q28 33 42.5 53t26.5 38q23 40 30 75q13 61 -12 93q-21 30 -72 30 q-38 0 -66 -16q-28 -13 -32 -32q-3 -12 14 -22q31 -19 37 -27q10 -17 5 -40q-7 -33 -37 -53q-18 -12 -33.5 -18t-34.5 -6t-34 6t-29 21q-23 26 -14 68q14 66 91 117q37 23 84.5 36t97.5 13q102 0 159.5 -53t41.5 -128q-3 -13 -7 -25.5t-17 -32.5l-26 -39l-20 -18 q-19 -18 -88 -60q-59 -37 -89 -62l-24 -27l-19 -28q-17 -25 -26 -70z" />
<glyph unicode="&#x1ee7;" horiz-adv-x="1403" d="M281 936l423 24l-132 -624q-19 -88 17.5 -138t111.5 -50q103 0 186 84.5t107 196.5l65 306q11 53 -14 81.5t-75 28.5h-46l19 91l427 24l-161 -758q-10 -49 14 -80q26 -29 78 -29h43l-20 -93l-389 -12l2 107q2 26 5.5 52.5t9.5 54.5q-119 -120 -222 -171.5t-199 -51.5 q-95 0 -151 38.5t-79 127.5q-10 45 -9.5 96t14.5 116l79 372q13 60 -12.5 88t-110.5 28zM904 1121h-43l5 35q12 56 30 90q9 19 23.5 39t35.5 43q28 33 42.5 53t26.5 38q23 40 30 75q13 61 -12 93q-21 30 -72 30q-38 0 -66 -16q-28 -13 -32 -32q-3 -12 14 -22q31 -19 36 -27 q11 -17 6 -40q-7 -33 -37 -53q-18 -12 -33.5 -18t-34.5 -6t-34 6t-29 21q-23 26 -14 68q14 66 91 117q37 23 84.5 36t97.5 13q102 0 159.5 -53t41.5 -128q-3 -13 -7 -25.5t-17 -32.5l-26 -39l-20 -18q-19 -18 -88 -60q-59 -37 -89 -62l-25 -27l-18 -28q-17 -25 -26 -70z" />
<glyph unicode="&#x1ee8;" horiz-adv-x="1706" d="M1929 1386h-17q-85 0 -146.5 -67t-82.5 -164l-145 -681q-47 -224 -230.5 -364t-448.5 -140q-95 0 -175.5 15.5t-144.5 46.5q-127 63 -165.5 162.5t-4.5 259.5l177 831q12 57 -5.5 79t-74.5 22h-109l20 93h744l-20 -93h-151q-29 0 -55 -22q-22 -21 -31 -65l-174 -818 q-37 -173 35.5 -265.5t234.5 -92.5q117 0 226 51q76 36 142 125.5t94 218.5l133 628q26 120 -15 180t-131 60h-22l20 93h562l4 3q35 9 47 63q2 12 -3 19l-7 4l-13 -4h-36q-12 0 -45 12q-39 33 -28 86q7 32 44 65q9 7 16.5 11.5t20.5 11.5q20 7 40 7q35 0 62 -11.5t38 -35.5 q24 -46 9 -118q-16 -77 -54 -124q-17 -21 -48 -42l-62 -42zM1082 1666l-23 23l211 231q100 110 181 110q45 0 74.5 -33.5t21.5 -70.5q-8 -39 -40 -68.5t-136 -73.5z" />
<glyph unicode="&#x1ee9;" horiz-adv-x="1403" d="M1325 745l-116 -543q-10 -49 14 -80q26 -29 78 -29h43l-20 -93l-389 -12l2 107q2 26 5.5 52.5t9.5 54.5q-119 -120 -222 -171.5t-199 -51.5q-95 0 -151 38.5t-79 127.5q-10 45 -9.5 96t14.5 116l79 372q13 60 -12.5 88t-110.5 28l19 91l423 24l-132 -624 q-19 -88 17.5 -138t111.5 -50q103 0 186 84.5t107 196.5l65 306q11 53 -14 81.5t-75 28.5h-46l19 91l427 24l-17 -81l63 31q29 15 54 43l35 42q19 22 22 36q1 7 -1 9l-9 2l-14 -2h-39l-22 2l-27 10q-23 20 -32.5 44.5t-3.5 55.5q3 15 15.5 31t36.5 33q22 18 58.5 36t54.5 20 l22 1q78 0 100 -55q10 -20 12.5 -59t-4.5 -73l-6 -20q-2 -11 -5 -15q-23 -53 -65 -106q-45 -60 -112 -115q-7 -6 -85 -46zM724 1116l-24 23l212 231q100 110 181 110q45 0 74.5 -33.5t21.5 -70.5q-8 -39 -40 -68.5t-136 -73.5z" />
<glyph unicode="&#x1eea;" horiz-adv-x="1706" d="M1929 1386h-17q-85 0 -146.5 -67t-82.5 -164l-145 -681q-47 -224 -230.5 -364t-448.5 -140q-95 0 -175.5 15.5t-144.5 46.5q-127 63 -165.5 162.5t-4.5 259.5l177 831q12 57 -5.5 79t-74.5 22h-109l20 93h744l-20 -93h-151q-29 0 -55 -22q-22 -21 -31 -65l-174 -818 q-37 -173 35.5 -265.5t234.5 -92.5q117 0 226 51q76 36 142 125.5t94 218.5l133 628q26 120 -15 180t-131 60h-22l20 93h562l4 3q35 9 47 63q2 12 -3 19l-7 4l-13 -4h-36q-12 0 -45 12q-39 33 -28 86q7 32 44 65q9 7 16.5 11.5t20.5 11.5q20 7 40 7q35 0 62 -11.5t38 -35.5 q24 -46 9 -118q-16 -77 -54 -124q-17 -21 -48 -42l-62 -42zM1453 1724l-31 -25l-260 129q-67 33 -87 60q-17 28 -9 66q9 42 52 76t88 34q41 0 72 -22.5t70 -99.5z" />
<glyph unicode="&#x1eeb;" horiz-adv-x="1403" d="M1325 745l-116 -543q-10 -49 14 -80q26 -29 78 -29h43l-20 -93l-389 -12l2 107q2 26 5.5 52.5t9.5 54.5q-119 -120 -222 -171.5t-199 -51.5q-95 0 -151 38.5t-79 127.5q-10 45 -9.5 96t14.5 116l79 372q13 60 -12.5 88t-110.5 28l19 91l423 24l-132 -624 q-19 -88 17.5 -138t111.5 -50q103 0 186 84.5t107 196.5l65 306q11 53 -14 81.5t-75 28.5h-46l19 91l427 24l-17 -81l63 31q29 15 54 43l35 42q19 22 22 36q1 7 -1 9l-9 2l-14 -2h-39l-22 2l-27 10q-23 20 -32.5 44.5t-3.5 55.5q3 15 15.5 31t36.5 33q22 18 58.5 36t54.5 20 l22 1q78 0 100 -55q10 -20 12.5 -59t-4.5 -73l-6 -20q-2 -11 -5 -15q-23 -53 -65 -106q-45 -60 -112 -115q-7 -6 -85 -46zM1066 1141l-31 -25l-260 129q-67 33 -87 60q-17 28 -9 66q9 42 52 76t88 34q41 0 72 -22.5t70 -99.5z" />
<glyph unicode="&#x1eec;" horiz-adv-x="1706" d="M1929 1386h-17q-85 0 -146.5 -67t-82.5 -164l-145 -681q-47 -224 -230.5 -364t-448.5 -140q-95 0 -175.5 15.5t-144.5 46.5q-127 63 -165.5 162.5t-4.5 259.5l177 831q12 57 -5.5 79t-74.5 22h-109l20 93h744l-20 -93h-151q-29 0 -55 -22q-22 -21 -31 -65l-174 -818 q-37 -173 35.5 -265.5t234.5 -92.5q117 0 226 51q76 36 142 125.5t94 218.5l133 628q26 120 -15 180t-131 60h-22l20 93h562l4 3q35 9 47 63q2 12 -3 19l-7 4l-13 -4h-36q-12 0 -45 12q-39 33 -28 86q7 32 44 65q9 7 16.5 11.5t20.5 11.5q20 7 40 7q35 0 62 -11.5t38 -35.5 q24 -46 9 -118q-16 -77 -54 -124q-17 -21 -48 -42l-62 -42zM1292 1660h-43l6 35q12 56 30 90q9 19 23 39t35 43q28 33 43 53t27 38q22 40 30 75q13 61 -13 93q-20 30 -71 30q-38 0 -67 -16q-27 -13 -31 -32q-3 -12 14 -22q31 -19 36 -27q11 -17 6 -40q-7 -33 -38 -53 q-17 -12 -33 -18t-35 -6t-33.5 6t-28.5 21q-23 26 -15 68q15 66 91 117q37 23 85 36t98 13q102 0 159 -53t41 -128q-2 -13 -6.5 -25.5t-16.5 -32.5l-26 -39l-20 -18q-19 -18 -88 -60q-60 -37 -89 -62l-25 -27l-19 -28q-16 -25 -26 -70z" />
<glyph unicode="&#x1eed;" horiz-adv-x="1403" d="M1325 745l-116 -543q-10 -49 14 -80q26 -29 78 -29h43l-20 -93l-389 -12l2 107q2 26 5.5 52.5t9.5 54.5q-119 -120 -222 -171.5t-199 -51.5q-95 0 -151 38.5t-79 127.5q-10 45 -9.5 96t14.5 116l79 372q13 60 -12.5 88t-110.5 28l19 91l423 24l-132 -624 q-19 -88 17.5 -138t111.5 -50q103 0 186 84.5t107 196.5l65 306q11 53 -14 81.5t-75 28.5h-46l19 91l427 24l-17 -81l63 31q29 15 54 43l35 42q19 22 22 36q1 7 -1 9l-9 2l-14 -2h-39l-22 2l-27 10q-23 20 -32.5 44.5t-3.5 55.5q3 15 15.5 31t36.5 33q22 18 58.5 36t54.5 20 l22 1q78 0 100 -55q10 -20 12.5 -59t-4.5 -73l-6 -20q-2 -11 -5 -15q-23 -53 -65 -106q-45 -60 -112 -115q-7 -6 -85 -46zM928 1132h-43l5 35q12 56 31 90q9 19 23 39t35 43q28 33 43 53t26 38q23 40 30 75q13 61 -12 93q-21 30 -72 30q-38 0 -66 -16q-28 -13 -32 -32 q-2 -12 15 -22q31 -19 36 -27q10 -17 5 -40q-7 -33 -37 -53q-18 -12 -33.5 -18t-34.5 -6t-34 6t-28 21q-24 26 -15 68q14 66 91 117q37 23 84.5 36t97.5 13q102 0 159.5 -53t41.5 -128q-3 -13 -7 -25.5t-16 -32.5l-27 -39l-19 -18q-19 -18 -88 -60q-60 -37 -89 -62l-25 -27 l-19 -28q-16 -25 -26 -70z" />
<glyph unicode="&#x1eee;" horiz-adv-x="1706" d="M1929 1386h-17q-85 0 -146.5 -67t-82.5 -164l-145 -681q-47 -224 -230.5 -364t-448.5 -140q-95 0 -175.5 15.5t-144.5 46.5q-127 63 -165.5 162.5t-4.5 259.5l177 831q12 57 -5.5 79t-74.5 22h-109l20 93h744l-20 -93h-151q-29 0 -55 -22q-22 -21 -31 -65l-174 -818 q-37 -173 35.5 -265.5t234.5 -92.5q117 0 226 51q76 36 142 125.5t94 218.5l133 628q26 120 -15 180t-131 60h-22l20 93h562l4 3q35 9 47 63q2 12 -3 19l-7 4l-13 -4h-36q-12 0 -45 12q-39 33 -28 86q7 32 44 65q9 7 16.5 11.5t20.5 11.5q20 7 40 7q35 0 62 -11.5t38 -35.5 q24 -46 9 -118q-16 -77 -54 -124q-17 -21 -48 -42l-62 -42zM1629 1948h27q-13 -58 -41.5 -105.5t-71.5 -84.5q-81 -72 -166 -72q-32 0 -71 9q-11 2 -24.5 6t-30.5 11l-96 37q-63 25 -93 25q-79 0 -135 -89h-23q41 127 117.5 192.5t163.5 65.5q56 0 168 -44q106 -41 137 -41 q95 0 139 90z" />
<glyph unicode="&#x1eef;" horiz-adv-x="1403" d="M1325 745l-116 -543q-10 -49 14 -80q26 -29 78 -29h43l-20 -93l-389 -12l2 107q2 26 5.5 52.5t9.5 54.5q-119 -120 -222 -171.5t-199 -51.5q-95 0 -151 38.5t-79 127.5q-10 45 -9.5 96t14.5 116l79 372q13 60 -12.5 88t-110.5 28l19 91l423 24l-132 -624 q-19 -88 17.5 -138t111.5 -50q103 0 186 84.5t107 196.5l65 306q11 53 -14 81.5t-75 28.5h-46l19 91l427 24l-17 -81l63 31q29 15 54 43l35 42q19 22 22 36q1 7 -1 9l-9 2l-14 -2h-39l-22 2l-27 10q-23 20 -32.5 44.5t-3.5 55.5q3 15 15.5 31t36.5 33q22 18 58.5 36t54.5 20 l22 1q78 0 100 -55q10 -20 12.5 -59t-4.5 -73l-6 -20q-2 -11 -5 -15q-23 -53 -65 -106q-45 -60 -112 -115q-7 -6 -85 -46zM1326 1453h27q-12 -58 -40.5 -105.5t-71.5 -84.5q-81 -72 -166 -72q-32 0 -72 9q-10 2 -23.5 6t-30.5 11l-96 37q-64 25 -94 25q-79 0 -135 -89h-23 q41 127 117.5 192.5t163.5 65.5q56 0 169 -44q106 -41 137 -41q95 0 138 90z" />
<glyph unicode="&#x1ef0;" horiz-adv-x="1706" d="M1929 1386h-17q-85 0 -146.5 -67t-82.5 -164l-145 -681q-47 -224 -230.5 -364t-448.5 -140q-95 0 -175.5 15.5t-144.5 46.5q-127 63 -165.5 162.5t-4.5 259.5l177 831q12 57 -5.5 79t-74.5 22h-109l20 93h744l-20 -93h-151q-29 0 -55 -22q-22 -21 -31 -65l-174 -818 q-37 -173 35.5 -265.5t234.5 -92.5q117 0 226 51q76 36 142 125.5t94 218.5l133 628q26 120 -15 180t-131 60h-22l20 93h562l4 3q35 9 47 63q2 12 -3 19l-7 4l-13 -4h-36q-12 0 -45 12q-39 33 -28 86q7 32 44 65q9 7 16.5 11.5t20.5 11.5q20 7 40 7q35 0 62 -11.5t38 -35.5 q24 -46 9 -118q-16 -77 -54 -124q-17 -21 -48 -42l-62 -42zM840 -174q66 0 104 -48t24 -115q-14 -65 -73 -116q-59 -47 -125 -47q-65 0 -104 48.5t-25 114.5q14 65 72.5 114t126.5 49z" />
<glyph unicode="&#x1ef1;" horiz-adv-x="1403" d="M1325 745l-116 -543q-10 -49 14 -80q26 -29 78 -29h43l-20 -93l-389 -12l2 107q2 26 5.5 52.5t9.5 54.5q-119 -120 -222 -171.5t-199 -51.5q-95 0 -151 38.5t-79 127.5q-10 45 -9.5 96t14.5 116l79 372q13 60 -12.5 88t-110.5 28l19 91l423 24l-132 -624 q-19 -88 17.5 -138t111.5 -50q103 0 186 84.5t107 196.5l65 306q11 53 -14 81.5t-75 28.5h-46l19 91l427 24l-17 -81l63 31q29 15 54 43l35 42q19 22 22 36q1 7 -1 9l-9 2l-14 -2h-39l-22 2l-27 10q-23 20 -32.5 44.5t-3.5 55.5q3 15 15.5 31t36.5 33q22 18 58.5 36t54.5 20 l22 1q78 0 100 -55q10 -20 12.5 -59t-4.5 -73l-6 -20q-2 -11 -5 -15q-23 -53 -65 -106q-45 -60 -112 -115q-7 -6 -85 -46zM689 -163q66 0 104 -48t24 -115q-14 -65 -73 -116q-59 -47 -125 -47q-65 0 -104 48.5t-25 114.5q14 65 72.5 114t126.5 49z" />
<glyph unicode="&#x1ef2;" horiz-adv-x="1479" d="M305 1479h736l-20 -93h-102q-55 0 -78 -14q-24 -12 -28 -35q-6 -24 5 -57l196 -530l307 430q38 53 48 98q11 50 -18 79t-100 29h-45l20 93h572l-20 -93q-97 0 -165.5 -38t-129.5 -122l-422 -587l-99 -465q-8 -39 9 -61q19 -20 67 -20h153l-20 -93h-810l20 93h152 q52 0 77 19.5t34 61.5l88 413l-252 685q-22 67 -61 90q-37 24 -102 24h-32zM1415 1746l-32 -25l-259 129q-67 33 -88 60q-17 28 -9 66q9 42 52.5 76t88.5 34q41 0 71.5 -22.5t70.5 -99.5z" />
<glyph unicode="&#x1ef3;" d="M267 936h553l-18 -86h-53q-48 0 -71 -14t-28 -36q-5 -27 5 -57l137 -454l283 411q6 10 16 27.5t13 34.5q8 37 -16 64q-25 24 -83 24h-29l18 86h407l-18 -86q-56 0 -101 -27q-36 -22 -79 -80l-539 -781q-135 -200 -263 -291q-96 -68 -196 -68q-104 0 -154.5 52t-34.5 125 q11 54 55 92q45 35 97 35q55 0 82.5 -34.5t16.5 -86.5l-5 -18l-11 -25l-9 -23q-5 -24 21 -24q43 0 128.5 73.5t203.5 238.5l-236 768q-12 40 -32 58l-23 12l-29 4h-26zM1066 1141l-32 -25l-259 129q-67 33 -87 60q-17 28 -9 66q9 42 52 76t88 34q41 0 72 -22.5t70 -99.5z " />
<glyph unicode="&#x1ef4;" horiz-adv-x="1479" d="M305 1479h736l-20 -93h-102q-55 0 -78 -14q-24 -12 -28 -35q-6 -24 5 -57l196 -530l307 430q38 53 48 98q11 50 -18 79t-100 29h-45l20 93h572l-20 -93q-97 0 -165.5 -38t-129.5 -122l-422 -587l-99 -465q-8 -39 9 -61q19 -20 67 -20h153l-20 -93h-810l20 93h152 q52 0 77 19.5t34 61.5l88 413l-252 685q-22 67 -61 90q-37 24 -102 24h-32zM746 -152q66 0 104.5 -48t23.5 -115q-13 -65 -72 -116q-59 -47 -125 -47q-65 0 -104.5 48.5t-25.5 114.5q14 65 72.5 114t126.5 49z" />
<glyph unicode="&#x1ef5;" d="M267 936h553l-18 -86h-53q-48 0 -71 -14t-28 -36q-5 -27 5 -57l137 -454l283 411q6 10 16 27.5t13 34.5q8 37 -16 64q-25 24 -83 24h-29l18 86h407l-18 -86q-56 0 -101 -27q-36 -22 -79 -80l-539 -781q-135 -200 -263 -291q-96 -68 -196 -68q-104 0 -154.5 52t-34.5 125 q11 54 55 92q45 35 97 35q55 0 82.5 -34.5t16.5 -86.5l-5 -18l-11 -25l-9 -23q-5 -24 21 -24q43 0 128.5 73.5t203.5 238.5l-236 768q-12 40 -32 58l-23 12l-29 4h-26zM938 -175q66 0 104.5 -48t23.5 -115q-13 -65 -72 -116q-59 -47 -125 -47q-65 0 -104.5 48.5t-25.5 114.5 q14 65 72.5 114t126.5 49z" />
<glyph unicode="&#x1ef6;" horiz-adv-x="1479" d="M305 1479h736l-20 -93h-102q-55 0 -78 -14q-24 -12 -28 -35q-6 -24 5 -57l196 -530l307 430q38 53 48 98q11 50 -18 79t-100 29h-45l20 93h572l-20 -93q-97 0 -165.5 -38t-129.5 -122l-422 -587l-99 -465q-8 -39 9 -61q19 -20 67 -20h153l-20 -93h-810l20 93h152 q52 0 77 19.5t34 61.5l88 413l-252 685q-22 67 -61 90q-37 24 -102 24h-32zM1183 1660h-43l6 35q12 56 30 90q9 19 23 39t35 43q28 33 43 53t27 38q22 40 30 75q12 61 -13 93q-20 30 -71 30q-38 0 -67 -16q-27 -13 -32 -32q-2 -12 15 -22q31 -19 36 -27q10 -17 6 -40 q-7 -33 -38 -53q-17 -12 -33 -18t-35 -6t-33.5 6t-28.5 21q-24 26 -15 68q14 66 91 117q37 23 85 36t98 13q102 0 159 -53t41 -128q-3 -13 -7 -25.5t-16 -32.5l-26 -39l-20 -18q-19 -18 -88 -60q-60 -37 -89 -62l-25 -27l-19 -28q-16 -25 -26 -70z" />
<glyph unicode="&#x1ef7;" d="M267 936h553l-18 -86h-53q-48 0 -71 -14t-28 -36q-5 -27 5 -57l137 -454l283 411q6 10 16 27.5t13 34.5q8 37 -16 64q-25 24 -83 24h-29l18 86h407l-18 -86q-56 0 -101 -27q-36 -22 -79 -80l-539 -781q-135 -200 -263 -291q-96 -68 -196 -68q-104 0 -154.5 52t-34.5 125 q11 54 55 92q45 35 97 35q55 0 82.5 -34.5t16.5 -86.5l-5 -18l-11 -25l-9 -23q-5 -24 21 -24q43 0 128.5 73.5t203.5 238.5l-236 768q-12 40 -32 58l-23 12l-29 4h-26zM970 1121h-43l5 35q12 56 30 90q9 19 23.5 39t35.5 43q28 33 42.5 53t26.5 38q22 40 30 75q13 61 -12 93 q-21 30 -72 30q-38 0 -66 -16q-28 -13 -32 -32q-3 -12 14 -22q31 -19 36 -27q11 -17 6 -40q-7 -33 -37 -53q-18 -12 -34 -18t-35 -6t-33.5 6t-28.5 21q-23 26 -14 68q14 66 91 117q36 23 84 36t98 13q102 0 159 -53t42 -128q-3 -13 -7.5 -25.5t-16.5 -32.5l-26 -39l-20 -18 q-19 -18 -88 -60q-60 -37 -89 -62l-25 -27l-19 -28q-16 -25 -25 -70z" />
<glyph unicode="&#x1ef8;" horiz-adv-x="1479" d="M305 1479h736l-20 -93h-102q-55 0 -78 -14q-24 -12 -28 -35q-6 -24 5 -57l196 -530l307 430q38 53 48 98q11 50 -18 79t-100 29h-45l20 93h572l-20 -93q-97 0 -165.5 -38t-129.5 -122l-422 -587l-99 -465q-8 -39 9 -61q19 -20 67 -20h153l-20 -93h-810l20 93h152 q52 0 77 19.5t34 61.5l88 413l-252 685q-22 67 -61 90q-37 24 -102 24h-32zM1508 1948h27q-12 -58 -40.5 -105.5t-71.5 -84.5q-81 -72 -166 -72q-32 0 -71 9q-11 2 -24.5 6t-30.5 11l-96 37q-64 25 -94 25q-79 0 -134 -89h-23q41 127 117 192.5t163 65.5q56 0 169 -44 q106 -41 137 -41q95 0 138 90z" />
<glyph unicode="&#x1ef9;" d="M267 936h553l-18 -86h-53q-48 0 -71 -14t-28 -36q-5 -27 5 -57l137 -454l283 411q6 10 16 27.5t13 34.5q8 37 -16 64q-25 24 -83 24h-29l18 86h407l-18 -86q-56 0 -101 -27q-36 -22 -79 -80l-539 -781q-135 -200 -263 -291q-96 -68 -196 -68q-104 0 -154.5 52t-34.5 125 q11 54 55 92q45 35 97 35q55 0 82.5 -34.5t16.5 -86.5l-5 -18l-11 -25l-9 -23q-5 -24 21 -24q43 0 128.5 73.5t203.5 238.5l-236 768q-12 40 -32 58l-23 12l-29 4h-26zM1314 1398h27q-12 -58 -40.5 -105.5t-71.5 -84.5q-81 -72 -166 -72q-32 0 -71 9q-11 2 -24.5 6t-30.5 11 l-96 37q-64 25 -94 25q-79 0 -134 -89h-23q41 127 117 192.5t163 65.5q56 0 169 -44q106 -41 137 -41q95 0 138 90z" />
<glyph unicode="&#x2018;" horiz-adv-x="494" d="M725 1517l20 -61q-126 -57 -199.5 -130.5t-84.5 -124.5q-6 -29 23 -29l28 3l34 3q66 0 106.5 -50.5t25.5 -120.5q-15 -68 -76.5 -120t-135.5 -52q-89 0 -139 72.5t-27 182.5q25 114 137.5 234t287.5 193z" />
<glyph unicode="&#x2019;" horiz-adv-x="494" d="M268 838l-20 61q124 56 198.5 130t85.5 124q6 30 -23 30l-28 -3l-34 -4q-65 0 -105.5 51.5t-26.5 118.5q15 70 76 120.5t135 50.5q88 0 139 -72.5t27 -181.5q-24 -113 -135.5 -231.5t-288.5 -193.5z" />
<glyph unicode="&#x201c;" horiz-adv-x="985" d="M681 1505l20 -63q-128 -64 -199 -134.5t-81 -117.5q-7 -32 24 -32l26 2l32 2q72 0 110.5 -49t23.5 -121q-16 -72 -76 -121.5t-136 -49.5q-90 0 -139.5 72.5t-25.5 184.5q24 116 131 230t290 197zM1202 1504l21 -62q-130 -64 -199.5 -134t-79.5 -118q-7 -32 24 -32l26 2 l31 2q72 0 110.5 -49t23.5 -121q-16 -74 -75 -122.5t-136 -48.5q-91 0 -140.5 72.5t-25.5 184.5q24 114 130.5 228t289.5 198z" />
<glyph unicode="&#x201d;" horiz-adv-x="985" d="M785 827l-21 62q131 66 200.5 135.5t79.5 117.5q7 32 -24 32l-27 -3l-31 -2q-72 0 -111 49t-23 121q15 74 76 123t135 49q89 0 139 -73t26 -185q-24 -114 -129 -228t-290 -198zM262 827l-21 62q130 65 200.5 135t80.5 118q7 32 -25 32l-27 -3l-30 -2q-72 0 -111 49 t-23 121q15 74 74.5 123t135.5 49q92 0 141 -73t25 -185q-12 -58 -44 -114t-87 -115q-104 -113 -289 -197z" />
<glyph unicode="&#x2026;" horiz-adv-x="1776" d="M130 159q17 77 85.5 135t147.5 58q51 0 90 -27t55.5 -71t5.5 -95q-4 -20 -10.5 -37.5t-18.5 -35.5q-20 -34 -56 -62q-20 -15 -35 -24t-36 -17q-36 -15 -76 -15q-38 0 -69 14t-53.5 41t-30 62t0.5 74zM720 159q16 77 85 135t148 58q51 0 89.5 -27t55 -71t6.5 -95 q-5 -20 -11.5 -37.5t-18.5 -35.5q-20 -34 -56 -62q-19 -15 -34.5 -24t-36.5 -17q-36 -15 -76 -15q-38 0 -69 14t-53.5 41t-30 62t1.5 74zM1309 159q16 77 85 135t148 58q51 0 89.5 -27t55.5 -71t6 -95q-4 -20 -11 -37.5t-19 -35.5q-20 -34 -56 -62q-19 -15 -34.5 -24 t-36.5 -17q-36 -15 -76 -15q-38 0 -69 14t-53 41t-30 62t1 74z" />
<glyph unicode="&#xe000;" horiz-adv-x="935" d="M0 935h935v-935h-935v935z" />
</font>
</defs>
</svg>
