<?xml version="1.0" standalone="no"?>
<!DOCTYPE svg PUBLIC "-//W3C//DTD SVG 1.1//EN" "http://www.w3.org/Graphics/SVG/1.1/DTD/svg11.dtd" >
<svg xmlns="http://www.w3.org/2000/svg">
<metadata></metadata>
<defs>
<font id="utm_centuritalic" horiz-adv-x="1024" >
<font-face units-per-em="2048" ascent="1638" descent="-410" />
<missing-glyph horiz-adv-x="569" />
<glyph unicode="&#xd;" horiz-adv-x="571" />
<glyph unicode=" "  horiz-adv-x="569" />
<glyph unicode="&#x09;" horiz-adv-x="569" />
<glyph unicode="&#xa0;" horiz-adv-x="569" />
<glyph unicode="!" horiz-adv-x="606" d="M426 434h-52q41 191 47 268q14 135 23 347q9 224 23 293q19 87 63 130.5t101 43.5q54 0 81.5 -42.5t9.5 -128.5q-17 -81 -103 -296q-77 -194 -116 -322l-42 -142zM355 216q47 0 76.5 -36.5t19.5 -86.5q-10 -46 -55 -83.5t-93 -37.5q-50 0 -78 35t-17 86q11 52 53.5 87.5 t93.5 35.5z" />
<glyph unicode="&#x22;" horiz-adv-x="797" d="M363 820l8 297l4 100q4 45 9 70q13 61 47 93.5t79 32.5q42 0 66.5 -31t13.5 -80q-4 -22 -19 -64l-22 -61l-24 -60l-118 -297h-44zM735 820l7 297q4 129 13 175q13 58 47 89.5t82 31.5q42 0 65.5 -30.5t12.5 -80.5l-2 -12l-2 -11l-10 -44q-6 -16 -9 -23l-10 -35 q-3 -10 -12 -29.5t-14 -30.5l-120 -297h-48z" />
<glyph unicode="#" horiz-adv-x="1139" d="M191 1059h336l180 420h126l-180 -420h361l181 420h127l-179 -420h203l-27 -128h-228l-161 -383h308l-28 -130h-332l-178 -418h-128l178 418h-366l-174 -418h-129l177 418h-203l28 130h230l161 383h-310zM600 931l-161 -383h364l161 383h-364z" />
<glyph unicode="$" horiz-adv-x="1139" d="M860 1508h84l-20 -97q59 0 150 -33t132.5 -103t23.5 -154q-14 -64 -55.5 -102t-90.5 -38q-38 0 -67 30q-25 31 -15 75q8 40 54.5 89t50.5 66q4 22 -34 56q-33 21 -73 33t-91 12l-115 -541q202 -76 274.5 -191t41.5 -261q-34 -159 -163 -262q-30 -23 -70 -46 q-21 -12 -49 -24q-13 -6 -33 -14q-85 -32 -177 -32l-53 -249h-84l53 249q-118 0 -203 41.5t-115 109t-13 146.5q14 69 59.5 113.5t96.5 44.5q45 0 71.5 -34t14.5 -89q-12 -57 -66 -96q-63 -45 -66 -62q-7 -30 42 -60q33 -21 81.5 -33t111.5 -12l122 571q-354 122 -291 422 q34 156 159 262q61 53 141.5 84.5t160.5 31.5zM717 833l108 508q-62 0 -114 -18.5t-99 -57.5q-86 -68 -106 -165q-18 -81 23 -144t188 -123zM747 578l-114 -537q141 12 230.5 83t111.5 172q18 88 -25 154t-203 128z" />
<glyph unicode="%" horiz-adv-x="1706" d="M697 1413q126 0 190 -98.5t26 -274.5q-35 -165 -139 -263.5t-232 -98.5q-123 0 -187 97.5t-27 269.5q34 162 140 265t229 103zM691 1366q-63 0 -118.5 -67.5t-94.5 -249.5q-40 -189 -15.5 -257.5t88.5 -68.5t119.5 68t92.5 244q42 194 17 262.5t-89 68.5zM1617 1387h87 l-1314 -1387h-86zM1452 707q126 0 190 -98.5t26 -274.5q-19 -90 -52 -151q-31 -63 -87 -114q-104 -97 -232 -97q-126 0 -188.5 97.5t-25.5 270.5q34 160 140.5 263.5t228.5 103.5zM1446 660q-63 0 -118.5 -67.5t-94.5 -249.5q-39 -185 -15 -255t88 -70q60 0 117.5 68 t94.5 243q42 194 17 262.5t-89 68.5z" />
<glyph unicode="&#x26;" horiz-adv-x="1669" d="M884 852l51 -135l43 -108l37 -78q25 -52 51.5 -102t57.5 -96q197 194 223 316q11 51 -22 85t-109 34h-53l15 69h556l-15 -69h-42q-54 0 -91.5 -15.5t-76.5 -50.5q-29 -26 -98 -125q-62 -92 -121 -164l-61 -72l-30 -33l-34 -33q107 -140 209 -140q60 0 112.5 48t93.5 170 h62q-39 -181 -140.5 -281t-224.5 -100h-19q-14 0 -21 2q-8 0 -12 1t-19.5 5t-30.5 10.5t-32 16.5q-63 35 -145 127q-133 -90 -233 -126t-203 -36q-186 0 -285.5 120.5t-61.5 298.5q28 131 129 240.5t330 220.5q-54 196 -26 325q30 141 153 240t273 99q141 0 208 -72.5 t41 -194.5q-24 -113 -121.5 -207.5t-317.5 -189.5zM862 929q159 63 227.5 134.5t89.5 171.5q20 93 -16.5 148.5t-115.5 55.5q-76 0 -137.5 -52.5t-79.5 -139.5q-27 -127 32 -318zM692 774q-236 -118 -270 -281q-27 -127 42 -265t216 -138q127 0 276 101q-58 95 -124 228 q-25 53 -60 141z" />
<glyph unicode="'" horiz-adv-x="418" d="M359 820l9 300q5 135 12 168q14 65 46.5 95t79.5 30q45 0 68.5 -30t13.5 -80q-8 -36 -66 -183l-119 -300h-44z" />
<glyph unicode="(" horiz-adv-x="682" d="M968 1512l15 -55q-173 -150 -268 -273q-84 -114 -157.5 -275.5t-115.5 -358.5q-21 -99 -31 -187t-8.5 -170.5t13.5 -140.5t36 -130q39 -120 147 -268l-37 -52q-17 20 -62 70q-36 42 -53 62q-49 63 -76 110q-97 156 -130 339q-14 85 -12.5 180.5t21.5 192.5 q41 192 142 364t260 327q111 109 316 265z" />
<glyph unicode=")" horiz-adv-x="682" d="M356 1512q81 -91 122 -145q50 -63 79 -113q94 -153 122 -330q12 -81 11 -176q-2 -48 -7 -95.5t-15 -96.5q-40 -189 -139 -357.5t-264 -332.5q-115 -115 -315 -264l-15 52q76 66 143 135q24 25 58 63q29 33 59 69q98 127 168 284q33 76 62 164q12 38 25.5 88t22.5 92 q21 99 31.5 190t8.5 169q-3 156 -43.5 278t-151.5 271z" />
<glyph unicode="*" d="M776 1118q38 9 74 28q26 12 94.5 61t101.5 63l24 8l32 5q42 0 64.5 -27.5t14.5 -68.5q-10 -45 -50.5 -73t-112.5 -28l-38 1l-65 3q-64 0 -136 -22q39 -60 119 -120q51 -36 64.5 -65.5t6.5 -58.5q-8 -41 -42 -69.5t-71 -28.5q-39 0 -61.5 25.5t-27 105t-12.5 118.5l-4 14 l-5 14q-3 14 -13 32q-28 -31 -49 -61q-13 -21 -51 -99q-42 -85 -66 -112q-34 -36 -86 -36q-44 0 -66 25.5t-14 64.5q15 69 123 131q78 45 100 60l31 25l40 35q-48 21 -117 21l-48 -2l-50 -2q-78 0 -108.5 28.5t-19.5 78.5q7 36 40 63t72 27q59 0 130 -74l32 -32l34 -26 l64 -32l7 31q7 30 5 46l-2 38q2 7 0 15l-4 17l-12 93l-2 28l2 23q9 43 43 75.5t75 32.5q39 0 62 -29q10 -15 13 -35t-1 -36q-5 -27 -69 -140l-20 -38l-20 -41l-14 -38z" />
<glyph unicode="+" horiz-adv-x="1241" d="M230 759h485l104 486h134l-104 -486h485l-28 -133h-485l-102 -482h-134l102 482h-485z" />
<glyph unicode="," horiz-adv-x="569" d="M95 -348l-26 48q224 148 248 258q3 16 0 22q-2 6 -16 9l-22 -4l-32 -3q-45 0 -71 35t-16 85q10 46 50.5 81.5t95.5 35.5q61 0 99 -52q14 -21 18.5 -59.5t-3.5 -80.5q-42 -196 -325 -375z" />
<glyph unicode="-" horiz-adv-x="891" d="M252 542h666l-32 -152h-666z" />
<glyph unicode="." horiz-adv-x="569" d="M332 218q48 0 76 -36.5t18 -85.5q-11 -52 -54 -88t-94 -36q-44 0 -78 36q-27 37 -16 87q11 52 54 87.5t94 35.5z" />
<glyph unicode="/" horiz-adv-x="569" d="M883 1479l-754 -1479h-129l755 1479h128z" />
<glyph unicode="0" horiz-adv-x="1139" d="M873 1413q195 0 292 -152q122 -187 41 -567q-75 -353 -254.5 -537.5t-377.5 -184.5q-191 0 -286 155q-118 196 -40 563q74 348 269 557q157 166 356 166zM863 1341q-129 0 -231 -126.5t-187 -524.5q-83 -389 -34 -519t178 -130q123 0 226 120q113 143 194 522 q82 390 32 524t-178 134z" />
<glyph unicode="1" horiz-adv-x="1139" d="M990 1387l-265 -1248q-6 -27 10 -43q25 -21 67 -21h194l-16 -75h-719l16 75h166q45 0 82 24q30 25 39 66l201 943q6 29 -13 49t-55 20h-222l15 69q171 20 269 53t185 88h46z" />
<glyph unicode="2" horiz-adv-x="1139" d="M369 219l-6 -9q-11 -50 447 -50q73 0 111.5 37t122.5 218h68l-120 -415h-896l11 54l362 331q300 265 362 332q85 92 139.5 187t69.5 165q26 123 -27 193.5t-174 70.5q-136 0 -235.5 -65t-115.5 -138q-4 -20 5 -35q8 -11 47 -26q96 -24 76 -118q-11 -51 -51.5 -84.5 t-94.5 -33.5q-60 0 -95 56q-15 27 -19.5 65t4.5 83q22 100 90.5 183t187.5 138q54 25 116.5 40t124.5 15q120 0 213 -51.5t126.5 -139.5t13.5 -182l-8 -32q-1 -6 -2 -11q-6 -13 -8 -19l-9 -22q-2 -10 -12 -24l-17 -32q-41 -71 -104 -133q-106 -105 -216 -183l-311 -222 q-111 -79 -176 -143z" />
<glyph unicode="3" horiz-adv-x="1139" d="M877 739q136 -35 199 -116q80 -102 47 -255q-36 -172 -180 -276q-164 -120 -388 -120q-74 0 -126 9.5t-96 34.5q-88 44 -119 119.5t-11 168.5q15 72 61 118t104 46q51 0 74.5 -34t11.5 -91q-8 -36 -29 -61.5t-66 -48.5q-48 -23 -53 -44q-5 -24 16 -68q22 -36 77 -60 l67 -16q37 -6 79 -6q153 0 247.5 78.5t130.5 247.5q38 179 -10.5 254.5t-175.5 75.5l-41 -1l-16 -1l-30 -6q-42 -6 -60 -6q-24 0 -45 12q-13 13 -9 32q3 15 22 32q18 12 54 12l54 -2l48 -2q124 0 203.5 66.5t107.5 199.5q36 167 -9.5 237.5t-167.5 70.5q-111 0 -185.5 -39.5 t-81.5 -74.5q-5 -21 25 -59q43 -50 32 -104q-8 -39 -46 -69q-37 -28 -82 -28q-48 0 -72 39.5t-10 104.5q22 105 116 188q132 116 333 116q190 0 280 -101t58 -250q-22 -105 -99.5 -183.5t-238.5 -139.5z" />
<glyph unicode="4" horiz-adv-x="1139" d="M1075 1387h65l-201 -946h230l-18 -85h-230l-45 -213q-6 -27 12 -45q27 -23 69 -23h85l-16 -75h-555l16 75h103q51 0 81 22t39 64l41 195h-566l20 96zM913 1116l-627 -675h483z" />
<glyph unicode="5" horiz-adv-x="1139" d="M577 1413q118 -26 224 -42t177 -16l75 3h15q12 3 19 4l37 7q68 15 104 34q19 9 24 9q4 -3 5 -5.5t2 -9.5q-7 -34 -61.5 -91t-144.5 -92t-186 -35q-117 0 -272 36l-114 -382q83 38 162 57q39 9 71.5 14t58.5 5q195 0 301.5 -129.5t65.5 -321.5q-44 -210 -215 -348 t-398 -138q-86 0 -151.5 24t-110.5 74q-86 99 -57 235q17 82 61 126.5t98 44.5q48 0 76.5 -36.5t16.5 -91.5q-9 -41 -29 -65q-19 -21 -70 -42q-48 -17 -53 -39q-6 -26 15 -71q19 -28 77 -62q63 -25 133 -25q153 0 254 95t146 309q42 196 -23.5 285.5t-198.5 89.5 q-59 0 -123 -21t-136 -67q-21 -70 -44.5 -93.5t-51.5 -23.5q-18 0 -29 14q-9 14 -3 39q9 46 59 87l22 23l86 294l24 90l31 123z" />
<glyph unicode="6" horiz-adv-x="1139" d="M465 656q97 102 196.5 148t198.5 46q165 0 254 -111.5t52 -285.5q-44 -207 -205.5 -344t-358.5 -137q-137 0 -230.5 71.5t-128.5 230.5q-17 79 -15 169t25 196q48 225 170.5 408t272.5 274.5t292 91.5q146 0 231 -80q71 -65 52 -156q-13 -60 -57.5 -99.5t-100.5 -39.5 q-44 0 -79 33q-28 33 -19 78q7 31 37.5 67.5t34.5 55.5q5 22 -17 46q-32 23 -94 23q-94 0 -186.5 -60t-181.5 -210.5t-128 -333.5zM784 752q-123 0 -225 -91q-24 -23 -43 -47q-8 -10 -17 -24t-21 -36l-13 -26l-19 -50l-20 -71q-37 -177 20 -271.5t176 -94.5q118 0 209 90 t128 265q40 186 -9 271t-166 85z" />
<glyph unicode="7" horiz-adv-x="1139" d="M527 1412q108 -25 207 -25h622l-10 -46q-175 -226 -292 -408q-94 -153 -170 -318q-52 -122 -78 -197l-24 -77l-20 -80q-16 -78 -34.5 -134t-31.5 -82q-12 -30 -46 -51q-33 -22 -76 -22q-50 0 -71 34t-5 107l8 35l6 20q2 13 9 26q3 16 12 34l22 47q41 92 167 292 q156 248 276 409l192 254h-542q-59 0 -94 -39t-128 -254h-72z" />
<glyph unicode="8" horiz-adv-x="1139" d="M939 785q148 -57 199 -151.5t23 -225.5q-34 -159 -162 -281q-165 -155 -412 -155q-217 0 -321 104.5t-71 260.5q25 117 115 203.5t283 149.5q-239 113 -189 349q32 150 175.5 262t323.5 112q125 0 209 -42.5t114 -119.5q16 -37 20.5 -76t-3.5 -77q-39 -182 -304 -313z M868 811q118 60 166.5 118.5t68.5 153.5q26 125 -30.5 193t-191.5 68q-131 0 -217.5 -64t-107.5 -165q-22 -99 28 -159.5t284 -144.5zM662 662q-146 -55 -225 -135q-31 -33 -57 -82t-38 -102q-29 -139 38.5 -219t222.5 -80q161 0 272 78.5t139 207.5q24 114 -40.5 173.5 t-311.5 158.5z" />
<glyph unicode="9" horiz-adv-x="1139" d="M1013 718q-81 -94 -185 -148q-46 -23 -102 -36t-102 -13q-150 0 -250 105t-57 309q41 193 207 335.5t354 142.5q207 0 308.5 -171.5t34.5 -483.5q-55 -260 -167.5 -434.5t-258 -263t-304.5 -88.5q-154 0 -225.5 67.5t-51.5 161.5q13 62 56.5 100t97.5 38q42 0 76 -33 q27 -34 18 -79q-8 -33 -47 -73q-24 -25 -28 -43q-5 -22 22 -49q30 -20 102 -20q54 0 99 12t94 44q90 57 169.5 192.5t122.5 338.5zM865 1341q-111 0 -203 -93.5t-132 -281.5q-36 -168 17.5 -254.5t169.5 -86.5q114 0 212.5 91t133.5 255q36 170 -25 270t-173 100z" />
<glyph unicode=":" horiz-adv-x="569" d="M492 965q51 0 78.5 -35t16.5 -86q-11 -52 -53 -86.5t-93 -34.5t-78.5 36.5t-17.5 84.5q10 49 53.5 85t93.5 36zM335 218q44 0 75 -35.5t20 -86.5q-10 -47 -53.5 -85.5t-93.5 -38.5q-44 0 -76 36t-21 86q9 46 53.5 85t95.5 39z" />
<glyph unicode=";" horiz-adv-x="569" d="M494 965q51 0 78 -35t16 -87q-10 -49 -52.5 -84t-91.5 -35q-52 0 -80 35t-18 83q11 52 53.5 87.5t94.5 35.5zM109 -348l-24 47q223 144 248 265q6 25 -15 25q-10 0 -24 -5l-35 -5q-37 0 -69 36q-25 36 -14 87q10 47 53.5 81.5t90.5 34.5q63 0 98 -52t18 -134 q-42 -198 -327 -380z" />
<glyph unicode="&#x3c;" horiz-adv-x="1241" d="M1207 170l-1002 464l26 120l1199 463l-31 -144l-1002 -378l841 -380z" />
<glyph unicode="=" horiz-adv-x="1241" d="M282 1001h1104l-28 -134h-1104zM181 526h1104l-28 -133h-1104z" />
<glyph unicode="&#x3e;" horiz-adv-x="1241" d="M329 1217l1002 -464l-26 -120l-1199 -463l31 144l1002 379l-841 380z" />
<glyph unicode="?" horiz-adv-x="909" d="M535 432h-53q25 116 52 187.5t55 106.5q10 14 23 29t21 24l86 91q77 78 120 153t61 161q25 118 -26.5 190t-146.5 72q-83 0 -147.5 -41t-73.5 -84q-5 -24 28 -54q49 -45 37 -100q-10 -48 -47 -80t-85 -32q-50 0 -86 45q-28 46 -13 118q23 109 149 204q61 46 133.5 70 t154.5 24q161 0 248.5 -102.5t56.5 -248.5q-20 -93 -73 -170q-37 -52 -175 -160q-162 -121 -221 -195q-20 -31 -42 -89q-10 -25 -20 -57.5t-16 -61.5zM465 216q50 0 77.5 -35t17.5 -84q-11 -52 -54 -88.5t-93 -36.5q-44 0 -77 36q-27 37 -16 89q11 50 53 84.5t92 34.5z" />
<glyph unicode="@" horiz-adv-x="1510" d="M1374 386h137q-19 -27 -34 -47t-35 -43q-35 -41 -76.5 -80t-83 -71t-92.5 -62q-91 -53 -193 -85q-20 -6 -45 -11.5t-52 -10.5l-48 -6l-48 -2q-36 0 -69.5 3t-69.5 11q-70 12 -129 39t-109 66t-94 92q-78 100 -106.5 238.5t6.5 302.5q46 216 177 396q66 91 144.5 161 t171 122t191.5 78.5t197 26.5q60 0 111 -9.5t104 -30.5q103 -39 176 -117q90 -84 122 -200t1 -262q-14 -66 -33.5 -120.5t-50.5 -108.5q-55 -101 -143 -181q-31 -30 -84 -68l-45 -30l-48 -29q-101 -56 -176 -56q-64 0 -91 57q-10 26 -14 64l-2 26q0 15 1 23t5 27h-4 q-39 -48 -74 -84t-63 -57q-60 -44 -135 -44q-101 0 -159 87.5t-29 225.5q6 30 15 58t24 60q28 62 67.5 115.5t88.5 101.5q43 42 105 83q111 72 218 72q66 0 101 -44q15 -19 23 -50q7 -25 5 -69h4l61 144h188l-276 -602l-9 -26l-6 -23q-13 -61 27 -61q39 0 102 48l58 50 l52 55q29 34 61 81q17 24 34.5 55t20.5 36q50 95 70 187q11 54 9 94l-4 46q-2 25 -9 46q-8 32 -17 53l-15 31l-22 38q-5 9 -11.5 18t-15.5 18q-58 69 -143 107q-39 17 -87.5 27t-99.5 10q-60 0 -124 -12q-32 -5 -35 -6q-17 -6 -24 -8q-35 -8 -63 -20q-122 -47 -221 -133 q-49 -41 -92 -93t-75 -106t-63 -127q-26 -66 -41 -136q-20 -95 -17 -182.5t28 -155.5q13 -37 29.5 -65.5t41.5 -62.5q45 -56 108 -95q126 -78 301 -78q90 0 185 36l44 19l45 24l45 27l45 32q37 28 79 70q40 38 76 82zM726 384q54 0 118 62l57 65l20 25l32 46l40 73l37 82 l32 81l15 49l5 21q2 13 4 25.5t1 23.5q2 22 -1 30q0 9 -5 26q-13 47 -61 47q-27 0 -55 -12.5t-58 -40.5t-56 -60l-54 -74q-28 -45 -47 -80l-20 -40l-7.5 -17.5t-12.5 -24.5l-30 -76l-18 -61q-37 -170 64 -170z" />
<glyph unicode="A" horiz-adv-x="1479" d="M1036 1510h67l243 -1353q15 -82 114 -82h46l-16 -75h-590l16 75h47q94 0 134 20q29 14 35 43q4 19 1 36l-56 314h-584l-108 -180q-42 -72 -51 -114q-10 -48 28 -83.5t125 -35.5h50l-16 -75h-536l16 75q84 0 142 36t124 144zM946 1225l-405 -659h523z" />
<glyph unicode="B" horiz-adv-x="1479" d="M411 1479h771q225 0 325.5 -99.5t68.5 -251.5q-26 -121 -128 -209.5t-284 -143.5q198 -42 283.5 -135.5t54.5 -241.5q-13 -57 -36 -102.5t-64 -90.5q-75 -82 -229.5 -143.5t-327.5 -61.5h-748l16 75h122q49 0 81.5 18.5t36.5 40.5l252 1185q9 42 -11.5 63.5t-68.5 21.5 h-130zM709 799h280q126 0 220 75t131 250q22 105 -1.5 164t-87.5 90q-33 14 -90 21l-64 5l-80 2q-120 0 -153.5 -17.5t-42.5 -61.5zM693 725l-121 -570q-8 -39 12 -59.5t79 -20.5h179q174 0 277.5 78t139.5 245q31 150 -37.5 238.5t-224.5 88.5h-304z" />
<glyph unicode="C" horiz-adv-x="1479" d="M1474 1364l100 143h63l-101 -595h-67q-12 251 -87 370q-91 149 -264 149q-186 0 -338.5 -165.5t-236.5 -562.5q-71 -334 26 -508q84 -148 289 -148q180 0 326.5 115.5t232.5 348.5h71q-86 -264 -267 -406t-408 -142q-94 0 -170.5 22t-145.5 70q-130 91 -190 266t-15 385 q6 29 12.5 56.5t15 54t17.5 51t22 52.5q45 102 116 201q137 194 307 291.5t342 97.5q96 0 179 -33q37 -15 84 -45q20 -12 42 -31z" />
<glyph unicode="D" horiz-adv-x="1593" d="M384 1479h764q164 0 277 -60q127 -72 195 -251t17 -421q-44 -208 -139 -360q-69 -118 -184.5 -210t-272.5 -143q-52 -14 -126 -24l-76 -7l-85 -3h-684l16 75h140q53 0 77 17t32 53l253 1191q6 30 -12 49t-57 19h-151zM904 1404q-45 0 -70 -18.5t-34 -57.5l-251 -1180 q-6 -32 13 -55q20 -18 82 -18h126q162 0 314 87q96 57 161 163q89 142 142 392q78 363 -13 542q-80 145 -302 145h-168z" />
<glyph unicode="E" horiz-adv-x="1479" d="M448 1479h1172l-78 -499h-67q11 236 -57 330t-205 94h-290q-33 0 -56 -19t-31 -58l-112 -527h127q102 0 181 73q40 36 70 93t46 131h69l-145 -685h-69q17 84 12 144.5t-31 98.5q-47 74 -159 74h-116l-125 -588q-6 -26 11 -49q18 -17 68 -17h229q372 0 531 476h72 l-142 -551h-1219l16 75h101q59 0 87.5 20.5t36.5 59.5l249 1172q8 38 -10 57.5t-61 19.5h-121z" />
<glyph unicode="F" horiz-adv-x="1366" d="M420 1479h1203l-88 -512h-69q9 258 -56 344q-76 93 -252 93h-237q-35 0 -54.5 -16.5t-26.5 -49.5l-113 -535h127q105 0 184 70q35 32 66.5 88.5t46.5 127.5h72l-141 -667h-72q16 77 11.5 138t-29.5 99q-45 71 -154 71h-127l-120 -564q-9 -44 9 -71q21 -20 79 -20h154 l-16 -75h-711l16 75h152q40 0 66.5 18.5t35.5 60.5l250 1176q7 35 -10 54.5t-67 19.5h-145z" />
<glyph unicode="G" horiz-adv-x="1593" d="M1441 1363l113 147h67l-88 -590h-65q-21 255 -99 369q-99 145 -267 145q-129 0 -244.5 -72.5t-205.5 -220.5q-40 -70 -77 -175t-65 -235q-54 -254 -31 -398t104.5 -215t211.5 -71q175 0 291.5 98t149.5 253l29 139q7 34 -15 51q-20 18 -79 18h-125l15 70h620l-15 -70h-84 q-56 0 -84 -20q-28 -18 -36 -56l-120 -565h-66q-6 121 -22 253q-101 -122 -218 -184t-247 -62q-183 0 -321.5 95.5t-196.5 270.5t-11 395q45 215 175.5 390t314.5 284q86 47 177 75q47 14 88 21t84 7q95 0 172 -31q45 -15 81 -43q35 -24 89 -73z" />
<glyph unicode="H" horiz-adv-x="1706" d="M410 1479h631l-16 -75h-116q-57 0 -84 -22q-23 -21 -40 -104l-97 -456h677l97 456q18 84 4.5 105t-78.5 21h-108l16 75h628l-16 -75h-115q-33 0 -41 -2q-9 0 -23.5 -8.5t-34.5 -38.5q-10 -17 -25 -89l-226 -1064q-16 -77 -7 -93q19 -34 88 -34h102l-16 -75h-628l16 75 h108q64 0 94 35q18 24 35 100l109 514h-677l-111 -522q-16 -73 -8 -94q17 -33 79 -33h116l-16 -75h-631l16 75h121q31 0 50 11t40 39q9 22 23 85l227 1068q17 81 3 103.5t-76 22.5h-106z" />
<glyph unicode="I" horiz-adv-x="834" d="M390 1479h682l-16 -75h-117q-79 0 -103 -20q-24 -18 -37 -82l-238 -1120q-14 -66 0 -84q20 -23 82 -23h131l-16 -75h-682l16 75h129q68 0 92 20t39 87l238 1120q12 58 -1 79q-24 23 -99 23h-116z" />
<glyph unicode="J" horiz-adv-x="1139" d="M737 1479h654l-16 -75h-93q-55 0 -83 -20t-36 -58l-203 -959q-24 -111 -97 -200.5t-188 -142.5q-59 -26 -125 -39t-121 -13q-178 0 -269 104.5t-59 255.5q23 108 94.5 177t154.5 69q68 0 103 -42.5t21 -111.5q-12 -55 -57 -96t-91 -41l-20 2l-28 8l-35 8q-14 0 -31 -15 q-13 -17 -19 -41q-14 -70 47 -134t172 -64q121 0 214 87.5t125 240.5l201 947q8 36 -14 57t-86 21h-131z" />
<glyph unicode="K" horiz-adv-x="1593" d="M397 1479h676l-16 -75h-144q-39 0 -76 -24q-30 -25 -38 -61l-146 -687l684 595q59 51 69 98q7 33 -21 57q-35 22 -104 22h-41l16 75h607l-16 -75h-47q-56 0 -138 -36t-159 -100l-419 -357l337 -724q28 -60 69 -86t96 -26h54l-16 -75h-667l16 75h76q83 0 113.5 14t34.5 35 q3 12 -4 38l-280 600l-285 -249l-77 -364q-7 -33 9 -50q27 -24 71 -24h144l-16 -75h-676l16 75h130q50 0 78.5 20.5t35.5 53.5l251 1181q6 31 -17 52.5t-86 21.5h-110z" />
<glyph unicode="L" horiz-adv-x="1366" d="M378 1479h685l-16 -75h-164q-36 0 -61 -21q-24 -22 -33 -64l-248 -1167q-9 -42 12 -59.5t90 -17.5h208q164 0 290.5 108t239.5 386h70l-155 -569h-1232l16 75h121q63 0 92.5 24.5t40.5 74.5l245 1155q7 30 -9 56q-18 19 -58 19h-150z" />
<glyph unicode="M" horiz-adv-x="1933" d="M348 1479h493l193 -1168l655 1168h504l-16 -75h-123q-65 0 -91.5 -19t-36.5 -66l-249 -1171q-7 -33 16 -54q29 -19 89 -19h113l-16 -75h-676l16 75h126q54 0 84.5 20.5t36.5 52.5l267 1256l-787 -1404h-68l-229 1398l-228 -1075q-21 -96 -7 -143.5t53 -73.5l57 -22 q37 -9 84 -9l-16 -75h-558l16 75q64 0 114.5 15t83.5 44q61 52 87 177l217 1020q8 38 -11.5 55.5t-82.5 17.5h-126z" />
<glyph unicode="N" horiz-adv-x="1669" d="M398 1479h353l645 -1162l179 841q27 126 -18 188q-20 26 -58.5 42t-87.5 16l16 75h517l-16 -75q-79 0 -121 -22q-45 -21 -86.5 -79.5t-55.5 -127.5l-250 -1175h-94l-666 1209l-190 -892q-25 -119 25.5 -180.5t173.5 -61.5l-16 -75h-564l16 75q51 0 97 18t86 51 q76 67 96 161l213 1003l-13 18q-37 54 -58 64q-28 14 -72 14h-67z" />
<glyph unicode="O" horiz-adv-x="1593" d="M1105 1510q91 0 173 -24q42 -12 78.5 -29.5t75.5 -44.5q145 -98 200 -275t8 -398t-176.5 -397t-315 -277.5t-366.5 -101.5q-178 0 -311 95t-191 280t-11 404q46 218 172 391t310.5 275t353.5 102zM1104 1433q-192 0 -349 -163t-234 -527q-84 -396 6.5 -548.5 t275.5 -152.5q124 0 234.5 68.5t205.5 219.5q41 72 79.5 178t62.5 216q55 260 33 411.5t-106.5 224.5t-207.5 73z" />
<glyph unicode="P" horiz-adv-x="1366" d="M394 1479h729q246 0 353 -111.5t68 -293.5q-38 -180 -178 -276q-194 -131 -435 -131h-264l-108 -505q-8 -42 8 -63q22 -24 70 -24h168l-16 -75h-709l16 75h148q44 0 68 17.5t31 47.5l250 1179q10 45 -12 65t-94 20h-109zM682 740h201q189 0 291.5 79.5t141.5 262.5 q13 59 15 112t-11 84q-22 69 -87.5 102t-237.5 33q-111 0 -145 -21t-45 -73z" />
<glyph unicode="Q" horiz-adv-x="1593" d="M1202 92l5 -46l6 -66q6 -129 30 -171t65 -42q32 0 74 43q16 20 33 56t27 85h60q-38 -180 -126 -265t-198 -85q-98 0 -145.5 79.5t-23.5 319.5q-57 -14 -112 -21l-52 -5l-49 -2q-184 0 -319.5 95.5t-192 276.5t-8.5 409q69 322 326 550q233 207 516 207q52 0 92.5 -5 t83.5 -18q82 -22 150 -72q135 -94 190.5 -276t9.5 -398q-44 -205 -149 -359.5t-293 -289.5zM1181 230q74 99 126.5 226t88.5 293q53 252 29.5 398.5t-109 216.5t-211.5 70q-121 0 -233 -69t-205 -220q-37 -66 -76 -172q-20 -56 -35.5 -110t-29.5 -121q-38 -180 -32.5 -309 t50.5 -245l14 74q26 124 122.5 204t225.5 80q123 0 200 -87q53 -63 75 -229zM1031 103q39 183 9 261q-35 104 -153 104q-91 0 -165.5 -61t-94.5 -154q-20 -94 36 -178l30 -12l45 -13q29 -6 68 -6q54 0 116 15l56 18q31 10 53 26z" />
<glyph unicode="R" horiz-adv-x="1479" d="M366 1479h764q222 0 323 -101t67 -265q-21 -98 -86 -174t-167 -123q-87 -39 -300 -65q134 -39 180 -75.5t66 -97t23 -243.5q3 -129 26 -179q18 -37 48 -37t67 45q12 16 37 65l16 46l14 50h68q-35 -163 -120 -251.5t-203 -88.5q-70 0 -115 35.5t-61 110.5q-7 38 13 283 q13 133 -6 188.5t-84.5 90t-156.5 34.5h-121l-124 -581q-8 -36 10.5 -53.5t68.5 -17.5h142l-16 -75h-687l16 75h145q45 0 73 18t35 53l251 1182q8 34 -12.5 55t-64.5 21h-145zM673 799h175q171 0 287 66t152 237q25 117 3 185t-82.5 93t-231.5 25q-118 0 -149.5 -16.5 t-40.5 -56.5z" />
<glyph unicode="S" horiz-adv-x="1290" d="M1237 1367l118 129h73l-109 -539h-66q-4 123 -29.5 213t-75.5 148q-99 115 -257 115q-132 0 -232.5 -78.5t-124.5 -193.5q-15 -71 5.5 -124.5t76.5 -87.5q20 -12 82 -34l46 -12l96 -25q234 -55 321 -107.5t120 -137.5t9 -198q-41 -195 -205 -329t-375 -134 q-228 0 -367 148l-142 -138h-72l122 573h72q-9 -237 108 -374t300 -137q143 0 257.5 87t141.5 213q15 71 -7 124.5t-94 89.5q-25 14 -103 40l-177 49q-233 57 -306 130q-103 102 -64 289q42 195 193 319.5t345 124.5q93 0 170 -33q40 -17 76 -43q33 -22 74 -67z" />
<glyph unicode="T" horiz-adv-x="1366" d="M405 1479h1200l-90 -559h-69q37 493 -251 493q-58 0 -84 -20t-35 -66l-252 -1182q-6 -30 10 -53q18 -17 65 -17h149l-16 -75h-687l16 75h170q34 0 56 17t28 45l254 1199q9 38 -10 57.5t-70 19.5q-144 0 -271 -137q-101 -107 -191 -356h-73z" />
<glyph unicode="U" horiz-adv-x="1669" d="M368 1479h683l-16 -75h-137q-48 0 -81 -18q-26 -19 -34 -55l-177 -835q-30 -140 -19 -198q13 -95 90 -156t225 -61q198 0 328 105t167 279l145 679q19 91 16 136q-2 49 -20 72q-16 26 -56.5 39t-112.5 13l16 75h559l-16 -75h-40q-90 0 -149 -51.5t-79 -145.5l-154 -727 q-50 -232 -214 -365q-184 -143 -437 -143q-111 0 -195.5 15.5t-138.5 46.5q-108 59 -144 180l-9 44l-2 53l4 60l12 67l189 893q6 28 -13 50.5t-65 22.5h-141z" />
<glyph unicode="V" horiz-adv-x="1479" d="M305 1479h623l-16 -75h-108q-66 0 -94 -15.5t-34 -43.5q-3 -16 5 -61l4 -21l178 -991l546 946l14 33l11 35q11 54 -15 87q-8 12 -30.5 21.5t-51.5 9.5h-101l16 75h546l-16 -75h-44q-26 0 -51 -11q-24 -8 -58 -36q-59 -46 -123 -155l-721 -1237h-73l-241 1322 q-13 63 -43 90t-91 27h-48z" />
<glyph unicode="W" horiz-adv-x="2009" d="M349 1479h494l-16 -75h-35q-76 0 -101.5 -13t-30.5 -37q-3 -18 3 -57l2 -19l102 -939l448 867q-14 148 -35 172q-18 26 -91 26h-90l16 75h617l-16 -75h-64q-84 0 -112 -13t-33 -41q-5 -21 -3 -39l101 -972l430 841q26 48 35 94q14 66 -9.5 98t-84.5 32h-46l16 75h464 l-16 -75q-62 -6 -103 -29q-38 -19 -71 -57t-87 -138l-622 -1215h-70l-111 1085l-555 -1085h-75l-137 1313q-8 75 -34.5 100.5t-95.5 25.5z" />
<glyph unicode="X" horiz-adv-x="1442" d="M351 1479h607l-16 -75h-71q-77 0 -105 -13t-32 -33q-4 -16 17 -57l194 -416l287 330q56 63 64 103q8 36 -25 61t-128 25l16 75h537l-16 -75q-82 0 -145 -30q-72 -37 -154 -126l-398 -444l324 -674q13 -29 40 -42q39 -13 100 -13l-16 -75h-586l16 75h81q58 0 84 15t31 36 q3 17 -16 67l-208 440l-293 -322q-69 -76 -81 -134q-11 -48 14 -76q26 -26 86 -26h58l-16 -75h-564l16 75q42 0 84 12t83 34q71 38 167 142l409 452l-281 580q-32 68 -66.5 88.5t-113.5 20.5z" />
<glyph unicode="Y" horiz-adv-x="1442" d="M302 1479h648l-16 -75h-72q-94 0 -122 -14t-33 -39q-6 -26 4 -47l252 -583l375 497q25 33 34 72q10 48 -17 83q-27 31 -90 31h-69l16 75h564l-16 -75q-97 0 -160 -33.5t-135 -128.5l-474 -625l-100 -468q-6 -30 10 -53q25 -21 82 -21h127l-16 -75h-679l16 75h134 q55 0 82.5 19.5t34.5 54.5l97 455l-307 715q-21 45 -56 64q-20 9 -51.5 15t-78.5 6z" />
<glyph unicode="Z" horiz-adv-x="1251" d="M464 1479h1007l-16 -75l-1127 -1329h321q133 0 229.5 44.5t170.5 131.5t170 304h70l-145 -555h-1070l14 67l1137 1337h-305q-67 0 -114 -6.5t-86 -22.5q-96 -36 -180 -138q-75 -96 -142 -270h-70z" />
<glyph unicode="[" horiz-adv-x="682" d="M582 -153l-13 -62l-488 -8l360 1695l480 -5l-16 -75h-321l-329 -1551z" />
<glyph unicode="\" horiz-adv-x="1241" d="M464 1504h177l447 -1504h-177z" />
<glyph unicode="]" horiz-adv-x="682" d="M351 -157l333 1565h-305l12 60l466 4l-360 -1693l-468 8l13 62z" />
<glyph unicode="^" horiz-adv-x="1241" d="M404 649h-170l614 823h162l264 -823h-170l-215 635z" />
<glyph unicode="_" d="M966 -272h-1040l27 128h1040z" />
<glyph unicode="`" horiz-adv-x="682" d="M501 1366l225 -284h-85l-258 186q-71 50 -62 94q3 11 9 22q6 13 15 25l6 3l6 5l7 5l6 4q13 6 42 6q35 0 89 -66z" />
<glyph unicode="a" horiz-adv-x="1139" d="M1078 103l25 -56q-88 -75 -178 -75q-66 0 -103 35t-58 132q-113 -96 -195.5 -131.5t-179.5 -35.5q-145 0 -206.5 62t-40.5 159q30 141 220.5 237.5t485.5 133.5l31 142q16 75 -33.5 129.5t-143.5 54.5q-87 0 -158 -36q-51 -27 -56 -53q-2 -9 14 -47q20 -40 14 -71 q-10 -45 -45 -74q-18 -12 -37 -21l-22 -5l-23 -2q-45 0 -76 33q-27 34 -15 88q20 95 149 179t311 84q165 0 238.5 -72.5t51.5 -176.5l-109 -512q-13 -63 -1 -101q15 -32 52 -32q40 0 88 32zM834 498q-259 -33 -384 -114q-36 -25 -74 -72q-14 -22 -25 -46q-6 -17 -9 -25 t-7 -27q-16 -77 15.5 -120.5t97.5 -43.5q118 0 223.5 89.5t134.5 224.5z" />
<glyph unicode="b" horiz-adv-x="1139" d="M675 1496l-148 -696q77 83 158 124t165 41q165 0 251.5 -129t41.5 -340q-47 -223 -200 -366.5t-334 -143.5q-84 0 -149 33q-28 14 -60.5 45t-58.5 71q-76 -90 -142 -149l-37 14q27 59 46 117l17 59l16 64l225 1059q10 48 -18.5 76.5t-91.5 28.5h-42l16 75zM795 877 q-107 0 -202 -99t-143 -325q-45 -212 4.5 -307t163.5 -95q102 0 183 92q103 116 149 331q44 206 -4 304.5t-151 98.5z" />
<glyph unicode="c" horiz-adv-x="909" d="M842 278l61 -19q-139 -287 -405 -287q-192 0 -290 129.5t-53 342.5q52 245 216.5 383t350.5 138q139 0 212.5 -75.5t53.5 -169.5q-12 -56 -53 -92.5t-87 -36.5q-45 0 -69.5 31t-15.5 75t52 84q12 12 22 30q6 27 -28 55.5t-99 28.5q-120 0 -204 -89q-117 -129 -162 -340 q-43 -201 15 -304.5t182 -103.5q166 0 301 220z" />
<glyph unicode="d" horiz-adv-x="1176" d="M913 1479l369 17l-272 -1282q-16 -75 5.5 -107t78.5 -32h65l-16 -75h-320l17 191q-79 -102 -165.5 -153.5t-183.5 -51.5q-158 0 -242.5 135.5t-38.5 352.5q49 231 225 380q136 111 283 111q85 0 149 -44t99 -137l112 529q9 42 -19.5 66.5t-94.5 24.5h-67zM728 882 q-108 0 -190.5 -89t-127.5 -300q-49 -229 -3.5 -322.5t147.5 -93.5q109 0 208.5 104.5t142.5 305.5q40 189 -20 299q-51 96 -157 96z" />
<glyph unicode="e" d="M1045 462h-671q-25 -114 -19 -183t34 -119q65 -99 198 -99q195 0 363 223l59 -28q-207 -284 -483 -284q-184 0 -285.5 135.5t-56.5 348.5q48 223 204 366t342 143q135 0 219.5 -69t107.5 -202q7 -46 5 -104l-6 -60zM389 533h406q31 0 60 24q26 24 39 84q23 108 -29 186 t-145 78q-102 0 -197 -93q-40 -40 -78 -116t-56 -163z" />
<glyph unicode="f" horiz-adv-x="682" d="M586 937h234l-18 -87h-234l-146 -684q-10 -47 8 -66q26 -25 79 -25h128l-16 -75h-574l16 75h79q48 0 75.5 18t35.5 56l149 701h-162l18 87h162l15 70q52 245 182 377t284 132q111 0 164 -54.5t34 -144.5q-12 -57 -50.5 -91t-84.5 -34q-39 0 -63 27q-22 28 -13 68 q8 41 52 77q27 18 37 36q3 17 -16.5 31t-64.5 14q-80 0 -159 -76q-34 -33 -63 -93t-44 -131z" />
<glyph unicode="g" horiz-adv-x="1100" d="M973 884q120 101 205 101q50 0 76.5 -32t16.5 -78q-8 -36 -35 -61t-58 -25q-52 0 -63 70q-1 30 -20 30q-27 0 -84 -45q21 -44 37 -103q5 -54 -3 -93q-18 -83 -74 -150t-164 -119.5t-199 -52.5h-109q-110 0 -159 -24q-43 -24 -53 -73q-9 -39 16.5 -60t113.5 -21l248 5 q181 0 253.5 -62.5t49.5 -171.5q-26 -120 -137 -202q-156 -116 -416 -116q-215 0 -302 79q-69 62 -53 139q12 55 73 103.5t195 77.5q-91 24 -132.5 70.5t-27.5 115.5q14 63 62 108.5t160 84.5q-73 45 -102.5 113t-11.5 153q29 136 155.5 228t297.5 92q78 0 133 -20 q59 -18 111 -61zM713 901q-85 0 -160 -67q-33 -31 -59 -77t-39 -105q-26 -123 16.5 -194t133.5 -71t162.5 69t98.5 192q24 117 -19 185t-134 68zM581 -1q-180 0 -271.5 -51t-106.5 -123q-14 -66 36 -107q73 -52 211 -52q168 0 269 57.5t116 126.5q7 35 -11 77 q-19 35 -74 53.5t-169 18.5z" />
<glyph unicode="h" horiz-adv-x="1251" d="M357 1479l359 17l-153 -722q91 93 189 142t190 49q91 0 153 -43q44 -33 67.5 -120.5t-0.5 -199.5l-95 -445q-9 -42 9 -63q18 -19 65 -19h80l-16 -75h-506l16 75h56q60 0 91 21t39 61l95 445q24 112 -18 180t-130 68q-69 0 -136 -36.5t-124 -113t-75 -159.5l-80 -374 q-9 -44 7 -70q17 -22 64 -22h80l-16 -75h-495l16 75h56q58 0 86.5 22.5t37.5 69.5l238 1118q13 60 -13 89q-24 30 -85 30h-68z" />
<glyph unicode="i" horiz-adv-x="645" d="M626 1496q45 0 72 -34t17 -80q-10 -45 -50 -78t-86 -33q-39 0 -73 33q-26 33 -16 79q10 45 51 79t85 34zM248 937l375 11l-172 -806q-6 -30 6 -47q19 -20 54 -20h106l-16 -75h-532l16 75h99q38 0 66 21t37 63l125 590q12 56 -14 84.5t-89 28.5h-77z" />
<glyph unicode="j" horiz-adv-x="606" d="M637 1498q49 0 75 -32q25 -30 15 -79q-11 -49 -49.5 -81t-86.5 -32q-39 0 -73 33q-27 34 -17 79q9 45 50 78.5t86 33.5zM621 951l-190 -896q-42 -196 -176.5 -325t-265.5 -129q-66 0 -95 32.5t-17 88.5q10 49 45.5 79t79.5 30q69 0 72 -91q-1 -30 6 -37q2 -1 3 -1 q11 -5 17 -7q18 0 39 17q28 24 60.5 100t49.5 153l167 789q11 51 -16.5 82t-94.5 31h-85l15 70z" />
<glyph unicode="k" horiz-adv-x="1214" d="M365 1479l362 17l-217 -1023l361 265q52 39 58 68q6 25 -17 39l-21 7l-29 8l-31 5l-42 2l15 70h499l-15 -70q-76 0 -134 -19t-108 -59l-256 -191l247 -480q23 -43 102 -43h52l-16 -75h-512l16 75h51q57 0 77 9t26 25q3 14 -4 28l-178 356l-163 -119l-50 -237 q-6 -27 10 -43q29 -19 71 -19h65l-16 -75h-503l16 75h81q45 0 76 21t38 56l246 1156q10 46 -15 66q-36 30 -107 30h-51z" />
<glyph unicode="l" horiz-adv-x="645" d="M738 1496l-289 -1358q-5 -27 8 -43q21 -20 57 -20h99l-16 -75h-530l16 75h94q41 0 70.5 21t38.5 63l242 1140q9 44 -11 73q-31 32 -85 32h-84l16 75z" />
<glyph unicode="m" horiz-adv-x="1821" d="M324 937l272 17l-5 -91l-9 -109q98 108 185.5 154t176.5 46q93 0 145 -49.5t66 -167.5q89 109 183.5 163t190.5 54q128 0 176 -76q60 -100 27 -258l-99 -465q-9 -42 9 -57q23 -23 78 -23h47l-16 -75h-471l16 75h47q61 0 88.5 20t36.5 60l99 465q21 101 -18 159.5 t-121 58.5q-62 0 -117 -32t-104 -97q-12 -18 -21 -33q-14 -24 -29 -51q-9 -17 -15.5 -34t-9.5 -33l-86 -403q-8 -39 9 -61q18 -19 64 -19h64l-16 -75h-477l16 75h54q52 0 80.5 20t35.5 51l92 432q29 137 -6.5 199t-117.5 62q-100 0 -178 -72q-103 -102 -132 -238l-79 -374 q-8 -39 6 -59q23 -21 80 -21h48l-16 -75h-472l16 75h71h23l13 4q10 3 29 16q26 20 33 51l131 614q10 51 -9 75t-99 33z" />
<glyph unicode="n" horiz-adv-x="1251" d="M266 937l315 19l-4 -91l-12 -115q85 102 181.5 153t204.5 51q91 0 145.5 -35.5t77.5 -115t2 -178.5l-97 -456q-11 -51 7.5 -72.5t72.5 -21.5h66l-16 -75h-494l16 75h47q61 0 94 21.5t42 62.5l85 401q27 129 1 194q-37 90 -151 90q-113 0 -207.5 -90.5t-125.5 -237.5 l-74 -347q-11 -51 8 -72.5t73 -21.5h65l-16 -75h-496l16 75h65q48 0 78 20t37 50l128 605q12 56 -14.5 89t-85.5 33h-48z" />
<glyph unicode="o" d="M714 965q186 0 287 -136t53 -360q-32 -153 -112.5 -261.5t-199.5 -172t-244 -63.5q-176 0 -279 138q-46 66 -61 158q-6 44 -5 93q2 25 5 49.5t10 57.5q46 216 202 356.5t344 140.5zM699 894q-107 0 -203.5 -103t-142.5 -319q-46 -218 3.5 -323.5t161.5 -105.5 q117 0 211.5 103t143.5 337q46 213 -4.5 312t-169.5 99z" />
<glyph unicode="p" horiz-adv-x="1176" d="M566 954l-5 -108l-5 -50l-7 -44q92 110 180 156t174 46q96 0 168.5 -57t106.5 -176q12 -50 14 -118t-13 -138q-24 -113 -78 -208t-136 -165q-136 -120 -291 -120q-85 0 -149 45.5t-98 133.5l-81 -379q-8 -38 8 -62q22 -24 70 -24h69l-15 -71h-499l15 71h69 q49 0 76.5 18.5t34.5 50.5l209 986q14 64 -12 97q-11 11 -45 21.5t-80 10.5l14 67zM837 863q-105 0 -205 -106t-142 -303t10 -295t166 -98q105 0 180 82q47 53 83 135q9 21 13.5 33t18 52.5t18.5 62t7 33.5q46 215 -0.5 309.5t-148.5 94.5z" />
<glyph unicode="q" horiz-adv-x="1139" d="M1011 802q68 84 145 152l31 -17q-27 -64 -47 -124l-18 -62l-17 -68l-191 -901q-10 -47 6 -71q22 -25 82 -25h40l-15 -71h-491l15 71h66q61 0 90.5 23t40.5 73l75 356q-74 -81 -155.5 -123.5t-167.5 -42.5q-158 0 -249 138.5t-47 345.5q29 138 114 255t197.5 180t222.5 63 q80 0 145.5 -33.5t127.5 -118.5zM737 887q-105 0 -196 -99.5t-136 -312.5t3 -311.5t152 -98.5q67 0 131.5 40.5t119 128.5t83.5 227q34 162 22.5 248t-62.5 132t-117 46z" />
<glyph unicode="r" horiz-adv-x="909" d="M251 937l341 17l-81 -379q94 186 190 282.5t209 96.5q75 0 111 -47q17 -22 22 -54.5t-3 -69.5q-13 -63 -51 -98t-84 -35q-40 0 -66 30q-21 30 -10 81q7 33 28 60l23 33q3 15 -16 15q-39 0 -103 -48q-87 -66 -151 -184q-98 -182 -121 -291l-43 -201q-6 -28 13 -52 q20 -18 78 -18h119l-16 -75h-582l16 75h93q42 0 72.5 18t35.5 45l127 597q15 70 -7.5 100.5t-76.5 30.5h-82z" />
<glyph unicode="s" horiz-adv-x="948" d="M254 353q26 -173 92 -239.5t184 -66.5q108 0 177 47.5t85 120.5q9 42 -7 73q-10 29 -43.5 43.5t-185.5 45.5t-204 65t-76 92q-21 57 -6 127q20 97 108 187q112 107 272 107q122 0 210 -77l81 70h41l-45 -334h-67q-14 142 -75.5 204.5t-171.5 62.5q-93 0 -158 -46 t-79 -114q-12 -55 26 -94.5t181 -66.5l79 -15l54 -11q52 -9 73 -21q74 -30 107 -93q13 -29 18 -68.5t-5 -83.5q-26 -124 -142 -210t-266 -86q-139 0 -238 92l-91 -84h-53l59 373h66z" />
<glyph unicode="t" horiz-adv-x="797" d="M594 1319h68l-81 -382h303l-20 -92h-303l-128 -601q-16 -78 11 -119.5t86 -41.5q62 0 129 63q30 30 58 85.5t43 122.5h67l-3 -11q-4 -19 -9 -38t-11.5 -37.5t-14 -36t-18.5 -37.5q-35 -65 -88 -118q-98 -90 -225 -90q-111 0 -165.5 63.5t-32.5 166.5l134 629h-163l15 70 q110 18 189 93q50 51 94.5 135t64.5 176z" />
<glyph unicode="u" horiz-adv-x="1251" d="M590 954l-132 -621q-23 -109 21 -173.5t135 -64.5q107 0 207 90t129 227l75 351q10 48 -19 74q-14 12 -46 22l-33 6l-47 2l15 70l332 17l-163 -769q-10 -47 13 -82q25 -28 78 -28h59l-15 -67l-316 -8l19 185q-100 -96 -199 -147.5t-184 -51.5q-122 0 -193 84.5t-29 285.5 l87 407q11 54 -26 82l-42 16q-29 6 -76 6l15 70z" />
<glyph unicode="v" horiz-adv-x="1100" d="M225 937h461l-14 -68q-91 0 -120.5 -15.5t-34.5 -42.5q-5 -21 0 -44l131 -553l341 536l11 28q14 67 -125 91l14 68h388l-14 -68q-60 -6 -100.5 -32t-69.5 -70l-513 -795h-54l-194 817q-9 42 -37 61t-84 19z" />
<glyph unicode="w" horiz-adv-x="1593" d="M252 937h411l-15 -69h-54q-40 0 -59.5 -12.5t-24.5 -33.5q-4 -21 0 -47l99 -530l290 504q-21 80 -46 99.5t-98 19.5l15 69h452l-15 -69h-38q-52 0 -74.5 -13.5t-27.5 -37.5q-4 -18 0 -42l101 -530l269 471q27 49 34 80q7 34 -15 51q-11 9 -34 15t-60 6l15 69h365l-15 -69 q-68 -9 -106.5 -38.5t-85.5 -100.5l-432 -757h-58l-125 657l-375 -657h-58l-160 828q-8 34 -25 52l-25 11l-18 4l-22 1z" />
<glyph unicode="x" horiz-adv-x="1100" d="M247 937h452l-15 -69q-110 0 -118 -39q-2 -9 9 -41l117 -214l200 198q22 22 26 42q9 42 -110 54l15 69h395l-15 -69q-147 -23 -244 -119l-232 -230l209 -376q7 -12 20.5 -26t31.5 -27q30 -15 97 -15l-16 -75h-479l16 75h34q59 0 80 11q18 6 21 20q2 11 -12 37l-135 249 l-192 -194q-41 -41 -46 -66q-4 -19 14 -38q32 -19 101 -19l-16 -75h-407l16 75h27q15 0 33 7l34 11l27 13q74 39 141 107l236 236l-199 356q-34 63 -131 63z" />
<glyph unicode="y" horiz-adv-x="1100" d="M246 937h449l-15 -68h-42q-59 0 -83.5 -15.5t-31.5 -44.5l1 -26l141 -564l293 468q32 50 42 98q8 37 -17 57q-9 8 -41 19l-29 6l-40 2l15 68h390l-15 -68q-51 0 -96 -26.5t-77 -74.5l-518 -807q-132 -205 -238 -282.5t-209 -77.5q-76 0 -112.5 41t-23.5 101q8 41 42 74 q34 29 78 29q36 0 57.5 -24t14.5 -61l-4 -16l-7 -14l-8 -22q-6 -24 25 -24q30 0 78.5 24.5t95.5 76t176 234.5l-193 763q-8 36 -31.5 55.5t-81.5 30.5z" />
<glyph unicode="z" horiz-adv-x="985" d="M350 937h743l-13 -60l-759 -802h287q99 0 168.5 60t142.5 232h67l-100 -367h-788l15 69l757 797h-249q-77 0 -120 -21q-40 -21 -78.5 -67.5t-92.5 -174.5h-74z" />
<glyph unicode="{" horiz-adv-x="682" d="M603 -362l-8 -36q-164 21 -247 135.5t-52 262.5q15 70 59 171l37 91q14 38 17 55q17 78 -32.5 141t-153.5 78l9 42q112 15 188.5 79.5t94.5 149.5q8 41 7 146l1 87q2 39 8 67q32 151 157 261.5t313 143.5l-7 -33q-242 -53 -283 -249q-9 -39 -9 -125q0 -136 -10 -182 q-24 -116 -119 -211t-261 -152q131 -51 190.5 -150.5t36.5 -208.5q-7 -32 -19.5 -67t-35.5 -87q-54 -139 -60 -165q-19 -88 24.5 -150.5t154.5 -93.5z" />
<glyph unicode="|" horiz-adv-x="1241" d="M868 1479h134l-367 -1726h-134z" />
<glyph unicode="}" horiz-adv-x="682" d="M-70 -362q115 24 190 90.5t93 150.5q4 21 7 60l3 56v52q-1 98 10 149q24 111 123 210t257 154q-139 53 -194.5 149.5t-30.5 213.5q2 12 5.5 26t16.5 46l9 30q2 9 10 22l29 66q34 77 42 117q41 195 -179 249l7 33q167 -27 249 -141t50 -263q-11 -50 -57 -156.5t-54 -144.5 q-18 -86 28.5 -147t155.5 -82l-8 -42q-107 -12 -185 -76.5t-95 -142.5q-6 -26 -8 -60.5t-2 -93.5q2 -107 -10 -163q-31 -143 -162.5 -257t-307.5 -141z" />
<glyph unicode="~" horiz-adv-x="1241" d="M1295 849h53q-15 -73 -45.5 -129t-80.5 -98q-91 -82 -202 -82q-55 0 -110.5 17t-242.5 105q-139 63 -204 63q-147 0 -222 -183h-53q16 75 49.5 133t78.5 98q88 78 191 78h30l26 -5l21 -3l27 -9q54 -15 115 -40t143.5 -65t135.5 -58l32 -6l36 -2q76 0 133.5 47t88.5 139z " />
<glyph unicode="&#xa8;" />
<glyph unicode="&#xa9;" horiz-adv-x="1772" />
<glyph unicode="&#xae;" horiz-adv-x="1770" />
<glyph unicode="&#xb4;" />
<glyph unicode="&#xb6;" d="M1234 1435l-15 -70h-127l-290 -1365h-82l290 1365h-166l-290 -1365h-84l157 738q-172 8 -253.5 102.5t-49.5 245.5q33 157 161 253t306 96h443z" />
<glyph unicode="&#xbc;" horiz-adv-x="1780" />
<glyph unicode="&#xbd;" horiz-adv-x="1780" />
<glyph unicode="&#xbe;" horiz-adv-x="1780" />
<glyph unicode="&#xc0;" horiz-adv-x="1479" d="M251 252l762 1257h80l261 -1327q11 -60 52 -80q8 -3 13 -4t22 -4l76 -2l-20 -92h-629l20 92h84q37 0 90 12q7 0 12.5 2.5t17.5 10.5q12 10 23 33l-1 34l-58 297h-553l-62 -102l-34 -64l-29 -53q-12 -20 -19 -53q-14 -70 53 -100q42 -17 132 -17l-20 -92h-540l20 92 q81 0 136.5 38t110.5 122zM565 586h475l-113 602zM1013 1796l-32 23l-27 32q-6 16 -4 54q7 31 30 55q6 5 30 8l36 -6l32 -14q18 -6 25 -23l27 -31l222 -284h-84z" />
<glyph unicode="&#xc1;" horiz-adv-x="1479" d="M251 252l762 1257h80l261 -1327q11 -60 52 -80q8 -3 13 -4t22 -4l76 -2l-20 -92h-629l20 92h84q37 0 90 12q7 0 12.5 2.5t17.5 10.5q12 10 23 33l-1 34l-58 297h-553l-62 -102l-34 -64l-29 -53q-12 -20 -19 -53q-14 -70 53 -100q42 -17 132 -17l-20 -92h-540l20 92 q81 0 136.5 38t110.5 122zM565 586h475l-113 602zM1347 1796l-335 -186h-84l343 284l30 25l51 31q7 4 44 10q70 0 56 -66q-4 -15 -24 -41q-16 -18 -40 -32z" />
<glyph unicode="&#xc2;" horiz-adv-x="1479" d="M251 252l762 1257h80l261 -1327q11 -59 52 -80q33 -10 111 -10l-20 -92h-629l20 92h84q38 0 90 12q12 0 32 15q11 9 21 31l-1 34l-58 297h-553l-36 -61q-13 -25 -26 -41l-16 -33q-4 -8 -6.5 -13.5t-11.5 -17.5q-28 -48 -29 -53q-12 -23 -19 -53q-15 -72 53 -100 q43 -17 132 -17l-20 -92h-540l20 92q78 0 139 39q56 40 108 121zM565 586h475l-113 602zM1128 1821l-294 -211h-72l328 340h129l184 -340h-72z" />
<glyph unicode="&#xc3;" horiz-adv-x="1479" d="M251 252l762 1257h80l261 -1327q11 -60 52 -80q8 -3 13 -4t22 -4l76 -2l-20 -92h-629l20 92h84q37 0 90 12q7 0 12.5 2.5t17.5 10.5q12 10 23 33l-1 34l-58 297h-553l-62 -102l-34 -64l-29 -53q-12 -20 -19 -53q-14 -70 53 -100q42 -17 132 -17l-20 -92h-540l20 92 q81 0 136.5 38t110.5 122zM565 586h475l-113 602zM1444 1851h59l-5 -18l-35 -64l-51 -63q-17 -16 -31.5 -27t-30.5 -18l-57 -21l-51 -6q-44 0 -94 19q-25 5 -86 43l-42 20q-7 3 -21 5.5t-24 4.5q-49 0 -82 -28l-25 -25l-27 -39h-62q39 97 129 164q33 23 74 35l58 8h33 l31 -10q11 -1 22 -5.5t22 -10.5l49 -27l59 -31l54 -8l38 6q59 25 96 96z" />
<glyph unicode="&#xc8;" horiz-adv-x="1479" d="M358 1386l19 93h1233l-82 -525h-86q10 284 -77 363q-79 69 -368 69h-40l-94 -2q-61 -9 -75 -77l-105 -494h74q135 0 217 65t115 216h92l-144 -674h-92q30 142 -10 219q-20 40 -58.5 60t-100.5 20h-113l-117 -549l-3 -25l12 -26l36 -17l55 -2l62 -6l68 -2h41l61 2h37l31 8 q74 0 137 29q59 30 118 86q70 70 153 248l36 82h84l-155 -547h-1260l20 92h62q63 0 97 6q52 11 79 60l22 88l211 991l17 88q2 10 1 19.5t-14 19.5q-6 7 -58 16l-99 6h-39zM1013 1796l-32 23l-27 32q-6 16 -4 54q7 31 30 55q6 5 30 8l36 -6l32 -14q18 -6 25 -23l27 -31 l222 -284h-84z" />
<glyph unicode="&#xc9;" horiz-adv-x="1479" d="M358 1386l19 93h1233l-82 -525h-86q10 284 -77 363q-79 69 -368 69h-40l-94 -2q-61 -9 -75 -77l-105 -494h74q135 0 217 65t115 216h92l-144 -674h-92q30 142 -10 219q-20 40 -58.5 60t-100.5 20h-113l-117 -549l-3 -25l12 -26l36 -17l55 -2l62 -6l68 -2h41l61 2h37l31 8 q74 0 137 29q59 30 118 86q70 70 153 248l36 82h84l-155 -547h-1260l20 92h62q63 0 97 6q52 11 79 60l22 88l211 991l17 88q2 10 1 19.5t-14 19.5q-6 7 -58 16l-99 6h-39zM1347 1796l-335 -186h-84l343 284l30 25l51 31q7 4 44 10q70 0 56 -66q-4 -15 -24 -41 q-16 -18 -40 -32z" />
<glyph unicode="&#xca;" horiz-adv-x="1479" d="M358 1386l19 93h1233l-82 -525h-86q10 284 -77 363q-78 69 -368 69h-40q-87 0 -94 -2q-61 -9 -75 -77l-105 -494h74q135 0 217 65t115 216h92l-144 -674h-92q30 141 -10 219q-19 40 -58 60t-101 20h-113l-117 -549q-4 -20 -3 -25l12 -26q7 -4 12 -7t24 -10l55 -2l62 -6 h34q22 0 34 -2h41h23h24l14 2l34 1l34 7q156 14 255 115q72 72 153 248l36 82h84l-155 -547h-1260l20 92h62q66 0 97 6q55 11 79 60l22 88l211 991l17 88q2 27 -13 39q-6 9 -53 15.5t-104 6.5h-39zM1128 1821l-294 -211h-72l328 340h129l184 -340h-72z" />
<glyph unicode="&#xcc;" horiz-adv-x="834" d="M752 0h-674l20 92h41l80 2q17 0 30.5 2t24.5 8q41 14 49 29l15 31l11 43l227 1069l4 17q5 24 3 32q4 19 -10 37l-42 18q-21 6 -58 6l-38 -2h-37l-23 2l19 93h676l-19 -93h-80l-88 -6q-39 -9 -68 -47l-12 -37l-6 -30l-226 -1065q-4 -17 -6 -32q-3 -15 -2 -22l4 -16l9 -12 q12 -8 45 -21l61 -6l57 2l33 -2zM695 1808l-32 23l-25 33q-4 8 -5.5 20.5t-0.5 32.5q7 32 31 55q6 5 30 8l36 -6l32 -14q9 -3 15.5 -8t10.5 -15l26 -30l222 -285h-84z" />
<glyph unicode="&#xcd;" horiz-adv-x="834" d="M752 0h-674l20 92h41l80 2q17 0 30.5 2t24.5 8q41 14 49 29l15 31l11 43l227 1069l4 17q5 24 3 32q4 19 -10 37l-42 18q-21 6 -58 6l-38 -2h-37l-23 2l19 93h676l-19 -93h-80l-88 -6q-39 -9 -68 -47l-12 -37l-6 -30l-226 -1065q-4 -17 -6 -32q-3 -15 -2 -22l4 -16l9 -12 q12 -8 45 -21l61 -6l57 2l33 -2zM994 1796l-328 -186h-91l344 284l30 25l43 27l41 14l42 8q25 0 31 -10l11 -19l-1 -22q-5 -26 -43 -68l-37 -28z" />
<glyph unicode="&#xd2;" horiz-adv-x="1593" d="M1658 739q-57 -267 -278 -499q-260 -271 -588 -271q-307 0 -462 236q-147 225 -81 534q56 265 278 500q260 270 588 270q307 0 462 -235q146 -226 81 -535zM1396 739q28 132 34.5 233.5t-9.5 182.5q-49 262 -325 262q-245 0 -407 -227q-29 -43 -54.5 -92t-47 -102.5 t-42 -120.5t-34.5 -136q-55 -257 -25 -415q49 -263 326 -263q244 0 406 228q57 83 103 194q21 53 41 122.5t34 133.5zM1012 1796l-32 23l-26 32q-7 16 -4 54q6 31 29 55q6 5 31 8l36 -6l32 -14q17 -6 25 -23l26 -31l223 -284h-84z" />
<glyph unicode="&#xd3;" horiz-adv-x="1593" d="M1396 739q28 132 34.5 233.5t-9.5 182.5q-49 262 -325 262q-245 0 -407 -227q-29 -43 -54.5 -92t-47 -102.5t-42 -120.5t-34.5 -136q-55 -257 -25 -415q49 -263 326 -263q244 0 406 228q57 83 103 194q21 53 41 122.5t34 133.5zM1658 739q-57 -267 -278 -499 q-260 -271 -588 -271q-307 0 -462 236q-147 225 -81 534q56 265 278 500q260 270 588 270q307 0 462 -235q146 -226 81 -535zM1403 1796l-334 -186h-84l343 284l29 25l52 31q6 3 20.5 6t22.5 4q70 0 56 -66q-3 -17 -23 -41q-17 -18 -39 -32z" />
<glyph unicode="&#xd4;" horiz-adv-x="1593" d="M1396 739q28 131 34.5 233t-9.5 183q-49 262 -325 262q-247 0 -407 -227q-56 -84 -102 -196.5t-76 -254.5q-55 -257 -25 -415q49 -263 326 -263q245 0 406 228q56 83 101.5 195.5t76.5 254.5zM1658 739q-58 -270 -278 -499q-260 -271 -588 -271q-306 0 -462 236 q-147 225 -81 534q56 267 278 500q260 270 588 270q305 0 462 -235q146 -226 81 -535zM1186 1821l-295 -211h-72l328 340h129l184 -340h-71z" />
<glyph unicode="&#xd5;" horiz-adv-x="1593" d="M1396 739q28 132 34.5 233.5t-9.5 182.5q-49 262 -325 262q-245 0 -407 -227q-29 -43 -54.5 -92t-47 -102.5t-42 -120.5t-34.5 -136q-55 -257 -25 -415q49 -263 326 -263q244 0 406 228q57 83 103 194q21 53 41 122.5t34 133.5zM1658 739q-57 -267 -278 -499 q-260 -271 -588 -271q-307 0 -462 236q-147 225 -81 534q56 265 278 500q260 270 588 270q307 0 462 -235q146 -226 81 -535zM1472 1851h60l-6 -18l-34 -64l-53 -63q-30 -30 -60 -45l-58 -21l-50 -6q-45 0 -95 19q-27 6 -85 43l-43 20q-5 3 -19.5 5.5t-25.5 4.5 q-49 0 -81 -28l-26 -25l-27 -39h-61q39 97 129 164q17 12 34 20t39 15l59 8h33l30 -10q10 -2 21.5 -5.5t22.5 -10.5l50 -27l58 -31l54 -8l39 6q60 26 95 96z" />
<glyph unicode="&#xd9;" horiz-adv-x="1669" d="M330 1386l20 93h684l-20 -93l-152 -10q-49 0 -72 -14q-10 -6 -20 -25l-175 -821q-32 -151 -22 -219.5t58 -122.5q49 -47 117 -76q75 -22 167 -22q110 0 206.5 45t174.5 137l30 41l38 76q14 33 22.5 57t13.5 47l139 654q31 145 -3.5 199t-181.5 54l20 93h577l-20 -93 q-154 0 -224 -92q-41 -56 -78 -233l-96 -449q-8 -38 -23 -98q-16 -60 -21 -82q-21 -72 -49 -121q-46 -92 -131 -173.5t-226 -131.5q-114 -37 -249 -37h-52h-13q-21 0 -39 4q-15 0 -36.5 3t-58.5 12q-39 7 -66 15.5t-55 25.5q-60 28 -100 77q-26 34 -44 68t-28 66 q-14 69 5 159l189 887l5 25l1 35q2 7 -20 22q-17 11 -50 14l-77 4h-65zM1109 1784l-33 22l-26 33q-3 7 -4 22t-1 31q7 31 31 56q6 5 30 8l36 -6l32 -15q17 -6 26 -22l25 -31l223 -285h-84z" />
<glyph unicode="&#xda;" horiz-adv-x="1669" d="M330 1386l20 93h684l-20 -93l-152 -10q-49 0 -72 -14q-10 -6 -20 -25l-175 -821q-32 -151 -22 -219.5t58 -122.5q49 -47 117 -76q75 -22 167 -22q110 0 206.5 45t174.5 137l30 41l38 76q14 33 22.5 57t13.5 47l139 654q31 145 -3.5 199t-181.5 54l20 93h577l-20 -93 q-154 0 -224 -92q-41 -56 -78 -233l-96 -449q-8 -38 -23 -98q-16 -60 -21 -82q-21 -72 -49 -121q-46 -92 -131 -173.5t-226 -131.5q-114 -37 -249 -37h-52h-13q-21 0 -39 4q-15 0 -36.5 3t-58.5 12q-39 7 -66 15.5t-55 25.5q-60 28 -100 77q-26 34 -44 68t-28 66 q-14 69 5 159l189 887l5 25l1 35q2 7 -20 22q-17 11 -50 14l-77 4h-65zM1385 1845l-327 -186h-91l344 285l30 24l41 27l42 14l43 8q25 0 31 -10l10 -18v-23q-5 -26 -43 -68l-37 -28z" />
<glyph unicode="&#xdd;" horiz-adv-x="1442" d="M944 1479l-20 -93h-66h-24l-26 3l-53 -7q-18 0 -32 -14q-8 -9 -11 -22l-2 -29l7 -25l9 -18l227 -551l332 430l59 82l21 57l1 39q-7 15 -11.5 21.5t-9.5 9.5q-37 13 -74 18l-93 6l20 93h577l-20 -93q-105 0 -182 -49q-56 -35 -142 -147l-449 -582l-83 -389 q-17 -82 -5 -106q17 -21 101 -21h115l-20 -92h-703l20 92h62h47q58 0 87 8t50 39l18 58l10 47l74 346l-273 653l-30 72q-20 40 -56 55q-35 16 -78 16h-50l20 93h656zM1252 1796l-327 -186h-90l342 284l30 25l43 27l41 14l43 8q25 0 31 -10l11 -19l-1 -22q-6 -26 -44 -68 l-37 -28z" />
<glyph unicode="&#xe0;" horiz-adv-x="1139" d="M1078 103l25 -56q-88 -75 -178 -75q-66 0 -103 35t-58 132q-113 -96 -195.5 -131.5t-179.5 -35.5q-145 0 -206.5 62t-40.5 159q30 141 220.5 237.5t485.5 133.5l31 142q16 75 -33.5 129.5t-143.5 54.5q-87 0 -158 -36q-51 -27 -56 -53q-2 -9 14 -47q20 -40 14 -71 q-10 -45 -45 -74q-18 -12 -37 -21l-22 -5l-23 -2q-45 0 -76 33q-27 34 -15 88q20 95 149 179t311 84q165 0 238.5 -72.5t51.5 -176.5l-109 -512q-13 -63 -1 -101q15 -32 52 -32q40 0 88 32zM834 498q-259 -33 -384 -114q-36 -25 -74 -72q-14 -22 -25 -46q-6 -17 -9 -25 t-7 -27q-16 -77 15.5 -120.5t97.5 -43.5q118 0 223.5 89.5t134.5 224.5zM732 1366l222 -285h-84l-255 187q-13 8 -24.5 17.5t-18.5 19.5q-25 28 -19 57q3 16 9 24q6 14 16 23l23 16q16 7 43 7q26 0 50 -23l15 -16z" />
<glyph unicode="&#xe1;" horiz-adv-x="1139" d="M1078 103l25 -56q-88 -75 -178 -75q-66 0 -103 35t-58 132q-113 -96 -195.5 -131.5t-179.5 -35.5q-145 0 -206.5 62t-40.5 159q30 141 220.5 237.5t485.5 133.5l31 142q16 75 -33.5 129.5t-143.5 54.5q-87 0 -158 -36q-51 -27 -56 -53q-2 -9 14 -47q20 -40 14 -71 q-10 -45 -45 -74q-18 -12 -37 -21l-22 -5l-23 -2q-45 0 -76 33q-27 34 -15 88q20 95 149 179t311 84q165 0 238.5 -72.5t51.5 -176.5l-109 -512q-13 -63 -1 -101q15 -32 52 -32q40 0 88 32zM834 498q-259 -33 -384 -114q-36 -25 -74 -72q-14 -22 -25 -46q-6 -17 -9 -25 t-7 -27q-16 -77 15.5 -120.5t97.5 -43.5q118 0 223.5 89.5t134.5 224.5zM944 1301l-335 -187h-84l344 285l29 25q25 18 52 30q8 5 43 11q70 0 56 -66q-4 -18 -24 -41l-20 -19l-19 -14z" />
<glyph unicode="&#xe2;" horiz-adv-x="1139" d="M1078 103l25 -56q-88 -75 -178 -75q-66 0 -103 35t-58 132q-113 -96 -195.5 -131.5t-179.5 -35.5q-145 0 -206.5 62t-40.5 159q30 141 220.5 237.5t485.5 133.5l31 142q16 75 -33.5 129.5t-143.5 54.5q-87 0 -158 -36q-51 -27 -56 -53q-2 -9 14 -47q20 -40 14 -71 q-10 -45 -45 -74q-18 -12 -37 -21l-22 -5l-23 -2q-45 0 -76 33q-27 34 -15 88q20 95 149 179t311 84q165 0 238.5 -72.5t51.5 -176.5l-109 -512q-13 -63 -1 -101q15 -32 52 -32q40 0 88 32zM834 498q-259 -33 -384 -114q-36 -25 -74 -72q-14 -22 -25 -46q-6 -17 -9 -25 t-7 -27q-16 -77 15.5 -120.5t97.5 -43.5q118 0 223.5 89.5t134.5 224.5zM845 1292l-294 -211h-72l329 340h129l183 -340h-55z" />
<glyph unicode="&#xe3;" horiz-adv-x="1139" d="M1078 103l25 -56q-88 -75 -178 -75q-66 0 -103 35t-58 132q-113 -96 -195.5 -131.5t-179.5 -35.5q-145 0 -206.5 62t-40.5 159q30 141 220.5 237.5t485.5 133.5l31 142q16 75 -33.5 129.5t-143.5 54.5q-87 0 -158 -36q-51 -27 -56 -53q-2 -9 14 -47q20 -40 14 -71 q-10 -45 -45 -74q-18 -12 -37 -21l-22 -5l-23 -2q-45 0 -76 33q-27 34 -15 88q20 95 149 179t311 84q165 0 238.5 -72.5t51.5 -176.5l-109 -512q-13 -63 -1 -101q15 -32 52 -32q40 0 88 32zM834 498q-259 -33 -384 -114q-36 -25 -74 -72q-14 -22 -25 -46q-6 -17 -9 -25 t-7 -27q-16 -77 15.5 -120.5t97.5 -43.5q118 0 223.5 89.5t134.5 224.5zM1165 1370v-6q-3 -12 -16 -33l-29 -43q-37 -48 -52 -63q-27 -27 -61 -45l-27 -11l-30 -10q-27 -6 -50 -6q-49 0 -95 19q-29 9 -85 43l-24 13l-15 6l-25 7l-24 4q-48 0 -82 -28l-10 -8l-15 -17l-27 -39 h-61q38 97 129 164l35 21l21 8l16 6l52 8q48 0 81 -14l112 -58q23 -12 40 -18l35 -4l21 1q7 0 25 7q62 27 97 96h64z" />
<glyph unicode="&#xe8;" d="M1048 461h-669q-17 -80 -16 -145t22 -119q48 -123 201 -123q90 0 157 32q34 18 70.5 45.5t69.5 63.5l33 43l29 35l61 -39q-93 -139 -212 -213q-56 -36 -120.5 -54t-143.5 -18q-97 0 -186 33q-39 18 -74 43q-25 22 -57 66q-45 69 -59 155l-2 37l2 55q4 48 16 103 q44 207 199 360q164 160 369 160q111 0 185 -55q39 -25 65 -62q28 -35 48 -90q15 -40 20 -108v-117l-1 -43zM400 545h344h24q43 0 65.5 12.5t33.5 63.5q12 60 10 101q1 47 -17 87q-37 90 -145 90q-117 0 -214 -123q-72 -96 -101 -231zM717 1427l13 2q21 0 52 -22 q18 -12 46 -47l221 -285h-94l-245 187q-50 36 -55 47q-14 21 -13 38l3 23q3 13 14 29q16 18 58 28z" />
<glyph unicode="&#xe9;" d="M1048 461h-669q-17 -80 -16 -145t22 -119q48 -123 201 -123q90 0 157 32q34 18 70.5 45.5t69.5 63.5l33 43l29 35l61 -39q-93 -139 -212 -213q-56 -36 -120.5 -54t-143.5 -18q-97 0 -186 33q-39 18 -74 43q-25 22 -57 66q-45 69 -59 155l-2 37l2 55q4 48 16 103 q44 207 199 360q164 160 369 160q111 0 185 -55q39 -25 65 -62q28 -35 48 -90q15 -40 20 -108v-117l-1 -43zM400 545h344h24q43 0 65.5 12.5t33.5 63.5q12 60 10 101q1 47 -17 87q-37 90 -145 90q-117 0 -214 -123q-72 -96 -101 -231zM1006 1268l-335 -187h-84l344 285 l30 25l26 16l26 14q8 5 43 11q69 0 55 -66q-5 -21 -23 -41l-16 -17l-26 -18z" />
<glyph unicode="&#xea;" d="M1045 462h-671q-25 -114 -19 -183t34 -119q65 -99 198 -99q195 0 363 223l59 -28q-207 -284 -483 -284q-184 0 -285.5 135.5t-56.5 348.5q48 223 204 366t342 143q135 0 219.5 -69t107.5 -202q7 -46 5 -104l-6 -60zM389 533h406q31 0 60 24q26 24 39 84q23 108 -29 186 t-145 78q-102 0 -197 -93q-40 -40 -78 -116t-56 -163zM789 1292l-295 -211h-71l328 340h129l184 -340h-72z" />
<glyph unicode="&#xec;" horiz-adv-x="645" d="M592 0h-539l15 72h56l63 6q31 0 47 10q13 21 21 45l17 60l8 36l100 471l6 29l7 41l3 20q2 8 -1.5 22.5t-27.5 21.5l-28 6l-123 4l19 86l387 20l-167 -786l-7 -31q-6 -29 0 -44q7 -13 47 -13l53 -2h30q23 0 29 -2zM423 1438l13 1q24 0 51 -22q12 -7 21 -16t25 -31 l222 -285h-94l-246 187q-46 36 -55 47q-13 21 -13 38l3 23q4 15 17 31.5t56 26.5z" />
<glyph unicode="&#xed;" horiz-adv-x="645" d="M592 0h-539l15 72h56l63 6q31 0 47 10q13 21 21 45l17 60l8 36l100 471l6 29l7 41l3 20q2 8 -1.5 22.5t-27.5 21.5l-28 6l-123 4l19 86l387 20l-167 -786l-7 -31q-6 -29 0 -44q7 -13 47 -13l53 -2h30q23 0 29 -2zM817 1268l-335 -187h-84l343 285l30 25q24 18 51 30 q8 5 43 11q70 0 56 -66q-3 -18 -23 -41l-20 -19l-19 -14z" />
<glyph unicode="&#xf2;" d="M714 965q186 0 287 -136t53 -360q-32 -153 -112.5 -261.5t-199.5 -172t-244 -63.5q-176 0 -279 138q-46 66 -61 158q-6 44 -5 93q2 25 5 49.5t10 57.5q46 216 202 356.5t344 140.5zM699 894q-107 0 -203.5 -103t-142.5 -319q-46 -218 3.5 -323.5t161.5 -105.5 q117 0 211.5 103t143.5 337q46 213 -4.5 312t-169.5 99zM660 1472l13 1q24 0 52 -21q20 -13 45 -47l222 -285h-94l-245 186l-30 23l-26 24q-10 16 -10 45l1 17q3 12 16 30t56 27z" />
<glyph unicode="&#xf3;" d="M714 965q186 0 287 -136t53 -360q-32 -153 -112.5 -261.5t-199.5 -172t-244 -63.5q-176 0 -279 138q-46 66 -61 158q-6 44 -5 93q2 25 5 49.5t10 57.5q46 216 202 356.5t344 140.5zM699 894q-107 0 -203.5 -103t-142.5 -319q-46 -218 3.5 -323.5t161.5 -105.5 q117 0 211.5 103t143.5 337q46 213 -4.5 312t-169.5 99zM948 1268l-335 -187h-84l344 285l29 25q25 18 52 30q8 5 43 11q70 0 56 -66q-4 -18 -24 -41l-20 -19l-19 -14z" />
<glyph unicode="&#xf4;" d="M714 965q186 0 287 -136t53 -360q-32 -153 -112.5 -261.5t-199.5 -172t-244 -63.5q-176 0 -279 138q-46 66 -61 158q-6 44 -5 93q2 25 5 49.5t10 57.5q46 216 202 356.5t344 140.5zM699 894q-107 0 -203.5 -103t-142.5 -319q-46 -218 3.5 -323.5t161.5 -105.5 q117 0 211.5 103t143.5 337q46 213 -4.5 312t-169.5 99zM788 1292l-295 -211h-71l329 340h129l183 -340h-72z" />
<glyph unicode="&#xf5;" d="M714 965q186 0 287 -136t53 -360q-32 -153 -112.5 -261.5t-199.5 -172t-244 -63.5q-176 0 -279 138q-46 66 -61 158q-6 44 -5 93q2 25 5 49.5t10 57.5q46 216 202 356.5t344 140.5zM699 894q-107 0 -203.5 -103t-142.5 -319q-46 -218 3.5 -323.5t161.5 -105.5 q117 0 211.5 103t143.5 337q46 213 -4.5 312t-169.5 99zM1134 1364l-1 -6q-2 -12 -16 -33l-28 -43l-31 -40l-21 -23q-27 -27 -61 -45l-34 -13l-23 -8q-28 -6 -51 -6q-45 0 -95 18q-23 6 -85 43l-25 13l-17 8l-21 6l-24 4q-50 0 -82 -29l-25 -24l-28 -39h-61q39 97 129 164 q14 10 32.5 18.5t41.5 16.5l50 8q42 0 81 -15l113 -57q23 -12 39 -18l36 -4l21 1q7 0 26 7q63 27 96 96h64z" />
<glyph unicode="&#xf7;" horiz-adv-x="1706" />
<glyph unicode="&#xf9;" horiz-adv-x="582" />
<glyph unicode="&#xfa;" horiz-adv-x="580" />
<glyph unicode="&#xfd;" horiz-adv-x="629" />
<glyph unicode="&#x102;" horiz-adv-x="1479" d="M251 252l762 1257h80l261 -1327q11 -59 52 -80q33 -10 111 -10l-20 -92h-629l20 92h84q38 0 90 12q12 0 32 15q11 9 21 31l-1 34l-58 297h-553l-36 -61q-13 -25 -26 -41l-16 -33q-4 -8 -6.5 -13.5t-11.5 -17.5q-28 -48 -29 -53q-12 -23 -19 -53q-15 -72 53 -100 q43 -17 132 -17l-20 -92h-540l20 92q78 0 139 39q56 40 108 121zM565 586h475l-113 602zM1361 1894h56q-13 -60 -43 -107t-76 -85q-83 -68 -214 -68q-121 0 -171 68q-45 68 -18 192h57q-7 -87 33.5 -118t135.5 -31q46 0 78.5 7.5t67.5 27.5q59 35 94 114z" />
<glyph unicode="&#x103;" horiz-adv-x="1139" d="M1078 103l25 -56q-88 -75 -178 -75q-66 0 -103 35t-58 132q-113 -96 -195.5 -131.5t-179.5 -35.5q-145 0 -206.5 62t-40.5 159q30 141 220.5 237.5t485.5 133.5l31 142q16 75 -33.5 129.5t-143.5 54.5q-87 0 -158 -36q-51 -27 -56 -53q-2 -9 14 -47q20 -40 14 -71 q-10 -45 -45 -74q-18 -12 -37 -21l-22 -5l-23 -2q-45 0 -76 33q-27 34 -15 88q20 95 149 179t311 84q165 0 238.5 -72.5t51.5 -176.5l-109 -512q-13 -63 -1 -101q15 -32 52 -32q40 0 88 32zM834 498q-259 -33 -384 -114q-36 -25 -74 -72q-14 -22 -25 -46q-6 -17 -9 -25 t-7 -27q-16 -77 15.5 -120.5t97.5 -43.5q118 0 223.5 89.5t134.5 224.5zM1038 1366h55q-40 -132 -116 -207q-42 -42 -96 -64q-26 -9 -51.5 -14t-40.5 -5.5t-24 -0.5q-117 0 -169 81.5t-25 209.5h57q-8 -180 173 -180q76 0 136.5 47.5t100.5 132.5z" />
<glyph unicode="&#x10c;" horiz-adv-x="1274" />
<glyph unicode="&#x10d;" horiz-adv-x="922" />
<glyph unicode="&#x110;" horiz-adv-x="1593" d="M59 0l20 92h66l113 4q10 0 34 15q11 13 25 41q12 26 19 59l5 23l4 28l92 434h-199l25 117h199l81 383l9 35l7 28l3 16q5 24 5 40q2 24 -9 47q-12 9 -26 14l-34 4l-140 6l19 93h676q133 0 228 -16t164 -52q162 -81 213 -297q10 -45 16 -94l4 -94q-2 -93 -26 -205 q-45 -211 -174 -389q-144 -196 -343 -271q-112 -39 -193 -51l-94 -7l-125 -3h-664zM921 813l-25 -117h-236l-111 -520q-7 -36 -4 -51q3 -10 33 -25l44 -6h32q20 0 30 -2h61h23l47 1l45 1h16q9 0 25 2q16 0 39 8q85 14 137 52q28 16 57 44q12 12 31 31.5t33 34.5 q71 88 129 234l34 112l34 140l20 107q3 18 5 34t7 80.5t0.5 117.5t-18.5 93q-31 95 -136 151q-48 27 -120.5 39t-157.5 12l-42 -1l-47 -1q-45 0 -66 -8q-19 -6 -25 -14l-7 -9l-11 -20l-10 -41l-8 -35l-94 -444h236z" />
<glyph unicode="&#x111;" horiz-adv-x="1176" d="M913 1479l369 17l-272 -1282q-16 -75 5.5 -107t78.5 -32h65l-16 -75h-320l17 191q-79 -102 -165.5 -153.5t-183.5 -51.5q-158 0 -242.5 135.5t-38.5 352.5q49 231 225 380q136 111 283 111q85 0 149 -44t99 -137l112 529q9 42 -19.5 66.5t-94.5 24.5h-67zM728 882 q-108 0 -190.5 -89t-127.5 -300q-49 -229 -3.5 -322.5t147.5 -93.5q109 0 208.5 104.5t142.5 305.5q40 189 -20 299q-51 96 -157 96zM816 1199h605l-18 -88h-605z" />
<glyph unicode="&#x128;" horiz-adv-x="834" d="M752 0h-674l20 92h41l80 2q17 0 30.5 2t24.5 8q41 14 49 29l15 31l11 43l227 1069l4 17q5 24 3 32q4 19 -10 37l-42 18q-21 6 -58 6l-38 -2h-37l-23 2l19 93h676l-19 -93h-80l-88 -6q-39 -9 -68 -47l-12 -37l-6 -30l-226 -1065q-4 -17 -6 -32q-3 -15 -2 -22l4 -16l9 -12 q12 -8 45 -21l61 -6l57 2l33 -2zM1100 1851h59l-5 -18l-35 -64l-51 -63q-17 -16 -31.5 -27t-30.5 -18l-57 -21l-51 -6q-45 0 -94 19q-26 6 -86 43l-42 20q-7 3 -21 5.5t-24 4.5q-49 0 -82 -28l-25 -25l-27 -39h-62q39 97 129 164q33 23 74 35l58 8h33l31 -10q11 -1 22 -5.5 t22 -10.5l49 -27l59 -31l54 -8l38 6q59 25 96 96z" />
<glyph unicode="&#x129;" horiz-adv-x="645" d="M592 0h-539l15 72h56l63 6q31 0 47 10q13 21 21 45l17 60l8 36l100 471l6 29l7 41l3 20q2 8 -1.5 22.5t-27.5 21.5l-28 6l-123 4l19 86l387 20l-167 -786l-7 -31q-6 -29 0 -44q7 -13 47 -13l53 -2h30q23 0 29 -2zM876 1364h59l-6 -18l-14 -28l-10 -18l-11 -18 q-37 -48 -52 -63q-27 -30 -60 -45q-21 -11 -55 -20q-15 -3 -27.5 -5t-25.5 -2q-44 0 -94 18q-23 6 -86 43q-16 13 -43 21l-19 6l-26 4q-50 0 -82 -29q-14 -9 -23 -24l-29 -39h-61q38 97 129 164q14 10 32 18.5t41 16.5l59 8h33l30 -11l20 -6l24 -10l49 -27l60 -30l25 -5 l28 -3q14 0 39 6q60 24 96 96z" />
<glyph unicode="&#x168;" horiz-adv-x="1669" d="M330 1386l20 93h684l-20 -93l-152 -10q-49 0 -72 -14q-10 -6 -20 -25l-175 -821q-32 -151 -22 -219.5t58 -122.5q49 -47 117 -76q75 -22 167 -22q110 0 206.5 45t174.5 137l30 41l38 76q14 33 22.5 57t13.5 47l139 654q31 145 -3.5 199t-181.5 54l20 93h577l-20 -93 q-154 0 -224 -92q-41 -56 -78 -233l-96 -449q-8 -38 -23 -98q-16 -60 -21 -82q-21 -72 -49 -121q-46 -92 -131 -173.5t-226 -131.5q-114 -37 -249 -37h-52h-13q-21 0 -39 4q-15 0 -36.5 3t-58.5 12q-39 7 -66 15.5t-55 25.5q-60 28 -100 77q-26 34 -44 68t-28 66 q-14 69 5 159l189 887l5 25l1 35q2 7 -20 22q-17 11 -50 14l-77 4h-65zM1559 1851h60l-6 -18l-35 -64l-52 -63q-30 -30 -61 -45l-57 -21l-50 -6q-45 0 -95 19q-27 6 -85 43l-43 20q-5 3 -19.5 5.5t-25.5 4.5q-49 0 -82 -28l-25 -25l-27 -39h-61q38 97 128 164q33 23 74 35 l59 8h33l30 -10q10 -2 21.5 -5.5t22.5 -10.5l49 -27l59 -31l54 -8l38 6q61 26 96 96z" />
<glyph unicode="&#x169;" horiz-adv-x="1251" d="M222 844l18 86l361 20l-125 -585l-22 -115q-16 -75 24 -119l21 -16l30 -13q36 -10 72 -10q153 0 252 137q43 65 61 112q16 47 38 151l61 288q3 26 -2.5 39t-28.5 17l-56 4h-16h-28l-17 4h-37l18 86l392 20l-154 -723l-7 -31q-4 -22 -4 -33.5t11 -31.5q10 -12 30 -18 l83 -4h43l-19 -89l-373 -20l34 160q-34 -45 -74 -78q-18 -15 -42 -31q-18 -13 -49 -31q-44 -22 -95.5 -36.5t-96.5 -14.5q-111 0 -185 52t-77 139q-4 7 0 69l19 105l93 440q7 32 -2.5 44t-30.5 19q-11 3 -23.5 5t-26.5 2h-29h-41zM1137 1350h59l-6 -19l-34 -63l-30 -38 q-13 -18 -22 -26l-16 -15l-16 -12l-29 -18q-21 -10 -56 -19l-27 -5l-26 -2q-42 0 -94 18q-27 8 -85 43l-24 13l-18 7l-20 6l-25 5q-51 0 -82 -29q-14 -9 -26 -25l-27 -38h-62q42 101 130 163l36 21l20 8l17 6l59 8h32l31 -10q8 0 18 -4l26 -12l49 -27q13 -6 27 -12.5 t32 -18.5l20 -4l34 -4q16 0 38 6q63 27 97 97z" />
<glyph unicode="&#x1a0;" horiz-adv-x="1593" d="M1396 739q28 131 34.5 233t-9.5 183q-49 262 -325 262q-247 0 -407 -227q-56 -84 -102 -196.5t-76 -254.5q-55 -257 -25 -415q49 -263 326 -263q245 0 406 228q56 83 101.5 195.5t76.5 254.5zM1570 1552q-11 11 -21 35q-2 18 5 51q6 31 42 60q34 26 68 26q59 0 87 -45 q10 -19 13 -48t-4 -64q-10 -45 -58 -92l-46 -38l-129 -98q99 -107 133.5 -265t-2.5 -335q-58 -270 -278 -499q-260 -271 -588 -271q-306 0 -462 236q-147 225 -81 534q56 267 278 500q260 270 588 270q55 0 107 -8.5t99 -25.5q95 -31 168 -97l87 64l56 51q28 27 31 42 q1 4 -1 7l-34 -10q-17 0 -24 4l-16 3z" />
<glyph unicode="&#x1a1;" d="M699 894q-107 0 -203.5 -103t-142.5 -319q-46 -218 3.5 -323.5t161.5 -105.5q117 0 211.5 103t143.5 337q46 213 -4.5 312t-169.5 99zM967 870l47 34q46 36 77 64q19 17 21 28v5l-7 2l-11 -2h-33l-18 2l-22 8q-37 31 -27 78q3 12 13 28.5t29 30.5q34 27 68 27 q59 0 83 -45q10 -21 13.5 -48.5t-3.5 -58.5q-13 -62 -105 -135l-87 -63q97 -134 49 -356q-32 -153 -112.5 -261.5t-199.5 -172t-244 -63.5q-176 0 -279 138q-46 66 -61 158q-6 44 -5 93q2 25 5 49.5t10 57.5q46 216 202 356.5t344 140.5q160 0 253 -95z" />
<glyph unicode="&#x1af;" horiz-adv-x="1669" d="M1931 1386q-157 0 -224 -92q-41 -56 -78 -233l-96 -449q-24 -115 -45 -183.5t-48 -117.5q-46 -92 -130 -172q-88 -85 -228 -133q-115 -37 -248 -37h-36h-12q-42 0 -57 4l-35 3l-57 12q-36 6 -63 15t-57 24t-54.5 33.5t-48.5 45.5q-26 32 -45 68q-7 14 -15 33 q-5 13 -12 33q-14 70 5 159l188 887l6 25q3 17 1 35q1 9 -20 22q-7 6 -21 10l-29 4l-77 4h-65l19 93h684l-19 -93h-37t-53 -4l-62 -6h-20t-25 -3.5t-28.5 -11t-19.5 -24.5l-174 -821q-32 -149 -22.5 -218t58 -121t117.5 -79q75 -22 167 -22q57 0 105 10.5t102 36.5 q98 45 174 135q28 35 63 104l25 62l16 55l139 654q31 144 -3 198.5t-182 54.5l19 93h577q34 12 44 59q3 12 -2 18l-8 3l-11 -3h-32q-17 0 -41 11q-36 31 -26 78q6 30 40 59q16 11 34 19t36 8q60 0 82 -45q11 -21 14 -48.5t-3 -58.5q-4 -16 -8 -31.5t-12 -35t-26 -42.5 q-28 -34 -100 -84z" />
<glyph unicode="&#x1b0;" horiz-adv-x="1251" d="M1188 770l-124 -585q-10 -47 13 -82q25 -28 78 -28h59l-15 -67l-316 -8l19 185q-100 -96 -199 -147.5t-184 -51.5q-122 0 -193 84.5t-29 285.5l87 407q11 54 -26 82l-42 16q-29 6 -76 6l15 70l335 17l-132 -621q-23 -109 21 -173.5t135 -64.5q107 0 207 90t129 227 l75 351q10 48 -19 74q-14 12 -46 22l-33 6l-47 2l15 70l332 17l-18 -86l64 45q21 15 42 37l31 33q15 18 18 30v7l-8 2l-11 -2h-32l-19 2l-22 8q-19 15 -26 34q-5 22 -1 44q7 30 41 59q36 27 70 27q60 0 82 -45q10 -23 13.5 -49t-3.5 -58q-17 -83 -132 -178l-68 -51z" />
<glyph unicode="&#x1ea0;" horiz-adv-x="1479" d="M251 252l762 1257h80l261 -1327q11 -60 52 -80q8 -3 13 -4t22 -4l76 -2l-20 -92h-629l20 92h84q37 0 90 12q7 0 12.5 2.5t17.5 10.5q12 10 23 33l-1 34l-58 297h-553l-62 -102l-34 -64l-29 -53q-12 -20 -19 -53q-14 -70 53 -100q42 -17 132 -17l-20 -92h-540l20 92 q81 0 136.5 38t110.5 122zM565 586h475l-113 602zM530 -281q10 48 57 91q43 36 99 36q45 0 78 -37.5t22 -89.5q-10 -47 -57 -86q-23 -20 -47 -30.5t-48 -10.5q-50 0 -82 39t-22 88z" />
<glyph unicode="&#x1ea1;" horiz-adv-x="1139" d="M1078 103l25 -56q-88 -75 -178 -75q-66 0 -103 35t-58 132q-113 -96 -195.5 -131.5t-179.5 -35.5q-145 0 -206.5 62t-40.5 159q30 141 220.5 237.5t485.5 133.5l31 142q16 75 -33.5 129.5t-143.5 54.5q-87 0 -158 -36q-51 -27 -56 -53q-2 -9 14 -47q20 -40 14 -71 q-10 -45 -45 -74q-18 -12 -37 -21l-22 -5l-23 -2q-45 0 -76 33q-27 34 -15 88q20 95 149 179t311 84q165 0 238.5 -72.5t51.5 -176.5l-109 -512q-13 -63 -1 -101q15 -32 52 -32q40 0 88 32zM834 498q-259 -33 -384 -114q-36 -25 -74 -72q-14 -22 -25 -46q-6 -17 -9 -25 t-7 -27q-16 -77 15.5 -120.5t97.5 -43.5q118 0 223.5 89.5t134.5 224.5zM599 -289q-9 -43 -55 -84q-22 -17 -47 -27t-47 -10q-43 0 -73 39q-13 19 -18.5 41t-0.5 45q10 45 54 81t92 36q46 0 75.5 -36.5t19.5 -84.5z" />
<glyph unicode="&#x1ea2;" horiz-adv-x="1479" d="M251 252l762 1257h80l261 -1327q11 -60 52 -80q8 -3 13 -4t22 -4l76 -2l-20 -92h-629l20 92h84q37 0 90 12q7 0 12.5 2.5t17.5 10.5q12 10 23 33l-1 34l-58 297h-553l-62 -102l-34 -64l-29 -53q-12 -20 -19 -53q-14 -70 53 -100q42 -17 132 -17l-20 -92h-540l20 92 q81 0 136.5 38t110.5 122zM565 586h475l-113 602zM1123 1638l-51 -2q4 18 8 35t8 23l67 75l48 52q17 18 39 57l23 72q15 70 -4 104q-17 35 -85 35q-36 0 -78 -18q-21 -12 -29 -33q-3 -15 0 -19l6 -10l28 -22q15 -17 11 -33q-13 -62 -82 -62q-29 0 -51 25q-9 19 -7 57 q12 57 78 109q46 35 122 53l29 4l31 2q78 0 124.5 -57t28.5 -141q-12 -58 -65 -115q-7 -8 -18.5 -18.5t-25.5 -20.5l-67 -51l-66 -43z" />
<glyph unicode="&#x1ea3;" horiz-adv-x="1139" d="M1078 103l25 -56q-88 -75 -178 -75q-66 0 -103 35t-58 132q-113 -96 -195.5 -131.5t-179.5 -35.5q-145 0 -206.5 62t-40.5 159q30 141 220.5 237.5t485.5 133.5l31 142q16 75 -33.5 129.5t-143.5 54.5q-87 0 -158 -36q-51 -27 -56 -53q-2 -9 14 -47q20 -40 14 -71 q-10 -45 -45 -74q-18 -12 -37 -21l-22 -5l-23 -2q-45 0 -76 33q-27 34 -15 88q20 95 149 179t311 84q165 0 238.5 -72.5t51.5 -176.5l-109 -512q-13 -63 -1 -101q15 -32 52 -32q40 0 88 32zM834 498q-259 -33 -384 -114q-36 -25 -74 -72q-14 -22 -25 -46q-6 -17 -9 -25 t-7 -27q-16 -77 15.5 -120.5t97.5 -43.5q118 0 223.5 89.5t134.5 224.5zM815 1163h-45l7 35l4 20q3 10 9 18l55 61l48 51q55 58 70 127q15 70 -8 105.5t-89 35.5q-33 0 -78 -18q-26 -14 -30 -32q-2 -10 1 -20l6 -10q32 -25 25 -59q-6 -24 -29 -43t-46 -19q-27 0 -46 25 q-13 24 -5 61q12 60 78 109l27 19l23 12l36 10l33 8l50 4q44 0 77.5 -12.5t58.5 -40.5q48 -54 30 -139q-12 -58 -65 -115q-31 -32 -111 -90l-60 -37q-7 -6 -26 -66z" />
<glyph unicode="&#x1ea4;" horiz-adv-x="1479" d="M251 252l762 1257h80l261 -1327q11 -60 52 -80q8 -3 13 -4t22 -4l76 -2l-20 -92h-629l20 92h84q37 0 90 12q7 0 12.5 2.5t17.5 10.5q12 10 23 33l-1 34l-58 297h-553l-62 -102l-34 -64l-29 -53q-12 -20 -19 -53q-14 -70 53 -100q42 -17 132 -17l-20 -92h-540l20 92 q81 0 136.5 38t110.5 122zM565 586h475l-113 602zM1128 1821l-294 -211h-72l328 340h129l184 -340h-72zM1774 2054l-328 -186h-91l343 284l31 25l42 27l41 14l43 8q25 0 31 -10l11 -18l-1 -23q-5 -26 -43 -68l-37 -28z" />
<glyph unicode="&#x1ea5;" horiz-adv-x="1139" d="M1078 103l25 -56q-88 -75 -178 -75q-66 0 -103 35t-58 132q-113 -96 -195.5 -131.5t-179.5 -35.5q-145 0 -206.5 62t-40.5 159q30 141 220.5 237.5t485.5 133.5l31 142q16 75 -33.5 129.5t-143.5 54.5q-87 0 -158 -36q-51 -27 -56 -53q-2 -9 14 -47q20 -40 14 -71 q-10 -45 -45 -74q-18 -12 -37 -21l-22 -5l-23 -2q-45 0 -76 33q-27 34 -15 88q20 95 149 179t311 84q165 0 238.5 -72.5t51.5 -176.5l-109 -512q-13 -63 -1 -101q15 -32 52 -32q40 0 88 32zM834 498q-259 -33 -384 -114q-36 -25 -74 -72q-14 -22 -25 -46q-6 -17 -9 -25 t-7 -27q-16 -77 15.5 -120.5t97.5 -43.5q118 0 223.5 89.5t134.5 224.5zM769 1386h82l166 -345h-64l-170 213l-261 -213h-64zM1474 1466l-335 -187h-84l344 285l29 25q25 18 52 30q8 5 43 11q70 0 56 -66q-4 -18 -24 -41l-20 -19l-19 -14z" />
<glyph unicode="&#x1ea6;" horiz-adv-x="1479" d="M251 252l762 1257h80l261 -1327q11 -60 52 -80q8 -3 13 -4t22 -4l76 -2l-20 -92h-629l20 92h84q37 0 90 12q7 0 12.5 2.5t17.5 10.5q12 10 23 33l-1 34l-58 297h-553l-62 -102l-34 -64l-29 -53q-12 -20 -19 -53q-14 -70 53 -100q42 -17 132 -17l-20 -92h-540l20 92 q81 0 136.5 38t110.5 122zM565 586h475l-113 602zM1128 1821l-294 -211h-72l328 340h129l184 -340h-72zM1344 2030l-31 22l-26 33q-7 16 -6 53q7 30 31 55q6 6 30 9l36 -7l32 -14q9 -3 15.5 -8t10.5 -14l26 -31l222 -285h-84z" />
<glyph unicode="&#x1ea7;" horiz-adv-x="1139" d="M1078 103l25 -56q-88 -75 -178 -75q-66 0 -103 35t-58 132q-113 -96 -195.5 -131.5t-179.5 -35.5q-145 0 -206.5 62t-40.5 159q30 141 220.5 237.5t485.5 133.5l31 142q16 75 -33.5 129.5t-143.5 54.5q-87 0 -158 -36q-51 -27 -56 -53q-2 -9 14 -47q20 -40 14 -71 q-10 -45 -45 -74q-18 -12 -37 -21l-22 -5l-23 -2q-45 0 -76 33q-27 34 -15 88q20 95 149 179t311 84q165 0 238.5 -72.5t51.5 -176.5l-109 -512q-13 -63 -1 -101q15 -32 52 -32q40 0 88 32zM834 498q-259 -33 -384 -114q-36 -25 -74 -72q-14 -22 -25 -46q-6 -17 -9 -25 t-7 -27q-16 -77 15.5 -120.5t97.5 -43.5q118 0 223.5 89.5t134.5 224.5zM769 1386h82l166 -345h-64l-170 213l-261 -213h-64zM1061 1674l223 -285h-84l-255 187q-14 8 -25.5 17.5t-18.5 19.5q-25 28 -18 57q3 16 9 24q6 14 16 23l23 16q15 7 42 7q26 0 51 -23l14 -16z" />
<glyph unicode="&#x1ea8;" horiz-adv-x="1479" d="M251 252l762 1257h80l261 -1327q11 -60 52 -80q8 -3 13 -4t22 -4l76 -2l-20 -92h-629l20 92h84q37 0 90 12q7 0 12.5 2.5t17.5 10.5q12 10 23 33l-1 34l-58 297h-553l-62 -102l-34 -64l-29 -53q-12 -20 -19 -53q-14 -70 53 -100q42 -17 132 -17l-20 -92h-540l20 92 q81 0 136.5 38t110.5 122zM565 586h475l-113 602zM1128 1821l-294 -211h-72l328 340h129l184 -340h-72zM1444 1847l-53 -2q3 14 7 32t10 26l67 75l48 52q19 20 39 57l23 72q14 68 -4.5 103.5t-84.5 35.5q-39 0 -78 -19q-22 -11 -29 -32q-4 -15 0 -19l6 -10l28 -23 q15 -15 12 -32q-13 -62 -83 -62q-31 0 -50 25q-9 18 -9 57q12 56 79 109q44 34 121 53l30 4l32 2q78 0 124 -56.5t27 -142.5q-6 -30 -21 -57t-44 -57q-16 -20 -42 -39q-10 -8 -19 -15q-20 -15 -50 -36l-64 -43z" />
<glyph unicode="&#x1ea9;" horiz-adv-x="1139" d="M1078 103l25 -56q-88 -75 -178 -75q-66 0 -103 35t-58 132q-113 -96 -195.5 -131.5t-179.5 -35.5q-145 0 -206.5 62t-40.5 159q30 141 220.5 237.5t485.5 133.5l31 142q16 75 -33.5 129.5t-143.5 54.5q-87 0 -158 -36q-51 -27 -56 -53q-2 -9 14 -47q20 -40 14 -71 q-10 -45 -45 -74q-18 -12 -37 -21l-22 -5l-23 -2q-45 0 -76 33q-27 34 -15 88q20 95 149 179t311 84q165 0 238.5 -72.5t51.5 -176.5l-109 -512q-13 -63 -1 -101q15 -32 52 -32q40 0 88 32zM834 498q-259 -33 -384 -114q-36 -25 -74 -72q-14 -22 -25 -46q-6 -17 -9 -25 t-7 -27q-16 -77 15.5 -120.5t97.5 -43.5q118 0 223.5 89.5t134.5 224.5zM769 1386h82l166 -345h-64l-170 213l-261 -213h-64zM1149 1339h-45l8 35l4 20q2 10 9 18l55 61l48 51q55 58 70 127q14 70 -9 105.5t-89 35.5q-33 0 -77 -18q-26 -14 -30 -32q-2 -10 1 -20l5 -10 q32 -25 25 -59q-5 -24 -28 -43t-46 -19q-27 0 -47 25q-13 24 -5 61q13 60 78 109l27 19l24 12l35 10l34 8l49 4q44 0 77.5 -12.5t58.5 -40.5q49 -54 31 -139q-13 -58 -66 -115q-31 -32 -111 -90l-60 -37q-7 -6 -26 -66z" />
<glyph unicode="&#x1eaa;" horiz-adv-x="1479" d="M251 252l762 1257h80l261 -1327q11 -60 52 -80q8 -3 13 -4t22 -4l76 -2l-20 -92h-629l20 92h84q37 0 90 12q7 0 12.5 2.5t17.5 10.5q12 10 23 33l-1 34l-58 297h-553l-62 -102l-34 -64l-29 -53q-12 -20 -19 -53q-14 -70 53 -100q42 -17 132 -17l-20 -92h-540l20 92 q81 0 136.5 38t110.5 122zM565 586h475l-113 602zM1128 1821l-294 -211h-72l328 340h129l184 -340h-72zM1630 2253h59l-6 -19l-34 -63l-52 -64q-28 -27 -61 -45l-58 -20l-50 -6q-42 0 -94 18q-11 2 -34.5 14.5t-50.5 28.5l-43 21q-7 3 -22 6t-23 4q-51 0 -82 -29l-26 -24 l-26 -39h-62q39 97 130 164q16 11 34 19.5t38 14.5l60 9h32l30 -11q10 -1 20 -4t24 -12l50 -27l59 -30l53 -9l38 7q61 24 97 96z" />
<glyph unicode="&#x1eab;" horiz-adv-x="1139" d="M1078 103l25 -56q-88 -75 -178 -75q-66 0 -103 35t-58 132q-113 -96 -195.5 -131.5t-179.5 -35.5q-145 0 -206.5 62t-40.5 159q30 141 220.5 237.5t485.5 133.5l31 142q16 75 -33.5 129.5t-143.5 54.5q-87 0 -158 -36q-51 -27 -56 -53q-2 -9 14 -47q20 -40 14 -71 q-10 -45 -45 -74q-18 -12 -37 -21l-22 -5l-23 -2q-45 0 -76 33q-27 34 -15 88q20 95 149 179t311 84q165 0 238.5 -72.5t51.5 -176.5l-109 -512q-13 -63 -1 -101q15 -32 52 -32q40 0 88 32zM834 498q-259 -33 -384 -114q-36 -25 -74 -72q-14 -22 -25 -46q-6 -17 -9 -25 t-7 -27q-16 -77 15.5 -120.5t97.5 -43.5q118 0 223.5 89.5t134.5 224.5zM769 1386h82l166 -345h-64l-170 213l-261 -213h-64zM1251 1722l-1 -6q-2 -12 -16 -33l-28 -43q-37 -48 -52 -63q-27 -27 -61 -45l-27 -11l-30 -10q-28 -6 -51 -6q-49 0 -94 19q-30 9 -85 43l-25 13 l-14 6l-25 7l-24 4q-48 0 -82 -28l-11 -8l-14 -17l-28 -39h-61q39 97 129 164l36 21l21 8l16 6l51 8q48 0 82 -14l112 -58q23 -12 39 -18l36 -4l21 1q7 0 25 7q62 27 97 96h64z" />
<glyph unicode="&#x1eac;" horiz-adv-x="1479" d="M251 252l762 1257h80l261 -1327q11 -60 52 -80q8 -3 13 -4t22 -4l76 -2l-20 -92h-629l20 92h84q37 0 90 12q7 0 12.5 2.5t17.5 10.5q12 10 23 33l-1 34l-58 297h-553l-62 -102l-34 -64l-29 -53q-12 -20 -19 -53q-14 -70 53 -100q42 -17 132 -17l-20 -92h-540l20 92 q81 0 136.5 38t110.5 122zM565 586h475l-113 602zM1128 1821l-294 -211h-72l328 340h129l184 -340h-72zM530 -281q10 48 57 91q43 36 99 36q45 0 78 -37.5t22 -89.5q-10 -47 -57 -86q-23 -20 -47 -30.5t-48 -10.5q-50 0 -82 39t-22 88z" />
<glyph unicode="&#x1ead;" horiz-adv-x="1139" d="M1078 103l25 -56q-88 -75 -178 -75q-66 0 -103 35t-58 132q-113 -96 -195.5 -131.5t-179.5 -35.5q-145 0 -206.5 62t-40.5 159q30 141 220.5 237.5t485.5 133.5l31 142q16 75 -33.5 129.5t-143.5 54.5q-87 0 -158 -36q-51 -27 -56 -53q-2 -9 14 -47q20 -40 14 -71 q-10 -45 -45 -74q-18 -12 -37 -21l-22 -5l-23 -2q-45 0 -76 33q-27 34 -15 88q20 95 149 179t311 84q165 0 238.5 -72.5t51.5 -176.5l-109 -512q-13 -63 -1 -101q15 -32 52 -32q40 0 88 32zM834 498q-259 -33 -384 -114q-36 -25 -74 -72q-14 -22 -25 -46q-6 -17 -9 -25 t-7 -27q-16 -77 15.5 -120.5t97.5 -43.5q118 0 223.5 89.5t134.5 224.5zM769 1386h82l166 -345h-64l-170 213l-261 -213h-64zM621 -289q-9 -43 -55 -84q-22 -17 -47 -27t-47 -10q-43 0 -73 39q-13 19 -18.5 41t-0.5 45q10 45 54 81t92 36q46 0 75.5 -36.5t19.5 -84.5z" />
<glyph unicode="&#x1eae;" horiz-adv-x="1479" d="M251 252l762 1257h80l261 -1327q11 -60 52 -80q8 -3 13 -4t22 -4l76 -2l-20 -92h-629l20 92h84q37 0 90 12q7 0 12.5 2.5t17.5 10.5q12 10 23 33l-1 34l-58 297h-553l-62 -102l-34 -64l-29 -53q-12 -20 -19 -53q-14 -70 53 -100q42 -17 132 -17l-20 -92h-540l20 92 q81 0 136.5 38t110.5 122zM565 586h475l-113 602zM1357 1925h56q-21 -66 -49.5 -117.5t-66.5 -89.5q-87 -84 -213 -84q-115 0 -170 82q-50 85 -24 209h58q-8 -180 173 -180q72 0 137 49q61 49 99 131zM1534 2140l-335 -186h-84l344 284l30 25l52 31q6 4 43 10q69 0 55 -66 q-4 -18 -23 -40q-13 -17 -40 -33z" />
<glyph unicode="&#x1eaf;" horiz-adv-x="1139" d="M1078 103l25 -56q-88 -75 -178 -75q-66 0 -103 35t-58 132q-113 -96 -195.5 -131.5t-179.5 -35.5q-145 0 -206.5 62t-40.5 159q30 141 220.5 237.5t485.5 133.5l31 142q16 75 -33.5 129.5t-143.5 54.5q-87 0 -158 -36q-51 -27 -56 -53q-2 -9 14 -47q20 -40 14 -71 q-10 -45 -45 -74q-18 -12 -37 -21l-22 -5l-23 -2q-45 0 -76 33q-27 34 -15 88q20 95 149 179t311 84q165 0 238.5 -72.5t51.5 -176.5l-109 -512q-13 -63 -1 -101q15 -32 52 -32q40 0 88 32zM834 498q-259 -33 -384 -114q-36 -25 -74 -72q-14 -22 -25 -46q-6 -17 -9 -25 t-7 -27q-16 -77 15.5 -120.5t97.5 -43.5q118 0 223.5 89.5t134.5 224.5zM1038 1366h55q-40 -132 -116 -207q-42 -42 -96 -64q-26 -9 -51.5 -14t-40.5 -5.5t-24 -0.5q-117 0 -169 81.5t-25 209.5h57q-8 -180 173 -180q76 0 136.5 47.5t100.5 132.5zM1151 1653l-335 -187h-84 l344 285l29 25q25 18 51 30q9 5 44 11q70 0 56 -66q-4 -18 -24 -41l-20 -19l-19 -14z" />
<glyph unicode="&#x1eb0;" horiz-adv-x="1479" d="M251 252l762 1257h80l261 -1327q11 -60 52 -80q8 -3 13 -4t22 -4l76 -2l-20 -92h-629l20 92h84q37 0 90 12q7 0 12.5 2.5t17.5 10.5q12 10 23 33l-1 34l-58 297h-553l-62 -102l-34 -64l-29 -53q-12 -20 -19 -53q-14 -70 53 -100q42 -17 132 -17l-20 -92h-540l20 92 q81 0 136.5 38t110.5 122zM565 586h475l-113 602zM1357 1925h56q-21 -66 -49.5 -117.5t-66.5 -89.5q-87 -84 -213 -84q-115 0 -170 82q-50 85 -24 209h58q-8 -180 173 -180q72 0 137 49q61 49 99 131zM1170 2251l-32 22l-25 33q-3 7 -4.5 21t-1.5 32q7 31 31 56q6 5 30 8 l36 -6l32 -15q9 -3 15.5 -8t10.5 -14l25 -31l223 -285h-84z" />
<glyph unicode="&#x1eb1;" horiz-adv-x="1139" d="M1078 103l25 -56q-88 -75 -178 -75q-66 0 -103 35t-58 132q-113 -96 -195.5 -131.5t-179.5 -35.5q-145 0 -206.5 62t-40.5 159q30 141 220.5 237.5t485.5 133.5l31 142q16 75 -33.5 129.5t-143.5 54.5q-87 0 -158 -36q-51 -27 -56 -53q-2 -9 14 -47q20 -40 14 -71 q-10 -45 -45 -74q-18 -12 -37 -21l-22 -5l-23 -2q-45 0 -76 33q-27 34 -15 88q20 95 149 179t311 84q165 0 238.5 -72.5t51.5 -176.5l-109 -512q-13 -63 -1 -101q15 -32 52 -32q40 0 88 32zM834 498q-259 -33 -384 -114q-36 -25 -74 -72q-14 -22 -25 -46q-6 -17 -9 -25 t-7 -27q-16 -77 15.5 -120.5t97.5 -43.5q118 0 223.5 89.5t134.5 224.5zM1038 1366h55q-40 -132 -116 -207q-42 -42 -96 -64q-26 -9 -51.5 -14t-40.5 -5.5t-24 -0.5q-117 0 -169 81.5t-25 209.5h57q-8 -180 173 -180q76 0 136.5 47.5t100.5 132.5zM787 1729l223 -285l-97 8 l-243 179q-13 8 -24.5 17.5t-18.5 19.5q-25 28 -19 57q4 16 9 24q6 14 16 23l24 16q15 7 42 7q26 0 50 -23l15 -16z" />
<glyph unicode="&#x1eb2;" horiz-adv-x="1479" d="M251 252l762 1257h80l261 -1327q11 -60 52 -80q8 -3 13 -4t22 -4l76 -2l-20 -92h-629l20 92h84q37 0 90 12q7 0 12.5 2.5t17.5 10.5q12 10 23 33l-1 34l-58 297h-553l-62 -102l-34 -64l-29 -53q-12 -20 -19 -53q-14 -70 53 -100q42 -17 132 -17l-20 -92h-540l20 92 q81 0 136.5 38t110.5 122zM565 586h475l-113 602zM1419 1925h55q-13 -63 -49 -111.5t-97 -95.5q-113 -84 -244 -84q-121 0 -194.5 87t-48.5 204h57q-4 -87 60 -135q70 -45 163 -45q86 0 174 51q43 24 74 56.5t50 72.5zM1187 1917h-45l8 35q2 11 5 21q2 10 7 16l56 61l48 51 q55 58 70 127q14 68 -9 105t-88 37q-35 0 -77 -19q-23 -11 -30 -33q-3 -14 0 -18l6 -10q31 -25 24 -60q-5 -23 -27 -43q-24 -18 -47 -18q-26 0 -47 24q-12 26 -5 62q12 57 78 108q23 19 54 33l66 17l50 4q88 0 136 -54q25 -27 32 -60.5t-2 -78.5q-7 -31 -21.5 -58t-44.5 -57 q-9 -11 -11 -13q-13 -11 -32 -25q-9 -8 -27 -22q-26 -19 -41 -30l-59 -37q-8 -6 -27 -65z" />
<glyph unicode="&#x1eb3;" horiz-adv-x="1139" d="M1078 103l25 -56q-88 -75 -178 -75q-66 0 -103 35t-58 132q-113 -96 -195.5 -131.5t-179.5 -35.5q-145 0 -206.5 62t-40.5 159q30 141 220.5 237.5t485.5 133.5l31 142q16 75 -33.5 129.5t-143.5 54.5q-87 0 -158 -36q-51 -27 -56 -53q-2 -9 14 -47q20 -40 14 -71 q-10 -45 -45 -74q-18 -12 -37 -21l-22 -5l-23 -2q-45 0 -76 33q-27 34 -15 88q20 95 149 179t311 84q165 0 238.5 -72.5t51.5 -176.5l-109 -512q-13 -63 -1 -101q15 -32 52 -32q40 0 88 32zM834 498q-259 -33 -384 -114q-36 -25 -74 -72q-14 -22 -25 -46q-6 -17 -9 -25 t-7 -27q-16 -77 15.5 -120.5t97.5 -43.5q118 0 223.5 89.5t134.5 224.5zM1038 1366h55q-40 -132 -116 -207q-42 -42 -96 -64q-26 -9 -51.5 -14t-40.5 -5.5t-24 -0.5q-117 0 -169 81.5t-25 209.5h57q-8 -180 173 -180q76 0 136.5 47.5t100.5 132.5zM877 1405h-45l8 35l4 20 q2 10 9 18l55 61l48 51q55 58 70 127q14 70 -8.5 105.5t-88.5 35.5q-33 0 -78 -18q-26 -14 -30 -32q-2 -10 1 -20l6 -10q31 -25 24 -59q-5 -24 -28 -43t-46 -19q-27 0 -47 25q-13 24 -5 61q13 60 78 109l27 19l24 12l35 10l34 8l50 4q44 0 77 -12.5t58 -40.5q49 -54 31 -139 q-13 -58 -66 -115q-31 -32 -111 -90l-60 -37q-7 -6 -26 -66z" />
<glyph unicode="&#x1eb4;" horiz-adv-x="1479" d="M251 252l762 1257h80l261 -1327q11 -60 52 -80q8 -3 13 -4t22 -4l76 -2l-20 -92h-629l20 92h84q37 0 90 12q7 0 12.5 2.5t17.5 10.5q12 10 23 33l-1 34l-58 297h-553l-62 -102l-34 -64l-29 -53q-12 -20 -19 -53q-14 -70 53 -100q42 -17 132 -17l-20 -92h-540l20 92 q81 0 136.5 38t110.5 122zM565 586h475l-113 602zM1441 1913h56q-13 -58 -53 -109q-16 -22 -43.5 -46.5t-59.5 -45.5q-121 -78 -257 -78q-125 0 -214.5 87.5t-65.5 203.5h58q-5 -83 79 -135q17 -9 38 -17.5t43 -15.5q48 -12 99 -12q45 0 92 11.5t96 35.5q96 47 132 121z M1738 2308h60l-6 -18l-35 -64l-52 -63q-28 -29 -61 -45l-57 -21l-51 -6q-43 0 -95 18q-26 8 -85 43l-42 21q-5 3 -19.5 5.5t-25.5 4.5q-50 0 -82 -29l-25 -24l-28 -39h-61q39 97 129 164q16 11 33.5 19.5t39.5 15.5l59 8h33l30 -10q22 -3 44 -17l50 -26l59 -31l54 -8l37 6 q60 24 97 96z" />
<glyph unicode="&#x1eb5;" horiz-adv-x="1139" d="M1078 103l25 -56q-88 -75 -178 -75q-66 0 -103 35t-58 132q-113 -96 -195.5 -131.5t-179.5 -35.5q-145 0 -206.5 62t-40.5 159q30 141 220.5 237.5t485.5 133.5l31 142q16 75 -33.5 129.5t-143.5 54.5q-87 0 -158 -36q-51 -27 -56 -53q-2 -9 14 -47q20 -40 14 -71 q-10 -45 -45 -74q-18 -12 -37 -21l-22 -5l-23 -2q-45 0 -76 33q-27 34 -15 88q20 95 149 179t311 84q165 0 238.5 -72.5t51.5 -176.5l-109 -512q-13 -63 -1 -101q15 -32 52 -32q40 0 88 32zM834 498q-259 -33 -384 -114q-36 -25 -74 -72q-14 -22 -25 -46q-6 -17 -9 -25 t-7 -27q-16 -77 15.5 -120.5t97.5 -43.5q118 0 223.5 89.5t134.5 224.5zM1038 1366h55q-40 -132 -116 -207q-42 -42 -96 -64q-26 -9 -51.5 -14t-40.5 -5.5t-24 -0.5q-117 0 -169 81.5t-25 209.5h57q-8 -180 173 -180q76 0 136.5 47.5t100.5 132.5zM1251 1722l-1 -6 q-2 -12 -16 -33l-28 -43q-37 -48 -52 -63q-27 -27 -61 -45l-27 -11l-30 -10q-28 -6 -51 -6q-49 0 -94 19q-30 9 -85 43l-25 13l-14 6l-25 7l-24 4q-48 0 -82 -28l-11 -8l-14 -17l-28 -39h-61q39 97 129 164l36 21l21 8l16 6l51 8q48 0 82 -14l112 -58q23 -12 39 -18l36 -4 l21 1q7 0 25 7q62 27 97 96h64z" />
<glyph unicode="&#x1eb6;" horiz-adv-x="1479" d="M251 252l762 1257h80l261 -1327q11 -60 52 -80q8 -3 13 -4t22 -4l76 -2l-20 -92h-629l20 92h84q37 0 90 12q7 0 12.5 2.5t17.5 10.5q12 10 23 33l-1 34l-58 297h-553l-62 -102l-34 -64l-29 -53q-12 -20 -19 -53q-14 -70 53 -100q42 -17 132 -17l-20 -92h-540l20 92 q81 0 136.5 38t110.5 122zM565 586h475l-113 602zM1357 1925h56q-21 -66 -49.5 -117.5t-66.5 -89.5q-87 -84 -213 -84q-115 0 -170 82q-50 85 -24 209h58q-8 -180 173 -180q72 0 137 49q61 49 99 131zM530 -281q10 48 57 91q43 36 99 36q45 0 78 -37.5t22 -89.5 q-10 -47 -57 -86q-23 -20 -47 -30.5t-48 -10.5q-50 0 -82 39t-22 88z" />
<glyph unicode="&#x1eb7;" horiz-adv-x="1139" d="M1078 103l25 -56q-88 -75 -178 -75q-66 0 -103 35t-58 132q-113 -96 -195.5 -131.5t-179.5 -35.5q-145 0 -206.5 62t-40.5 159q30 141 220.5 237.5t485.5 133.5l31 142q16 75 -33.5 129.5t-143.5 54.5q-87 0 -158 -36q-51 -27 -56 -53q-2 -9 14 -47q20 -40 14 -71 q-10 -45 -45 -74q-18 -12 -37 -21l-22 -5l-23 -2q-45 0 -76 33q-27 34 -15 88q20 95 149 179t311 84q165 0 238.5 -72.5t51.5 -176.5l-109 -512q-13 -63 -1 -101q15 -32 52 -32q40 0 88 32zM834 498q-259 -33 -384 -114q-36 -25 -74 -72q-14 -22 -25 -46q-6 -17 -9 -25 t-7 -27q-16 -77 15.5 -120.5t97.5 -43.5q118 0 223.5 89.5t134.5 224.5zM1038 1366h55q-40 -132 -116 -207q-42 -42 -96 -64q-26 -9 -51.5 -14t-40.5 -5.5t-24 -0.5q-117 0 -169 81.5t-25 209.5h57q-8 -180 173 -180q76 0 136.5 47.5t100.5 132.5zM599 -289q-9 -43 -55 -84 q-22 -17 -47 -27t-47 -10q-43 0 -73 39q-13 19 -18.5 41t-0.5 45q10 45 54 81t92 36q46 0 75.5 -36.5t19.5 -84.5z" />
<glyph unicode="&#x1eb8;" horiz-adv-x="1479" d="M358 1386l19 93h1233l-82 -525h-86q10 284 -77 363q-79 69 -368 69h-40l-94 -2q-61 -9 -75 -77l-105 -494h74q135 0 217 65t115 216h92l-144 -674h-92q30 142 -10 219q-20 40 -58.5 60t-100.5 20h-113l-117 -549l-3 -25l12 -26l36 -17l55 -2l62 -6l68 -2h41l61 2h37l31 8 q74 0 137 29q59 30 118 86q70 70 153 248l36 82h84l-155 -547h-1260l20 92h62q63 0 97 6q52 11 79 60l22 88l211 991l17 88q2 10 1 19.5t-14 19.5q-6 7 -58 16l-99 6h-39zM530 -281q10 48 57 91q43 36 99 36q45 0 78 -37.5t22 -89.5q-10 -47 -57 -86q-23 -20 -47 -30.5 t-48 -10.5q-50 0 -82 39t-22 88z" />
<glyph unicode="&#x1eb9;" d="M1048 461h-669q-17 -80 -16 -145t22 -119q48 -123 201 -123q90 0 157 32q34 18 70.5 45.5t69.5 63.5l33 43l29 35l61 -39q-93 -139 -212 -213q-56 -36 -120.5 -54t-143.5 -18q-97 0 -186 33q-39 18 -74 43q-25 22 -57 66q-45 69 -59 155l-2 37l2 55q4 48 16 103 q44 207 199 360q164 160 369 160q111 0 185 -55q39 -25 65 -62q28 -35 48 -90q15 -40 20 -108v-117l-1 -43zM400 545h344h24q43 0 65.5 12.5t33.5 63.5q12 60 10 101q1 47 -17 87q-37 90 -145 90q-117 0 -214 -123q-72 -96 -101 -231zM575 -289q-9 -44 -55 -84 q-22 -17 -47 -27t-47 -10q-42 0 -75 39q-27 40 -17 86q10 45 55 81t91 36q49 0 77.5 -35.5t17.5 -85.5z" />
<glyph unicode="&#x1eba;" horiz-adv-x="1479" d="M358 1386l19 93h1233l-82 -525h-86q10 284 -77 363q-79 69 -368 69h-40l-94 -2q-61 -9 -75 -77l-105 -494h74q135 0 217 65t115 216h92l-144 -674h-92q30 142 -10 219q-20 40 -58.5 60t-100.5 20h-113l-117 -549l-3 -25l12 -26l36 -17l55 -2l62 -6l68 -2h41l61 2h37l31 8 q74 0 137 29q59 30 118 86q70 70 153 248l36 82h84l-155 -547h-1260l20 92h62q63 0 97 6q52 11 79 60l22 88l211 991l17 88q2 10 1 19.5t-14 19.5q-6 7 -58 16l-99 6h-39zM1121 1663l-51 -2q3 14 7 32t9 25l67 76l48 51q17 20 39 58l24 71q14 69 -4.5 104.5t-85.5 35.5 q-18 0 -37 -4.5t-40.5 -15t-29.5 -32.5q-3 -14 0 -18l6 -10l28 -23q15 -15 11 -33q-13 -61 -82 -61q-31 0 -50 25q-10 20 -8 57q12 57 78 108q21 17 53 30.5t69 23.5l29 4l32 2q77 0 122 -58q49 -55 30 -141q-12 -58 -65 -115q-16 -18 -43 -38q-10 -8 -28 -22 q-25 -19 -40 -30l-65 -43z" />
<glyph unicode="&#x1ebb;" d="M1048 461h-669q-17 -80 -16 -145t22 -119q48 -123 201 -123q90 0 157 32q34 18 70.5 45.5t69.5 63.5l33 43l29 35l61 -39q-93 -139 -212 -213q-56 -36 -120.5 -54t-143.5 -18q-97 0 -186 33q-39 18 -74 43q-25 22 -57 66q-45 69 -59 155l-2 37l2 55q4 48 16 103 q44 207 199 360q164 160 369 160q111 0 185 -55q39 -25 65 -62q28 -35 48 -90q15 -40 20 -108v-117l-1 -43zM400 545h344h24q43 0 65.5 12.5t33.5 63.5q12 60 10 101q1 47 -17 87q-37 90 -145 90q-117 0 -214 -123q-72 -96 -101 -231zM785 1130h-45l7 35l4 20q2 9 8 17 l16 20l40 42l48 51q25 27 45 61q18 33 25 66q14 66 -8.5 103.5t-88.5 37.5q-33 0 -78 -18q-25 -12 -30 -32q-2 -10 1 -20l6 -10q32 -25 25 -59q-6 -24 -29 -43t-47 -19q-29 0 -45 25q-13 24 -5 61q12 60 78 109q26 22 54 33l29 8l35 8l51 4q44 0 77.5 -12.5t58.5 -40.5 q48 -53 29 -139q-6 -28 -21 -58q-5 -11 -17 -27t-27 -30l-17 -18l-26 -21l-68 -51l-59 -37q-7 -6 -26 -66z" />
<glyph unicode="&#x1ebc;" horiz-adv-x="1479" d="M358 1386l19 93h1233l-82 -525h-86q10 284 -77 363q-79 69 -368 69h-40l-94 -2q-61 -9 -75 -77l-105 -494h74q135 0 217 65t115 216h92l-144 -674h-92q30 142 -10 219q-20 40 -58.5 60t-100.5 20h-113l-117 -549l-3 -25l12 -26l36 -17l55 -2l62 -6l68 -2h41l61 2h37l31 8 q74 0 137 29q59 30 118 86q70 70 153 248l36 82h84l-155 -547h-1260l20 92h62q63 0 97 6q52 11 79 60l22 88l211 991l17 88q2 10 1 19.5t-14 19.5q-6 7 -58 16l-99 6h-39zM1444 1851h59l-5 -18l-35 -64l-51 -63q-17 -16 -31.5 -27t-30.5 -18l-57 -21l-51 -6q-44 0 -94 19 q-25 5 -86 43l-42 20q-7 3 -21 5.5t-24 4.5q-49 0 -82 -28l-25 -25l-27 -39h-62q39 97 129 164q33 23 74 35l58 8h33l31 -10q11 -1 22 -5.5t22 -10.5l49 -27l59 -31l54 -8l38 6q59 25 96 96z" />
<glyph unicode="&#x1ebd;" d="M1048 461h-669q-17 -80 -16 -145t22 -119q48 -123 201 -123q90 0 157 32q34 18 70.5 45.5t69.5 63.5l33 43l29 35l61 -39q-93 -139 -212 -213q-56 -36 -120.5 -54t-143.5 -18q-97 0 -186 33q-39 18 -74 43q-25 22 -57 66q-45 69 -59 155l-2 37l2 55q4 48 16 103 q44 207 199 360q164 160 369 160q111 0 185 -55q39 -25 65 -62q28 -35 48 -90q15 -40 20 -108v-117l-1 -43zM400 545h344h24q43 0 65.5 12.5t33.5 63.5q12 60 10 101q1 47 -17 87q-37 90 -145 90q-117 0 -214 -123q-72 -96 -101 -231zM1172 1354v-6q-2 -12 -16 -33l-28 -43 l-30 -39l-23 -25q-26 -27 -60 -45l-24 -10l-36 -10q-25 -6 -48 -6q-45 0 -95 18q-24 6 -85 43l-24 13l-16 7l-23 7l-24 4q-50 0 -82 -29l-25 -24l-28 -39h-61q39 99 129 163l35 21l21 8l16 6l52 8q48 0 81 -14l113 -57l19 -11l20 -8l35 -4l21 1q7 0 26 7q63 27 96 97h64z " />
<glyph unicode="&#x1ebe;" horiz-adv-x="1479" d="M358 1386l19 93h1233l-82 -525h-86q10 284 -77 363q-79 69 -368 69h-40l-94 -2q-61 -9 -75 -77l-105 -494h74q135 0 217 65t115 216h92l-144 -674h-92q30 142 -10 219q-20 40 -58.5 60t-100.5 20h-113l-117 -549l-3 -25l12 -26l36 -17l55 -2l62 -6l68 -2h41l61 2h37l31 8 q74 0 137 29q59 30 118 86q70 70 153 248l36 82h84l-155 -547h-1260l20 92h62q63 0 97 6q52 11 79 60l22 88l211 991l17 88q2 10 1 19.5t-14 19.5q-6 7 -58 16l-99 6h-39zM1128 1821l-294 -211h-72l328 340h129l184 -340h-72zM1774 2054l-328 -186h-91l343 284l31 25l42 27 l41 14l43 8q25 0 31 -10l11 -18l-1 -23q-5 -26 -43 -68l-37 -28z" />
<glyph unicode="&#x1ebf;" d="M1048 461h-669q-17 -80 -16 -145t22 -119q48 -123 201 -123q90 0 157 32q34 18 70.5 45.5t69.5 63.5l33 43l29 35l61 -39q-93 -139 -212 -213q-56 -36 -120.5 -54t-143.5 -18q-97 0 -186 33q-39 18 -74 43q-25 22 -57 66q-45 69 -59 155l-2 37l2 55q4 48 16 103 q44 207 199 360q164 160 369 160q111 0 185 -55q39 -25 65 -62q28 -35 48 -90q15 -40 20 -108v-117l-1 -43zM400 545h344h24q43 0 65.5 12.5t33.5 63.5q12 60 10 101q1 47 -17 87q-37 90 -145 90q-117 0 -214 -123q-72 -96 -101 -231zM788 1292l-295 -211h-71l329 340h129 l183 -340h-72zM1441 1696l28 4q31 0 52 -25q19 -18 11 -55q-4 -18 -33 -39l-48 -29l-334 -186h-84l344 285l30 24q14 12 34 21z" />
<glyph unicode="&#x1ec0;" horiz-adv-x="1479" d="M358 1386l19 93h1233l-82 -525h-86q10 284 -77 363q-79 69 -368 69h-40l-94 -2q-61 -9 -75 -77l-105 -494h74q135 0 217 65t115 216h92l-144 -674h-92q30 142 -10 219q-20 40 -58.5 60t-100.5 20h-113l-117 -549l-3 -25l12 -26l36 -17l55 -2l62 -6l68 -2h41l61 2h37l31 8 q74 0 137 29q59 30 118 86q70 70 153 248l36 82h84l-155 -547h-1260l20 92h62q63 0 97 6q52 11 79 60l22 88l211 991l17 88q2 10 1 19.5t-14 19.5q-6 7 -58 16l-99 6h-39zM1128 1821l-294 -211h-72l328 340h129l184 -340h-72zM1347 2042l-31 22l-26 33q-8 16 -6 53 q6 29 31 56q6 5 30 8l35 -6l32 -15q9 -3 15.5 -8t10.5 -14l27 -31l221 -285h-84z" />
<glyph unicode="&#x1ec1;" d="M1048 461h-669q-17 -80 -16 -145t22 -119q48 -123 201 -123q90 0 157 32q34 18 70.5 45.5t69.5 63.5l33 43l29 35l61 -39q-93 -139 -212 -213q-56 -36 -120.5 -54t-143.5 -18q-97 0 -186 33q-39 18 -74 43q-25 22 -57 66q-45 69 -59 155l-2 37l2 55q4 48 16 103 q44 207 199 360q164 160 369 160q111 0 185 -55q39 -25 65 -62q28 -35 48 -90q15 -40 20 -108v-117l-1 -43zM400 545h344h24q43 0 65.5 12.5t33.5 63.5q12 60 10 101q1 47 -17 87q-37 90 -145 90q-117 0 -214 -123q-72 -96 -101 -231zM788 1292l-295 -211h-71l329 340h129 l183 -340h-72zM1032 1704l13 1q24 0 51 -22q12 -7 21 -16t25 -31l222 -284h-94l-245 186l-30 23l-26 24q-13 21 -12 39l3 23l4 14l10 14q13 17 58 29z" />
<glyph unicode="&#x1ec2;" horiz-adv-x="1479" d="M358 1386l19 93h1233l-82 -525h-86q10 284 -77 363q-79 69 -368 69h-40l-94 -2q-61 -9 -75 -77l-105 -494h74q135 0 217 65t115 216h92l-144 -674h-92q30 142 -10 219q-20 40 -58.5 60t-100.5 20h-113l-117 -549l-3 -25l12 -26l36 -17l55 -2l62 -6l68 -2h41l61 2h37l31 8 q74 0 137 29q59 30 118 86q70 70 153 248l36 82h84l-155 -547h-1260l20 92h62q63 0 97 6q52 11 79 60l22 88l211 991l17 88q2 10 1 19.5t-14 19.5q-6 7 -58 16l-99 6h-39zM1128 1821l-294 -211h-72l328 340h129l184 -340h-72zM1537 1884l-52 -2q3 14 7 32t10 25l67 76l48 51 q19 21 38 58l24 71q14 69 -5 104.5t-84 35.5q-39 0 -78 -19q-22 -11 -30 -32q-3 -15 0 -19l7 -10l27 -23q16 -15 13 -32q-14 -62 -84 -62q-31 0 -49 25q-9 19 -9 57q12 56 79 109q44 34 121 53l30 4l32 2q78 0 124 -56.5t27 -142.5q-12 -59 -65 -114q-16 -20 -42 -39 q-24 -20 -69 -51l-64 -43z" />
<glyph unicode="&#x1ec3;" d="M1048 461h-669q-17 -80 -16 -145t22 -119q48 -123 201 -123q90 0 157 32q34 18 70.5 45.5t69.5 63.5l33 43l29 35l61 -39q-93 -139 -212 -213q-56 -36 -120.5 -54t-143.5 -18q-97 0 -186 33q-39 18 -74 43q-25 22 -57 66q-45 69 -59 155l-2 37l2 55q4 48 16 103 q44 207 199 360q164 160 369 160q111 0 185 -55q39 -25 65 -62q28 -35 48 -90q15 -40 20 -108v-117l-1 -43zM400 545h344h24q43 0 65.5 12.5t33.5 63.5q12 60 10 101q1 47 -17 87q-37 90 -145 90q-117 0 -214 -123q-72 -96 -101 -231zM788 1292l-295 -211h-71l329 340h129 l183 -340h-72zM1083 1376h-46l8 35l4 20q2 9 8 17l18 21l38 40l47 52q56 58 70 127q14 66 -8.5 103.5t-88.5 37.5q-38 0 -77 -19q-26 -12 -30 -31q-2 -10 0 -20l7 -10q31 -24 24 -59q-5 -21 -28 -44q-21 -18 -46 -18q-27 0 -45 24q-7 12 -10 27q-1 17 3 35q12 59 79 109 q23 19 54 32l32 9l33 8l49 4q46 0 79 -13q34 -12 57.5 -39.5t31.5 -61t-2 -79.5q-6 -31 -22 -57q-15 -28 -43 -57l-17 -18l-26 -21l-68 -51l-59 -37q-7 -6 -26 -66z" />
<glyph unicode="&#x1ec4;" horiz-adv-x="1479" d="M358 1386l19 93h1233l-82 -525h-86q10 284 -77 363q-79 69 -368 69h-40l-94 -2q-61 -9 -75 -77l-105 -494h74q135 0 217 65t115 216h92l-144 -674h-92q30 142 -10 219q-20 40 -58.5 60t-100.5 20h-113l-117 -549l-3 -25l12 -26l36 -17l55 -2l62 -6l68 -2h41l61 2h37l31 8 q74 0 137 29q59 30 118 86q70 70 153 248l36 82h84l-155 -547h-1260l20 92h62q63 0 97 6q52 11 79 60l22 88l211 991l17 88q2 10 1 19.5t-14 19.5q-6 7 -58 16l-99 6h-39zM1128 1821l-294 -211h-72l328 340h129l184 -340h-72zM1622 2281h59l-6 -18l-33 -63l-53 -64 q-16 -16 -31 -27t-31 -18l-57 -20l-50 -7q-20 0 -43 4.5t-51 14.5q-25 5 -86 43l-43 20q-5 2 -19.5 5.5t-25.5 5.5q-48 0 -82 -29l-25 -25l-26 -39h-62q38 97 129 164q32 23 73 35l59 8h33l31 -10q10 -1 21 -5.5t22 -10.5l49 -27l60 -31l53 -8l38 6q60 25 97 96z" />
<glyph unicode="&#x1ec5;" d="M1048 461h-669q-17 -80 -16 -145t22 -119q48 -123 201 -123q90 0 157 32q34 18 70.5 45.5t69.5 63.5l33 43l29 35l61 -39q-93 -139 -212 -213q-56 -36 -120.5 -54t-143.5 -18q-97 0 -186 33q-39 18 -74 43q-25 22 -57 66q-45 69 -59 155l-2 37l2 55q4 48 16 103 q44 207 199 360q164 160 369 160q111 0 185 -55q39 -25 65 -62q28 -35 48 -90q15 -40 20 -108v-117l-1 -43zM400 545h344h24q43 0 65.5 12.5t33.5 63.5q12 60 10 101q1 47 -17 87q-37 90 -145 90q-117 0 -214 -123q-72 -96 -101 -231zM788 1292l-295 -211h-71l329 340h129 l183 -340h-72zM1190 1737h60l-6 -19l-35 -63l-30 -39l-22 -25q-31 -30 -61 -45l-24 -10l-36 -10q-24 -6 -47 -6q-45 0 -95 18q-24 6 -85 43l-25 13l-15 7l-24 7l-24 4q-50 0 -82 -29l-25 -24l-27 -39h-61q39 99 128 163l36 21l20 8l17 6l59 8h33l30 -10q10 0 18 -4l26 -12 l50 -27q38 -18 59 -31l25 -5l29 -3q18 0 37 6q63 27 97 97z" />
<glyph unicode="&#x1ec6;" horiz-adv-x="1479" d="M358 1386l19 93h1233l-82 -525h-86q10 284 -77 363q-79 69 -368 69h-40l-94 -2q-61 -9 -75 -77l-105 -494h74q135 0 217 65t115 216h92l-144 -674h-92q30 142 -10 219q-20 40 -58.5 60t-100.5 20h-113l-117 -549l-3 -25l12 -26l36 -17l55 -2l62 -6l68 -2h41l61 2h37l31 8 q74 0 137 29q59 30 118 86q70 70 153 248l36 82h84l-155 -547h-1260l20 92h62q63 0 97 6q52 11 79 60l22 88l211 991l17 88q2 10 1 19.5t-14 19.5q-6 7 -58 16l-99 6h-39zM1128 1821l-294 -211h-72l328 340h129l184 -340h-72zM530 -281q10 48 57 91q43 36 99 36 q45 0 78 -37.5t22 -89.5q-10 -47 -57 -86q-23 -20 -47 -30.5t-48 -10.5q-50 0 -82 39t-22 88z" />
<glyph unicode="&#x1ec7;" d="M1048 461h-669q-17 -80 -16 -145t22 -119q48 -123 201 -123q90 0 157 32q34 18 70.5 45.5t69.5 63.5l33 43l29 35l61 -39q-93 -139 -212 -213q-56 -36 -120.5 -54t-143.5 -18q-97 0 -186 33q-39 18 -74 43q-25 22 -57 66q-45 69 -59 155l-2 37l2 55q4 48 16 103 q44 207 199 360q164 160 369 160q111 0 185 -55q39 -25 65 -62q28 -35 48 -90q15 -40 20 -108v-117l-1 -43zM400 545h344h24q43 0 65.5 12.5t33.5 63.5q12 60 10 101q1 47 -17 87q-37 90 -145 90q-117 0 -214 -123q-72 -96 -101 -231zM788 1292l-295 -211h-71l329 340h129 l183 -340h-72zM561 -289q-9 -43 -55 -84q-48 -37 -94 -37q-43 0 -73 39q-13 19 -18.5 41t-0.5 45q10 45 54 81t92 36q46 0 75.5 -36.5t19.5 -84.5z" />
<glyph unicode="&#x1ec8;" horiz-adv-x="834" d="M752 0h-674l20 92h41l80 2q17 0 30.5 2t24.5 8q41 14 49 29l15 31l11 43l227 1069l4 17q5 24 3 32q4 19 -10 37l-42 18q-21 6 -58 6l-38 -2h-37l-23 2l19 93h676l-19 -93h-80l-88 -6q-39 -9 -68 -47l-12 -37l-6 -30l-226 -1065q-4 -17 -6 -32q-3 -15 -2 -22l4 -16l9 -12 q12 -8 45 -21l61 -6l57 2l33 -2zM773 1587h-45l8 35q2 9 4 20t8 17l56 61l48 52q55 56 69 126q15 68 -7.5 105t-88.5 37q-37 0 -78 -19q-22 -11 -29 -32q-3 -15 0 -19l6 -10q32 -24 24 -59q-5 -25 -27.5 -43.5t-46.5 -18.5q-27 0 -47 25q-13 24 -5 61q12 57 78 109 q24 19 54 32l66 17l50 4q44 0 77 -12.5t58.5 -40t32.5 -61t-2 -79.5q-13 -59 -66 -114q-14 -18 -43 -39l-68 -51l-59 -37q-8 -6 -27 -66z" />
<glyph unicode="&#x1ec9;" horiz-adv-x="645" d="M592 0h-539l15 72h56l63 6q31 0 47 10q13 21 21 45l17 60l8 36l100 471l6 29l7 41l3 20q2 8 -1.5 22.5t-27.5 21.5l-28 6l-123 4l19 86l387 20l-167 -786l-7 -31q-6 -29 0 -44q7 -13 47 -13l53 -2h30q23 0 29 -2zM537 1130h-45l8 35l4 20q2 10 9 18l55 61l48 51 q55 58 70 127q14 70 -9 105.5t-89 35.5q-33 0 -77 -18q-26 -14 -30 -32q-2 -10 1 -20l5 -10q32 -25 25 -59q-5 -24 -28 -43t-46 -19q-27 0 -47 25q-13 24 -5 61q13 60 78 109l27 19l24 12l35 10l34 8l49 4q44 0 77.5 -12.5t58.5 -40.5q49 -54 31 -139q-13 -58 -66 -115 q-31 -32 -111 -90l-60 -37q-7 -6 -26 -66z" />
<glyph unicode="&#x1eca;" horiz-adv-x="834" d="M752 0h-674l20 92h41l80 2q17 0 30.5 2t24.5 8q41 14 49 29l15 31l11 43l227 1069l4 17q5 24 3 32q4 19 -10 37l-42 18q-21 6 -58 6l-38 -2h-37l-23 2l19 93h676l-19 -93h-80l-88 -6q-39 -9 -68 -47l-12 -37l-6 -30l-226 -1065q-4 -17 -6 -32q-3 -15 -2 -22l4 -16l9 -12 q12 -8 45 -21l61 -6l57 2l33 -2zM219 -281q10 47 56 91q45 36 100 36q45 0 78 -37.5t22 -89.5q-9 -45 -57 -86t-95 -41q-49 0 -84 39q-15 20 -20 41t0 47z" />
<glyph unicode="&#x1ecb;" horiz-adv-x="645" d="M592 0h-539l15 72h56l63 6q31 0 47 10q13 21 21 45l17 60l8 36l100 471l6 29l7 41l3 20q2 8 -1.5 22.5t-27.5 21.5l-28 6l-123 4l19 86l387 20l-167 -786l-7 -31q-6 -29 0 -44q7 -13 47 -13l53 -2h30q23 0 29 -2zM722 1346q-10 -46 -55 -83.5t-94 -37.5q-44 0 -76 37 q-26 37 -15 88q9 41 53 82q22 15 45.5 24.5t46.5 9.5q49 0 77.5 -35t17.5 -85zM375 -289q-10 -44 -54.5 -82.5t-94.5 -38.5q-42 0 -76 39q-25 40 -16 86q10 45 54 81t91 36q50 0 78 -35.5t18 -85.5z" />
<glyph unicode="&#x1ecc;" horiz-adv-x="1593" d="M1396 739q28 132 34.5 233.5t-9.5 182.5q-49 262 -325 262q-245 0 -407 -227q-29 -43 -54.5 -92t-47 -102.5t-42 -120.5t-34.5 -136q-55 -257 -25 -415q49 -263 326 -263q244 0 406 228q57 83 103 194q21 53 41 122.5t34 133.5zM1658 739q-57 -267 -278 -499 q-260 -271 -588 -271q-307 0 -462 236q-147 225 -81 534q56 265 278 500q260 270 588 270q307 0 462 -235q146 -226 81 -535zM612 -281q10 48 56 91q44 36 100 36q45 0 78 -37.5t22 -89.5q-10 -45 -57 -86q-24 -20 -47.5 -30.5t-47.5 -10.5q-50 0 -82.5 39t-21.5 88z" />
<glyph unicode="&#x1ecd;" d="M714 965q186 0 287 -136t53 -360q-32 -153 -112.5 -261.5t-199.5 -172t-244 -63.5q-176 0 -279 138q-46 66 -61 158q-6 44 -5 93q2 25 5 49.5t10 57.5q46 216 202 356.5t344 140.5zM699 894q-107 0 -203.5 -103t-142.5 -319q-46 -218 3.5 -323.5t161.5 -105.5 q117 0 211.5 103t143.5 337q46 213 -4.5 312t-169.5 99zM581 -322q-9 -43 -55 -84q-22 -17 -46.5 -27t-46.5 -10q-43 0 -74 39q-13 19 -18.5 41t-0.5 45q10 45 54 81t92 36q46 0 75.5 -36.5t19.5 -84.5z" />
<glyph unicode="&#x1ece;" horiz-adv-x="1593" d="M1396 739q28 132 34.5 233.5t-9.5 182.5q-49 262 -325 262q-245 0 -407 -227q-29 -43 -54.5 -92t-47 -102.5t-42 -120.5t-34.5 -136q-55 -257 -25 -415q49 -263 326 -263q244 0 406 228q57 83 103 194q21 53 41 122.5t34 133.5zM1658 739q-57 -267 -278 -499 q-260 -271 -588 -271q-307 0 -462 236q-147 225 -81 534q56 265 278 500q260 270 588 270q307 0 462 -235q146 -226 81 -535zM1175 1587h-45l7 35q2 9 5 20q2 11 7 17l56 61l48 52q56 58 70 126q14 66 -9 104t-88 38q-39 0 -78 -19q-22 -11 -30 -32q-3 -15 0 -19l7 -10 q31 -24 24 -59q-6 -25 -28 -43.5t-47 -18.5q-27 0 -45 25q-14 25 -6 61q12 56 79 109q22 18 54 32l64 17l50 4q45 0 78.5 -12.5t57.5 -39.5t32 -61.5t-2 -79.5q-12 -59 -65 -114q-8 -10 -18 -19t-24.5 -20t-27.5 -21q-18 -14 -41 -30l-59 -37q-7 -6 -26 -66z" />
<glyph unicode="&#x1ecf;" d="M714 965q186 0 287 -136t53 -360q-32 -153 -112.5 -261.5t-199.5 -172t-244 -63.5q-176 0 -279 138q-46 66 -61 158q-6 44 -5 93q2 25 5 49.5t10 57.5q46 216 202 356.5t344 140.5zM699 894q-107 0 -203.5 -103t-142.5 -319q-46 -218 3.5 -323.5t161.5 -105.5 q117 0 211.5 103t143.5 337q46 213 -4.5 312t-169.5 99zM775 1130h-45l7 35l5 20q2 10 8 18l55 61l48 51q56 58 70 127q15 70 -8 105.5t-89 35.5q-33 0 -78 -18q-26 -14 -29 -32q-3 -10 0 -20l6 -10q32 -25 25 -59q-5 -24 -28.5 -43t-46.5 -19q-27 0 -46 25q-13 24 -5 61 q12 60 78 109l27 19l23 12l36 10l33 8l50 4q44 0 77.5 -12.5t58.5 -40.5q48 -54 30 -139q-12 -58 -65 -115q-31 -32 -111 -90l-60 -37q-7 -6 -26 -66z" />
<glyph unicode="&#x1ed0;" horiz-adv-x="1593" d="M1396 739q28 132 34.5 233.5t-9.5 182.5q-49 262 -325 262q-245 0 -407 -227q-29 -43 -54.5 -92t-47 -102.5t-42 -120.5t-34.5 -136q-55 -257 -25 -415q49 -263 326 -263q244 0 406 228q57 83 103 194q21 53 41 122.5t34 133.5zM1658 739q-57 -267 -278 -499 q-260 -271 -588 -271q-307 0 -462 236q-147 225 -81 534q56 265 278 500q260 270 588 270q307 0 462 -235q146 -226 81 -535zM1186 1821l-295 -211h-72l328 340h129l184 -340h-71zM1847 2054l-328 -186h-90l343 284l29 25l43 27l42 14l43 8q25 0 31 -10l10 -18l-1 -23 q-6 -27 -43 -68l-36 -28z" />
<glyph unicode="&#x1ed1;" d="M714 965q186 0 287 -136t53 -360q-32 -153 -112.5 -261.5t-199.5 -172t-244 -63.5q-176 0 -279 138q-46 66 -61 158q-6 44 -5 93q2 25 5 49.5t10 57.5q46 216 202 356.5t344 140.5zM699 894q-107 0 -203.5 -103t-142.5 -319q-46 -218 3.5 -323.5t161.5 -105.5 q117 0 211.5 103t143.5 337q46 213 -4.5 312t-169.5 99zM788 1292l-295 -211h-71l329 340h129l183 -340h-72zM1464 1521l-335 -187h-84l344 285l29 25q25 18 52 30q8 5 43 11q70 0 56 -66q-4 -18 -24 -41l-20 -19l-19 -14z" />
<glyph unicode="&#x1ed2;" horiz-adv-x="1593" d="M1396 739q28 132 34.5 233.5t-9.5 182.5q-49 262 -325 262q-245 0 -407 -227q-29 -43 -54.5 -92t-47 -102.5t-42 -120.5t-34.5 -136q-55 -257 -25 -415q49 -263 326 -263q244 0 406 228q57 83 103 194q21 53 41 122.5t34 133.5zM1658 739q-57 -267 -278 -499 q-260 -271 -588 -271q-307 0 -462 236q-147 225 -81 534q56 265 278 500q260 270 588 270q307 0 462 -235q146 -226 81 -535zM1186 1821l-295 -211h-72l328 340h129l184 -340h-71zM1413 2005l-32 23l-26 32q-7 16 -5 54q6 30 31 55q6 5 29 8l36 -6l32 -14q10 -5 15.5 -9 t10.5 -14l26 -31l222 -284h-84z" />
<glyph unicode="&#x1ed3;" d="M714 965q186 0 287 -136t53 -360q-32 -153 -112.5 -261.5t-199.5 -172t-244 -63.5q-176 0 -279 138q-46 66 -61 158q-6 44 -5 93q2 25 5 49.5t10 57.5q46 216 202 356.5t344 140.5zM699 894q-107 0 -203.5 -103t-142.5 -319q-46 -218 3.5 -323.5t161.5 -105.5 q117 0 211.5 103t143.5 337q46 213 -4.5 312t-169.5 99zM788 1292l-295 -211h-71l329 340h129l183 -340h-72zM921 1760l13 1q21 0 52 -21l21 -18l25 -29l221 -285h-94l-245 186l-30 23l-26 24q-10 16 -10 45l1 18q2 11 15 28.5t57 27.5z" />
<glyph unicode="&#x1ed4;" horiz-adv-x="1593" d="M1396 739q28 132 34.5 233.5t-9.5 182.5q-49 262 -325 262q-245 0 -407 -227q-29 -43 -54.5 -92t-47 -102.5t-42 -120.5t-34.5 -136q-55 -257 -25 -415q49 -263 326 -263q244 0 406 228q57 83 103 194q21 53 41 122.5t34 133.5zM1658 739q-57 -267 -278 -499 q-260 -271 -588 -271q-307 0 -462 236q-147 225 -81 534q56 265 278 500q260 270 588 270q307 0 462 -235q146 -226 81 -535zM1186 1821l-295 -211h-72l328 340h129l184 -340h-71zM1513 1831h-45l7 35q3 11 6 21q2 10 6 16l56 61l48 51q55 58 70 127q14 67 -8 105 q-24 37 -89 37q-35 0 -77 -19q-22 -11 -30 -33q-3 -14 0 -18l6 -10q32 -25 24 -60q-5 -23 -27 -43q-24 -18 -47 -18q-27 0 -46 24q-13 25 -5 62q12 56 78 108q23 19 55 33l64 17l50 4q88 0 137 -54q24 -27 31.5 -60.5t-2.5 -78.5q-7 -31 -21.5 -58t-43.5 -57 q-10 -11 -12 -13q-12 -11 -31 -25q-10 -8 -28 -22q-25 -19 -41 -30l-58 -37q-9 -7 -27 -65z" />
<glyph unicode="&#x1ed5;" d="M714 965q186 0 287 -136t53 -360q-32 -153 -112.5 -261.5t-199.5 -172t-244 -63.5q-176 0 -279 138q-46 66 -61 158q-6 44 -5 93q2 25 5 49.5t10 57.5q46 216 202 356.5t344 140.5zM699 894q-107 0 -203.5 -103t-142.5 -319q-46 -218 3.5 -323.5t161.5 -105.5 q117 0 211.5 103t143.5 337q46 213 -4.5 312t-169.5 99zM788 1292l-295 -211h-71l329 340h129l183 -340h-72zM1149 1339h-45l8 35l4 20q2 10 9 18l55 61l48 51q55 58 70 127q14 70 -8.5 105.5t-88.5 35.5q-33 0 -78 -18q-26 -14 -30 -32q-2 -10 1 -20l6 -10q31 -25 24 -59 q-5 -24 -28 -43t-46 -19q-27 0 -47 25q-13 24 -5 61q13 60 78 109l27 19l24 12l35 10l34 8l50 4q44 0 77 -12.5t58 -40.5q49 -54 31 -139q-13 -58 -66 -115q-30 -32 -111 -90l-60 -37q-7 -6 -26 -66z" />
<glyph unicode="&#x1ed6;" horiz-adv-x="1593" d="M1396 739q28 132 34.5 233.5t-9.5 182.5q-49 262 -325 262q-245 0 -407 -227q-29 -43 -54.5 -92t-47 -102.5t-42 -120.5t-34.5 -136q-55 -257 -25 -415q49 -263 326 -263q244 0 406 228q57 83 103 194q21 53 41 122.5t34 133.5zM1658 739q-57 -267 -278 -499 q-260 -271 -588 -271q-307 0 -462 236q-147 225 -81 534q56 265 278 500q260 270 588 270q307 0 462 -235q146 -226 81 -535zM1186 1821l-295 -211h-72l328 340h129l184 -340h-71zM1580 2261h59l-6 -18l-33 -64l-53 -63q-31 -30 -60 -45l-59 -21l-50 -6q-42 0 -94 18 q-11 3 -31.5 13t-53.5 30l-43 21q-7 3 -22.5 6t-22.5 4q-26 0 -45 -6t-37 -23l-26 -24l-26 -39h-62q41 98 129 164q32 21 73 35l59 8h33l31 -10q18 -4 23 -6t20 -11l50 -26l59 -31l54 -8l38 6q59 23 96 96z" />
<glyph unicode="&#x1ed7;" d="M714 965q186 0 287 -136t53 -360q-32 -153 -112.5 -261.5t-199.5 -172t-244 -63.5q-176 0 -279 138q-46 66 -61 158q-6 44 -5 93q2 25 5 49.5t10 57.5q46 216 202 356.5t344 140.5zM699 894q-107 0 -203.5 -103t-142.5 -319q-46 -218 3.5 -323.5t161.5 -105.5 q117 0 211.5 103t143.5 337q46 213 -4.5 312t-169.5 99zM788 1292l-295 -211h-71l329 340h129l183 -340h-72zM1257 1738v-6q-3 -12 -16 -33l-28 -43l-32 -40l-21 -23q-26 -27 -60 -45l-34 -13l-24 -8q-27 -6 -50 -6q-45 0 -95 18q-24 6 -85 43l-25 13l-18 8l-20 6l-24 4 q-50 0 -83 -29l-25 -24l-27 -39h-61q39 97 129 164q14 10 32.5 18.5t40.5 16.5l51 8q42 0 81 -15l113 -57q22 -12 39 -18l35 -4l21 1q7 0 27 7q62 27 95 96h64z" />
<glyph unicode="&#x1ed8;" horiz-adv-x="1593" d="M1396 739q28 132 34.5 233.5t-9.5 182.5q-49 262 -325 262q-245 0 -407 -227q-29 -43 -54.5 -92t-47 -102.5t-42 -120.5t-34.5 -136q-55 -257 -25 -415q49 -263 326 -263q244 0 406 228q57 83 103 194q21 53 41 122.5t34 133.5zM1658 739q-57 -267 -278 -499 q-260 -271 -588 -271q-307 0 -462 236q-147 225 -81 534q56 265 278 500q260 270 588 270q307 0 462 -235q146 -226 81 -535zM1186 1821l-295 -211h-72l328 340h129l184 -340h-71zM612 -281q10 48 56 91q44 36 100 36q45 0 78 -37.5t22 -89.5q-10 -45 -57 -86 q-24 -20 -47.5 -30.5t-47.5 -10.5q-50 0 -82.5 39t-21.5 88z" />
<glyph unicode="&#x1ed9;" d="M714 965q186 0 287 -136t53 -360q-32 -153 -112.5 -261.5t-199.5 -172t-244 -63.5q-176 0 -279 138q-46 66 -61 158q-6 44 -5 93q2 25 5 49.5t10 57.5q46 216 202 356.5t344 140.5zM699 894q-107 0 -203.5 -103t-142.5 -319q-46 -218 3.5 -323.5t161.5 -105.5 q117 0 211.5 103t143.5 337q46 213 -4.5 312t-169.5 99zM788 1292l-295 -211h-71l329 340h129l183 -340h-72zM564 -300q-9 -43 -55 -84q-23 -17 -47.5 -27t-46.5 -10q-43 0 -74 39q-12 19 -17.5 41t-0.5 45q9 45 53.5 81t92.5 36q46 0 75.5 -36.5t19.5 -84.5z" />
<glyph unicode="&#x1eda;" horiz-adv-x="1593" d="M1396 739q28 132 34.5 233.5t-9.5 182.5q-49 262 -325 262q-245 0 -407 -227q-29 -43 -54.5 -92t-47 -102.5t-42 -120.5t-34.5 -136q-55 -257 -25 -415q49 -263 326 -263q244 0 406 228q57 83 103 194q21 53 41 122.5t34 133.5zM1489 1378l48 37l25 29q19 20 43 57 q14 24 17 37q1 7 -1 12l-8 2l-10 -2h-33q-9 0 -18.5 2t-22.5 9q-36 30 -26 77q3 17 12 30t29 28q33 25 69 28q63 0 82 -45q8 -11 13 -41q7 -24 -2 -65q-14 -64 -64 -125q-21 -27 -48.5 -53t-66.5 -56q101 -108 135 -264.5t-4 -335.5q-57 -267 -278 -499q-260 -271 -588 -271 q-307 0 -462 236q-147 225 -81 534q56 265 278 500q260 270 588 270q58 0 109 -8t97 -26q96 -32 168 -97zM1333 1833l-328 -186h-90l343 284l29 25l43 26l42 15l43 8q25 0 31 -10l10 -19l-1 -22q-6 -27 -43 -68l-36 -28z" />
<glyph unicode="&#x1edb;" d="M699 894q-107 0 -203.5 -103t-142.5 -319q-46 -218 3.5 -323.5t161.5 -105.5q117 0 211.5 103t143.5 337q46 213 -4.5 312t-169.5 99zM967 870l47 34q46 36 77 64q19 17 21 28v5l-7 2l-11 -2h-33l-18 2l-22 8q-37 31 -27 78q3 12 13 28.5t29 30.5q34 27 68 27 q59 0 83 -45q10 -21 13.5 -48.5t-3.5 -58.5q-13 -62 -105 -135l-87 -63q97 -134 49 -356q-32 -153 -112.5 -261.5t-199.5 -172t-244 -63.5q-176 0 -279 138q-46 66 -61 158q-6 44 -5 93q2 25 5 49.5t10 57.5q46 216 202 356.5t344 140.5q160 0 253 -95zM969 1312l-335 -187 h-84l343 285l30 25q25 18 51 30q8 5 43 11q70 0 56 -66q-3 -18 -23 -41l-20 -19l-19 -14z" />
<glyph unicode="&#x1edc;" horiz-adv-x="1593" d="M1396 739q28 132 34.5 233.5t-9.5 182.5q-49 262 -325 262q-245 0 -407 -227q-29 -43 -54.5 -92t-47 -102.5t-42 -120.5t-34.5 -136q-55 -257 -25 -415q49 -263 326 -263q244 0 406 228q57 83 103 194q21 53 41 122.5t34 133.5zM1489 1378l48 37l25 29q19 20 43 57 q14 24 17 37q1 7 -1 12l-8 2l-10 -2h-33q-9 0 -18.5 2t-22.5 9q-36 30 -26 77q3 17 12 30t29 28q33 25 69 28q63 0 82 -45q8 -11 13 -41q7 -24 -2 -65q-14 -64 -64 -125q-21 -27 -48.5 -53t-66.5 -56q101 -108 135 -264.5t-4 -335.5q-57 -267 -278 -499q-260 -271 -588 -271 q-307 0 -462 236q-147 225 -81 534q56 265 278 500q260 270 588 270q58 0 109 -8t97 -26q96 -32 168 -97zM1012 1796l-32 23l-24 30q-3 4 -4.5 16t-2.5 29q5 22 27 43q21 17 56 23q28 0 39 -10q20 -6 32 -25l26 -31l223 -284h-84z" />
<glyph unicode="&#x1edd;" d="M699 894q-107 0 -203.5 -103t-142.5 -319q-46 -218 3.5 -323.5t161.5 -105.5q117 0 211.5 103t143.5 337q46 213 -4.5 312t-169.5 99zM967 870l47 34q46 36 77 64q19 17 21 28v5l-7 2l-11 -2h-33l-18 2l-22 8q-37 31 -27 78q3 12 13 28.5t29 30.5q34 27 68 27 q59 0 83 -45q10 -21 13.5 -48.5t-3.5 -58.5q-13 -62 -105 -135l-87 -63q97 -134 49 -356q-32 -153 -112.5 -261.5t-199.5 -172t-244 -63.5q-176 0 -279 138q-46 66 -61 158q-6 44 -5 93q2 25 5 49.5t10 57.5q46 216 202 356.5t344 140.5q160 0 253 -95zM608 1593l13 1 q24 0 53 -21q19 -13 45 -47l221 -285h-94l-244 186l-30 23l-26 24q-11 16 -10 45l1 17q3 12 15.5 30t55.5 27z" />
<glyph unicode="&#x1ede;" horiz-adv-x="1593" d="M1396 739q28 132 34.5 233.5t-9.5 182.5q-49 262 -325 262q-245 0 -407 -227q-29 -43 -54.5 -92t-47 -102.5t-42 -120.5t-34.5 -136q-55 -257 -25 -415q49 -263 326 -263q244 0 406 228q57 83 103 194q21 53 41 122.5t34 133.5zM1489 1378l48 37l25 29q19 20 43 57 q14 24 17 37q1 7 -1 12l-8 2l-10 -2h-33q-9 0 -18.5 2t-22.5 9q-36 30 -26 77q3 17 12 30t29 28q33 25 69 28q63 0 82 -45q8 -11 13 -41q7 -24 -2 -65q-14 -64 -64 -125q-21 -27 -48.5 -53t-66.5 -56q101 -108 135 -264.5t-4 -335.5q-57 -267 -278 -499q-260 -271 -588 -271 q-307 0 -462 236q-147 225 -81 534q56 265 278 500q260 270 588 270q58 0 109 -8t97 -26q96 -32 168 -97zM1160 1587h-45l7 35q2 9 5 20q2 11 7 17l56 61l48 52q55 56 70 126q14 68 -8.5 105t-88.5 37q-38 0 -77 -19q-22 -11 -30 -32q-3 -15 0 -19l6 -10q32 -24 25 -59 q-6 -25 -28.5 -43.5t-46.5 -18.5q-27 0 -46 25q-13 24 -5 61q12 57 78 109q24 19 54 32l65 17l50 4q45 0 78 -12t58 -40.5t32.5 -62t-2.5 -78.5q-12 -59 -65 -114q-8 -10 -18 -19t-25 -20l-68 -51l-59 -37q-8 -6 -27 -66z" />
<glyph unicode="&#x1edf;" d="M699 894q-107 0 -203.5 -103t-142.5 -319q-46 -218 3.5 -323.5t161.5 -105.5q117 0 211.5 103t143.5 337q46 213 -4.5 312t-169.5 99zM967 870l47 34q46 36 77 64q19 17 21 28v5l-7 2l-11 -2h-33l-18 2l-22 8q-37 31 -27 78q3 12 13 28.5t29 30.5q34 27 68 27 q59 0 83 -45q10 -21 13.5 -48.5t-3.5 -58.5q-13 -62 -105 -135l-87 -63q97 -134 49 -356q-32 -153 -112.5 -261.5t-199.5 -172t-244 -63.5q-176 0 -279 138q-46 66 -61 158q-6 44 -5 93q2 25 5 49.5t10 57.5q46 216 202 356.5t344 140.5q160 0 253 -95zM760 1163h-45l7 35 l5 20q2 10 8 18l55 61l48 51q56 58 70 127q15 70 -8 105.5t-89 35.5q-33 0 -78 -18q-26 -14 -29 -32q-3 -10 0 -20l6 -10q32 -25 25 -59q-5 -24 -28.5 -43t-46.5 -19q-27 0 -46 25q-13 24 -5 61q12 60 78 109l27 19l23 12l36 10l33 8l50 4q44 0 77.5 -12.5t58.5 -40.5 q48 -54 30 -139q-12 -58 -65 -115q-31 -32 -111 -90l-60 -37q-7 -6 -26 -66z" />
<glyph unicode="&#x1ee0;" horiz-adv-x="1593" d="M1396 739q28 132 34.5 233.5t-9.5 182.5q-49 262 -325 262q-245 0 -407 -227q-29 -43 -54.5 -92t-47 -102.5t-42 -120.5t-34.5 -136q-55 -257 -25 -415q49 -263 326 -263q244 0 406 228q57 83 103 194q21 53 41 122.5t34 133.5zM1489 1378l48 37l25 29q19 20 43 57 q14 24 17 37q1 7 -1 12l-8 2l-10 -2h-33q-9 0 -18.5 2t-22.5 9q-36 30 -26 77q3 17 12 30t29 28q33 25 69 28q63 0 82 -45q8 -11 13 -41q7 -24 -2 -65q-14 -64 -64 -125q-21 -27 -48.5 -53t-66.5 -56q101 -108 135 -264.5t-4 -335.5q-57 -267 -278 -499q-260 -271 -588 -271 q-307 0 -462 236q-147 225 -81 534q56 265 278 500q260 270 588 270q58 0 109 -8t97 -26q96 -32 168 -97zM1444 1851h59l-6 -18l-34 -64l-52 -63q-16 -16 -31 -27t-30 -18l-58 -21l-50 -6q-44 0 -94 19q-25 5 -86 43l-43 20q-6 3 -20 5.5t-25 4.5q-49 0 -81 -28l-26 -25 l-26 -39h-62q39 97 129 164q33 23 73 35l59 8h33l31 -10q11 -1 22 -5.5t21 -10.5l50 -27l59 -31l53 -8l39 6q59 25 96 96z" />
<glyph unicode="&#x1ee1;" d="M699 894q-107 0 -203.5 -103t-142.5 -319q-46 -218 3.5 -323.5t161.5 -105.5q117 0 211.5 103t143.5 337q46 213 -4.5 312t-169.5 99zM967 870l47 34q46 36 77 64q19 17 21 28v5l-7 2l-11 -2h-33l-18 2l-22 8q-37 31 -27 78q3 12 13 28.5t29 30.5q34 27 68 27 q59 0 83 -45q10 -21 13.5 -48.5t-3.5 -58.5q-13 -62 -105 -135l-87 -63q97 -134 49 -356q-32 -153 -112.5 -261.5t-199.5 -172t-244 -63.5q-176 0 -279 138q-46 66 -61 158q-6 44 -5 93q2 25 5 49.5t10 57.5q46 216 202 356.5t344 140.5q160 0 253 -95zM1183 1441v-6 q-3 -12 -16 -33l-28 -43l-32 -40l-21 -23q-27 -27 -60 -45l-34 -13l-24 -8q-27 -6 -50 -6q-45 0 -95 18q-24 6 -85 43l-25 13l-18 8l-20 6l-25 4q-50 0 -82 -29l-25 -24l-27 -39h-61q38 97 129 164q14 10 32 18.5t41 16.5l51 8q42 0 81 -15l113 -57q22 -12 39 -18l35 -4 l21 1q7 0 27 7q62 27 95 96h64z" />
<glyph unicode="&#x1ee2;" horiz-adv-x="1593" d="M1396 739q28 132 34.5 233.5t-9.5 182.5q-49 262 -325 262q-245 0 -407 -227q-29 -43 -54.5 -92t-47 -102.5t-42 -120.5t-34.5 -136q-55 -257 -25 -415q49 -263 326 -263q244 0 406 228q57 83 103 194q21 53 41 122.5t34 133.5zM1489 1378l48 37l25 29q19 20 43 57 q14 24 17 37q1 7 -1 12l-8 2l-10 -2h-33q-9 0 -18.5 2t-22.5 9q-36 30 -26 77q3 17 12 30t29 28q33 25 69 28q63 0 82 -45q8 -11 13 -41q7 -24 -2 -65q-14 -64 -64 -125q-21 -27 -48.5 -53t-66.5 -56q101 -108 135 -264.5t-4 -335.5q-57 -267 -278 -499q-260 -271 -588 -271 q-307 0 -462 236q-147 225 -81 534q56 265 278 500q260 270 588 270q58 0 109 -8t97 -26q96 -32 168 -97zM612 -281q10 48 56 91q44 36 100 36q45 0 78 -37.5t22 -89.5q-10 -45 -57 -86q-24 -20 -47.5 -30.5t-47.5 -10.5q-50 0 -82.5 39t-21.5 88z" />
<glyph unicode="&#x1ee3;" d="M699 894q-107 0 -203.5 -103t-142.5 -319q-46 -218 3.5 -323.5t161.5 -105.5q117 0 211.5 103t143.5 337q46 213 -4.5 312t-169.5 99zM967 870l47 34q46 36 77 64q19 17 21 28v5l-7 2l-11 -2h-33l-18 2l-22 8q-37 31 -27 78q3 12 13 28.5t29 30.5q34 27 68 27 q59 0 83 -45q10 -21 13.5 -48.5t-3.5 -58.5q-13 -62 -105 -135l-87 -63q97 -134 49 -356q-32 -153 -112.5 -261.5t-199.5 -172t-244 -63.5q-176 0 -279 138q-46 66 -61 158q-6 44 -5 93q2 25 5 49.5t10 57.5q46 216 202 356.5t344 140.5q160 0 253 -95zM598 -289 q-9 -44 -53.5 -82.5t-94.5 -38.5q-42 0 -76 39q-26 40 -16 86q10 45 54 81t91 36q50 0 78 -35.5t17 -85.5z" />
<glyph unicode="&#x1ee4;" horiz-adv-x="1669" d="M330 1386l20 93h684l-20 -93l-152 -10q-49 0 -72 -14q-10 -6 -20 -25l-175 -821q-32 -151 -22 -219.5t58 -122.5q49 -47 117 -76q75 -22 167 -22q110 0 206.5 45t174.5 137l30 41l38 76q14 33 22.5 57t13.5 47l139 654q31 145 -3.5 199t-181.5 54l20 93h577l-20 -93 q-154 0 -224 -92q-41 -56 -78 -233l-96 -449q-8 -38 -23 -98q-16 -60 -21 -82q-21 -72 -49 -121q-46 -92 -131 -173.5t-226 -131.5q-114 -37 -249 -37h-52h-13q-21 0 -39 4q-15 0 -36.5 3t-58.5 12q-39 7 -66 15.5t-55 25.5q-60 28 -100 77q-26 34 -44 68t-28 66 q-14 69 5 159l189 887l5 25l1 35q2 7 -20 22q-17 11 -50 14l-77 4h-65zM678 -281q9 46 56 91q46 36 100 36q47 0 79 -37t21 -90q-10 -47 -57 -87t-95 -40t-84 39q-14 19 -20 41t0 47z" />
<glyph unicode="&#x1ee5;" horiz-adv-x="1251" d="M222 844l18 86l361 20l-125 -585l-22 -115q-16 -75 24 -119l21 -16l30 -13q36 -10 72 -10q153 0 252 137q43 65 61 112q16 47 38 151l61 288q3 26 -2.5 39t-28.5 17l-56 4h-16h-28l-17 4h-37l18 86l392 20l-154 -723l-7 -31q-4 -22 -4 -33.5t11 -31.5q10 -12 30 -18 l83 -4h43l-19 -89l-373 -20l34 160q-34 -45 -74 -78q-18 -15 -42 -31q-18 -13 -49 -31q-44 -22 -95.5 -36.5t-96.5 -14.5q-111 0 -185 52t-77 139q-4 7 0 69l19 105l93 440q7 32 -2.5 44t-30.5 19q-11 3 -23.5 5t-26.5 2h-29h-41zM675 -289q-9 -44 -54 -82.5t-95 -38.5 q-42 0 -75 39q-26 40 -16 86q10 45 54 81t91 36q50 0 78 -35.5t17 -85.5z" />
<glyph unicode="&#x1ee6;" horiz-adv-x="1669" d="M330 1386l20 93h684l-20 -93l-152 -10q-49 0 -72 -14q-10 -6 -20 -25l-175 -821q-32 -151 -22 -219.5t58 -122.5q49 -47 117 -76q75 -22 167 -22q110 0 206.5 45t174.5 137l30 41l38 76q14 33 22.5 57t13.5 47l139 654q31 145 -3.5 199t-181.5 54l20 93h577l-20 -93 q-154 0 -224 -92q-41 -56 -78 -233l-96 -449q-8 -38 -23 -98q-16 -60 -21 -82q-21 -72 -49 -121q-46 -92 -131 -173.5t-226 -131.5q-114 -37 -249 -37h-52h-13q-21 0 -39 4q-15 0 -36.5 3t-58.5 12q-39 7 -66 15.5t-55 25.5q-60 28 -100 77q-26 34 -44 68t-28 66 q-14 69 5 159l189 887l5 25l1 35q2 7 -20 22q-17 11 -50 14l-77 4h-65zM1259 1573h-45l7 35q2 11 6 21q2 10 6 16l56 61l48 51q56 60 70 127q14 66 -9 105q-24 36 -88 36q-38 0 -78 -18q-23 -12 -30 -33q-3 -14 0 -18l7 -10q30 -26 23 -60q-5 -25 -27 -43t-47 -18 q-27 0 -46 24q-13 27 -5 62q12 57 78 108q22 19 54 33l65 16l50 5q88 0 136.5 -52.5t29.5 -140.5q-7 -31 -21.5 -58t-44.5 -57q-6 -8 -17.5 -18.5t-25.5 -20.5l-68 -51l-59 -37q-7 -6 -25 -65z" />
<glyph unicode="&#x1ee7;" horiz-adv-x="1251" d="M222 844l18 86l361 20l-125 -585l-22 -115q-16 -75 24 -119l21 -16l30 -13q36 -10 72 -10q153 0 252 137q43 65 61 112q16 47 38 151l61 288q3 26 -2.5 39t-28.5 17l-56 4h-16h-28l-17 4h-37l18 86l392 20l-154 -723l-7 -31q-4 -22 -4 -33.5t11 -31.5q10 -12 30 -18 l83 -4h43l-19 -89l-373 -20l34 160q-34 -45 -74 -78q-18 -15 -42 -31q-18 -13 -49 -31q-44 -22 -95.5 -36.5t-96.5 -14.5q-111 0 -185 52t-77 139q-4 7 0 69l19 105l93 440q7 32 -2.5 44t-30.5 19q-11 3 -23.5 5t-26.5 2h-29h-41zM849 1143h-45l7 35l4 19q2 9 8 17l24 28 l32 34l48 51q55 58 70 127q14 66 -9 103.5t-88 37.5q-33 0 -78 -18q-26 -12 -30 -32q-2 -9 1 -19l6 -10q32 -25 24 -60q-5 -24 -27.5 -42.5t-46.5 -18.5q-26 0 -47 24q-12 26 -5 62q13 59 78 108q27 22 54 33l32 8l34 8l50 4q44 0 77 -12.5t58 -40.5q49 -54 31 -139 q-6 -28 -21 -57q-7 -13 -18 -28t-26 -29q-29 -31 -112 -91l-60 -37q-7 -6 -25 -65z" />
<glyph unicode="&#x1ee8;" horiz-adv-x="1669" d="M1931 1386q-154 0 -224 -92q-41 -56 -78 -233l-96 -449q-8 -38 -23 -98q-16 -60 -21 -82q-21 -72 -49 -121q-46 -92 -131 -173.5t-226 -131.5q-114 -37 -249 -37h-52h-13q-21 0 -39 4q-15 0 -36.5 3t-58.5 12q-39 7 -66 15.5t-55 25.5q-60 28 -100 77q-26 34 -44 68 t-28 66q-14 69 5 159l189 887l5 25l1 35q2 7 -20 22q-17 11 -50 14l-77 4h-65l20 93h684l-20 -93l-152 -10q-49 0 -72 -14q-10 -6 -20 -25l-175 -821q-32 -151 -22 -219.5t58 -122.5q49 -47 117 -76q75 -22 167 -22q110 0 206.5 45t174.5 137l30 41l38 76q14 33 22.5 57 t13.5 47l139 654q31 145 -3.5 199t-181.5 54l20 93h577q33 12 43 59q3 12 -2 18l-7 3l-12 -3h-32q-18 0 -41 11q-36 30 -26 78q6 30 40 57q36 26 70 29q62 0 83 -45q5 -12 11.5 -39.5t-1.5 -67.5q-7 -35 -17.5 -60.5t-28.5 -45.5q-26 -38 -100 -87zM1378 1808l-328 -186h-91 l344 285l30 24l42 27l41 14l43 8q25 0 31 -10l10 -18v-23q-5 -26 -43 -67l-37 -29z" />
<glyph unicode="&#x1ee9;" horiz-adv-x="1251" d="M1202 782l-118 -555l-7 -31q-4 -22 -4 -33.5t11 -31.5q10 -12 30 -18l83 -4h43l-19 -89l-373 -20l34 160q-34 -45 -74 -78q-18 -15 -42 -31q-18 -13 -49 -31q-44 -22 -95.5 -36.5t-96.5 -14.5q-111 0 -185 52t-77 139q-4 7 0 69l19 105l93 440q7 32 -2.5 44t-30.5 19 q-11 3 -23.5 5t-26.5 2h-29h-41l18 86l361 20l-125 -585l-22 -115q-16 -75 24 -119l21 -16l30 -13q36 -10 72 -10q153 0 252 137q43 65 61 112q16 47 38 151l61 288q3 26 -2.5 39t-28.5 17l-56 4h-16h-28l-17 4h-37l18 86l392 20l-19 -88l54 51l43 48q19 22 25 39l-1 10 l-7 2l-11 -2h-33l-18 2l-23 8q-15 12 -25 33q-6 20 -1 45q3 12 13 28.5t29 30.5q34 27 68 27q59 0 82.5 -45.5t10.5 -106.5q-15 -71 -85 -141q-49 -48 -138 -109zM1017 1430l26 4q13 0 26 -5.5t27 -19.5q18 -19 10 -55q-3 -18 -32 -39l-47 -29l-335 -186h-84l343 284l30 25 l13 10z" />
<glyph unicode="&#x1eea;" horiz-adv-x="1669" d="M1931 1386q-154 0 -224 -92q-41 -56 -78 -233l-96 -449q-8 -38 -23 -98q-16 -60 -21 -82q-21 -72 -49 -121q-46 -92 -131 -173.5t-226 -131.5q-114 -37 -249 -37h-52h-13q-21 0 -39 4q-15 0 -36.5 3t-58.5 12q-39 7 -66 15.5t-55 25.5q-60 28 -100 77q-26 34 -44 68 t-28 66q-14 69 5 159l189 887l5 25l1 35q2 7 -20 22q-17 11 -50 14l-77 4h-65l20 93h684l-20 -93l-152 -10q-49 0 -72 -14q-10 -6 -20 -25l-175 -821q-32 -151 -22 -219.5t58 -122.5q49 -47 117 -76q75 -22 167 -22q110 0 206.5 45t174.5 137l30 41l38 76q14 33 22.5 57 t13.5 47l139 654q31 145 -3.5 199t-181.5 54l20 93h577q33 12 43 59q3 12 -2 18l-7 3l-12 -3h-32q-18 0 -41 11q-36 30 -26 78q6 30 40 57q36 26 70 29q62 0 83 -45q5 -12 11.5 -39.5t-1.5 -67.5q-7 -35 -17.5 -60.5t-28.5 -45.5q-26 -38 -100 -87zM1123 1796l-31 23l-26 32 q-7 18 -6 54q7 30 31 55q6 5 30 8l35 -6l32 -14q19 -7 26 -23l27 -31l222 -284h-84z" />
<glyph unicode="&#x1eeb;" horiz-adv-x="1251" d="M1202 782l-118 -555l-7 -31q-4 -22 -4 -33.5t11 -31.5q10 -12 30 -18l83 -4h43l-19 -89l-373 -20l34 160q-34 -45 -74 -78q-18 -15 -42 -31q-18 -13 -49 -31q-44 -22 -95.5 -36.5t-96.5 -14.5q-111 0 -185 52t-77 139q-4 7 0 69l19 105l93 440q7 32 -2.5 44t-30.5 19 q-11 3 -23.5 5t-26.5 2h-29h-41l18 86l361 20l-125 -585l-22 -115q-16 -75 24 -119l21 -16l30 -13q36 -10 72 -10q153 0 252 137q43 65 61 112q16 47 38 151l61 288q3 26 -2.5 39t-28.5 17l-56 4h-16h-28l-17 4h-37l18 86l392 20l-19 -88l54 51l71 54q45 34 50 48v5l-8 2 l-11 -2h-33l-18 2l-22 8q-19 15 -26 34q-6 22 -1 44q6 30 42 59q34 27 69 27q62 0 83 -47t9 -105q-5 -25 -22.5 -53.5t-46 -56.5t-207.5 -150zM698 1438l13 1q25 0 53 -22l21 -18l12 -13l12 -16l222 -285h-94l-245 187l-37 29l-19 18q-11 16 -12 37l3 24q3 13 15.5 30.5 t55.5 27.5z" />
<glyph unicode="&#x1eec;" horiz-adv-x="1669" d="M1931 1386q-154 0 -224 -92q-41 -56 -78 -233l-96 -449q-8 -38 -23 -98q-16 -60 -21 -82q-21 -72 -49 -121q-46 -92 -131 -173.5t-226 -131.5q-114 -37 -249 -37h-52h-13q-21 0 -39 4q-15 0 -36.5 3t-58.5 12q-39 7 -66 15.5t-55 25.5q-60 28 -100 77q-26 34 -44 68 t-28 66q-14 69 5 159l189 887l5 25l1 35q2 7 -20 22q-17 11 -50 14l-77 4h-65l20 93h684l-20 -93l-152 -10q-49 0 -72 -14q-10 -6 -20 -25l-175 -821q-32 -151 -22 -219.5t58 -122.5q49 -47 117 -76q75 -22 167 -22q110 0 206.5 45t174.5 137l30 41l38 76q14 33 22.5 57 t13.5 47l139 654q31 145 -3.5 199t-181.5 54l20 93h577q33 12 43 59q3 12 -2 18l-7 3l-12 -3h-32q-18 0 -41 11q-36 30 -26 78q6 30 40 57q36 26 70 29q62 0 83 -45q5 -12 11.5 -39.5t-1.5 -67.5q-7 -35 -17.5 -60.5t-28.5 -45.5q-26 -38 -100 -87zM1259 1573h-45l7 35 q2 11 6 21q2 10 6 16l56 61l48 51q56 60 70 127q14 66 -9 105q-24 36 -88 36q-38 0 -78 -18q-23 -12 -30 -33q-3 -14 0 -18l7 -10q30 -26 23 -60q-5 -25 -27 -43t-47 -18q-27 0 -46 24q-13 27 -5 62q12 57 78 108q22 19 54 33l65 16l50 5q88 0 136.5 -52.5t29.5 -140.5 q-7 -31 -21.5 -58t-44.5 -57q-6 -8 -17.5 -18.5t-25.5 -20.5l-68 -51l-59 -37q-7 -6 -25 -65z" />
<glyph unicode="&#x1eed;" horiz-adv-x="1251" d="M849 1143h-45l7 35l4 19q2 9 8 17l24 28l32 34l48 51q55 58 70 127q14 66 -9 103.5t-88 37.5q-33 0 -78 -18q-26 -12 -30 -32q-2 -9 1 -19l6 -10q32 -25 24 -60q-5 -24 -27.5 -42.5t-46.5 -18.5q-26 0 -47 24q-12 26 -5 62q13 59 78 108q27 22 54 33l32 8l34 8l50 4 q44 0 77 -12.5t58 -40.5q49 -54 31 -139q-6 -28 -21 -57q-7 -13 -18 -28t-26 -29q-29 -31 -112 -91l-60 -37q-7 -6 -25 -65zM1202 782l-118 -555l-7 -31q-4 -22 -4 -33.5t11 -31.5q10 -12 30 -18l83 -4h43l-19 -89l-373 -20l34 160q-34 -45 -74 -78q-18 -15 -42 -31 q-18 -13 -49 -31q-44 -22 -95.5 -36.5t-96.5 -14.5q-111 0 -185 52t-77 139q-4 7 0 69l19 105l93 440q7 32 -2.5 44t-30.5 19q-11 3 -23.5 5t-26.5 2h-29h-41l18 86l361 20l-125 -585l-22 -115q-16 -75 24 -119l21 -16l30 -13q36 -10 72 -10q153 0 252 137q43 65 61 112 q16 47 38 151l61 288q3 26 -2.5 39t-28.5 17l-56 4h-16h-28l-17 4h-37l18 86l392 20l-19 -88l54 51q18 20 43 58q14 23 17 36l-1 13l-7 2l-11 -2h-33l-18 2l-22 8q-19 15 -26 34q-6 22 -1 44q3 12 13 28.5t29 30.5q34 27 68 27q60 0 83 -45q10 -21 13.5 -48.5t-3.5 -58.5 q-15 -72 -80 -145l-26 -28l-32 -29q-36 -30 -77 -58z" />
<glyph unicode="&#x1eee;" horiz-adv-x="1669" d="M1931 1386q-154 0 -224 -92q-41 -56 -78 -233l-96 -449q-8 -38 -23 -98q-16 -60 -21 -82q-21 -72 -49 -121q-46 -92 -131 -173.5t-226 -131.5q-114 -37 -249 -37h-52h-13q-21 0 -39 4q-15 0 -36.5 3t-58.5 12q-39 7 -66 15.5t-55 25.5q-60 28 -100 77q-26 34 -44 68 t-28 66q-14 69 5 159l189 887l5 25l1 35q2 7 -20 22q-17 11 -50 14l-77 4h-65l20 93h684l-20 -93l-152 -10q-49 0 -72 -14q-10 -6 -20 -25l-175 -821q-32 -151 -22 -219.5t58 -122.5q49 -47 117 -76q75 -22 167 -22q110 0 206.5 45t174.5 137l30 41l38 76q14 33 22.5 57 t13.5 47l139 654q31 145 -3.5 199t-181.5 54l20 93h577q33 12 43 59q3 12 -2 18l-7 3l-12 -3h-32q-18 0 -41 11q-36 30 -26 78q6 30 40 57q36 26 70 29q62 0 83 -45q5 -12 11.5 -39.5t-1.5 -67.5q-7 -35 -17.5 -60.5t-28.5 -45.5q-26 -38 -100 -87zM1559 1851h60l-6 -18 l-35 -64l-52 -63q-30 -30 -61 -45l-57 -21l-50 -6q-45 0 -95 19q-27 6 -85 43l-43 20q-5 3 -19.5 5.5t-25.5 4.5q-49 0 -82 -28l-25 -25l-27 -39h-61q38 97 128 164q33 23 74 35l59 8h33l30 -10q10 -2 21.5 -5.5t22.5 -10.5l49 -27l59 -31l54 -8l38 6q61 26 96 96z" />
<glyph unicode="&#x1eef;" horiz-adv-x="1251" d="M1202 782l-118 -555l-7 -31q-4 -22 -4 -33.5t11 -31.5q10 -12 30 -18l83 -4h43l-19 -89l-373 -20l34 160q-34 -45 -74 -78q-18 -15 -42 -31q-18 -13 -49 -31q-44 -22 -95.5 -36.5t-96.5 -14.5q-111 0 -185 52t-77 139q-4 7 0 69l19 105l93 440q7 32 -2.5 44t-30.5 19 q-11 3 -23.5 5t-26.5 2h-29h-41l18 86l361 20l-125 -585l-22 -115q-16 -75 24 -119l21 -16l30 -13q36 -10 72 -10q153 0 252 137q43 65 61 112q16 47 38 151l61 288q3 26 -2.5 39t-28.5 17l-56 4h-16h-28l-17 4h-37l18 86l392 20l-19 -88l54 51q18 20 43 58q14 23 17 36 l-1 13l-7 2l-11 -2h-33l-18 2l-22 8q-19 15 -26 34q-6 22 -1 44q3 12 13 28.5t29 30.5q34 27 68 27q60 0 83 -45q10 -21 13.5 -48.5t-3.5 -58.5q-15 -72 -80 -145l-26 -28l-32 -29q-36 -30 -77 -58zM1243 1376v-6q-3 -12 -16 -33l-28 -43l-31 -39l-22 -25q-27 -27 -61 -45 l-24 -10l-36 -10q-24 -6 -47 -6q-45 0 -95 18q-24 6 -85 43l-24 13l-16 7l-23 7l-24 4q-50 0 -83 -29l-25 -24l-27 -39h-61q39 99 129 163l35 21l21 8l16 6l52 8q48 0 81 -14l113 -57l18 -11l21 -8l35 -4l21 1q7 0 25 7q63 27 97 97h64z" />
<glyph unicode="&#x1ef0;" horiz-adv-x="1669" d="M1931 1386q-154 0 -224 -92q-41 -56 -78 -233l-96 -449q-8 -38 -23 -98q-16 -60 -21 -82q-21 -72 -49 -121q-46 -92 -131 -173.5t-226 -131.5q-114 -37 -249 -37h-52h-13q-21 0 -39 4q-15 0 -36.5 3t-58.5 12q-39 7 -66 15.5t-55 25.5q-60 28 -100 77q-26 34 -44 68 t-28 66q-14 69 5 159l189 887l5 25l1 35q2 7 -20 22q-17 11 -50 14l-77 4h-65l20 93h684l-20 -93l-152 -10q-49 0 -72 -14q-10 -6 -20 -25l-175 -821q-32 -151 -22 -219.5t58 -122.5q49 -47 117 -76q75 -22 167 -22q110 0 206.5 45t174.5 137l30 41l38 76q14 33 22.5 57 t13.5 47l139 654q31 145 -3.5 199t-181.5 54l20 93h577q33 12 43 59q3 12 -2 18l-7 3l-12 -3h-32q-18 0 -41 11q-36 30 -26 78q6 30 40 57q36 26 70 29q62 0 83 -45q5 -12 11.5 -39.5t-1.5 -67.5q-7 -35 -17.5 -60.5t-28.5 -45.5q-26 -38 -100 -87zM662 -281q10 48 56 91 q44 36 100 36q45 0 78 -37t22 -90q-10 -47 -58 -86q-23 -20 -46.5 -30.5t-47.5 -10.5q-50 0 -82.5 39t-21.5 88z" />
<glyph unicode="&#x1ef1;" horiz-adv-x="1251" d="M1202 782l-118 -555l-7 -31q-4 -22 -4 -33.5t11 -31.5q10 -12 30 -18l83 -4h43l-19 -89l-373 -20l34 160q-34 -45 -74 -78q-18 -15 -42 -31q-18 -13 -49 -31q-44 -22 -95.5 -36.5t-96.5 -14.5q-111 0 -185 52t-77 139q-4 7 0 69l19 105l93 440q7 32 -2.5 44t-30.5 19 q-11 3 -23.5 5t-26.5 2h-29h-41l18 86l361 20l-125 -585l-22 -115q-16 -75 24 -119l21 -16l30 -13q36 -10 72 -10q153 0 252 137q43 65 61 112q16 47 38 151l61 288q3 26 -2.5 39t-28.5 17l-56 4h-16h-28l-17 4h-37l18 86l392 20l-19 -88l54 51q18 20 43 58q14 23 17 36 l-1 13l-7 2l-11 -2h-33l-18 2l-22 8q-19 15 -26 34q-6 22 -1 44q3 12 13 28.5t29 30.5q34 27 68 27q60 0 83 -45q10 -21 13.5 -48.5t-3.5 -58.5q-15 -72 -80 -145l-26 -28l-32 -29q-36 -30 -77 -58zM718 -289q-9 -44 -54 -82.5t-95 -38.5q-42 0 -75 39q-26 40 -16 86 q10 45 54 81t91 36q50 0 78 -35.5t17 -85.5z" />
<glyph unicode="&#x1ef2;" horiz-adv-x="1442" d="M944 1479l-20 -93h-66h-24l-26 3l-53 -7q-18 0 -32 -14q-8 -9 -11 -22l-2 -29l7 -25l9 -18l227 -551l332 430l59 82l21 57l1 39q-7 15 -11.5 21.5t-9.5 9.5q-37 13 -74 18l-93 6l20 93h577l-20 -93q-105 0 -182 -49q-56 -35 -142 -147l-449 -582l-83 -389 q-17 -82 -5 -106q17 -21 101 -21h115l-20 -92h-703l20 92h62h47q58 0 87 8t50 39l18 58l10 47l74 346l-273 653l-30 72q-20 40 -56 55q-35 16 -78 16h-50l20 93h656zM1013 1796l-32 23l-26 32q-7 16 -5 54q7 31 30 55q6 5 31 8l35 -6l32 -14q18 -6 26 -23l26 -31l223 -284 h-84z" />
<glyph unicode="&#x1ef3;" horiz-adv-x="1100" d="M155 -291l-5 -6l-2 -18l8 -9l12 -1q82 0 198 128l159 213l-169 752q-15 71 -41 90q-12 9 -36.5 15t-64.5 6l15 71h483l-15 -71l-38 -2h-35q-32 0 -50.5 -10.5t-25.5 -40.5l2 -23l8 -37l110 -522l257 422l32 51l20 35q18 30 20 41q11 52 -11 69q-10 8 -32 12.5t-46 4.5 h-37l15 71h403l-15 -71q-59 0 -104 -29q-39 -21 -114 -137l-387 -627l-98 -147q-132 -198 -258 -287q-102 -72 -207 -72q-80 0 -125 37q-47 45 -30 123q10 47 54 84q22 15 47 25q23 8 48 8q31 0 58.5 -24t19.5 -62l-3 -14l-6 -22q-6 -16 -14 -26zM766 1417l13 1q24 0 53 -21 q19 -13 45 -47l221 -285h-94l-244 186l-30 23l-26 24q-11 16 -11 45l2 17q2 12 15 30t56 27z" />
<glyph unicode="&#x1ef4;" horiz-adv-x="1442" d="M944 1479l-20 -93h-66h-24l-26 3l-53 -7q-18 0 -32 -14q-8 -9 -11 -22l-2 -29l7 -25l9 -18l227 -551l332 430l59 82l21 57l1 39q-7 15 -11.5 21.5t-9.5 9.5q-37 13 -74 18l-93 6l20 93h577l-20 -93q-105 0 -182 -49q-56 -35 -142 -147l-449 -582l-83 -389 q-17 -82 -5 -106q17 -21 101 -21h115l-20 -92h-703l20 92h62h47q58 0 87 8t50 39l18 58l10 47l74 346l-273 653l-30 72q-20 40 -56 55q-35 16 -78 16h-50l20 93h656zM531 -281q10 48 56 91q44 36 100 36q45 0 78 -37.5t22 -89.5q-10 -47 -58 -86q-23 -20 -46.5 -30.5 t-47.5 -10.5q-50 0 -82.5 39t-21.5 88z" />
<glyph unicode="&#x1ef5;" horiz-adv-x="1100" d="M155 -291l-5 -6l-2 -18l8 -9l12 -1q82 0 198 128l159 213l-169 752q-15 71 -41 90q-12 9 -36.5 15t-64.5 6l15 71h483l-15 -71l-38 -2h-35q-32 0 -50.5 -10.5t-25.5 -40.5l2 -23l8 -37l110 -522l257 422l32 51l20 35q18 30 20 41q11 52 -11 69q-10 8 -32 12.5t-46 4.5 h-37l15 71h403l-15 -71q-59 0 -104 -29q-39 -21 -114 -137l-387 -627l-98 -147q-132 -198 -258 -287q-102 -72 -207 -72q-80 0 -125 37q-47 45 -30 123q10 47 54 84q22 15 47 25q23 8 48 8q31 0 58.5 -24t19.5 -62l-3 -14l-6 -22q-6 -16 -14 -26zM819 -289q-9 -43 -54 -84 q-23 -17 -47.5 -27t-46.5 -10q-43 0 -74 39q-13 19 -18.5 41t-0.5 45q10 45 54 81t92 36q46 0 76 -36.5t19 -84.5z" />
<glyph unicode="&#x1ef6;" horiz-adv-x="1442" d="M944 1479l-20 -93h-66h-24l-26 3l-53 -7q-18 0 -32 -14q-8 -9 -11 -22l-2 -29l7 -25l9 -18l227 -551l332 430l59 82l21 57l1 39q-7 15 -11.5 21.5t-9.5 9.5q-37 13 -74 18l-93 6l20 93h577l-20 -93q-105 0 -182 -49q-56 -35 -142 -147l-449 -582l-83 -389 q-17 -82 -5 -106q17 -21 101 -21h115l-20 -92h-703l20 92h62h47q58 0 87 8t50 39l18 58l10 47l74 346l-273 653l-30 72q-20 40 -56 55q-35 16 -78 16h-50l20 93h656zM1144 1573h-45l7 35q3 11 6 21q2 10 6 16l56 61l48 51q55 58 70 127q14 68 -8.5 104.5t-88.5 36.5 q-36 0 -78 -18q-21 -11 -29 -33q-3 -14 0 -18l6 -10q32 -25 24 -60q-5 -25 -27.5 -43t-47.5 -18t-46 24q-12 26 -4 62q12 57 78 108q19 18 54 33l65 16l50 5q87 0 135.5 -53t30.5 -140q-12 -58 -65 -115q-13 -14 -19.5 -19.5t-24.5 -19.5l-69 -51l-58 -37q-8 -6 -26 -65z " />
<glyph unicode="&#x1ef7;" horiz-adv-x="1100" d="M155 -291l-5 -6l-2 -18l8 -9l12 -1q82 0 198 128l159 213l-169 752q-15 71 -41 90q-12 9 -36.5 15t-64.5 6l15 71h483l-15 -71l-38 -2h-35q-32 0 -50.5 -10.5t-25.5 -40.5l2 -23l8 -37l110 -522l257 422l32 51l20 35q18 30 20 41q11 52 -11 69q-10 8 -32 12.5t-46 4.5 h-37l15 71h403l-15 -71q-59 0 -104 -29q-39 -21 -114 -137l-387 -627l-98 -147q-132 -198 -258 -287q-102 -72 -207 -72q-80 0 -125 37q-47 45 -30 123q10 47 54 84q22 15 47 25q23 8 48 8q31 0 58.5 -24t19.5 -62l-3 -14l-6 -22q-6 -16 -14 -26zM892 1143h-45l7 35l4 19 q2 9 8 17l24 28l32 34l48 51q55 58 70 127q14 66 -9 103.5t-88 37.5q-33 0 -78 -18q-26 -12 -30 -32q-2 -9 1 -19l6 -10q32 -25 24 -60q-5 -24 -27.5 -42.5t-46.5 -18.5q-26 0 -47 24q-12 26 -4 62q12 59 78 108q26 22 54 33l31 8l34 8l50 4q44 0 77.5 -12.5t58.5 -40.5 q48 -54 30 -139q-6 -28 -21 -57q-7 -13 -18 -28t-26 -29q-29 -31 -112 -91l-58 -37q-8 -6 -27 -65z" />
<glyph unicode="&#x1ef8;" horiz-adv-x="1442" d="M944 1479l-20 -93h-66h-24l-26 3l-53 -7q-18 0 -32 -14q-8 -9 -11 -22l-2 -29l7 -25l9 -18l227 -551l332 430l59 82l21 57l1 39q-7 15 -11.5 21.5t-9.5 9.5q-37 13 -74 18l-93 6l20 93h577l-20 -93q-105 0 -182 -49q-56 -35 -142 -147l-449 -582l-83 -389 q-17 -82 -5 -106q17 -21 101 -21h115l-20 -92h-703l20 92h62h47q58 0 87 8t50 39l18 58l10 47l74 346l-273 653l-30 72q-20 40 -56 55q-35 16 -78 16h-50l20 93h656zM1502 1851h59l-6 -18l-34 -64l-52 -63q-30 -30 -61 -45l-58 -21l-50 -6q-44 0 -94 19q-27 6 -85 43l-43 20 q-7 3 -22 6t-23 4q-26 0 -45 -6.5t-37 -21.5l-26 -25l-26 -39h-62q40 99 130 164q16 12 33 20t39 15l60 8h32l31 -10q9 -1 19 -4t24 -12l49 -27l60 -31l53 -8l38 6q62 26 97 96z" />
<glyph unicode="&#x1ef9;" horiz-adv-x="1100" d="M155 -291l-5 -6l-2 -18l8 -9l12 -1q82 0 198 128l159 213l-169 752q-15 71 -41 90q-12 9 -36.5 15t-64.5 6l15 71h483l-15 -71l-38 -2h-35q-32 0 -50.5 -10.5t-25.5 -40.5l2 -23l8 -37l110 -522l257 422l32 51l20 35q18 30 20 41q11 52 -11 69q-10 8 -32 12.5t-46 4.5 h-37l15 71h403l-15 -71q-59 0 -104 -29q-39 -21 -114 -137l-387 -627l-98 -147q-132 -198 -258 -287q-102 -72 -207 -72q-80 0 -125 37q-47 45 -30 123q10 47 54 84q22 15 47 25q23 8 48 8q31 0 58.5 -24t19.5 -62l-3 -14l-6 -22q-6 -16 -14 -26zM1237 1323v-6 q-3 -12 -16 -33l-27 -43q-38 -51 -53 -63q-28 -28 -59 -44q-21 -9 -60 -22q-25 -6 -50 -6q-42 0 -94 18l-46 21l-39 22q-19 13 -43 21l-20 6l-25 4q-51 0 -82 -29q-14 -9 -26 -24l-26 -39h-62q39 99 130 164q17 13 35 21l37 14l51 8q45 0 81 -15l113 -57l39 -18l36 -4l21 1 q7 0 26 7q60 27 96 96h63z" />
<glyph unicode="&#x2018;" horiz-adv-x="418" d="M649 1521l23 -42q-110 -68 -173.5 -140t-73.5 -122q-7 -34 17 -34l10 1q25 6 41 6q41 0 67 -32.5t16 -80.5q-11 -53 -53 -90.5t-85 -37.5q-59 0 -99 54.5t-22 141.5q44 205 332 376z" />
<glyph unicode="&#x2019;" horiz-adv-x="418" d="M295 943l-22 45q114 71 175.5 140.5t71.5 119.5q3 13 0 23t-16 11l-10 -2q-25 -6 -42 -6q-44 0 -69 32q-24 34 -15 79q11 48 52 86.5t86 38.5q60 0 99.5 -54.5t21.5 -138.5q-21 -100 -98.5 -191t-233.5 -183z" />
<glyph unicode="&#x201c;" horiz-adv-x="797" d="M650 1521l23 -42q-110 -68 -173.5 -140t-73.5 -122q-7 -34 17 -34l10 1q25 6 41 6q41 0 67 -32.5t16 -80.5q-11 -53 -53 -90.5t-85 -37.5q-59 0 -99 54.5t-22 141.5q44 205 332 376zM1060 1521l24 -42q-110 -68 -173.5 -140t-73.5 -122q-7 -34 16 -34l10 1q25 6 41 6 q42 0 68 -32.5t16 -80.5q-11 -53 -53 -90.5t-85 -37.5q-61 0 -100 54.5t-21 141.5q45 209 331 376z" />
<glyph unicode="&#x201d;" horiz-adv-x="797" d="M245 943l-22 45q114 71 175.5 140.5t71.5 119.5q3 13 0 23t-16 11l-10 -2q-25 -6 -41 -6q-45 0 -70 32q-24 34 -15 79q11 48 52 86.5t86 38.5q60 0 99.5 -54.5t21.5 -138.5q-43 -203 -332 -374zM656 943l-22 45q114 71 175.5 140.5t71.5 118.5q3 14 -1 25q-4 8 -16 10 l-10 -2q-25 -6 -41 -6q-44 0 -69 32q-24 34 -15 79q11 48 52 86.5t86 38.5q60 0 99.5 -54.5t21.5 -138.5q-43 -204 -332 -374z" />
<glyph unicode="&#x2026;" horiz-adv-x="1355" d="M332 218q48 0 76 -36.5t18 -85.5q-11 -52 -54 -88t-94 -36q-44 0 -78 36q-27 37 -16 87q11 52 54 87.5t94 35.5zM713 218q48 0 76 -36.5t18 -85.5q-11 -52 -54 -88t-94 -36q-44 0 -78 36q-27 37 -16 87q11 52 54 87.5t94 35.5zM1084 219q48 0 76 -36.5t18 -85.5 q-11 -52 -53.5 -88t-93.5 -36q-44 0 -79 36q-27 37 -16 87q11 52 54 87.5t94 35.5z" />
<glyph unicode="&#xe000;" horiz-adv-x="935" d="M0 935h935v-935h-935v935z" />
</font>
</defs>
</svg>
