<?xml version="1.0" encoding="UTF-8" standalone="no"?>
<!-- Created with Inkscape (http://www.inkscape.org/) -->

<svg
   xmlns:dc="http://purl.org/dc/elements/1.1/"
   xmlns:cc="http://creativecommons.org/ns#"
   xmlns:rdf="http://www.w3.org/1999/02/22-rdf-syntax-ns#"
   xmlns:svg="http://www.w3.org/2000/svg"
   xmlns="http://www.w3.org/2000/svg"
   version="1.1"
   width="25.000004"
   height="25.000004"
   id="svg4038">
  <defs
     id="defs4040" />
  <metadata
     id="metadata4043">
    <rdf:RDF>
      <cc:Work
         rdf:about="">
        <dc:format>image/svg+xml</dc:format>
        <dc:type
           rdf:resource="http://purl.org/dc/dcmitype/StillImage" />
        <dc:title></dc:title>
      </cc:Work>
    </rdf:RDF>
  </metadata>
  <g
     transform="translate(-423.10919,-540.06534)"
     id="layer1">
    <g
       transform="matrix(0.02932512,0.02932504,-0.02932512,0.02932504,294.48286,352.67009)"
       id="g4034">
      <rect
         width="602.80792"
         height="602.80792"
         x="4518.6216"
         y="-3704.3403"
         transform="matrix(0.70710678,0.70710678,-0.70710678,0.70710678,0,0)"
         id="rect3857"
         style="fill:#5a2e2e;fill-opacity:1;stroke:none" />
      <path
         d="m 5768.0304,622.25077 -43.2187,43.21875 c 5.6144,4.23233 11.0797,9.62271 13.7187,13.875 9.2325,14.87494 9.6724,34.07507 1.2188,53.53125 -5.5491,12.77121 -7.4539,14.70622 -9.125,9.1875 -1.1822,-3.90486 -6.6707,-10.59348 -11.7188,-14.25 -9.8015,-7.0996 -20.5316,-8.87106 -31.0937,-5.15625 -5.1212,1.80121 -7.222,3.12922 -11.375,7.28125 -14.1894,14.18661 -20.4205,41.54223 -14.0625,61.78125 l 2.4375,7.8125 4.25,-4.21875 c 7.5767,-7.57672 13.9307,-8.88178 18.9063,-3.90625 5.1383,5.13829 3.6343,10.40474 -6.0626,21.15625 l -3.2187,3.5 6.4687,2.3125 c 7.5013,2.67751 13.515,1.98385 19.0938,-2.25 7.5123,-5.70116 9.9824,-14.98965 5.9688,-22.4375 -2.2713,-4.21425 -8.4952,-8.66219 -15.3126,-10.875 -5.301,-1.72103 -5.3944,-1.81476 -3.3124,-4.9375 2.7192,-4.07889 11.9718,-10.30194 17.9374,-12.0625 13,-3.83647 29.5607,4.03767 37.1876,17.65625 4.8548,8.66876 4.7153,20.7269 -0.4063,32.375 -3.3544,7.62874 -14.6258,19.91638 -22,23.96875 -16.8529,9.26129 -33.1685,8.49629 -50.2813,-2.375 -3.4233,-2.17483 -7.0385,-4.75728 -8.0312,-5.75 -1.107,-1.10699 -2.2137,-1.41135 -2.8438,-0.78125 -0.7961,0.79613 -0.1787,1.69136 2.6563,4.0625 2.0119,1.6827 5.8514,4.91715 8.5313,7.1875 4.0576,3.43795 5.6599,4.21125 9.625,4.46875 4.9685,0.32273 8.1453,1.39233 20.1874,6.875 4.6225,2.10452 9.4251,3.39577 13.2813,3.5625 l 6.0313,0.25 -5.4376,4.625 c -2.9953,2.53952 -7.0898,5.2709 -9.0937,6.09375 -3.1502,1.29353 -3.5112,1.6451 -2.625,2.53125 1.1773,1.17732 10.7582,30.86679 10.1563,31.46875 -0.219,0.21878 -5.6456,-0.82331 -12.0626,-2.3125 -10.3642,-2.4054 -14.2595,-3.73601 -20.1874,-6.84375 -1.553,-0.81414 -1.7151,-0.65328 -2.7188,2.5 -0.5887,1.84943 -3.3744,5.93804 -6.1562,9.09375 l -5.0313,5.75 0.4375,-3.5 c 0.661,-5.38934 -1.0703,-12.54597 -5.2812,-21.8125 -2.1873,-4.81334 -4.0459,-10.77967 -4.2813,-13.8125 -0.3868,-4.98352 -0.802,-5.80916 -6.6563,-12.8125 -8.3912,-10.03846 -8.5686,-10.18136 -9.75,-9 -0.6434,0.64368 -0.1818,2.17565 1.2188,4.09375 9.5958,13.14239 13.2693,22.22366 13.5312,33.3125 0.3208,13.57977 -4.1716,24.14036 -14.7812,34.75 -13.153,13.15297 -29.5264,18.37069 -43.1562,13.71875 -5.2547,-1.79344 -6.7732,-2.86687 -12.6876,-8.78125 -5.9292,-5.92941 -6.9346,-7.40066 -8.75,-12.71875 -2.5292,-7.41078 -2.1068,-16.45987 1.0938,-22.84375 2.3759,-4.73914 10.9093,-14.49858 12.6875,-14.5 0.5065,-4.2e-4 1.7179,2.58995 2.7187,5.75 1.4813,4.67722 2.7698,6.69111 6.875,10.84375 5.9944,6.06357 9.4249,6.97555 16.6876,4.625 11.0513,-3.57675 16.1693,-15.99021 11.4062,-27.625 -2.0524,-5.01319 -2.4103,-5.02504 -7.1875,-0.28125 -9.1141,9.05026 -19.1037,9.21826 -21.7813,0.375 -0.9854,-3.25464 2.0209,-10.20395 6.25,-14.46875 2.0333,-2.05025 3.5181,-3.91945 3.3126,-4.125 -0.2057,-0.20554 -3.3621,-1.36139 -7,-2.5625 -9.6544,-3.18723 -27.0359,-2.85964 -38.0313,0.6875 -4.7048,1.51785 -10.7974,3.97762 -13.5313,5.46875 -6.9224,3.77594 -14.0001,11.088 -16.9062,17.46875 -6.7377,14.79368 1.3473,35.89757 16.6562,43.4375 3.1221,1.53757 5.6876,3.08836 5.6876,3.4375 0,0.97358 -12.8242,7.35229 -18.7813,9.34375 -25.2501,8.4412 -47.6735,2.13063 -61.4063,-17.3125 l -44.1874,44.1875 333.3124,0 0,-333.3125 z m 92.9376,0 0,333.3125 333.3124,0 -53.8124,-53.8125 c -2.1994,-0.37833 -5.6922,-1.08947 -9.75,-2.03125 -10.3644,-2.4054 -14.2594,-3.73601 -20.1876,-6.84375 -1.5529,-0.81414 -1.715,-0.65328 -2.7187,2.5 -0.5887,1.84943 -3.3743,5.93797 -6.1563,9.09375 l -5.0624,5.75 0.4374,-3.46875 c 0.6609,-5.38934 -1.0703,-12.57722 -5.2812,-21.84375 -2.1872,-4.81327 -4.046,-10.74842 -4.2812,-13.78125 -0.3869,-4.98346 -0.8333,-5.87159 -6.6876,-12.875 -8.3914,-10.03839 -8.5373,-10.15011 -9.7187,-8.96875 -0.6436,0.64368 -0.1816,2.17557 1.2187,4.09375 9.596,13.14231 13.3004,22.22359 13.5626,33.3125 0.3208,13.5797 -4.1716,24.14036 -14.7813,34.75 -13.1529,13.1529 -29.5577,18.33944 -43.1875,13.6875 -5.2545,-1.79344 -6.7732,-2.83569 -12.6875,-8.75 -5.9294,-5.92941 -6.966,-7.40058 -8.7813,-12.71875 -2.5294,-7.41077 -2.0753,-16.46001 1.125,-22.84375 2.3761,-4.73921 10.9093,-14.49851 12.6876,-14.5 0.5065,-4.2e-4 1.7491,2.58995 2.75,5.75 1.4812,4.67722 2.7697,6.69111 6.875,10.84375 5.9943,6.06357 9.3623,7.00666 16.625,4.65625 11.0514,-3.57682 16.2318,-16.02146 11.4687,-27.65625 -2.0524,-5.01319 -2.4727,-5.02511 -7.25,-0.28125 -9.114,9.05026 -19.1037,9.2184 -21.7813,0.375 -0.9853,-3.25456 2.0522,-10.20409 6.2813,-14.46875 2.0333,-2.05032 3.5181,-3.91945 3.3125,-4.125 -0.2055,-0.20554 -3.3619,-1.33021 -7,-2.53125 -9.6545,-3.18722 -27.0359,-2.92221 -38.0312,0.625 -4.7048,1.5177 -10.7977,4.00895 -13.5313,5.5 -6.9226,3.77594 -14,11.11925 -16.9063,17.5 -6.7376,14.79368 1.3473,35.86646 16.6563,43.40625 3.1219,1.53771 5.6876,3.08836 5.6875,3.4375 1e-4,0.97358 -12.8553,7.35222 -18.8125,9.34375 -25.2589,8.44405 -47.6747,2.11555 -61.4063,-17.34375 -12.4575,-17.65405 -14.2369,-40.39797 -4.8124,-60.5625 8.2596,-17.6723 32.1474,-35.68943 55,-41.4375 30.2313,-7.60413 64.8298,0.37182 92.3437,21.25 4.0545,3.0766 7.3901,5.01625 7.8437,4.5625 0.5566,-0.55656 -0.6825,-1.94433 -4.2187,-4.65625 -20.2193,-15.50709 -46.3117,-27.98174 -77.3437,-37.0625 -17.8255,-5.21627 -22.7149,-7.75148 -32.2813,-16.53125 -14.7149,-13.50494 -16.4077,-17.1421 -35,-74.40625 -6.9512,-21.40973 -13.8615,-42.00303 -15.3437,-45.75 -1.054,-2.66421 -1.8502,-5.01842 -2.1563,-6.28125 l -28.2187,-28.21875 z m -237.3438,144.40625 -3.5625,3.5625 c 1.3257,3.03778 2.6583,5.8929 4.0625,8.65625 7.86,15.46747 23.0447,38.3303 24.5,36.875 0.3303,-0.33029 -0.5359,-2.15841 -1.9375,-4.0625 -11.6257,-15.79338 -19.077,-30.26372 -23.0625,-45.03125 z m -39.8438,39.84375 -3.7187,3.71875 c 14.5366,3.87641 28.69,10.74185 41.3437,20.34375 4.0544,3.07667 7.3901,5.01611 7.8438,4.5625 0.5566,-0.55663 -0.6825,-1.91308 -4.2188,-4.625 -11.8108,-9.0583 -25.626,-17.07433 -41.25,-24 z m -149.0624,242.00003 28.1562,28.1562 c -0.1091,-0.47 -0.1564,-0.8066 -0.094,-0.875 0.029,-0.031 0.1243,-0.04 0.25,-0.031 0.8801,0.062 4.0046,1.0612 7.5626,2.4375 4.0661,1.5729 25.0496,8.4836 46.625,15.375 42.5769,13.5996 50.6518,16.7221 60.5312,23.2187 16.202,10.6547 21.2243,18.7206 31.8125,51.1563 5.6708,17.3712 9.7034,27.6569 14.5625,37.2187 7.8599,15.4676 23.0447,38.3303 24.5,36.875 0.3303,-0.3303 -0.5359,-2.1584 -1.9375,-4.0625 -17.6537,-23.9824 -25.7652,-44.9246 -26.5625,-68.5 -0.4223,-12.489 1.1755,-23.5037 5.125,-34.9687 5.0623,-14.6952 9.713,-22.0065 21.375,-33.8125 10.5458,-10.6761 15.5841,-14.1101 25.8438,-17.4688 12.7741,-4.1819 31.5195,-2.7411 44.1562,3.375 7.6599,3.7074 17.9495,12.656 21.9062,19.0313 9.2325,14.8748 9.6725,34.1062 1.2188,53.5625 -5.5489,12.771 -7.4228,14.6438 -9.0938,9.125 -1.1821,-3.9048 -6.7019,-10.5311 -11.75,-14.1875 -9.8015,-7.0996 -20.5315,-8.9024 -31.0937,-5.1875 -5.1211,1.8011 -7.2221,3.1604 -11.375,7.3125 -14.1894,14.1866 -20.4205,41.5422 -14.0625,61.7812 l 2.4688,7.7813 4.2187,-4.2188 c 7.5769,-7.5768 13.9309,-8.8818 18.9063,-3.9062 5.1383,5.1383 3.6032,10.4046 -6.0938,21.1562 l -3.1875,3.5313 6.4687,2.2812 c 7.5011,2.6776 13.515,1.9839 19.0938,-2.25 7.5122,-5.7011 9.9826,-15.0209 5.9688,-22.4687 -2.2713,-4.2143 -8.5264,-8.631 -15.3438,-10.8438 -5.3011,-1.721 -5.363,-1.7835 -3.2812,-4.9062 2.7192,-4.079 11.9717,-10.302 17.9374,-12.0625 13,-3.8365 29.592,4.0064 37.2188,17.625 4.8548,8.6687 4.7154,20.7269 -0.4062,32.375 -3.3543,7.6287 -14.6571,19.9164 -22.0313,23.9687 -16.8529,9.2613 -33.1372,8.4963 -50.25,-2.375 -3.4234,-2.1748 -7.0698,-4.7572 -8.0625,-5.75 -1.107,-1.107 -2.1824,-1.4113 -2.8125,-0.7812 -0.7962,0.7962 -0.21,1.6913 2.625,4.0625 2.0119,1.6827 5.8514,4.9484 8.5313,7.2187 4.0576,3.438 5.6599,4.1488 9.625,4.4063 4.9683,0.3227 8.1767,1.4236 20.2187,6.9062 4.6224,2.1045 9.3938,3.3646 13.25,3.5313 l 6.0313,0.2812 -5.4376,4.5938 c -2.9953,2.5395 -7.0899,5.3022 -9.0937,6.125 -3.1502,1.2935 -3.5112,1.6763 -2.625,2.5625 1.1773,1.1773 10.7583,30.8355 10.1563,31.4375 -0.079,0.079 -0.9901,-0.071 -2.2188,-0.2813 l 53.8125,53.8125 0,-333.3437 -333.3437,0 z m 426.25,0 0.031,333.2812 44.1562,-44.1562 c -12.4575,-17.6541 -14.237,-40.3979 -4.8124,-60.5625 8.2593,-17.6722 32.1474,-35.6895 55,-41.4375 16.3001,-4.1001 33.8848,-3.664 50.9374,0.875 l 3.7188,-3.7188 c -11.1189,-4.93 -23.1408,-9.3216 -36.0312,-13.0937 -17.8255,-5.2163 -22.7149,-7.689 -32.2813,-16.4688 -14.7149,-13.505 -16.4077,-17.1733 -35,-74.4375 -6.9512,-21.4097 -13.8614,-41.9718 -15.3437,-45.7187 -1.4823,-3.747 -2.4792,-7.0312 -2.25,-7.2813 0.029,-0.031 0.093,-0.04 0.2187,-0.031 0.8799,0.062 4.0046,1.0611 7.5625,2.4375 4.0663,1.5728 25.0496,8.4836 46.625,15.375 42.5771,13.5996 50.6521,16.6907 60.5312,23.1875 16.2022,10.6546 21.2555,18.7518 31.8438,51.1875 4.0283,12.3404 7.188,21.0709 10.4375,28.5312 l 3.5625,-3.5625 c -2.0602,-7.6449 -3.197,-15.3692 -3.4688,-23.4062 -0.4224,-12.489 1.2068,-23.535 5.1563,-35 5.0622,-14.6951 9.6506,-22.0377 21.3125,-33.8438 10.5458,-10.6759 15.6154,-14.0787 25.875,-17.4375 12.7743,-4.1819 31.4883,-2.7724 44.125,3.3438 2.5443,1.2314 5.3822,3.0501 8.1875,5.1562 l 43.2187,-43.2187 -333.3124,0 z"
         id="rect3185"
         style="fill:#3f2020;fill-opacity:1;stroke:none" />
    </g>
  </g>
</svg>
