<?xml version="1.0" encoding="UTF-8" standalone="no"?>
<!-- Created with Inkscape (http://www.inkscape.org/) -->

<svg
   xmlns:dc="http://purl.org/dc/elements/1.1/"
   xmlns:cc="http://creativecommons.org/ns#"
   xmlns:rdf="http://www.w3.org/1999/02/22-rdf-syntax-ns#"
   xmlns:svg="http://www.w3.org/2000/svg"
   xmlns="http://www.w3.org/2000/svg"
   xmlns:sodipodi="http://sodipodi.sourceforge.net/DTD/sodipodi-0.dtd"
   xmlns:inkscape="http://www.inkscape.org/namespaces/inkscape"
   id="svg3055"
   version="1.1"
   inkscape:version="0.48.3.1 r9886"
   width="282.125"
   height="160.97099"
   sodipodi:docname="header.png">
  <metadata
     id="metadata3061">
    <rdf:RDF>
      <cc:Work
         rdf:about="">
        <dc:format>image/svg+xml</dc:format>
        <dc:type
           rdf:resource="http://purl.org/dc/dcmitype/StillImage" />
        <dc:title></dc:title>
      </cc:Work>
    </rdf:RDF>
  </metadata>
  <defs
     id="defs3059" />
  <sodipodi:namedview
     pagecolor="#ffffff"
     bordercolor="#666666"
     borderopacity="1"
     objecttolerance="10"
     gridtolerance="10"
     guidetolerance="10"
     inkscape:pageopacity="0"
     inkscape:pageshadow="2"
     inkscape:window-width="1366"
     inkscape:window-height="720"
     id="namedview3057"
     showgrid="false"
     fit-margin-top="0"
     fit-margin-left="0"
     fit-margin-right="0"
     fit-margin-bottom="0"
     inkscape:zoom="2"
     inkscape:cx="106.24348"
     inkscape:cy="43.405414"
     inkscape:window-x="0"
     inkscape:window-y="26"
     inkscape:window-maximized="1"
     inkscape:current-layer="svg3055" />
  <g
     id="g3161"
     transform="matrix(1.8792673,0,0,1.8792673,-44.691325,-206.20557)"
     style="fill:#000000">
    <flowRoot
       xml:space="preserve"
       id="flowRoot3189"
       style="font-size:13px;font-style:normal;font-weight:normal;line-height:125%;letter-spacing:0px;word-spacing:0px;fill:#000000;fill-opacity:1;stroke:none;font-family:Sans"
       transform="matrix(0.53212228,0,0,0.53212228,78.041091,-5.9138155)"><flowRegion
         id="flowRegion3191"><rect
           id="rect3193"
           width="350.72498"
           height="134.35028"
           x="226.27417"
           y="233.832" /></flowRegion><flowPara
         id="flowPara3195"></flowPara></flowRoot>  </g>
  <g
     id="g3213"
     style="fill:#fffedf;fill-opacity:1"
     inkscape:export-xdpi="90.599998"
     inkscape:export-ydpi="90.599998"
     transform="translate(101.96874,-217.31921)">
    <path
       inkscape:connector-curvature="0"
       id="path3149"
       style="font-size:64px;font-style:normal;font-variant:normal;font-weight:normal;font-stretch:normal;line-height:125%;letter-spacing:0px;word-spacing:0px;fill:#fffedf;fill-opacity:1;stroke:none;font-family:'Lydia Puente)';-inkscape-font-specification:'Lydia Puente)'"
       d="m 81.0625,116.41408 c 3.499939,0.37508 5.781186,1.03133 6.84375,1.96875 2.708266,2.10424 4.062431,4.60424 4.0625,7.5 l 0,0.96875 c -6.9e-5,4.0209 -2.500066,6.90631 -7.5,8.65625 -0.81256,0.20839 -1.572976,0.31256 -2.28125,0.3125 l -1.46875,0 c -2.166722,-0.37494 -3.250054,-1.18744 -3.25,-2.4375 l 0,-0.5 c -5.4e-5,-0.89577 0.708278,-1.43743 2.125,-1.625 0.270777,7e-5 1.791609,0.32298 4.5625,0.96875 4.562435,6e-5 6.843682,-2.28118 6.84375,-6.84375 -6.8e-5,-2.93743 -1.739649,-5.33326 -5.21875,-7.1875 -1.229228,-0.41659 -2.041727,-0.62492 -2.4375,-0.625 l -2.46875,0 c -4.937553,8e-5 -8.958382,3.31258 -12.0625,9.9375 -1.312544,4.25007 -2.562543,9.25006 -3.75,15 -2.229206,7.00005 -4.354204,11.94796 -6.375,14.84375 -2.125033,3.81254 -5.43753,7.94795 -9.9375,12.40625 -0.500025,0.54169 -0.885441,0.81253 -1.15625,0.8125 l 0,0.34375 c 2.145807,1.35419 5.958303,4.78127 11.4375,10.28125 7.687457,8.58334 15.239532,12.875 22.65625,12.875 l 1.96875,0 1.625,-0.15625 0,0.15625 c 4.3541,-0.83333 7.510347,-2.13541 9.46875,-3.90625 0.270762,-0.18749 0.874928,-0.89583 1.8125,-2.125 l 0.15625,0 c 0.20826,0.0208 0.312426,0.12501 0.3125,0.3125 -3.125071,4.6875 -8.614648,7.03125 -16.46875,7.03125 -4.708386,-0.64583 -7.916716,-1.45833 -9.625,-2.4375 -3.79171,-1.22916 -10.104204,-5.85416 -18.9375,-13.875 -4.479191,-3.81248 -7.031272,-5.71873 -7.65625,-5.71875 -5.229182,3.81252 -9.739595,5.71877 -13.53125,5.71875 l -0.5,0 c -3.520837,2e-5 -5.697918,-1.41665 -6.53125,-4.25 l 0,-0.96875 c 0,-2.49997 2.062497,-4.45831 6.1875,-5.875 2.312491,-0.43747 4.114573,-0.7083 5.40625,-0.8125 0.104154,3e-5 0.156238,0.0521 0.15625,0.15625 0.104154,3e-5 0.270821,-0.0521 0.5,-0.15625 2.791651,3e-5 6.270814,0.9792 10.4375,2.9375 0.39581,-0.16664 2.083308,-2.07289 5.0625,-5.71875 3.041635,-4.81246 5.541633,-9.92704 7.5,-15.34375 2.166629,-6.66661 3.791627,-12.10411 4.875,-16.3125 2.499957,-7.24993 6.04162,-12.09367 10.625,-14.53125 2.833279,-1.18742 5.01036,-1.78117 6.53125,-1.78125 m -56.3125,57.75 c -1e-6,1.39585 0.874998,2.59377 2.625,3.59375 1.645828,0.43752 2.895826,0.65627 3.75,0.65625 1.93749,2e-5 4.760404,-0.92706 8.46875,-2.78125 l 3.78125,-2.9375 c -2.916684,-1.68747 -5.854181,-2.60414 -8.8125,-2.75 l -2.125,0 c -4.500005,3e-5 -7.062502,1.40628 -7.6875,4.21875"
       transform="matrix(1.8792673,0,0,1.8792673,-146.66007,11.11364)" />
    <path
       inkscape:connector-curvature="0"
       id="path3151"
       style="font-size:64px;font-style:normal;font-variant:normal;font-weight:normal;font-stretch:normal;line-height:125%;letter-spacing:0px;word-spacing:0px;fill:#fffedf;fill-opacity:1;stroke:none;font-family:'Lydia Puente)';-inkscape-font-specification:'Lydia Puente)'"
       d="m 77.40625,150.91408 c 2.624985,5e-5 4.499983,0.51046 5.625,1.53125 l -0.375,0.1875 -0.28125,0 c -1.770849,-0.70829 -3.60418,-1.06245 -5.5,-1.0625 l -0.28125,0 c -2.208343,5e-5 -4.937507,1.36463 -8.1875,4.09375 -1.250002,1.43754 -1.875002,3.18754 -1.875,5.25 -2e-6,1.7292 1.239581,2.76045 3.71875,3.09375 l 0.875,0 c 3.729157,3e-5 6.177071,-1.81247 7.34375,-5.4375 l 0,-0.15625 c -1.4e-5,-1.39579 -0.864596,-2.18746 -2.59375,-2.375 l -2,2.375 c -0.208342,0.10421 -0.447925,0.15629 -0.71875,0.15625 l -0.15625,0 c -0.166675,4e-5 -0.458341,-0.29163 -0.875,-0.875 -7e-6,-1.37496 1.031242,-2.33329 3.09375,-2.875 2.083321,4e-5 3.33332,0.79171 3.75,2.375 0.104153,0.20837 0.156236,0.48962 0.15625,0.84375 l 0,0.15625 c -1.4e-5,1.14587 -0.406264,2.34379 -1.21875,3.59375 -0.437513,0.8542 -0.656262,1.64587 -0.65625,2.375 0.333321,0.81253 0.906237,1.21878 1.71875,1.21875 1.687484,-0.41663 4.062482,-2.06247 7.125,-4.9375 l 0.125,0 0.375,0.1875 c -1.333354,1.52087 -2.916685,2.9167 -4.75,4.1875 -1.250016,0.81253 -2.104181,1.21878 -2.5625,1.21875 l -1.03125,0 c -0.937512,3e-5 -1.552095,-0.62497 -1.84375,-1.875 l 0,-0.84375 -0.375,0 c -2.166676,1.70837 -4.64584,2.56253 -7.4375,2.5625 l -0.5,0 C 66.114582,165.88286 64.75,164.57036 64,161.94533 l 0,-0.15625 0.15625,0 L 64,161.44533 l 0,-0.8125 c 10e-7,-3.20829 2.427082,-6.10412 7.28125,-8.6875 1.749992,-0.68745 3.791657,-1.0312 6.125,-1.03125"
       transform="matrix(1.8792673,0,0,1.8792673,-146.66007,11.11364)" />
    <path
       inkscape:connector-curvature="0"
       id="path3153"
       style="font-size:64px;font-style:normal;font-variant:normal;font-weight:normal;font-stretch:normal;line-height:125%;letter-spacing:0px;word-spacing:0px;fill:#fffedf;fill-opacity:1;stroke:none;font-family:'Lydia Puente)';-inkscape-font-specification:'Lydia Puente)'"
       d="m 99.125,150.85158 c 1.43749,0.41671 2.15623,1.19796 2.15625,2.34375 -2e-5,1.50004 -1.63543,4.58337 -4.90625,9.25 -0.520843,1.12503 -0.78126,1.84378 -0.78125,2.15625 l 0,0.40625 c -1e-5,0.1667 0.18749,0.3542 0.5625,0.5625 1.979155,3e-5 4.80207,-2.36455 8.46875,-7.09375 l 0.40625,0 0,0.40625 c -3.50002,5.12503 -6.458346,7.68753 -8.875,7.6875 -0.770843,3e-5 -1.489592,-0.59372 -2.15625,-1.78125 l 0,-1.78125 c 0.374992,-1.4583 1.947907,-4.54163 4.71875,-9.25 l 0,-0.96875 c -0.04168,-0.29162 -0.375012,-0.55204 -1,-0.78125 -1.583343,5e-5 -5.447923,3.93754 -11.59375,11.8125 -0.645833,1.1667 -1.499999,1.75003 -2.5625,1.75 l -0.1875,0 c -0.39583,-0.12497 -0.593747,-0.5208 -0.59375,-1.1875 0.08334,-1.79163 2.447918,-5.98954 7.09375,-12.59375 l 0.21875,0 c 0.249996,0.0625 0.374996,0.19796 0.375,0.40625 -1.41667,1.56254 -3.583334,5.31254 -6.5,11.25 l -0.1875,0.9375 0.40625,0.21875 c 0.229168,-0.0416 2.645833,-2.86455 7.25,-8.46875 0.145828,4e-5 1.124994,-0.97912 2.9375,-2.9375 1.541657,-1.56245 3.124989,-2.3437 4.75,-2.34375"
       transform="matrix(1.8792673,0,0,1.8792673,-146.66007,11.11364)" />
    <path
       inkscape:connector-curvature="0"
       id="path3155"
       style="font-size:64px;font-style:normal;font-variant:normal;font-weight:normal;font-stretch:normal;line-height:125%;letter-spacing:0px;word-spacing:0px;fill:#fffedf;fill-opacity:1;stroke:none;font-family:'Lydia Puente)';-inkscape-font-specification:'Lydia Puente)'"
       d="m 123.78125,109.72658 0.5,0 c 4.22916,9e-5 7.92707,1.14592 11.09375,3.4375 3.22915,2.85425 4.84373,6.44799 4.84375,10.78125 l 0,0.5 c -2e-5,1.8959 -0.75002,4.69798 -2.25,8.40625 -1.81252,2.95839 -3.8021,5.82298 -5.96875,8.59375 -5.16667,6.87505 -8.36459,11.71879 -9.59375,14.53125 -0.125,4e-5 -0.1875,0.0625 -0.1875,0.1875 l 0,0.125 c 3.39583,-3.41662 6.71874,-5.12495 9.96875,-5.125 l 0.5,0 c 2.37499,0.58338 3.56248,1.79171 3.5625,3.625 l 0,0.3125 c -2e-5,2.08337 -1.25001,4.42712 -3.75,7.03125 -0.79168,0.9167 -1.18751,1.77087 -1.1875,2.5625 0.14582,0.58337 0.54166,0.87503 1.1875,0.875 1.64582,-0.0625 4.67707,-2.40622 9.09375,-7.03125 l 0.5,0 0,0.1875 c -4.70835,5.3542 -8.19793,8.03128 -10.46875,8.03125 -1.35418,-0.54164 -2.03126,-1.3958 -2.03125,-2.5625 -1e-5,-1.29163 1.07291,-3.30205 3.21875,-6.03125 0.58332,-1.49996 0.87499,-2.62496 0.875,-3.375 l 0,-0.375 c -1e-5,-1.04162 -0.85418,-1.66662 -2.5625,-1.875 l -0.6875,0 c -3.52084,4e-5 -6.71875,2.62504 -9.59375,7.875 -0.54167,0.9167 -1.16667,2.57295 -1.875,4.96875 l -0.3125,0.1875 -0.1875,-0.375 c 0.22917,-4.10413 3.36458,-11.06246 9.40625,-20.875 l 7,-11.15625 c 2.06248,-4.31243 3.09373,-7.51035 3.09375,-9.59375 l 0,-1.875 c -2e-5,-2.60409 -1.13543,-5.21867 -3.40625,-7.84375 -2.39584,-2.16658 -5.42709,-3.24991 -9.09375,-3.25 -6.85416,9e-5 -11.42708,2.84383 -13.71875,8.53125 -0.20832,1.52091 -0.31249,2.60424 -0.3125,3.25 1e-5,2.00007 1.25001,4.06257 3.75,6.1875 1.66667,0.56257 2.69792,0.84382 3.09375,0.84375 l 2.0625,0 c 3.875,-0.83326 5.81249,-2.71868 5.8125,-5.65625 0.37499,-0.99993 0.94791,-1.49993 1.71875,-1.5 0.52083,0.20841 0.81249,0.43757 0.875,0.6875 l 0,0.8125 c -0.77084,2.0834 -2.26042,3.73965 -4.46875,4.96875 -1.70834,0.91673 -3.54167,1.37507 -5.5,1.375 -3.47916,7e-5 -6.05208,-1.98951 -7.71875,-5.96875 l -0.3125,-3.25 c 0.39584,-2.58325 1.35418,-4.76034 2.875,-6.53125 2.08334,-1.79158 4.32292,-3.10408 6.71875,-3.9375 l 3.4375,-0.6875"
       transform="matrix(1.8792673,0,0,1.8792673,-146.66007,11.11364)" />
    <path
       inkscape:connector-curvature="0"
       id="path3157"
       style="font-size:64px;font-style:normal;font-variant:normal;font-weight:normal;font-stretch:normal;line-height:125%;letter-spacing:0px;word-spacing:0px;fill:#fffedf;fill-opacity:1;stroke:none;font-family:'Lydia Puente)';-inkscape-font-specification:'Lydia Puente)'"
       d="m 149.9375,150.88283 c 1.31249,5e-5 3.5104,1.41671 6.59375,4.25 1.91665,1.06254 3.61456,1.59379 5.09375,1.59375 l 0.21875,0.34375 -0.40625,0.1875 -0.21875,0 c -2.79168,4e-5 -5.90626,-1.65621 -9.34375,-4.96875 -0.91668,-0.35412 -1.62501,-0.5312 -2.125,-0.53125 -1.93751,5e-5 -3.85417,1.59379 -5.75,4.78125 -0.5625,1.31254 -0.84375,2.14587 -0.84375,2.5 l 0,0.875 c 0,2.6042 1.13541,3.90628 3.40625,3.90625 2.70833,3e-5 4.68749,-2.12496 5.9375,-6.375 -0.25001,-1.89579 -1.03126,-2.84371 -2.34375,-2.84375 l -0.40625,0 c -1.29167,4e-5 -2.21876,0.76046 -2.78125,2.28125 -1e-5,0.20837 0.34374,1.10421 1.03125,2.6875 l 0,0.15625 c -1e-5,0.62504 -0.27084,1.0417 -0.8125,1.25 l -0.4375,0 c -1.27084,4e-5 -1.90625,-0.6458 -1.90625,-1.9375 0,-1.68746 1.13541,-3.29163 3.40625,-4.8125 l 2.125,-0.15625 c 1.97916,0.31254 2.96874,1.07296 2.96875,2.28125 l 0,1.25 c -1e-5,2.87504 -1.91668,5.4167 -5.75,7.625 -0.68751,0.3542 -1.39584,0.53128 -2.125,0.53125 l -1.28125,0 c -2.39583,-0.7708 -3.59375,-2.42705 -3.59375,-4.96875 0,-3.66663 2.40625,-6.85412 7.21875,-9.5625 1.12499,-0.22912 1.83333,-0.3437 2.125,-0.34375"
       transform="matrix(1.8792673,0,0,1.8792673,-146.66007,11.11364)" />
    <path
       inkscape:connector-curvature="0"
       id="path3159"
       style="font-size:64px;font-style:normal;font-variant:normal;font-weight:normal;font-stretch:normal;line-height:125%;letter-spacing:0px;word-spacing:0px;fill:#fffedf;fill-opacity:1;stroke:none;font-family:'Lydia Puente)';-inkscape-font-specification:'Lydia Puente)'"
       d="m 171.78125,140.41408 c 0.97915,6e-5 1.68749,0.44797 2.125,1.34375 l 0,1.0625 c -1e-5,1.22922 -0.6146,1.8438 -1.84375,1.84375 l -1.0625,0 c -0.89584,-0.43745 -1.34376,-1.14578 -1.34375,-2.125 l 0,-0.5 c 0.43749,-1.08328 1.14582,-1.62494 2.125,-1.625 m -4.0625,10.53125 0.1875,0 c 0.64582,5e-5 1.06249,0.23963 1.25,0.71875 l 0,0.875 c -1e-5,0.89588 -1.67709,4.19796 -5.03125,9.90625 l -0.1875,1.25 0,0.34375 c 0,0.25003 0.17708,0.37503 0.53125,0.375 1.12499,3e-5 3.52082,-1.91663 7.1875,-5.75 l 0.1875,0 0,0.1875 c -0.95835,1.7917 -3.29168,4.06253 -7,6.8125 l -1.25,0.1875 c -1.4375,-0.12497 -2.15625,-0.78122 -2.15625,-1.96875 0,-1.29163 1.79166,-4.88538 5.375,-10.78125 l 0.1875,-0.90625 -0.1875,0 c -1.72917,4e-5 -4.42709,2.27088 -8.09375,6.8125 l -0.15625,0 c -0.25,4e-5 -0.375,-0.11455 -0.375,-0.34375 3.77083,-5.14579 6.94791,-7.7187 9.53125,-7.71875"
       transform="matrix(1.8792673,0,0,1.8792673,-146.66007,11.11364)" />
    <path
       sodipodi:nodetypes="czzzsczcccc"
       inkscape:connector-curvature="0"
       id="path3175"
       d="m 152.42664,145.77251 c -0.34067,-0.19451 -0.54185,-0.21976 -1.0342,-0.13067 -0.49237,0.0891 -0.41641,0.10937 -1.36211,0.58229 -0.94571,0.47292 -3.13795,2.52018 -3.42881,2.869 -0.29087,0.34882 -0.38755,0.65315 -0.28982,0.6843 0.2334,0.0744 2.04459,-0.96439 2.73311,-1.44504 0.90264,-0.63045 1.06447,-0.73732 1.63127,-0.90099 0.5668,-0.16367 0.78329,-0.027 1.05501,0.0636 1.00767,0.82867 1.12671,1.0371 1.93987,2.90325 0.31976,0.79086 0.56156,0.77268 0.6223,0.31359 0.19466,-1.82972 -0.98684,-3.67012 -1.86662,-4.93936 z"
       style="font-size:medium;font-style:normal;font-variant:normal;font-weight:normal;font-stretch:normal;text-indent:0;text-align:start;text-decoration:none;line-height:normal;letter-spacing:normal;word-spacing:normal;text-transform:none;direction:ltr;block-progression:tb;writing-mode:lr-tb;text-anchor:start;baseline-shift:baseline;color:#000000;fill:#fffedf;fill-opacity:1;stroke:none;stroke-width:1px;marker:none;visibility:visible;display:inline;overflow:visible;enable-background:accumulate;font-family:Sans;-inkscape-font-specification:Sans"
       transform="matrix(1.8792673,0,0,1.8792673,-146.66007,11.11364)" />
    <path
       style="font-size:medium;font-style:normal;font-variant:normal;font-weight:normal;font-stretch:normal;text-indent:0;text-align:start;text-decoration:none;line-height:normal;letter-spacing:normal;word-spacing:normal;text-transform:none;direction:ltr;block-progression:tb;writing-mode:lr-tb;text-anchor:start;baseline-shift:baseline;color:#000000;fill:#fffedf;fill-opacity:1;stroke:none;stroke-width:1px;marker:none;visibility:visible;display:inline;overflow:visible;enable-background:accumulate;font-family:Sans;-inkscape-font-specification:Sans"
       d="m 80.058009,145.37341 c -0.34067,-0.19451 -0.54185,-0.21976 -1.0342,-0.13067 -0.49237,0.0891 -0.41641,0.10937 -1.36211,0.58229 -0.94571,0.47292 -3.13795,2.52018 -3.42881,2.869 -0.29087,0.34882 -0.38755,0.65315 -0.28982,0.6843 0.2334,0.0744 2.04459,-0.96439 2.73311,-1.44504 0.90264,-0.63045 1.06447,-0.73732 1.63127,-0.90099 0.5668,-0.16367 0.78329,-0.027 1.05501,0.0636 1.00767,0.82867 1.12671,1.0371 1.93987,2.90325 0.31976,0.79086 0.56156,0.77268 0.6223,0.31359 0.19466,-1.82972 -0.98684,-3.67012 -1.86662,-4.93936 z"
       id="path3185"
       inkscape:connector-curvature="0"
       sodipodi:nodetypes="czzzsczcccc"
       transform="matrix(1.8792673,0,0,1.8792673,-146.66007,11.11364)" />
    <path
       style="fill:#fffedf;fill-opacity:1;stroke:none"
       d="m 144.55188,280.66329 c -1.0625,-1.125 -3.21875,-1.8125 -3.34375,-0.9375 -0.20502,1.43511 -0.15625,2.1875 2.96875,4.8125 3.125,2.625 4.03125,4.75 3.71875,3.3125 -0.3125,-1.4375 -2.28125,-6.0625 -3.34375,-7.1875 z"
       id="path3177"
       inkscape:connector-curvature="0"
       sodipodi:nodetypes="zsssz" />
    <path
       sodipodi:nodetypes="zsssz"
       inkscape:connector-curvature="0"
       id="path3187"
       d="m 8.5518805,279.91329 c -1.0625,-1.125 -3.21875,-1.8125 -3.34375,-0.9375 -0.20502,1.43511 -0.15625,2.1875 2.96875,4.8125 3.1250005,2.625 4.0312505,4.75 3.7187505,3.3125 -0.3125,-1.4375 -2.28125,-6.0625 -3.3437505,-7.1875 z"
       style="fill:#fffedf;fill-opacity:1;stroke:none" />
  </g>
</svg>
